<?xml version="1.0" encoding="UTF-8" standalone="no"?>
<!DOCTYPE svg PUBLIC "-//W3C//DTD SVG 1.1//EN"
"http://www.w3.org/Graphics/SVG/1.1/DTD/svg11.dtd">


<!-- Page 1 -->
<svg x="0" y="0" width="841" height="1114" viewBox="0 0 841 1114" version="1.1" xmlns="http://www.w3.org/2000/svg" xmlns:xlink="http://www.w3.org/1999/xlink"
style="display: block;margin-left: auto;margin-right: auto;">
<defs>
<clipPath id="c_1"><path d="M0,0H841V1114H0Z" /></clipPath>
<clipPath id="c0_1"><path d="M23.8,1100.9V23.8H818.3V1100.9Z" /></clipPath>

<style type="text/css"><![CDATA[
text { white-space: pre; }
path, image { pointer-events: none; }

.s1_1{
font-size: 18.33px;
font-family: Calibri_9;
fill: #000000;
}

.g0_1{
fill: #FFC000;
}
.g1_1{
fill: #4472C4;
}
.g2_1{
fill: #FF0000;
}

]]></style>

</defs>
<g clip-path="url(#c_1)">
<path d="M0,0
L0,1114
L841,1114
L841,0 Z " 
fill="#FFFFFF" stroke="none" />
<g clip-path="url(#c0_1)">
<path d="M22.3,22.2H123.1V46.7H22.3Z" class="g0_1" />
<path d="M22.3,45.2H123.1V69.6H22.3Z" class="g1_1" />
</g>
<path d="M121.6,45.2H421V69.6H121.6Z" class="g2_1" />
<path d="M717.4,45.2H818.3V69.6H717.4Z" class="g2_1" />
<g clip-path="url(#c0_1)">
<path d="M22.3,68.1H123.1V92.5H22.3Z" class="g2_1" />
</g>
<path d="M121.6,68.1H222.4V92.5H121.6Z" class="g1_1" />
<path d="M419.5,68.1H719V92.5H419.5Z" class="g2_1" />
<g clip-path="url(#c0_1)">
<path d="M22.3,91H123.1v24.4H22.3Z" class="g2_1" />
</g>
<path d="M220.9,91H321.7v24.4H220.9Z" class="g1_1" />
<path d="M419.5,91H719v24.4H419.5Z" class="g2_1" />
<g clip-path="url(#c0_1)">
<path d="M22.3,113.9H123.1v24.5H22.3Z" class="g2_1" />
</g>
<path d="M320.2,113.9H421v24.5H320.2Z" class="g1_1" />
<path d="M419.5,113.9H719v24.5H419.5Z" class="g2_1" />
<path d="M121.6,136.8H421v24.5H121.6Z" class="g2_1" />
<path d="M419.5,136.8H520.3v24.5H419.5Z" class="g1_1" />
<path d="M717.4,136.8H818.3v24.5H717.4Z" class="g2_1" />
<path d="M121.6,159.7H421v24.5H121.6Z" class="g2_1" />
<path d="M518.8,159.7H619.6v24.5H518.8Z" class="g1_1" />
<path d="M717.4,159.7H818.3v24.5H717.4Z" class="g2_1" />
<path d="M121.6,182.7H421v24.4H121.6Z" class="g2_1" />
<path d="M618.1,182.7H719v24.4H618.1Z" class="g1_1" />
<path d="M717.4,182.7H818.3v24.4H717.4Z" class="g2_1" />
<g clip-path="url(#c0_1)">
<path d="M22.3,205.6H123.1V230H22.3Z" class="g2_1" />
</g>
<path d="M419.5,205.6H719V230H419.5Z" class="g2_1" />
<path d="M717.4,205.6H818.3V230H717.4Z" class="g1_1" />
<g clip-path="url(#c0_1)">
<path d="M22.3,228.5H123.1v24.4H22.3Z" class="g0_1" />
<path d="M22.3,457.7H123.1v24.4H22.3Z" class="g0_1" />
<path d="M22.3,480.6H123.1V505H22.3Z" class="g1_1" />
</g>
<path d="M121.6,480.6H421V505H121.6Z" class="g2_1" />
<path d="M717.4,480.6H818.3V505H717.4Z" class="g2_1" />
<g clip-path="url(#c0_1)">
<path d="M22.3,503.5H123.1v24.4H22.3Z" class="g2_1" />
</g>
<path d="M121.6,503.5H222.4v24.4H121.6Z" class="g1_1" />
<path d="M419.5,503.5H719v24.4H419.5Z" class="g2_1" />
<g clip-path="url(#c0_1)">
<path d="M22.3,526.4H123.1v24.5H22.3Z" class="g2_1" />
</g>
<path d="M220.9,526.4H321.7v24.5H220.9Z" class="g1_1" />
<path d="M419.5,526.4H719v24.5H419.5Z" class="g2_1" />
<g clip-path="url(#c0_1)">
<path d="M22.3,549.3H123.1v24.5H22.3Z" class="g2_1" />
</g>
<path d="M320.2,549.3H421v24.5H320.2Z" class="g1_1" />
<path d="M419.5,549.3H719v24.5H419.5Z" class="g2_1" />
<path d="M121.6,572.2H421v24.5H121.6Z" class="g2_1" />
<path d="M419.5,572.2H520.3v24.5H419.5Z" class="g1_1" />
<path d="M717.4,572.2H818.3v24.5H717.4Z" class="g2_1" />
<path d="M121.6,595.2H421v24.4H121.6Z" class="g2_1" />
<path d="M518.8,595.2H619.6v24.4H518.8Z" class="g1_1" />
<path d="M717.4,595.2H818.3v24.4H717.4Z" class="g2_1" />
<path d="M121.6,618.1H421v24.4H121.6Z" class="g2_1" />
<path d="M618.1,618.1H719v24.4H618.1Z" class="g1_1" />
<path d="M717.4,618.1H818.3v24.4H717.4Z" class="g2_1" />
<g clip-path="url(#c0_1)">
<path d="M22.3,641H123.1v24.4H22.3Z" class="g2_1" />
</g>
<path d="M419.5,641H719v24.4H419.5Z" class="g2_1" />
<path d="M717.4,641H818.3v24.4H717.4Z" class="g1_1" />
<g clip-path="url(#c0_1)">
<path d="M22.3,663.9H123.1v24.5H22.3Z" class="g0_1" />
<path d="M22.3,893.1H321.7v24.4H22.3Z" class="g0_1" />
</g>
<text x="26" y="40" dx="0,0.7,0.4,-0.3" class="s1_1">Bare</text>
<text x="62" y="63" dx="0,0.5,-0.1,0,-0.1,-0.1,-0.1" class="s1_1">-0.9552</text>
<text x="167" y="63" dx="0,-0.1,0,-0.1,-0.1,-0.1" class="s1_1">0.1345</text>
<text x="266" y="63" dx="0,-0.1,0,-0.1,-0.1,-0.1" class="s1_1">0.1346</text>
<text x="366" y="63" dx="0,-0.1,0,-0.1,-0.1,-0.1" class="s1_1">0.1346</text>
<text x="474" y="63" dx="0,-0.1,0,-0.1,-0.1" class="s1_1">0.089</text>
<text x="564" y="63" dx="0,-0.1,0,-0.1,-0.1,-0.1" class="s1_1">0.0891</text>
<text x="663" y="63" dx="0,-0.1,0,-0.1,-0.1,-0.1" class="s1_1">0.0893</text>
<text x="763" y="63" dx="0,-0.1,0,-0.1,-0.1,-0.1" class="s1_1">0.1345</text>
<text x="68" y="86" dx="0,-0.1,0,-0.1,-0.1,-0.1" class="s1_1">0.1345</text>
<text x="161" y="86" dx="0,0.5,-0.1,0,-0.1,-0.1,-0.1" class="s1_1">-0.9552</text>
<text x="275" y="86" dx="0,-0.1,0,-0.1,-0.1" class="s1_1">0.089</text>
<text x="366" y="86" dx="0,-0.1,0,-0.1,-0.1,-0.1" class="s1_1">0.0893</text>
<text x="465" y="86" dx="0,-0.1,0,-0.1,-0.1,-0.1" class="s1_1">0.1346</text>
<text x="564" y="86" dx="0,-0.1,0,-0.1,-0.1,-0.1" class="s1_1">0.1345</text>
<text x="663" y="86" dx="0,-0.1,0,-0.1,-0.1,-0.1" class="s1_1">0.1346</text>
<text x="763" y="86" dx="0,-0.1,0,-0.1,-0.1,-0.1" class="s1_1">0.0891</text>
<text x="68" y="109" dx="0,-0.1,0,-0.1,-0.1,-0.1" class="s1_1">0.1346</text>
<text x="176" y="109" dx="0,-0.1,0,-0.1,-0.1" class="s1_1">0.089</text>
<text x="260" y="109" dx="0,0.5,-0.1,0,-0.1,-0.1,-0.1" class="s1_1">-0.9552</text>
<text x="366" y="109" dx="0,-0.1,0,-0.1,-0.1,-0.1" class="s1_1">0.0891</text>
<text x="465" y="109" dx="0,-0.1,0,-0.1,-0.1,-0.1" class="s1_1">0.1345</text>
<text x="564" y="109" dx="0,-0.1,0,-0.1,-0.1,-0.1" class="s1_1">0.1346</text>
<text x="663" y="109" dx="0,-0.1,0,-0.1,-0.1,-0.1" class="s1_1">0.1345</text>
<text x="763" y="109" dx="0,-0.1,0,-0.1,-0.1,-0.1" class="s1_1">0.0893</text>
<text x="68" y="132" dx="0,-0.1,0,-0.1,-0.1,-0.1" class="s1_1">0.1346</text>
<text x="167" y="132" dx="0,-0.1,0,-0.1,-0.1,-0.1" class="s1_1">0.0893</text>
<text x="266" y="132" dx="0,-0.1,0,-0.1,-0.1,-0.1" class="s1_1">0.0891</text>
<text x="359" y="132" dx="0,0.5,-0.1,0,-0.1,-0.1,-0.1" class="s1_1">-0.9552</text>
<text x="465" y="132" dx="0,-0.1,0,-0.1,-0.1,-0.1" class="s1_1">0.1345</text>
<text x="564" y="132" dx="0,-0.1,0,-0.1,-0.1,-0.1" class="s1_1">0.1346</text>
<text x="663" y="132" dx="0,-0.1,0,-0.1,-0.1,-0.1" class="s1_1">0.1345</text>
<text x="772" y="132" dx="0,-0.1,0,-0.1,-0.1" class="s1_1">0.089</text>
<text x="77" y="155" dx="0,-0.1,0,-0.1,-0.1" class="s1_1">0.089</text>
<text x="167" y="155" dx="0,-0.1,0,-0.1,-0.1,-0.1" class="s1_1">0.1346</text>
<text x="266" y="155" dx="0,-0.1,0,-0.1,-0.1,-0.1" class="s1_1">0.1345</text>
<text x="366" y="155" dx="0,-0.1,0,-0.1,-0.1,-0.1" class="s1_1">0.1345</text>
<text x="459" y="155" dx="0,0.5,-0.1,0,-0.1,-0.1,-0.1" class="s1_1">-0.9552</text>
<text x="564" y="155" dx="0,-0.1,0,-0.1,-0.1,-0.1" class="s1_1">0.0893</text>
<text x="663" y="155" dx="0,-0.1,0,-0.1,-0.1,-0.1" class="s1_1">0.0891</text>
<text x="763" y="155" dx="0,-0.1,0,-0.1,-0.1,-0.1" class="s1_1">0.1346</text>
<text x="68" y="178" dx="0,-0.1,0,-0.1,-0.1,-0.1" class="s1_1">0.0891</text>
<text x="167" y="178" dx="0,-0.1,0,-0.1,-0.1,-0.1" class="s1_1">0.1345</text>
<text x="266" y="178" dx="0,-0.1,0,-0.1,-0.1,-0.1" class="s1_1">0.1346</text>
<text x="366" y="178" dx="0,-0.1,0,-0.1,-0.1,-0.1" class="s1_1">0.1346</text>
<text x="465" y="178" dx="0,-0.1,0,-0.1,-0.1,-0.1" class="s1_1">0.0893</text>
<text x="558" y="178" dx="0,0.5,-0.1,0,-0.1,-0.1,-0.1" class="s1_1">-0.9552</text>
<text x="673" y="178" dx="0,-0.1,0,-0.1,-0.1" class="s1_1">0.089</text>
<text x="763" y="178" dx="0,-0.1,0,-0.1,-0.1,-0.1" class="s1_1">0.1345</text>
<text x="68" y="200" dx="0,-0.1,0,-0.1,-0.1,-0.1" class="s1_1">0.0893</text>
<text x="167" y="200" dx="0,-0.1,0,-0.1,-0.1,-0.1" class="s1_1">0.1346</text>
<text x="266" y="200" dx="0,-0.1,0,-0.1,-0.1,-0.1" class="s1_1">0.1345</text>
<text x="366" y="200" dx="0,-0.1,0,-0.1,-0.1,-0.1" class="s1_1">0.1345</text>
<text x="465" y="200" dx="0,-0.1,0,-0.1,-0.1,-0.1" class="s1_1">0.0891</text>
<text x="573" y="200" dx="0,-0.1,0,-0.1,-0.1" class="s1_1">0.089</text>
<text x="657" y="200" dx="0,0.5,-0.1,0,-0.1,-0.1,-0.1" class="s1_1">-0.9552</text>
<text x="763" y="200" dx="0,-0.1,0,-0.1,-0.1,-0.1" class="s1_1">0.1346</text>
<text x="68" y="223" dx="0,-0.1,0,-0.1,-0.1,-0.1" class="s1_1">0.1345</text>
<text x="167" y="223" dx="0,-0.1,0,-0.1,-0.1,-0.1" class="s1_1">0.0891</text>
<text x="266" y="223" dx="0,-0.1,0,-0.1,-0.1,-0.1" class="s1_1">0.0893</text>
<text x="375" y="223" dx="0,-0.1,0,-0.1,-0.1" class="s1_1">0.089</text>
<text x="465" y="223" dx="0,-0.1,0,-0.1,-0.1,-0.1" class="s1_1">0.1346</text>
<text x="564" y="223" dx="0,-0.1,0,-0.1,-0.1,-0.1" class="s1_1">0.1345</text>
<text x="663" y="223" dx="0,-0.1,0,-0.1,-0.1,-0.1" class="s1_1">0.1346</text>
<text x="757" y="223" dx="0,0.5,-0.1,0,-0.1,-0.1,-0.1" class="s1_1">-0.9552</text>
<text x="26" y="246" dx="0,0.7,0.4,-0.3,0,0,0.5" class="s1_1">Bare^-1</text>
<text x="34" y="269" dx="0,0.5,-0.1,0,-0.1,-0.1,-0.1,-0.1,-0.1,-0.1" class="s1_1">-1.6556806</text>
<text x="133" y="269" dx="0,0.5,-0.1,0,-0.1,-0.1,-0.1,-0.1,-0.1,-0.1" class="s1_1">-0.7335581</text>
<text x="233" y="269" dx="0,0.5,-0.1,0,-0.1,-0.1,-0.1,-0.1,-0.1,-0.1" class="s1_1">-0.7336498</text>
<text x="332" y="269" dx="0,0.5,-0.1,0,-0.1,-0.1,-0.1,-0.1,-0.1,-0.1" class="s1_1">-0.7336498</text>
<text x="431" y="269" dx="0,0.5,-0.1,0,-0.1,-0.1,-0.1,-0.1,-0.1,-0.1" class="s1_1">-0.6980096</text>
<text x="531" y="269" dx="0,0.5,-0.1,0,-0.1,-0.1,-0.1,-0.1,-0.1,-0.1" class="s1_1">-0.6981013</text>
<text x="630" y="269" dx="0,0.5,-0.1,0,-0.1,-0.1,-0.1,-0.1,-0.1,-0.1" class="s1_1">-0.6982847</text>
<text x="729" y="269" dx="0,0.5,-0.1,0,-0.1,-0.1,-0.1,-0.1,-0.1,-0.1" class="s1_1">-0.7335581</text>
<text x="34" y="292" dx="0,0.5,-0.1,0,-0.1,-0.1,-0.1,-0.1,-0.1,-0.1" class="s1_1">-0.7335581</text>
<text x="133" y="292" dx="0,0.5,-0.1,0,-0.1,-0.1,-0.1,-0.1,-0.1,-0.1" class="s1_1">-1.6556806</text>
<text x="233" y="292" dx="0,0.5,-0.1,0,-0.1,-0.1,-0.1,-0.1,-0.1,-0.1" class="s1_1">-0.6980096</text>
<text x="332" y="292" dx="0,0.5,-0.1,0,-0.1,-0.1,-0.1,-0.1,-0.1,-0.1" class="s1_1">-0.6982847</text>
<text x="431" y="292" dx="0,0.5,-0.1,0,-0.1,-0.1,-0.1,-0.1,-0.1,-0.1" class="s1_1">-0.7336498</text>
<text x="531" y="292" dx="0,0.5,-0.1,0,-0.1,-0.1,-0.1,-0.1,-0.1,-0.1" class="s1_1">-0.7335581</text>
<text x="630" y="292" dx="0,0.5,-0.1,0,-0.1,-0.1,-0.1,-0.1,-0.1,-0.1" class="s1_1">-0.7336498</text>
<text x="729" y="292" dx="0,0.5,-0.1,0,-0.1,-0.1,-0.1,-0.1,-0.1,-0.1" class="s1_1">-0.6981013</text>
<text x="34" y="315" dx="0,0.5,-0.1,0,-0.1,-0.1,-0.1,-0.1,-0.1,-0.1" class="s1_1">-0.7336498</text>
<text x="133" y="315" dx="0,0.5,-0.1,0,-0.1,-0.1,-0.1,-0.1,-0.1,-0.1" class="s1_1">-0.6980096</text>
<text x="233" y="315" dx="0,0.5,-0.1,0,-0.1,-0.1,-0.1,-0.1,-0.1,-0.1" class="s1_1">-1.6556806</text>
<text x="332" y="315" dx="0,0.5,-0.1,0,-0.1,-0.1,-0.1,-0.1,-0.1,-0.1" class="s1_1">-0.6981013</text>
<text x="431" y="315" dx="0,0.5,-0.1,0,-0.1,-0.1,-0.1,-0.1,-0.1,-0.1" class="s1_1">-0.7335581</text>
<text x="531" y="315" dx="0,0.5,-0.1,0,-0.1,-0.1,-0.1,-0.1,-0.1,-0.1" class="s1_1">-0.7336498</text>
<text x="630" y="315" dx="0,0.5,-0.1,0,-0.1,-0.1,-0.1,-0.1,-0.1,-0.1" class="s1_1">-0.7335581</text>
<text x="729" y="315" dx="0,0.5,-0.1,0,-0.1,-0.1,-0.1,-0.1,-0.1,-0.1" class="s1_1">-0.6982847</text>
<text x="34" y="338" dx="0,0.5,-0.1,0,-0.1,-0.1,-0.1,-0.1,-0.1,-0.1" class="s1_1">-0.7336498</text>
<text x="133" y="338" dx="0,0.5,-0.1,0,-0.1,-0.1,-0.1,-0.1,-0.1,-0.1" class="s1_1">-0.6982847</text>
<text x="233" y="338" dx="0,0.5,-0.1,0,-0.1,-0.1,-0.1,-0.1,-0.1,-0.1" class="s1_1">-0.6981013</text>
<text x="332" y="338" dx="0,0.5,-0.1,0,-0.1,-0.1,-0.1,-0.1,-0.1,-0.1" class="s1_1">-1.6556806</text>
<text x="431" y="338" dx="0,0.5,-0.1,0,-0.1,-0.1,-0.1,-0.1,-0.1,-0.1" class="s1_1">-0.7335581</text>
<text x="531" y="338" dx="0,0.5,-0.1,0,-0.1,-0.1,-0.1,-0.1,-0.1,-0.1" class="s1_1">-0.7336498</text>
<text x="630" y="338" dx="0,0.5,-0.1,0,-0.1,-0.1,-0.1,-0.1,-0.1,-0.1" class="s1_1">-0.7335581</text>
<text x="729" y="338" dx="0,0.5,-0.1,0,-0.1,-0.1,-0.1,-0.1,-0.1,-0.1" class="s1_1">-0.6980096</text>
<text x="34" y="361" dx="0,0.5,-0.1,0,-0.1,-0.1,-0.1,-0.1,-0.1,-0.1" class="s1_1">-0.6980096</text>
<text x="133" y="361" dx="0,0.5,-0.1,0,-0.1,-0.1,-0.1,-0.1,-0.1,-0.1" class="s1_1">-0.7336498</text>
<text x="233" y="361" dx="0,0.5,-0.1,0,-0.1,-0.1,-0.1,-0.1,-0.1,-0.1" class="s1_1">-0.7335581</text>
<text x="332" y="361" dx="0,0.5,-0.1,0,-0.1,-0.1,-0.1,-0.1,-0.1,-0.1" class="s1_1">-0.7335581</text>
<text x="431" y="361" dx="0,0.5,-0.1,0,-0.1,-0.1,-0.1,-0.1,-0.1,-0.1" class="s1_1">-1.6556806</text>
<text x="531" y="361" dx="0,0.5,-0.1,0,-0.1,-0.1,-0.1,-0.1,-0.1,-0.1" class="s1_1">-0.6982847</text>
<text x="630" y="361" dx="0,0.5,-0.1,0,-0.1,-0.1,-0.1,-0.1,-0.1,-0.1" class="s1_1">-0.6981013</text>
<text x="729" y="361" dx="0,0.5,-0.1,0,-0.1,-0.1,-0.1,-0.1,-0.1,-0.1" class="s1_1">-0.7336498</text>
<text x="34" y="384" dx="0,0.5,-0.1,0,-0.1,-0.1,-0.1,-0.1,-0.1,-0.1" class="s1_1">-0.6981013</text>
<text x="133" y="384" dx="0,0.5,-0.1,0,-0.1,-0.1,-0.1,-0.1,-0.1,-0.1" class="s1_1">-0.7335581</text>
<text x="233" y="384" dx="0,0.5,-0.1,0,-0.1,-0.1,-0.1,-0.1,-0.1,-0.1" class="s1_1">-0.7336498</text>
<text x="332" y="384" dx="0,0.5,-0.1,0,-0.1,-0.1,-0.1,-0.1,-0.1,-0.1" class="s1_1">-0.7336498</text>
<text x="431" y="384" dx="0,0.5,-0.1,0,-0.1,-0.1,-0.1,-0.1,-0.1,-0.1" class="s1_1">-0.6982847</text>
<text x="531" y="384" dx="0,0.5,-0.1,0,-0.1,-0.1,-0.1,-0.1,-0.1,-0.1" class="s1_1">-1.6556806</text>
<text x="630" y="384" dx="0,0.5,-0.1,0,-0.1,-0.1,-0.1,-0.1,-0.1,-0.1" class="s1_1">-0.6980096</text>
<text x="729" y="384" dx="0,0.5,-0.1,0,-0.1,-0.1,-0.1,-0.1,-0.1,-0.1" class="s1_1">-0.7335581</text>
<text x="34" y="407" dx="0,0.5,-0.1,0,-0.1,-0.1,-0.1,-0.1,-0.1,-0.1" class="s1_1">-0.6982847</text>
<text x="133" y="407" dx="0,0.5,-0.1,0,-0.1,-0.1,-0.1,-0.1,-0.1,-0.1" class="s1_1">-0.7336498</text>
<text x="233" y="407" dx="0,0.5,-0.1,0,-0.1,-0.1,-0.1,-0.1,-0.1,-0.1" class="s1_1">-0.7335581</text>
<text x="332" y="407" dx="0,0.5,-0.1,0,-0.1,-0.1,-0.1,-0.1,-0.1,-0.1" class="s1_1">-0.7335581</text>
<text x="431" y="407" dx="0,0.5,-0.1,0,-0.1,-0.1,-0.1,-0.1,-0.1,-0.1" class="s1_1">-0.6981013</text>
<text x="531" y="407" dx="0,0.5,-0.1,0,-0.1,-0.1,-0.1,-0.1,-0.1,-0.1" class="s1_1">-0.6980096</text>
<text x="630" y="407" dx="0,0.5,-0.1,0,-0.1,-0.1,-0.1,-0.1,-0.1,-0.1" class="s1_1">-1.6556806</text>
<text x="729" y="407" dx="0,0.5,-0.1,0,-0.1,-0.1,-0.1,-0.1,-0.1,-0.1" class="s1_1">-0.7336498</text>
<text x="34" y="430" dx="0,0.5,-0.1,0,-0.1,-0.1,-0.1,-0.1,-0.1,-0.1" class="s1_1">-0.7335581</text>
<text x="133" y="430" dx="0,0.5,-0.1,0,-0.1,-0.1,-0.1,-0.1,-0.1,-0.1" class="s1_1">-0.6981013</text>
<text x="233" y="430" dx="0,0.5,-0.1,0,-0.1,-0.1,-0.1,-0.1,-0.1,-0.1" class="s1_1">-0.6982847</text>
<text x="332" y="430" dx="0,0.5,-0.1,0,-0.1,-0.1,-0.1,-0.1,-0.1,-0.1" class="s1_1">-0.6980096</text>
<text x="431" y="430" dx="0,0.5,-0.1,0,-0.1,-0.1,-0.1,-0.1,-0.1,-0.1" class="s1_1">-0.7336498</text>
<text x="531" y="430" dx="0,0.5,-0.1,0,-0.1,-0.1,-0.1,-0.1,-0.1,-0.1" class="s1_1">-0.7335581</text>
<text x="630" y="430" dx="0,0.5,-0.1,0,-0.1,-0.1,-0.1,-0.1,-0.1,-0.1" class="s1_1">-0.7336498</text>
<text x="729" y="430" dx="0,0.5,-0.1,0,-0.1,-0.1,-0.1,-0.1,-0.1,-0.1" class="s1_1">-1.6556806</text>
<text x="109" y="453" class="s1_1">1</text>
<text x="208" y="453" class="s1_1">2</text>
<text x="307" y="453" class="s1_1">3</text>
<text x="407" y="453" class="s1_1">4</text>
<text x="506" y="453" class="s1_1">5</text>
<text x="605" y="453" class="s1_1">6</text>
<text x="705" y="453" class="s1_1">7</text>
<text x="804" y="453" class="s1_1">8</text>
<text x="26" y="475" dx="0,0,-0.5,0,0,-0.3,0.4,-0.1,0,0.4,-0.6" class="s1_1">Interactive</text>
<text x="62" y="498" dx="0,0.5,-0.1,0,-0.1,-0.1,-0.1" class="s1_1">-0.2306</text>
<text x="167" y="498" dx="0,-0.1,0,-0.1,-0.1,-0.1" class="s1_1">0.0227</text>
<text x="266" y="498" dx="0,-0.1,0,-0.1,-0.1,-0.1" class="s1_1">0.0228</text>
<text x="366" y="498" dx="0,-0.1,0,-0.1,-0.1,-0.1" class="s1_1">0.0227</text>
<text x="465" y="498" dx="0,-0.1,0,-0.1,-0.1,-0.1" class="s1_1">0.0052</text>
<text x="564" y="498" dx="0,-0.1,0,-0.1,-0.1,-0.1" class="s1_1">0.0052</text>
<text x="663" y="498" dx="0,-0.1,0,-0.1,-0.1,-0.1" class="s1_1">0.0053</text>
<text x="763" y="498" dx="0,-0.1,0,-0.1,-0.1,-0.1" class="s1_1">0.0228</text>
<text x="68" y="521" dx="0,-0.1,0,-0.1,-0.1,-0.1" class="s1_1">0.0227</text>
<text x="161" y="521" dx="0,0.5,-0.1,0,-0.1,-0.1,-0.1" class="s1_1">-0.2306</text>
<text x="266" y="521" dx="0,-0.1,0,-0.1,-0.1,-0.1" class="s1_1">0.0052</text>
<text x="366" y="521" dx="0,-0.1,0,-0.1,-0.1,-0.1" class="s1_1">0.0053</text>
<text x="465" y="521" dx="0,-0.1,0,-0.1,-0.1,-0.1" class="s1_1">0.0228</text>
<text x="564" y="521" dx="0,-0.1,0,-0.1,-0.1,-0.1" class="s1_1">0.0228</text>
<text x="663" y="521" dx="0,-0.1,0,-0.1,-0.1,-0.1" class="s1_1">0.0227</text>
<text x="763" y="521" dx="0,-0.1,0,-0.1,-0.1,-0.1" class="s1_1">0.0052</text>
<text x="68" y="544" dx="0,-0.1,0,-0.1,-0.1,-0.1" class="s1_1">0.0228</text>
<text x="167" y="544" dx="0,-0.1,0,-0.1,-0.1,-0.1" class="s1_1">0.0052</text>
<text x="260" y="544" dx="0,0.5,-0.1,0,-0.1,-0.1,-0.1" class="s1_1">-0.2306</text>
<text x="366" y="544" dx="0,-0.1,0,-0.1,-0.1,-0.1" class="s1_1">0.0052</text>
<text x="465" y="544" dx="0,-0.1,0,-0.1,-0.1,-0.1" class="s1_1">0.0227</text>
<text x="564" y="544" dx="0,-0.1,0,-0.1,-0.1,-0.1" class="s1_1">0.0227</text>
<text x="663" y="544" dx="0,-0.1,0,-0.1,-0.1,-0.1" class="s1_1">0.0228</text>
<text x="763" y="544" dx="0,-0.1,0,-0.1,-0.1,-0.1" class="s1_1">0.0053</text>
<text x="68" y="567" dx="0,-0.1,0,-0.1,-0.1,-0.1" class="s1_1">0.0227</text>
<text x="167" y="567" dx="0,-0.1,0,-0.1,-0.1,-0.1" class="s1_1">0.0053</text>
<text x="266" y="567" dx="0,-0.1,0,-0.1,-0.1,-0.1" class="s1_1">0.0052</text>
<text x="359" y="567" dx="0,0.5,-0.1,0,-0.1,-0.1,-0.1" class="s1_1">-0.2306</text>
<text x="465" y="567" dx="0,-0.1,0,-0.1,-0.1,-0.1" class="s1_1">0.0228</text>
<text x="564" y="567" dx="0,-0.1,0,-0.1,-0.1,-0.1" class="s1_1">0.0228</text>
<text x="663" y="567" dx="0,-0.1,0,-0.1,-0.1,-0.1" class="s1_1">0.0227</text>
<text x="763" y="567" dx="0,-0.1,0,-0.1,-0.1,-0.1" class="s1_1">0.0052</text>
<text x="68" y="590" dx="0,-0.1,0,-0.1,-0.1,-0.1" class="s1_1">0.0052</text>
<text x="167" y="590" dx="0,-0.1,0,-0.1,-0.1,-0.1" class="s1_1">0.0228</text>
<text x="266" y="590" dx="0,-0.1,0,-0.1,-0.1,-0.1" class="s1_1">0.0227</text>
<text x="366" y="590" dx="0,-0.1,0,-0.1,-0.1,-0.1" class="s1_1">0.0228</text>
<text x="459" y="590" dx="0,0.5,-0.1,0,-0.1,-0.1,-0.1" class="s1_1">-0.2306</text>
<text x="564" y="590" dx="0,-0.1,0,-0.1,-0.1,-0.1" class="s1_1">0.0053</text>
<text x="663" y="590" dx="0,-0.1,0,-0.1,-0.1,-0.1" class="s1_1">0.0052</text>
<text x="763" y="590" dx="0,-0.1,0,-0.1,-0.1,-0.1" class="s1_1">0.0227</text>
<text x="68" y="613" dx="0,-0.1,0,-0.1,-0.1,-0.1" class="s1_1">0.0052</text>
<text x="167" y="613" dx="0,-0.1,0,-0.1,-0.1,-0.1" class="s1_1">0.0228</text>
<text x="266" y="613" dx="0,-0.1,0,-0.1,-0.1,-0.1" class="s1_1">0.0227</text>
<text x="366" y="613" dx="0,-0.1,0,-0.1,-0.1,-0.1" class="s1_1">0.0228</text>
<text x="465" y="613" dx="0,-0.1,0,-0.1,-0.1,-0.1" class="s1_1">0.0053</text>
<text x="558" y="613" dx="0,0.5,-0.1,0,-0.1,-0.1,-0.1" class="s1_1">-0.2306</text>
<text x="663" y="613" dx="0,-0.1,0,-0.1,-0.1,-0.1" class="s1_1">0.0052</text>
<text x="763" y="613" dx="0,-0.1,0,-0.1,-0.1,-0.1" class="s1_1">0.0227</text>
<text x="68" y="636" dx="0,-0.1,0,-0.1,-0.1,-0.1" class="s1_1">0.0053</text>
<text x="167" y="636" dx="0,-0.1,0,-0.1,-0.1,-0.1" class="s1_1">0.0227</text>
<text x="266" y="636" dx="0,-0.1,0,-0.1,-0.1,-0.1" class="s1_1">0.0228</text>
<text x="366" y="636" dx="0,-0.1,0,-0.1,-0.1,-0.1" class="s1_1">0.0227</text>
<text x="465" y="636" dx="0,-0.1,0,-0.1,-0.1,-0.1" class="s1_1">0.0052</text>
<text x="564" y="636" dx="0,-0.1,0,-0.1,-0.1,-0.1" class="s1_1">0.0052</text>
<text x="657" y="636" dx="0,0.5,-0.1,0,-0.1,-0.1,-0.1" class="s1_1">-0.2306</text>
<text x="763" y="636" dx="0,-0.1,0,-0.1,-0.1,-0.1" class="s1_1">0.0228</text>
<text x="68" y="659" dx="0,-0.1,0,-0.1,-0.1,-0.1" class="s1_1">0.0228</text>
<text x="167" y="659" dx="0,-0.1,0,-0.1,-0.1,-0.1" class="s1_1">0.0052</text>
<text x="266" y="659" dx="0,-0.1,0,-0.1,-0.1,-0.1" class="s1_1">0.0053</text>
<text x="366" y="659" dx="0,-0.1,0,-0.1,-0.1,-0.1" class="s1_1">0.0052</text>
<text x="465" y="659" dx="0,-0.1,0,-0.1,-0.1,-0.1" class="s1_1">0.0227</text>
<text x="564" y="659" dx="0,-0.1,0,-0.1,-0.1,-0.1" class="s1_1">0.0227</text>
<text x="663" y="659" dx="0,-0.1,0,-0.1,-0.1,-0.1" class="s1_1">0.0228</text>
<text x="757" y="659" dx="0,0.5,-0.1,0,-0.1,-0.1,-0.1" class="s1_1">-0.2306</text>
<text x="26" y="682" dx="0,0,-0.5,0,0,-0.3,0.4,-0.1,0,0.4,-0.6,0,0,0.5" class="s1_1">Interactive^-1</text>
<text x="34" y="705" dx="0,0.5,-0.1,0,-0.1,-0.1,-0.1,-0.1,-0.1,-0.1" class="s1_1">-4.5977217</text>
<text x="133" y="705" dx="0,0.5,-0.1,0,-0.1,-0.1,-0.1,-0.1,-0.1,-0.1" class="s1_1">-0.5993478</text>
<text x="233" y="705" dx="0,0.5,-0.1,0,-0.1,-0.1,-0.1,-0.1,-0.1,-0.1" class="s1_1">-0.6011479</text>
<text x="332" y="705" dx="0,0.5,-0.1,0,-0.1,-0.1,-0.1,-0.1,-0.1,-0.1" class="s1_1">-0.5993478</text>
<text x="431" y="705" dx="0,0.5,-0.1,0,-0.1,-0.1,-0.1,-0.1,-0.1,-0.1" class="s1_1">-0.3568373</text>
<text x="531" y="705" dx="0,0.5,-0.1,0,-0.1,-0.1,-0.1,-0.1,-0.1,-0.1" class="s1_1">-0.3568373</text>
<text x="630" y="705" dx="0,0.5,-0.1,0,-0.1,-0.1,-0.1,-0.1,-0.1,-0.1" class="s1_1">-0.3586373</text>
<text x="729" y="705" dx="0,0.5,-0.1,0,-0.1,-0.1,-0.1,-0.1,-0.1,-0.1" class="s1_1">-0.6011479</text>
<text x="34" y="728" dx="0,0.5,-0.1,0,-0.1,-0.1,-0.1,-0.1,-0.1,-0.1" class="s1_1">-0.5993478</text>
<text x="133" y="728" dx="0,0.5,-0.1,0,-0.1,-0.1,-0.1,-0.1,-0.1,-0.1" class="s1_1">-4.5977217</text>
<text x="233" y="728" dx="0,0.5,-0.1,0,-0.1,-0.1,-0.1,-0.1,-0.1,-0.1" class="s1_1">-0.3568373</text>
<text x="332" y="728" dx="0,0.5,-0.1,0,-0.1,-0.1,-0.1,-0.1,-0.1,-0.1" class="s1_1">-0.3586373</text>
<text x="431" y="728" dx="0,0.5,-0.1,0,-0.1,-0.1,-0.1,-0.1,-0.1,-0.1" class="s1_1">-0.6011479</text>
<text x="531" y="728" dx="0,0.5,-0.1,0,-0.1,-0.1,-0.1,-0.1,-0.1,-0.1" class="s1_1">-0.6011479</text>
<text x="630" y="728" dx="0,0.5,-0.1,0,-0.1,-0.1,-0.1,-0.1,-0.1,-0.1" class="s1_1">-0.5993478</text>
<text x="729" y="728" dx="0,0.5,-0.1,0,-0.1,-0.1,-0.1,-0.1,-0.1,-0.1" class="s1_1">-0.3568373</text>
<text x="34" y="750" dx="0,0.5,-0.1,0,-0.1,-0.1,-0.1,-0.1,-0.1,-0.1" class="s1_1">-0.6011479</text>
<text x="133" y="750" dx="0,0.5,-0.1,0,-0.1,-0.1,-0.1,-0.1,-0.1,-0.1" class="s1_1">-0.3568373</text>
<text x="233" y="750" dx="0,0.5,-0.1,0,-0.1,-0.1,-0.1,-0.1,-0.1,-0.1" class="s1_1">-4.5977217</text>
<text x="332" y="750" dx="0,0.5,-0.1,0,-0.1,-0.1,-0.1,-0.1,-0.1,-0.1" class="s1_1">-0.3568373</text>
<text x="431" y="750" dx="0,0.5,-0.1,0,-0.1,-0.1,-0.1,-0.1,-0.1,-0.1" class="s1_1">-0.5993478</text>
<text x="531" y="750" dx="0,0.5,-0.1,0,-0.1,-0.1,-0.1,-0.1,-0.1,-0.1" class="s1_1">-0.5993478</text>
<text x="630" y="750" dx="0,0.5,-0.1,0,-0.1,-0.1,-0.1,-0.1,-0.1,-0.1" class="s1_1">-0.6011479</text>
<text x="729" y="750" dx="0,0.5,-0.1,0,-0.1,-0.1,-0.1,-0.1,-0.1,-0.1" class="s1_1">-0.3586373</text>
<text x="34" y="773" dx="0,0.5,-0.1,0,-0.1,-0.1,-0.1,-0.1,-0.1,-0.1" class="s1_1">-0.5993478</text>
<text x="133" y="773" dx="0,0.5,-0.1,0,-0.1,-0.1,-0.1,-0.1,-0.1,-0.1" class="s1_1">-0.3586373</text>
<text x="233" y="773" dx="0,0.5,-0.1,0,-0.1,-0.1,-0.1,-0.1,-0.1,-0.1" class="s1_1">-0.3568373</text>
<text x="332" y="773" dx="0,0.5,-0.1,0,-0.1,-0.1,-0.1,-0.1,-0.1,-0.1" class="s1_1">-4.5977217</text>
<text x="431" y="773" dx="0,0.5,-0.1,0,-0.1,-0.1,-0.1,-0.1,-0.1,-0.1" class="s1_1">-0.6011479</text>
<text x="531" y="773" dx="0,0.5,-0.1,0,-0.1,-0.1,-0.1,-0.1,-0.1,-0.1" class="s1_1">-0.6011479</text>
<text x="630" y="773" dx="0,0.5,-0.1,0,-0.1,-0.1,-0.1,-0.1,-0.1,-0.1" class="s1_1">-0.5993478</text>
<text x="729" y="773" dx="0,0.5,-0.1,0,-0.1,-0.1,-0.1,-0.1,-0.1,-0.1" class="s1_1">-0.3568373</text>
<text x="34" y="796" dx="0,0.5,-0.1,0,-0.1,-0.1,-0.1,-0.1,-0.1,-0.1" class="s1_1">-0.3568373</text>
<text x="133" y="796" dx="0,0.5,-0.1,0,-0.1,-0.1,-0.1,-0.1,-0.1,-0.1" class="s1_1">-0.6011479</text>
<text x="233" y="796" dx="0,0.5,-0.1,0,-0.1,-0.1,-0.1,-0.1,-0.1,-0.1" class="s1_1">-0.5993478</text>
<text x="332" y="796" dx="0,0.5,-0.1,0,-0.1,-0.1,-0.1,-0.1,-0.1,-0.1" class="s1_1">-0.6011479</text>
<text x="431" y="796" dx="0,0.5,-0.1,0,-0.1,-0.1,-0.1,-0.1,-0.1,-0.1" class="s1_1">-4.5977217</text>
<text x="531" y="796" dx="0,0.5,-0.1,0,-0.1,-0.1,-0.1,-0.1,-0.1,-0.1" class="s1_1">-0.3586373</text>
<text x="630" y="796" dx="0,0.5,-0.1,0,-0.1,-0.1,-0.1,-0.1,-0.1,-0.1" class="s1_1">-0.3568373</text>
<text x="729" y="796" dx="0,0.5,-0.1,0,-0.1,-0.1,-0.1,-0.1,-0.1,-0.1" class="s1_1">-0.5993478</text>
<text x="34" y="819" dx="0,0.5,-0.1,0,-0.1,-0.1,-0.1,-0.1,-0.1,-0.1" class="s1_1">-0.3568373</text>
<text x="133" y="819" dx="0,0.5,-0.1,0,-0.1,-0.1,-0.1,-0.1,-0.1,-0.1" class="s1_1">-0.6011479</text>
<text x="233" y="819" dx="0,0.5,-0.1,0,-0.1,-0.1,-0.1,-0.1,-0.1,-0.1" class="s1_1">-0.5993478</text>
<text x="332" y="819" dx="0,0.5,-0.1,0,-0.1,-0.1,-0.1,-0.1,-0.1,-0.1" class="s1_1">-0.6011479</text>
<text x="431" y="819" dx="0,0.5,-0.1,0,-0.1,-0.1,-0.1,-0.1,-0.1,-0.1" class="s1_1">-0.3586373</text>
<text x="531" y="819" dx="0,0.5,-0.1,0,-0.1,-0.1,-0.1,-0.1,-0.1,-0.1" class="s1_1">-4.5977217</text>
<text x="630" y="819" dx="0,0.5,-0.1,0,-0.1,-0.1,-0.1,-0.1,-0.1,-0.1" class="s1_1">-0.3568373</text>
<text x="729" y="819" dx="0,0.5,-0.1,0,-0.1,-0.1,-0.1,-0.1,-0.1,-0.1" class="s1_1">-0.5993478</text>
<text x="34" y="842" dx="0,0.5,-0.1,0,-0.1,-0.1,-0.1,-0.1,-0.1,-0.1" class="s1_1">-0.3586373</text>
<text x="133" y="842" dx="0,0.5,-0.1,0,-0.1,-0.1,-0.1,-0.1,-0.1,-0.1" class="s1_1">-0.5993478</text>
<text x="233" y="842" dx="0,0.5,-0.1,0,-0.1,-0.1,-0.1,-0.1,-0.1,-0.1" class="s1_1">-0.6011479</text>
<text x="332" y="842" dx="0,0.5,-0.1,0,-0.1,-0.1,-0.1,-0.1,-0.1,-0.1" class="s1_1">-0.5993478</text>
<text x="431" y="842" dx="0,0.5,-0.1,0,-0.1,-0.1,-0.1,-0.1,-0.1,-0.1" class="s1_1">-0.3568373</text>
<text x="531" y="842" dx="0,0.5,-0.1,0,-0.1,-0.1,-0.1,-0.1,-0.1,-0.1" class="s1_1">-0.3568373</text>
<text x="630" y="842" dx="0,0.5,-0.1,0,-0.1,-0.1,-0.1,-0.1,-0.1,-0.1" class="s1_1">-4.5977217</text>
<text x="729" y="842" dx="0,0.5,-0.1,0,-0.1,-0.1,-0.1,-0.1,-0.1,-0.1" class="s1_1">-0.6011479</text>
<text x="34" y="865" dx="0,0.5,-0.1,0,-0.1,-0.1,-0.1,-0.1,-0.1,-0.1" class="s1_1">-0.6011479</text>
<text x="133" y="865" dx="0,0.5,-0.1,0,-0.1,-0.1,-0.1,-0.1,-0.1,-0.1" class="s1_1">-0.3568373</text>
<text x="233" y="865" dx="0,0.5,-0.1,0,-0.1,-0.1,-0.1,-0.1,-0.1,-0.1" class="s1_1">-0.3586373</text>
<text x="332" y="865" dx="0,0.5,-0.1,0,-0.1,-0.1,-0.1,-0.1,-0.1,-0.1" class="s1_1">-0.3568373</text>
<text x="431" y="865" dx="0,0.5,-0.1,0,-0.1,-0.1,-0.1,-0.1,-0.1,-0.1" class="s1_1">-0.5993478</text>
<text x="531" y="865" dx="0,0.5,-0.1,0,-0.1,-0.1,-0.1,-0.1,-0.1,-0.1" class="s1_1">-0.5993478</text>
<text x="630" y="865" dx="0,0.5,-0.1,0,-0.1,-0.1,-0.1,-0.1,-0.1,-0.1" class="s1_1">-0.6011479</text>
<text x="729" y="865" dx="0,0.5,-0.1,0,-0.1,-0.1,-0.1,-0.1,-0.1,-0.1" class="s1_1">-4.5977217</text>
<text x="26" y="911" dx="0,0.7,0.4,-0.3,0,0,0.5" class="s1_1">Bare^-1</text>
<text x="126" y="911" class="s1_1">-</text>
<text x="225" y="911" dx="0,0,-0.5,0,0,-0.3,0.4,-0.1,0,0.4,-0.6,0,0,0.5" class="s1_1">Interactive^-1</text>
<text x="31" y="934" dx="0,-0.1,0,-0.1,-0.1,-0.1,-0.1,-0.1,-0.1,-0.1" class="s1_1">2.94204105</text>
<text x="133" y="934" dx="0,0.5,-0.1,0,-0.1,-0.1,-0.1,-0.1,-0.1,-0.1" class="s1_1">-0.1342102</text>
<text x="233" y="934" dx="0,0.5,-0.1,0,-0.1,-0.1,-0.1,-0.1,-0.1,-0.1" class="s1_1">-0.1325019</text>
<text x="332" y="934" dx="0,0.5,-0.1,0,-0.1,-0.1,-0.1,-0.1,-0.1,-0.1" class="s1_1">-0.1343019</text>
<text x="431" y="934" dx="0,0.5,-0.1,0,-0.1,-0.1,-0.1,-0.1,-0.1,-0.1" class="s1_1">-0.3411724</text>
<text x="540" y="934" dx="0,0.5,-0.1,0,-0.1,-0.1,-0.1,-0.1,-0.1" class="s1_1">-0.341264</text>
<text x="630" y="934" dx="0,0.5,-0.1,0,-0.1,-0.1,-0.1,-0.1,-0.1,-0.1" class="s1_1">-0.3396474</text>
<text x="729" y="934" dx="0,0.5,-0.1,0,-0.1,-0.1,-0.1,-0.1,-0.1,-0.1" class="s1_1">-0.1324102</text>
<text x="34" y="957" dx="0,0.5,-0.1,0,-0.1,-0.1,-0.1,-0.1,-0.1,-0.1" class="s1_1">-0.1342102</text>
<text x="130" y="957" dx="0,-0.1,0,-0.1,-0.1,-0.1,-0.1,-0.1,-0.1,-0.1" class="s1_1">2.94204105</text>
<text x="233" y="957" dx="0,0.5,-0.1,0,-0.1,-0.1,-0.1,-0.1,-0.1,-0.1" class="s1_1">-0.3411724</text>
<text x="332" y="957" dx="0,0.5,-0.1,0,-0.1,-0.1,-0.1,-0.1,-0.1,-0.1" class="s1_1">-0.3396474</text>
<text x="431" y="957" dx="0,0.5,-0.1,0,-0.1,-0.1,-0.1,-0.1,-0.1,-0.1" class="s1_1">-0.1325019</text>
<text x="531" y="957" dx="0,0.5,-0.1,0,-0.1,-0.1,-0.1,-0.1,-0.1,-0.1" class="s1_1">-0.1324102</text>
<text x="630" y="957" dx="0,0.5,-0.1,0,-0.1,-0.1,-0.1,-0.1,-0.1,-0.1" class="s1_1">-0.1343019</text>
<text x="738" y="957" dx="0,0.5,-0.1,0,-0.1,-0.1,-0.1,-0.1,-0.1" class="s1_1">-0.341264</text>
<text x="34" y="980" dx="0,0.5,-0.1,0,-0.1,-0.1,-0.1,-0.1,-0.1,-0.1" class="s1_1">-0.1325019</text>
<text x="133" y="980" dx="0,0.5,-0.1,0,-0.1,-0.1,-0.1,-0.1,-0.1,-0.1" class="s1_1">-0.3411724</text>
<text x="230" y="980" dx="0,-0.1,0,-0.1,-0.1,-0.1,-0.1,-0.1,-0.1,-0.1" class="s1_1">2.94204105</text>
<text x="341" y="980" dx="0,0.5,-0.1,0,-0.1,-0.1,-0.1,-0.1,-0.1" class="s1_1">-0.341264</text>
<text x="431" y="980" dx="0,0.5,-0.1,0,-0.1,-0.1,-0.1,-0.1,-0.1,-0.1" class="s1_1">-0.1342102</text>
<text x="531" y="980" dx="0,0.5,-0.1,0,-0.1,-0.1,-0.1,-0.1,-0.1,-0.1" class="s1_1">-0.1343019</text>
<text x="630" y="980" dx="0,0.5,-0.1,0,-0.1,-0.1,-0.1,-0.1,-0.1,-0.1" class="s1_1">-0.1324102</text>
<text x="729" y="980" dx="0,0.5,-0.1,0,-0.1,-0.1,-0.1,-0.1,-0.1,-0.1" class="s1_1">-0.3396474</text>
<text x="34" y="1003" dx="0,0.5,-0.1,0,-0.1,-0.1,-0.1,-0.1,-0.1,-0.1" class="s1_1">-0.1343019</text>
<text x="133" y="1003" dx="0,0.5,-0.1,0,-0.1,-0.1,-0.1,-0.1,-0.1,-0.1" class="s1_1">-0.3396474</text>
<text x="242" y="1003" dx="0,0.5,-0.1,0,-0.1,-0.1,-0.1,-0.1,-0.1" class="s1_1">-0.341264</text>
<text x="329" y="1003" dx="0,-0.1,0,-0.1,-0.1,-0.1,-0.1,-0.1,-0.1,-0.1" class="s1_1">2.94204105</text>
<text x="431" y="1003" dx="0,0.5,-0.1,0,-0.1,-0.1,-0.1,-0.1,-0.1,-0.1" class="s1_1">-0.1324102</text>
<text x="531" y="1003" dx="0,0.5,-0.1,0,-0.1,-0.1,-0.1,-0.1,-0.1,-0.1" class="s1_1">-0.1325019</text>
<text x="630" y="1003" dx="0,0.5,-0.1,0,-0.1,-0.1,-0.1,-0.1,-0.1,-0.1" class="s1_1">-0.1342102</text>
<text x="729" y="1003" dx="0,0.5,-0.1,0,-0.1,-0.1,-0.1,-0.1,-0.1,-0.1" class="s1_1">-0.3411724</text>
<text x="34" y="1025" dx="0,0.5,-0.1,0,-0.1,-0.1,-0.1,-0.1,-0.1,-0.1" class="s1_1">-0.3411724</text>
<text x="133" y="1025" dx="0,0.5,-0.1,0,-0.1,-0.1,-0.1,-0.1,-0.1,-0.1" class="s1_1">-0.1325019</text>
<text x="233" y="1025" dx="0,0.5,-0.1,0,-0.1,-0.1,-0.1,-0.1,-0.1,-0.1" class="s1_1">-0.1342102</text>
<text x="332" y="1025" dx="0,0.5,-0.1,0,-0.1,-0.1,-0.1,-0.1,-0.1,-0.1" class="s1_1">-0.1324102</text>
<text x="428" y="1025" dx="0,-0.1,0,-0.1,-0.1,-0.1,-0.1,-0.1,-0.1,-0.1" class="s1_1">2.94204105</text>
<text x="531" y="1025" dx="0,0.5,-0.1,0,-0.1,-0.1,-0.1,-0.1,-0.1,-0.1" class="s1_1">-0.3396474</text>
<text x="639" y="1025" dx="0,0.5,-0.1,0,-0.1,-0.1,-0.1,-0.1,-0.1" class="s1_1">-0.341264</text>
<text x="729" y="1025" dx="0,0.5,-0.1,0,-0.1,-0.1,-0.1,-0.1,-0.1,-0.1" class="s1_1">-0.1343019</text>
<text x="43" y="1048" dx="0,0.5,-0.1,0,-0.1,-0.1,-0.1,-0.1,-0.1" class="s1_1">-0.341264</text>
<text x="133" y="1048" dx="0,0.5,-0.1,0,-0.1,-0.1,-0.1,-0.1,-0.1,-0.1" class="s1_1">-0.1324102</text>
<text x="233" y="1048" dx="0,0.5,-0.1,0,-0.1,-0.1,-0.1,-0.1,-0.1,-0.1" class="s1_1">-0.1343019</text>
<text x="332" y="1048" dx="0,0.5,-0.1,0,-0.1,-0.1,-0.1,-0.1,-0.1,-0.1" class="s1_1">-0.1325019</text>
<text x="431" y="1048" dx="0,0.5,-0.1,0,-0.1,-0.1,-0.1,-0.1,-0.1,-0.1" class="s1_1">-0.3396474</text>
<text x="527" y="1048" dx="0,-0.1,0,-0.1,-0.1,-0.1,-0.1,-0.1,-0.1,-0.1" class="s1_1">2.94204105</text>
<text x="630" y="1048" dx="0,0.5,-0.1,0,-0.1,-0.1,-0.1,-0.1,-0.1,-0.1" class="s1_1">-0.3411724</text>
<text x="729" y="1048" dx="0,0.5,-0.1,0,-0.1,-0.1,-0.1,-0.1,-0.1,-0.1" class="s1_1">-0.1342102</text>
<text x="34" y="1071" dx="0,0.5,-0.1,0,-0.1,-0.1,-0.1,-0.1,-0.1,-0.1" class="s1_1">-0.3396474</text>
<text x="133" y="1071" dx="0,0.5,-0.1,0,-0.1,-0.1,-0.1,-0.1,-0.1,-0.1" class="s1_1">-0.1343019</text>
<text x="233" y="1071" dx="0,0.5,-0.1,0,-0.1,-0.1,-0.1,-0.1,-0.1,-0.1" class="s1_1">-0.1324102</text>
<text x="332" y="1071" dx="0,0.5,-0.1,0,-0.1,-0.1,-0.1,-0.1,-0.1,-0.1" class="s1_1">-0.1342102</text>
<text x="440" y="1071" dx="0,0.5,-0.1,0,-0.1,-0.1,-0.1,-0.1,-0.1" class="s1_1">-0.341264</text>
<text x="531" y="1071" dx="0,0.5,-0.1,0,-0.1,-0.1,-0.1,-0.1,-0.1,-0.1" class="s1_1">-0.3411724</text>
<text x="627" y="1071" dx="0,-0.1,0,-0.1,-0.1,-0.1,-0.1,-0.1,-0.1,-0.1" class="s1_1">2.94204105</text>
<text x="729" y="1071" dx="0,0.5,-0.1,0,-0.1,-0.1,-0.1,-0.1,-0.1,-0.1" class="s1_1">-0.1325019</text>
<text x="34" y="1094" dx="0,0.5,-0.1,0,-0.1,-0.1,-0.1,-0.1,-0.1,-0.1" class="s1_1">-0.1324102</text>
<text x="142" y="1094" dx="0,0.5,-0.1,0,-0.1,-0.1,-0.1,-0.1,-0.1" class="s1_1">-0.341264</text>
<text x="233" y="1094" dx="0,0.5,-0.1,0,-0.1,-0.1,-0.1,-0.1,-0.1,-0.1" class="s1_1">-0.3396474</text>
<text x="332" y="1094" dx="0,0.5,-0.1,0,-0.1,-0.1,-0.1,-0.1,-0.1,-0.1" class="s1_1">-0.3411724</text>
<text x="431" y="1094" dx="0,0.5,-0.1,0,-0.1,-0.1,-0.1,-0.1,-0.1,-0.1" class="s1_1">-0.1343019</text>
<text x="531" y="1094" dx="0,0.5,-0.1,0,-0.1,-0.1,-0.1,-0.1,-0.1,-0.1" class="s1_1">-0.1342102</text>
<text x="630" y="1094" dx="0,0.5,-0.1,0,-0.1,-0.1,-0.1,-0.1,-0.1,-0.1" class="s1_1">-0.1325019</text>
<text x="726" y="1094" dx="0,-0.1,0,-0.1,-0.1,-0.1,-0.1,-0.1,-0.1,-0.1" class="s1_1">2.94204105</text>

</g>

<!-- Any embedded fonts defined here -->
<style type="text/css" ><![CDATA[

@font-face {
	font-family: Calibri_9;
	src: url("fonts/Calibri_9.woff") format("woff");
}

]]></style>

</svg>
