<?xml version="1.0" encoding="UTF-8" standalone="no"?>
<!DOCTYPE svg PUBLIC "-//W3C//DTD SVG 1.1//EN"
"http://www.w3.org/Graphics/SVG/1.1/DTD/svg11.dtd">


<!-- Page 1 -->
<svg x="0" y="0" width="890" height="475" viewBox="0 0 890 475" version="1.1" xmlns="http://www.w3.org/2000/svg" xmlns:xlink="http://www.w3.org/1999/xlink"
style="display: block;margin-left: auto;margin-right: auto;">
<defs>
<clipPath id="c_1"><path d="M0,0H890V475H0Z" /></clipPath>
<style type="text/css"><![CDATA[
text { white-space: pre; }
path, image { pointer-events: none; }

.s1_1{
font-size: 13.75px;
font-family: Calibri_9;
fill: #595959;
}

.g0_1{
fill: #FFFFFF;
}
.g1_1{
fill: none;
stroke: #D9D9D9;
stroke-width: 1.5277778;
stroke-linecap: butt;
stroke-linejoin: round;
}
.g2_1{
fill: none;
stroke: #BFBFBF;
stroke-width: 1.5277778;
stroke-linecap: butt;
stroke-linejoin: round;
}
.g3_1{
fill: #5B9BD5;
}
.g4_1{
fill: none;
stroke: #5B9BD5;
stroke-width: 1.5277778;
stroke-linecap: butt;
stroke-linejoin: round;
}
.g5_1{
fill: #ED7D31;
}
.g6_1{
fill: none;
stroke: #ED7D31;
stroke-width: 1.5277778;
stroke-linecap: butt;
stroke-linejoin: round;
}
.g7_1{
fill: #A5A5A5;
}
.g8_1{
fill: none;
stroke: #A5A5A5;
stroke-width: 1.5277778;
stroke-linecap: butt;
stroke-linejoin: round;
}
.g9_1{
fill: #FFC000;
}
.g10_1{
fill: none;
stroke: #FFC000;
stroke-width: 1.5277778;
stroke-linecap: butt;
stroke-linejoin: round;
}
.g11_1{
fill: #4472C4;
}
.g12_1{
fill: none;
stroke: #4472C4;
stroke-width: 1.5277778;
stroke-linecap: butt;
stroke-linejoin: round;
}
.g13_1{
fill: #70AD47;
}
.g14_1{
fill: none;
stroke: #70AD47;
stroke-width: 1.5277778;
stroke-linecap: butt;
stroke-linejoin: round;
}
.g15_1{
fill: #255E91;
}
.g16_1{
fill: none;
stroke: #255E91;
stroke-width: 1.5277778;
stroke-linecap: butt;
stroke-linejoin: round;
}
.g17_1{
fill: #9E480E;
}
.g18_1{
fill: none;
stroke: #9E480E;
stroke-width: 1.5277778;
stroke-linecap: butt;
stroke-linejoin: round;
}
.g19_1{
fill: #636363;
}
.g20_1{
fill: none;
stroke: #636363;
stroke-width: 1.5277778;
stroke-linecap: butt;
stroke-linejoin: round;
}
.g21_1{
fill: #997300;
}
.g22_1{
fill: none;
stroke: #997300;
stroke-width: 1.5277778;
stroke-linecap: butt;
stroke-linejoin: round;
}
.g23_1{
fill: #264478;
}
.g24_1{
fill: none;
stroke: #264478;
stroke-width: 1.5277778;
stroke-linecap: butt;
stroke-linejoin: round;
}
.g25_1{
fill: #43682B;
}
.g26_1{
fill: none;
stroke: #43682B;
stroke-width: 1.5277778;
stroke-linecap: butt;
stroke-linejoin: round;
}
.g27_1{
fill: #7CAFDD;
}
.g28_1{
fill: none;
stroke: #7CAFDD;
stroke-width: 1.5277778;
stroke-linecap: butt;
stroke-linejoin: round;
}
.g29_1{
fill: #F1975A;
}
.g30_1{
fill: none;
stroke: #F1975A;
stroke-width: 1.5277778;
stroke-linecap: butt;
stroke-linejoin: round;
}
.g31_1{
fill: #B7B7B7;
}
.g32_1{
fill: none;
stroke: #B7B7B7;
stroke-width: 1.5277778;
stroke-linecap: butt;
stroke-linejoin: round;
}
.g33_1{
fill: #FFCD33;
}
.g34_1{
fill: none;
stroke: #FFCD33;
stroke-width: 1.5277778;
stroke-linecap: butt;
stroke-linejoin: round;
}

]]></style>

</defs>
<g clip-path="url(#c_1)">
<path d="M0,0
L0,475
L890,475
L890,0 Z " 
fill="#FFFFFF" stroke="none" />
<path d="M0,0H890.7V475.1H0Z" class="g0_1" />
<path d="M1.5,1.5H889.2V475.1H1.5Z" class="g0_1" />
<path d="M28.3,355.2H864M28.3,271.2H864M28.3,187.2H864M28.3,101.6H864M28.3,17.6H864m-835.7,0V439.2m84,-421.6V439.2m84,-421.6V439.2M278.8,17.6V439.2m84,-421.6V439.2M529.4,17.6V439.2m84,-421.6V439.2m84,-421.6V439.2M779.9,17.6V439.2M864,17.6V439.2" class="g1_1" />
<path d="M446.9,439.2V17.6M28.3,439.2H864" class="g2_1" />
<path d="M781.2,366.8c0,1.7,-1.3,3.1,-3,3.1c-1.7,0,-3.1,-1.4,-3.1,-3.1c0,-1.7,1.4,-3,3.1,-3c1.7,0,3,1.3,3,3Z" class="g3_1" />
<path d="M781.2,366.8c0,1.7,-1.3,3.1,-3,3.1c-1.7,0,-3.1,-1.4,-3.1,-3.1c0,-1.7,1.4,-3,3.1,-3c1.7,0,3,1.3,3,3Z" class="g4_1" />
<path d="M656,308.8c0,1.7,-1.4,3,-3.1,3c-1.7,0,-3,-1.3,-3,-3c0,-1.7,1.3,-3.1,3,-3.1c1.7,0,3.1,1.4,3.1,3.1Z" class="g3_1" />
<path d="M656,308.8c0,1.7,-1.4,3,-3.1,3c-1.7,0,-3,-1.3,-3,-3c0,-1.7,1.3,-3.1,3,-3.1c1.7,0,3.1,1.4,3.1,3.1Z" class="g4_1" />
<path d="M530.7,252.2c0,1.7,-1.4,3.1,-3.1,3.1c-1.7,0,-3,-1.4,-3,-3.1c0,-1.7,1.3,-3,3,-3c1.7,0,3.1,1.3,3.1,3Z" class="g3_1" />
<path d="M530.7,252.2c0,1.7,-1.4,3.1,-3.1,3.1c-1.7,0,-3,-1.4,-3,-3.1c0,-1.7,1.3,-3,3,-3c1.7,0,3.1,1.3,3.1,3Z" class="g4_1" />
<path d="M448.2,204.9c0,1.7,-1.4,3,-3.1,3c-1.7,0,-3,-1.3,-3,-3c0,-1.7,1.3,-3.1,3,-3.1c1.7,0,3.1,1.4,3.1,3.1Z" class="g3_1" />
<path d="M448.2,204.9c0,1.7,-1.4,3,-3.1,3c-1.7,0,-3,-1.3,-3,-3c0,-1.7,1.3,-3.1,3,-3.1c1.7,0,3.1,1.4,3.1,3.1Z" class="g4_1" />
<path d="M364.2,156c0,1.7,-1.4,3,-3.1,3c-1.7,0,-3.1,-1.3,-3.1,-3c0,-1.7,1.4,-3.1,3.1,-3.1c1.7,0,3.1,1.4,3.1,3.1Z" class="g3_1" />
<path d="M364.2,156c0,1.7,-1.4,3,-3.1,3c-1.7,0,-3.1,-1.3,-3.1,-3c0,-1.7,1.4,-3.1,3.1,-3.1c1.7,0,3.1,1.4,3.1,3.1Z" class="g4_1" />
<path d="M238.9,99.5c0,1.6,-1.4,3,-3.1,3c-1.7,0,-3,-1.4,-3,-3c0,-1.7,1.3,-3.1,3,-3.1c1.7,0,3.1,1.4,3.1,3.1Z" class="g3_1" />
<path d="M238.9,99.5c0,1.6,-1.4,3,-3.1,3c-1.7,0,-3,-1.4,-3,-3c0,-1.7,1.3,-3.1,3,-3.1c1.7,0,3.1,1.4,3.1,3.1Z" class="g4_1" />
<path d="M113.6,46c0,1.7,-1.4,3,-3.1,3c-1.6,0,-3,-1.3,-3,-3c0,-1.7,1.4,-3.1,3,-3.1c1.7,0,3.1,1.4,3.1,3.1Z" class="g3_1" />
<path d="M113.6,46c0,1.7,-1.4,3,-3.1,3c-1.6,0,-3,-1.3,-3,-3c0,-1.7,1.4,-3.1,3,-3.1c1.7,0,3.1,1.4,3.1,3.1Z" class="g4_1" />
<path d="M781.2,233.9c0,1.7,-1.3,3.1,-3,3.1c-1.7,0,-3.1,-1.4,-3.1,-3.1c0,-1.7,1.4,-3.1,3.1,-3.1c1.7,0,3,1.4,3,3.1Z" class="g5_1" />
<path d="M781.2,233.9c0,1.7,-1.3,3.1,-3,3.1c-1.7,0,-3.1,-1.4,-3.1,-3.1c0,-1.7,1.4,-3.1,3.1,-3.1c1.7,0,3,1.4,3,3.1Z" class="g6_1" />
<path d="M656,223.2c0,1.7,-1.4,3.1,-3.1,3.1c-1.7,0,-3,-1.4,-3,-3.1c0,-1.7,1.3,-3,3,-3c1.7,0,3.1,1.3,3.1,3Z" class="g5_1" />
<path d="M656,223.2c0,1.7,-1.4,3.1,-3.1,3.1c-1.7,0,-3,-1.4,-3,-3.1c0,-1.7,1.3,-3,3,-3c1.7,0,3.1,1.3,3.1,3Z" class="g6_1" />
<path d="M530.7,214c0,1.7,-1.4,3.1,-3.1,3.1c-1.7,0,-3,-1.4,-3,-3.1c0,-1.6,1.3,-3,3,-3c1.7,0,3.1,1.4,3.1,3Z" class="g5_1" />
<path d="M530.7,214c0,1.7,-1.4,3.1,-3.1,3.1c-1.7,0,-3,-1.4,-3,-3.1c0,-1.6,1.3,-3,3,-3c1.7,0,3.1,1.4,3.1,3Z" class="g6_1" />
<path d="M448.2,204.9c0,1.7,-1.4,3,-3.1,3c-1.7,0,-3,-1.3,-3,-3c0,-1.7,1.3,-3.1,3,-3.1c1.7,0,3.1,1.4,3.1,3.1Z" class="g5_1" />
<path d="M448.2,204.9c0,1.7,-1.4,3,-3.1,3c-1.7,0,-3,-1.3,-3,-3c0,-1.7,1.3,-3.1,3,-3.1c1.7,0,3.1,1.4,3.1,3.1Z" class="g6_1" />
<path d="M364.2,195.7c0,1.7,-1.4,3.1,-3.1,3.1c-1.7,0,-3.1,-1.4,-3.1,-3.1c0,-1.7,1.4,-3,3.1,-3c1.7,0,3.1,1.3,3.1,3Z" class="g5_1" />
<path d="M364.2,195.7c0,1.7,-1.4,3.1,-3.1,3.1c-1.7,0,-3.1,-1.4,-3.1,-3.1c0,-1.7,1.4,-3,3.1,-3c1.7,0,3.1,1.3,3.1,3Z" class="g6_1" />
<path d="M238.9,186.5c0,1.7,-1.4,3.1,-3.1,3.1c-1.7,0,-3,-1.4,-3,-3.1c0,-1.6,1.3,-3,3,-3c1.7,0,3.1,1.4,3.1,3Z" class="g5_1" />
<path d="M238.9,186.5c0,1.7,-1.4,3.1,-3.1,3.1c-1.7,0,-3,-1.4,-3,-3.1c0,-1.6,1.3,-3,3,-3c1.7,0,3.1,1.4,3.1,3Z" class="g6_1" />
<path d="M113.6,175.8c0,1.7,-1.4,3.1,-3.1,3.1c-1.6,0,-3,-1.4,-3,-3.1c0,-1.6,1.4,-3,3,-3c1.7,0,3.1,1.4,3.1,3Z" class="g5_1" />
<path d="M113.6,175.8c0,1.7,-1.4,3.1,-3.1,3.1c-1.6,0,-3,-1.4,-3,-3.1c0,-1.6,1.4,-3,3,-3c1.7,0,3.1,1.4,3.1,3Z" class="g6_1" />
<path d="M781.2,186.5c0,1.7,-1.3,3.1,-3,3.1c-1.7,0,-3.1,-1.4,-3.1,-3.1c0,-1.6,1.4,-3,3.1,-3c1.7,0,3,1.4,3,3Z" class="g7_1" />
<path d="M781.2,186.5c0,1.7,-1.3,3.1,-3,3.1c-1.7,0,-3.1,-1.4,-3.1,-3.1c0,-1.6,1.4,-3,3.1,-3c1.7,0,3,1.4,3,3Z" class="g8_1" />
<path d="M656,194.2c0,1.7,-1.4,3,-3.1,3c-1.7,0,-3,-1.3,-3,-3c0,-1.7,1.3,-3.1,3,-3.1c1.7,0,3.1,1.4,3.1,3.1Z" class="g7_1" />
<path d="M656,194.2c0,1.7,-1.4,3,-3.1,3c-1.7,0,-3,-1.3,-3,-3c0,-1.7,1.3,-3.1,3,-3.1c1.7,0,3.1,1.4,3.1,3.1Z" class="g8_1" />
<path d="M530.7,201.8c0,1.7,-1.4,3.1,-3.1,3.1c-1.7,0,-3,-1.4,-3,-3.1c0,-1.7,1.3,-3,3,-3c1.7,0,3.1,1.3,3.1,3Z" class="g7_1" />
<path d="M530.7,201.8c0,1.7,-1.4,3.1,-3.1,3.1c-1.7,0,-3,-1.4,-3,-3.1c0,-1.7,1.3,-3,3,-3c1.7,0,3.1,1.3,3.1,3Z" class="g8_1" />
<path d="M448.2,204.9c0,1.7,-1.4,3,-3.1,3c-1.7,0,-3,-1.3,-3,-3c0,-1.7,1.3,-3.1,3,-3.1c1.7,0,3.1,1.4,3.1,3.1Z" class="g7_1" />
<path d="M448.2,204.9c0,1.7,-1.4,3,-3.1,3c-1.7,0,-3,-1.3,-3,-3c0,-1.7,1.3,-3.1,3,-3.1c1.7,0,3.1,1.4,3.1,3.1Z" class="g8_1" />
<path d="M364.2,209.5c0,1.6,-1.4,3,-3.1,3c-1.7,0,-3.1,-1.4,-3.1,-3c0,-1.7,1.4,-3.1,3.1,-3.1c1.7,0,3.1,1.4,3.1,3.1Z" class="g7_1" />
<path d="M364.2,209.5c0,1.6,-1.4,3,-3.1,3c-1.7,0,-3.1,-1.4,-3.1,-3c0,-1.7,1.4,-3.1,3.1,-3.1c1.7,0,3.1,1.4,3.1,3.1Z" class="g8_1" />
<path d="M238.9,218.6c0,1.7,-1.4,3.1,-3.1,3.1c-1.7,0,-3,-1.4,-3,-3.1c0,-1.7,1.3,-3,3,-3c1.7,0,3.1,1.3,3.1,3Z" class="g7_1" />
<path d="M238.9,218.6c0,1.7,-1.4,3.1,-3.1,3.1c-1.7,0,-3,-1.4,-3,-3.1c0,-1.7,1.3,-3,3,-3c1.7,0,3.1,1.3,3.1,3Z" class="g8_1" />
<path d="M113.6,226.3c0,1.7,-1.4,3,-3.1,3c-1.6,0,-3,-1.3,-3,-3c0,-1.7,1.4,-3.1,3,-3.1c1.7,0,3.1,1.4,3.1,3.1Z" class="g7_1" />
<path d="M113.6,226.3c0,1.7,-1.4,3,-3.1,3c-1.6,0,-3,-1.3,-3,-3c0,-1.7,1.4,-3.1,3,-3.1c1.7,0,3.1,1.4,3.1,3.1Z" class="g8_1" />
<path d="M781.2,204.9c0,1.7,-1.3,3,-3,3c-1.7,0,-3.1,-1.3,-3.1,-3c0,-1.7,1.4,-3.1,3.1,-3.1c1.7,0,3,1.4,3,3.1Z" class="g9_1" />
<path d="M781.2,204.9c0,1.7,-1.3,3,-3,3c-1.7,0,-3.1,-1.3,-3.1,-3c0,-1.7,1.4,-3.1,3.1,-3.1c1.7,0,3,1.4,3,3.1Z" class="g10_1" />
<path d="M656,204.9c0,1.7,-1.4,3,-3.1,3c-1.7,0,-3,-1.3,-3,-3c0,-1.7,1.3,-3.1,3,-3.1c1.7,0,3.1,1.4,3.1,3.1Z" class="g9_1" />
<path d="M656,204.9c0,1.7,-1.4,3,-3.1,3c-1.7,0,-3,-1.3,-3,-3c0,-1.7,1.3,-3.1,3,-3.1c1.7,0,3.1,1.4,3.1,3.1Z" class="g10_1" />
<path d="M530.7,204.9c0,1.7,-1.4,3,-3.1,3c-1.7,0,-3,-1.3,-3,-3c0,-1.7,1.3,-3.1,3,-3.1c1.7,0,3.1,1.4,3.1,3.1Z" class="g9_1" />
<path d="M530.7,204.9c0,1.7,-1.4,3,-3.1,3c-1.7,0,-3,-1.3,-3,-3c0,-1.7,1.3,-3.1,3,-3.1c1.7,0,3.1,1.4,3.1,3.1Z" class="g10_1" />
<path d="M448.2,204.9c0,1.7,-1.4,3,-3.1,3c-1.7,0,-3,-1.3,-3,-3c0,-1.7,1.3,-3.1,3,-3.1c1.7,0,3.1,1.4,3.1,3.1Z" class="g9_1" />
<path d="M448.2,204.9c0,1.7,-1.4,3,-3.1,3c-1.7,0,-3,-1.3,-3,-3c0,-1.7,1.3,-3.1,3,-3.1c1.7,0,3.1,1.4,3.1,3.1Z" class="g10_1" />
<path d="M364.2,204.9c0,1.7,-1.4,3,-3.1,3c-1.7,0,-3.1,-1.3,-3.1,-3c0,-1.7,1.4,-3.1,3.1,-3.1c1.7,0,3.1,1.4,3.1,3.1Z" class="g9_1" />
<path d="M364.2,204.9c0,1.7,-1.4,3,-3.1,3c-1.7,0,-3.1,-1.3,-3.1,-3c0,-1.7,1.4,-3.1,3.1,-3.1c1.7,0,3.1,1.4,3.1,3.1Z" class="g10_1" />
<path d="M238.9,206.4c0,1.7,-1.4,3.1,-3.1,3.1c-1.7,0,-3,-1.4,-3,-3.1c0,-1.7,1.3,-3.1,3,-3.1c1.7,0,3.1,1.4,3.1,3.1Z" class="g9_1" />
<path d="M238.9,206.4c0,1.7,-1.4,3.1,-3.1,3.1c-1.7,0,-3,-1.4,-3,-3.1c0,-1.7,1.3,-3.1,3,-3.1c1.7,0,3.1,1.4,3.1,3.1Z" class="g10_1" />
<path d="M113.6,206.4c0,1.7,-1.4,3.1,-3.1,3.1c-1.6,0,-3,-1.4,-3,-3.1c0,-1.7,1.4,-3.1,3,-3.1c1.7,0,3.1,1.4,3.1,3.1Z" class="g9_1" />
<path d="M113.6,206.4c0,1.7,-1.4,3.1,-3.1,3.1c-1.6,0,-3,-1.4,-3,-3.1c0,-1.7,1.4,-3.1,3,-3.1c1.7,0,3.1,1.4,3.1,3.1Z" class="g10_1" />
<path d="M781.2,188.1c0,1.7,-1.3,3,-3,3c-1.7,0,-3.1,-1.3,-3.1,-3c0,-1.7,1.4,-3.1,3.1,-3.1c1.7,0,3,1.4,3,3.1Z" class="g11_1" />
<path d="M781.2,188.1c0,1.7,-1.3,3,-3,3c-1.7,0,-3.1,-1.3,-3.1,-3c0,-1.7,1.4,-3.1,3.1,-3.1c1.7,0,3,1.4,3,3.1Z" class="g12_1" />
<path d="M656,195.7c0,1.7,-1.4,3.1,-3.1,3.1c-1.7,0,-3,-1.4,-3,-3.1c0,-1.7,1.3,-3,3,-3c1.7,0,3.1,1.3,3.1,3Z" class="g11_1" />
<path d="M656,195.7c0,1.7,-1.4,3.1,-3.1,3.1c-1.7,0,-3,-1.4,-3,-3.1c0,-1.7,1.3,-3,3,-3c1.7,0,3.1,1.3,3.1,3Z" class="g12_1" />
<path d="M530.7,203.3c0,1.7,-1.4,3.1,-3.1,3.1c-1.7,0,-3,-1.4,-3,-3.1c0,-1.6,1.3,-3,3,-3c1.7,0,3.1,1.4,3.1,3Z" class="g11_1" />
<path d="M530.7,203.3c0,1.7,-1.4,3.1,-3.1,3.1c-1.7,0,-3,-1.4,-3,-3.1c0,-1.6,1.3,-3,3,-3c1.7,0,3.1,1.4,3.1,3Z" class="g12_1" />
<path d="M448.2,203.3c0,1.7,-1.4,3.1,-3.1,3.1c-1.7,0,-3,-1.4,-3,-3.1c0,-1.6,1.3,-3,3,-3c1.7,0,3.1,1.4,3.1,3Z" class="g11_1" />
<path d="M448.2,203.3c0,1.7,-1.4,3.1,-3.1,3.1c-1.7,0,-3,-1.4,-3,-3.1c0,-1.6,1.3,-3,3,-3c1.7,0,3.1,1.4,3.1,3Z" class="g12_1" />
<path d="M364.2,211c0,1.7,-1.4,3,-3.1,3c-1.7,0,-3.1,-1.3,-3.1,-3c0,-1.7,1.4,-3.1,3.1,-3.1c1.7,0,3.1,1.4,3.1,3.1Z" class="g11_1" />
<path d="M364.2,211c0,1.7,-1.4,3,-3.1,3c-1.7,0,-3.1,-1.3,-3.1,-3c0,-1.7,1.4,-3.1,3.1,-3.1c1.7,0,3.1,1.4,3.1,3.1Z" class="g12_1" />
<path d="M238.9,218.6c0,1.7,-1.4,3.1,-3.1,3.1c-1.7,0,-3,-1.4,-3,-3.1c0,-1.7,1.3,-3,3,-3c1.7,0,3.1,1.3,3.1,3Z" class="g11_1" />
<path d="M238.9,218.6c0,1.7,-1.4,3.1,-3.1,3.1c-1.7,0,-3,-1.4,-3,-3.1c0,-1.7,1.3,-3,3,-3c1.7,0,3.1,1.3,3.1,3Z" class="g12_1" />
<path d="M113.6,226.3c0,1.7,-1.4,3,-3.1,3c-1.6,0,-3,-1.3,-3,-3c0,-1.7,1.4,-3.1,3,-3.1c1.7,0,3.1,1.4,3.1,3.1Z" class="g11_1" />
<path d="M113.6,226.3c0,1.7,-1.4,3,-3.1,3c-1.6,0,-3,-1.3,-3,-3c0,-1.7,1.4,-3.1,3,-3.1c1.7,0,3.1,1.4,3.1,3.1Z" class="g12_1" />
<path d="M781.2,204.9c0,1.7,-1.3,3,-3,3c-1.7,0,-3.1,-1.3,-3.1,-3c0,-1.7,1.4,-3.1,3.1,-3.1c1.7,0,3,1.4,3,3.1Z" class="g13_1" />
<path d="M781.2,204.9c0,1.7,-1.3,3,-3,3c-1.7,0,-3.1,-1.3,-3.1,-3c0,-1.7,1.4,-3.1,3.1,-3.1c1.7,0,3,1.4,3,3.1Z" class="g14_1" />
<path d="M656,204.9c0,1.7,-1.4,3,-3.1,3c-1.7,0,-3,-1.3,-3,-3c0,-1.7,1.3,-3.1,3,-3.1c1.7,0,3.1,1.4,3.1,3.1Z" class="g13_1" />
<path d="M656,204.9c0,1.7,-1.4,3,-3.1,3c-1.7,0,-3,-1.3,-3,-3c0,-1.7,1.3,-3.1,3,-3.1c1.7,0,3.1,1.4,3.1,3.1Z" class="g14_1" />
<path d="M530.7,204.9c0,1.7,-1.4,3,-3.1,3c-1.7,0,-3,-1.3,-3,-3c0,-1.7,1.3,-3.1,3,-3.1c1.7,0,3.1,1.4,3.1,3.1Z" class="g13_1" />
<path d="M530.7,204.9c0,1.7,-1.4,3,-3.1,3c-1.7,0,-3,-1.3,-3,-3c0,-1.7,1.3,-3.1,3,-3.1c1.7,0,3.1,1.4,3.1,3.1Z" class="g14_1" />
<path d="M448.2,203.3c0,1.7,-1.4,3.1,-3.1,3.1c-1.7,0,-3,-1.4,-3,-3.1c0,-1.6,1.3,-3,3,-3c1.7,0,3.1,1.4,3.1,3Z" class="g13_1" />
<path d="M448.2,203.3c0,1.7,-1.4,3.1,-3.1,3.1c-1.7,0,-3,-1.4,-3,-3.1c0,-1.6,1.3,-3,3,-3c1.7,0,3.1,1.4,3.1,3Z" class="g14_1" />
<path d="M364.2,206.4c0,1.7,-1.4,3.1,-3.1,3.1c-1.7,0,-3.1,-1.4,-3.1,-3.1c0,-1.7,1.4,-3.1,3.1,-3.1c1.7,0,3.1,1.4,3.1,3.1Z" class="g13_1" />
<path d="M364.2,206.4c0,1.7,-1.4,3.1,-3.1,3.1c-1.7,0,-3.1,-1.4,-3.1,-3.1c0,-1.7,1.4,-3.1,3.1,-3.1c1.7,0,3.1,1.4,3.1,3.1Z" class="g14_1" />
<path d="M238.9,206.4c0,1.7,-1.4,3.1,-3.1,3.1c-1.7,0,-3,-1.4,-3,-3.1c0,-1.7,1.3,-3.1,3,-3.1c1.7,0,3.1,1.4,3.1,3.1Z" class="g13_1" />
<path d="M238.9,206.4c0,1.7,-1.4,3.1,-3.1,3.1c-1.7,0,-3,-1.4,-3,-3.1c0,-1.7,1.3,-3.1,3,-3.1c1.7,0,3.1,1.4,3.1,3.1Z" class="g14_1" />
<path d="M113.6,206.4c0,1.7,-1.4,3.1,-3.1,3.1c-1.6,0,-3,-1.4,-3,-3.1c0,-1.7,1.4,-3.1,3,-3.1c1.7,0,3.1,1.4,3.1,3.1Z" class="g13_1" />
<path d="M113.6,206.4c0,1.7,-1.4,3.1,-3.1,3.1c-1.6,0,-3,-1.4,-3,-3.1c0,-1.7,1.4,-3.1,3,-3.1c1.7,0,3.1,1.4,3.1,3.1Z" class="g14_1" />
<path d="M781.2,188.1c0,1.7,-1.3,3,-3,3c-1.7,0,-3.1,-1.3,-3.1,-3c0,-1.7,1.4,-3.1,3.1,-3.1c1.7,0,3,1.4,3,3.1Z" class="g15_1" />
<path d="M781.2,188.1c0,1.7,-1.3,3,-3,3c-1.7,0,-3.1,-1.3,-3.1,-3c0,-1.7,1.4,-3.1,3.1,-3.1c1.7,0,3,1.4,3,3.1Z" class="g16_1" />
<path d="M656,192.7c0,1.6,-1.4,3,-3.1,3c-1.7,0,-3,-1.4,-3,-3c0,-1.7,1.3,-3.1,3,-3.1c1.7,0,3.1,1.4,3.1,3.1Z" class="g15_1" />
<path d="M656,192.7c0,1.6,-1.4,3,-3.1,3c-1.7,0,-3,-1.4,-3,-3c0,-1.7,1.3,-3.1,3,-3.1c1.7,0,3.1,1.4,3.1,3.1Z" class="g16_1" />
<path d="M530.7,197.2c0,1.7,-1.4,3.1,-3.1,3.1c-1.7,0,-3,-1.4,-3,-3.1c0,-1.7,1.3,-3,3,-3c1.7,0,3.1,1.3,3.1,3Z" class="g15_1" />
<path d="M530.7,197.2c0,1.7,-1.4,3.1,-3.1,3.1c-1.7,0,-3,-1.4,-3,-3.1c0,-1.7,1.3,-3,3,-3c1.7,0,3.1,1.3,3.1,3Z" class="g16_1" />
<path d="M448.2,204.9c0,1.7,-1.4,3,-3.1,3c-1.7,0,-3,-1.3,-3,-3c0,-1.7,1.3,-3.1,3,-3.1c1.7,0,3.1,1.4,3.1,3.1Z" class="g15_1" />
<path d="M448.2,204.9c0,1.7,-1.4,3,-3.1,3c-1.7,0,-3,-1.3,-3,-3c0,-1.7,1.3,-3.1,3,-3.1c1.7,0,3.1,1.4,3.1,3.1Z" class="g16_1" />
<path d="M364.2,211c0,1.7,-1.4,3,-3.1,3c-1.7,0,-3.1,-1.3,-3.1,-3c0,-1.7,1.4,-3.1,3.1,-3.1c1.7,0,3.1,1.4,3.1,3.1Z" class="g15_1" />
<path d="M364.2,211c0,1.7,-1.4,3,-3.1,3c-1.7,0,-3.1,-1.3,-3.1,-3c0,-1.7,1.4,-3.1,3.1,-3.1c1.7,0,3.1,1.4,3.1,3.1Z" class="g16_1" />
<path d="M238.9,215.6c0,1.7,-1.4,3,-3.1,3c-1.7,0,-3,-1.3,-3,-3c0,-1.7,1.3,-3.1,3,-3.1c1.7,0,3.1,1.4,3.1,3.1Z" class="g15_1" />
<path d="M238.9,215.6c0,1.7,-1.4,3,-3.1,3c-1.7,0,-3,-1.3,-3,-3c0,-1.7,1.3,-3.1,3,-3.1c1.7,0,3.1,1.4,3.1,3.1Z" class="g16_1" />
<path d="M113.6,220.2c0,1.6,-1.4,3,-3.1,3c-1.6,0,-3,-1.4,-3,-3c0,-1.7,1.4,-3.1,3,-3.1c1.7,0,3.1,1.4,3.1,3.1Z" class="g15_1" />
<path d="M113.6,220.2c0,1.6,-1.4,3,-3.1,3c-1.6,0,-3,-1.4,-3,-3c0,-1.7,1.4,-3.1,3,-3.1c1.7,0,3.1,1.4,3.1,3.1Z" class="g16_1" />
<path d="M781.2,204.9c0,1.7,-1.3,3,-3,3c-1.7,0,-3.1,-1.3,-3.1,-3c0,-1.7,1.4,-3.1,3.1,-3.1c1.7,0,3,1.4,3,3.1Z" class="g17_1" />
<path d="M781.2,204.9c0,1.7,-1.3,3,-3,3c-1.7,0,-3.1,-1.3,-3.1,-3c0,-1.7,1.4,-3.1,3.1,-3.1c1.7,0,3,1.4,3,3.1Z" class="g18_1" />
<path d="M656,204.9c0,1.7,-1.4,3,-3.1,3c-1.7,0,-3,-1.3,-3,-3c0,-1.7,1.3,-3.1,3,-3.1c1.7,0,3.1,1.4,3.1,3.1Z" class="g17_1" />
<path d="M656,204.9c0,1.7,-1.4,3,-3.1,3c-1.7,0,-3,-1.3,-3,-3c0,-1.7,1.3,-3.1,3,-3.1c1.7,0,3.1,1.4,3.1,3.1Z" class="g18_1" />
<path d="M530.7,203.3c0,1.7,-1.4,3.1,-3.1,3.1c-1.7,0,-3,-1.4,-3,-3.1c0,-1.6,1.3,-3,3,-3c1.7,0,3.1,1.4,3.1,3Z" class="g17_1" />
<path d="M530.7,203.3c0,1.7,-1.4,3.1,-3.1,3.1c-1.7,0,-3,-1.4,-3,-3.1c0,-1.6,1.3,-3,3,-3c1.7,0,3.1,1.4,3.1,3Z" class="g18_1" />
<path d="M448.2,204.9c0,1.7,-1.4,3,-3.1,3c-1.7,0,-3,-1.3,-3,-3c0,-1.7,1.3,-3.1,3,-3.1c1.7,0,3.1,1.4,3.1,3.1Z" class="g17_1" />
<path d="M448.2,204.9c0,1.7,-1.4,3,-3.1,3c-1.7,0,-3,-1.3,-3,-3c0,-1.7,1.3,-3.1,3,-3.1c1.7,0,3.1,1.4,3.1,3.1Z" class="g18_1" />
<path d="M364.2,206.4c0,1.7,-1.4,3.1,-3.1,3.1c-1.7,0,-3.1,-1.4,-3.1,-3.1c0,-1.7,1.4,-3.1,3.1,-3.1c1.7,0,3.1,1.4,3.1,3.1Z" class="g17_1" />
<path d="M364.2,206.4c0,1.7,-1.4,3.1,-3.1,3.1c-1.7,0,-3.1,-1.4,-3.1,-3.1c0,-1.7,1.4,-3.1,3.1,-3.1c1.7,0,3.1,1.4,3.1,3.1Z" class="g18_1" />
<path d="M238.9,206.4c0,1.7,-1.4,3.1,-3.1,3.1c-1.7,0,-3,-1.4,-3,-3.1c0,-1.7,1.3,-3.1,3,-3.1c1.7,0,3.1,1.4,3.1,3.1Z" class="g17_1" />
<path d="M238.9,206.4c0,1.7,-1.4,3.1,-3.1,3.1c-1.7,0,-3,-1.4,-3,-3.1c0,-1.7,1.3,-3.1,3,-3.1c1.7,0,3.1,1.4,3.1,3.1Z" class="g18_1" />
<path d="M113.6,206.4c0,1.7,-1.4,3.1,-3.1,3.1c-1.6,0,-3,-1.4,-3,-3.1c0,-1.7,1.4,-3.1,3,-3.1c1.7,0,3.1,1.4,3.1,3.1Z" class="g17_1" />
<path d="M113.6,206.4c0,1.7,-1.4,3.1,-3.1,3.1c-1.6,0,-3,-1.4,-3,-3.1c0,-1.7,1.4,-3.1,3,-3.1c1.7,0,3.1,1.4,3.1,3.1Z" class="g18_1" />
<path d="M781.2,186.5c0,1.7,-1.3,3.1,-3,3.1c-1.7,0,-3.1,-1.4,-3.1,-3.1c0,-1.6,1.4,-3,3.1,-3c1.7,0,3,1.4,3,3Z" class="g19_1" />
<path d="M781.2,186.5c0,1.7,-1.3,3.1,-3,3.1c-1.7,0,-3.1,-1.4,-3.1,-3.1c0,-1.6,1.4,-3,3.1,-3c1.7,0,3,1.4,3,3Z" class="g20_1" />
<path d="M656,192.7c0,1.6,-1.4,3,-3.1,3c-1.7,0,-3,-1.4,-3,-3c0,-1.7,1.3,-3.1,3,-3.1c1.7,0,3.1,1.4,3.1,3.1Z" class="g19_1" />
<path d="M656,192.7c0,1.6,-1.4,3,-3.1,3c-1.7,0,-3,-1.4,-3,-3c0,-1.7,1.3,-3.1,3,-3.1c1.7,0,3.1,1.4,3.1,3.1Z" class="g20_1" />
<path d="M530.7,201.8c0,1.7,-1.4,3.1,-3.1,3.1c-1.7,0,-3,-1.4,-3,-3.1c0,-1.7,1.3,-3,3,-3c1.7,0,3.1,1.3,3.1,3Z" class="g19_1" />
<path d="M530.7,201.8c0,1.7,-1.4,3.1,-3.1,3.1c-1.7,0,-3,-1.4,-3,-3.1c0,-1.7,1.3,-3,3,-3c1.7,0,3.1,1.3,3.1,3Z" class="g20_1" />
<path d="M448.2,206.4c0,1.7,-1.4,3.1,-3.1,3.1c-1.7,0,-3,-1.4,-3,-3.1c0,-1.7,1.3,-3.1,3,-3.1c1.7,0,3.1,1.4,3.1,3.1Z" class="g19_1" />
<path d="M448.2,206.4c0,1.7,-1.4,3.1,-3.1,3.1c-1.7,0,-3,-1.4,-3,-3.1c0,-1.7,1.3,-3.1,3,-3.1c1.7,0,3.1,1.4,3.1,3.1Z" class="g20_1" />
<path d="M364.2,209.5c0,1.6,-1.4,3,-3.1,3c-1.7,0,-3.1,-1.4,-3.1,-3c0,-1.7,1.4,-3.1,3.1,-3.1c1.7,0,3.1,1.4,3.1,3.1Z" class="g19_1" />
<path d="M364.2,209.5c0,1.6,-1.4,3,-3.1,3c-1.7,0,-3.1,-1.4,-3.1,-3c0,-1.7,1.4,-3.1,3.1,-3.1c1.7,0,3.1,1.4,3.1,3.1Z" class="g20_1" />
<path d="M238.9,215.6c0,1.7,-1.4,3,-3.1,3c-1.7,0,-3,-1.3,-3,-3c0,-1.7,1.3,-3.1,3,-3.1c1.7,0,3.1,1.4,3.1,3.1Z" class="g19_1" />
<path d="M238.9,215.6c0,1.7,-1.4,3,-3.1,3c-1.7,0,-3,-1.3,-3,-3c0,-1.7,1.3,-3.1,3,-3.1c1.7,0,3.1,1.4,3.1,3.1Z" class="g20_1" />
<path d="M113.6,224.7c0,1.7,-1.4,3.1,-3.1,3.1c-1.6,0,-3,-1.4,-3,-3.1c0,-1.7,1.4,-3,3,-3c1.7,0,3.1,1.3,3.1,3Z" class="g19_1" />
<path d="M113.6,224.7c0,1.7,-1.4,3.1,-3.1,3.1c-1.6,0,-3,-1.4,-3,-3.1c0,-1.7,1.4,-3,3,-3c1.7,0,3.1,1.3,3.1,3Z" class="g20_1" />
<path d="M781.2,204.9c0,1.7,-1.3,3,-3,3c-1.7,0,-3.1,-1.3,-3.1,-3c0,-1.7,1.4,-3.1,3.1,-3.1c1.7,0,3,1.4,3,3.1Z" class="g21_1" />
<path d="M781.2,204.9c0,1.7,-1.3,3,-3,3c-1.7,0,-3.1,-1.3,-3.1,-3c0,-1.7,1.4,-3.1,3.1,-3.1c1.7,0,3,1.4,3,3.1Z" class="g22_1" />
<path d="M656,204.9c0,1.7,-1.4,3,-3.1,3c-1.7,0,-3,-1.3,-3,-3c0,-1.7,1.3,-3.1,3,-3.1c1.7,0,3.1,1.4,3.1,3.1Z" class="g21_1" />
<path d="M656,204.9c0,1.7,-1.4,3,-3.1,3c-1.7,0,-3,-1.3,-3,-3c0,-1.7,1.3,-3.1,3,-3.1c1.7,0,3.1,1.4,3.1,3.1Z" class="g22_1" />
<path d="M530.7,206.4c0,1.7,-1.4,3.1,-3.1,3.1c-1.7,0,-3,-1.4,-3,-3.1c0,-1.7,1.3,-3.1,3,-3.1c1.7,0,3.1,1.4,3.1,3.1Z" class="g21_1" />
<path d="M530.7,206.4c0,1.7,-1.4,3.1,-3.1,3.1c-1.7,0,-3,-1.4,-3,-3.1c0,-1.7,1.3,-3.1,3,-3.1c1.7,0,3.1,1.4,3.1,3.1Z" class="g22_1" />
<path d="M448.2,206.4c0,1.7,-1.4,3.1,-3.1,3.1c-1.7,0,-3,-1.4,-3,-3.1c0,-1.7,1.3,-3.1,3,-3.1c1.7,0,3.1,1.4,3.1,3.1Z" class="g21_1" />
<path d="M448.2,206.4c0,1.7,-1.4,3.1,-3.1,3.1c-1.7,0,-3,-1.4,-3,-3.1c0,-1.7,1.3,-3.1,3,-3.1c1.7,0,3.1,1.4,3.1,3.1Z" class="g22_1" />
<path d="M364.2,206.4c0,1.7,-1.4,3.1,-3.1,3.1c-1.7,0,-3.1,-1.4,-3.1,-3.1c0,-1.7,1.4,-3.1,3.1,-3.1c1.7,0,3.1,1.4,3.1,3.1Z" class="g21_1" />
<path d="M364.2,206.4c0,1.7,-1.4,3.1,-3.1,3.1c-1.7,0,-3.1,-1.4,-3.1,-3.1c0,-1.7,1.4,-3.1,3.1,-3.1c1.7,0,3.1,1.4,3.1,3.1Z" class="g22_1" />
<path d="M238.9,206.4c0,1.7,-1.4,3.1,-3.1,3.1c-1.7,0,-3,-1.4,-3,-3.1c0,-1.7,1.3,-3.1,3,-3.1c1.7,0,3.1,1.4,3.1,3.1Z" class="g21_1" />
<path d="M238.9,206.4c0,1.7,-1.4,3.1,-3.1,3.1c-1.7,0,-3,-1.4,-3,-3.1c0,-1.7,1.3,-3.1,3,-3.1c1.7,0,3.1,1.4,3.1,3.1Z" class="g22_1" />
<path d="M113.6,206.4c0,1.7,-1.4,3.1,-3.1,3.1c-1.6,0,-3,-1.4,-3,-3.1c0,-1.7,1.4,-3.1,3,-3.1c1.7,0,3.1,1.4,3.1,3.1Z" class="g21_1" />
<path d="M113.6,206.4c0,1.7,-1.4,3.1,-3.1,3.1c-1.6,0,-3,-1.4,-3,-3.1c0,-1.7,1.4,-3.1,3,-3.1c1.7,0,3.1,1.4,3.1,3.1Z" class="g22_1" />
<path d="M781.2,188.1c0,1.7,-1.3,3,-3,3c-1.7,0,-3.1,-1.3,-3.1,-3c0,-1.7,1.4,-3.1,3.1,-3.1c1.7,0,3,1.4,3,3.1Z" class="g23_1" />
<path d="M781.2,188.1c0,1.7,-1.3,3,-3,3c-1.7,0,-3.1,-1.3,-3.1,-3c0,-1.7,1.4,-3.1,3.1,-3.1c1.7,0,3,1.4,3,3.1Z" class="g24_1" />
<path d="M656,192.7c0,1.6,-1.4,3,-3.1,3c-1.7,0,-3,-1.4,-3,-3c0,-1.7,1.3,-3.1,3,-3.1c1.7,0,3.1,1.4,3.1,3.1Z" class="g23_1" />
<path d="M656,192.7c0,1.6,-1.4,3,-3.1,3c-1.7,0,-3,-1.4,-3,-3c0,-1.7,1.3,-3.1,3,-3.1c1.7,0,3.1,1.4,3.1,3.1Z" class="g24_1" />
<path d="M530.7,197.2c0,1.7,-1.4,3.1,-3.1,3.1c-1.7,0,-3,-1.4,-3,-3.1c0,-1.7,1.3,-3,3,-3c1.7,0,3.1,1.3,3.1,3Z" class="g23_1" />
<path d="M530.7,197.2c0,1.7,-1.4,3.1,-3.1,3.1c-1.7,0,-3,-1.4,-3,-3.1c0,-1.7,1.3,-3,3,-3c1.7,0,3.1,1.3,3.1,3Z" class="g24_1" />
<path d="M448.2,206.4c0,1.7,-1.4,3.1,-3.1,3.1c-1.7,0,-3,-1.4,-3,-3.1c0,-1.7,1.3,-3.1,3,-3.1c1.7,0,3.1,1.4,3.1,3.1Z" class="g23_1" />
<path d="M448.2,206.4c0,1.7,-1.4,3.1,-3.1,3.1c-1.7,0,-3,-1.4,-3,-3.1c0,-1.7,1.3,-3.1,3,-3.1c1.7,0,3.1,1.4,3.1,3.1Z" class="g24_1" />
<path d="M364.2,211c0,1.7,-1.4,3,-3.1,3c-1.7,0,-3.1,-1.3,-3.1,-3c0,-1.7,1.4,-3.1,3.1,-3.1c1.7,0,3.1,1.4,3.1,3.1Z" class="g23_1" />
<path d="M364.2,211c0,1.7,-1.4,3,-3.1,3c-1.7,0,-3.1,-1.3,-3.1,-3c0,-1.7,1.4,-3.1,3.1,-3.1c1.7,0,3.1,1.4,3.1,3.1Z" class="g24_1" />
<path d="M238.9,215.6c0,1.7,-1.4,3,-3.1,3c-1.7,0,-3,-1.3,-3,-3c0,-1.7,1.3,-3.1,3,-3.1c1.7,0,3.1,1.4,3.1,3.1Z" class="g23_1" />
<path d="M238.9,215.6c0,1.7,-1.4,3,-3.1,3c-1.7,0,-3,-1.3,-3,-3c0,-1.7,1.3,-3.1,3,-3.1c1.7,0,3.1,1.4,3.1,3.1Z" class="g24_1" />
<path d="M113.6,220.2c0,1.6,-1.4,3,-3.1,3c-1.6,0,-3,-1.4,-3,-3c0,-1.7,1.4,-3.1,3,-3.1c1.7,0,3.1,1.4,3.1,3.1Z" class="g23_1" />
<path d="M113.6,220.2c0,1.6,-1.4,3,-3.1,3c-1.6,0,-3,-1.4,-3,-3c0,-1.7,1.4,-3.1,3,-3.1c1.7,0,3.1,1.4,3.1,3.1Z" class="g24_1" />
<path d="M781.2,204.9c0,1.7,-1.3,3,-3,3c-1.7,0,-3.1,-1.3,-3.1,-3c0,-1.7,1.4,-3.1,3.1,-3.1c1.7,0,3,1.4,3,3.1Z" class="g25_1" />
<path d="M781.2,204.9c0,1.7,-1.3,3,-3,3c-1.7,0,-3.1,-1.3,-3.1,-3c0,-1.7,1.4,-3.1,3.1,-3.1c1.7,0,3,1.4,3,3.1Z" class="g26_1" />
<path d="M656,204.9c0,1.7,-1.4,3,-3.1,3c-1.7,0,-3,-1.3,-3,-3c0,-1.7,1.3,-3.1,3,-3.1c1.7,0,3.1,1.4,3.1,3.1Z" class="g25_1" />
<path d="M656,204.9c0,1.7,-1.4,3,-3.1,3c-1.7,0,-3,-1.3,-3,-3c0,-1.7,1.3,-3.1,3,-3.1c1.7,0,3.1,1.4,3.1,3.1Z" class="g26_1" />
<path d="M530.7,204.9c0,1.7,-1.4,3,-3.1,3c-1.7,0,-3,-1.3,-3,-3c0,-1.7,1.3,-3.1,3,-3.1c1.7,0,3.1,1.4,3.1,3.1Z" class="g25_1" />
<path d="M530.7,204.9c0,1.7,-1.4,3,-3.1,3c-1.7,0,-3,-1.3,-3,-3c0,-1.7,1.3,-3.1,3,-3.1c1.7,0,3.1,1.4,3.1,3.1Z" class="g26_1" />
<path d="M448.2,206.4c0,1.7,-1.4,3.1,-3.1,3.1c-1.7,0,-3,-1.4,-3,-3.1c0,-1.7,1.3,-3.1,3,-3.1c1.7,0,3.1,1.4,3.1,3.1Z" class="g25_1" />
<path d="M448.2,206.4c0,1.7,-1.4,3.1,-3.1,3.1c-1.7,0,-3,-1.4,-3,-3.1c0,-1.7,1.3,-3.1,3,-3.1c1.7,0,3.1,1.4,3.1,3.1Z" class="g26_1" />
<path d="M364.2,206.4c0,1.7,-1.4,3.1,-3.1,3.1c-1.7,0,-3.1,-1.4,-3.1,-3.1c0,-1.7,1.4,-3.1,3.1,-3.1c1.7,0,3.1,1.4,3.1,3.1Z" class="g25_1" />
<path d="M364.2,206.4c0,1.7,-1.4,3.1,-3.1,3.1c-1.7,0,-3.1,-1.4,-3.1,-3.1c0,-1.7,1.4,-3.1,3.1,-3.1c1.7,0,3.1,1.4,3.1,3.1Z" class="g26_1" />
<path d="M238.9,206.4c0,1.7,-1.4,3.1,-3.1,3.1c-1.7,0,-3,-1.4,-3,-3.1c0,-1.7,1.3,-3.1,3,-3.1c1.7,0,3.1,1.4,3.1,3.1Z" class="g25_1" />
<path d="M238.9,206.4c0,1.7,-1.4,3.1,-3.1,3.1c-1.7,0,-3,-1.4,-3,-3.1c0,-1.7,1.3,-3.1,3,-3.1c1.7,0,3.1,1.4,3.1,3.1Z" class="g26_1" />
<path d="M113.6,206.4c0,1.7,-1.4,3.1,-3.1,3.1c-1.6,0,-3,-1.4,-3,-3.1c0,-1.7,1.4,-3.1,3,-3.1c1.7,0,3.1,1.4,3.1,3.1Z" class="g25_1" />
<path d="M113.6,206.4c0,1.7,-1.4,3.1,-3.1,3.1c-1.6,0,-3,-1.4,-3,-3.1c0,-1.7,1.4,-3.1,3,-3.1c1.7,0,3.1,1.4,3.1,3.1Z" class="g26_1" />
<path d="M781.2,188.1c0,1.7,-1.3,3,-3,3c-1.7,0,-3.1,-1.3,-3.1,-3c0,-1.7,1.4,-3.1,3.1,-3.1c1.7,0,3,1.4,3,3.1Z" class="g27_1" />
<path d="M781.2,188.1c0,1.7,-1.3,3,-3,3c-1.7,0,-3.1,-1.3,-3.1,-3c0,-1.7,1.4,-3.1,3.1,-3.1c1.7,0,3,1.4,3,3.1Z" class="g28_1" />
<path d="M656,191.1c0,1.7,-1.4,3.1,-3.1,3.1c-1.7,0,-3,-1.4,-3,-3.1c0,-1.7,1.3,-3,3,-3c1.7,0,3.1,1.3,3.1,3Z" class="g27_1" />
<path d="M656,191.1c0,1.7,-1.4,3.1,-3.1,3.1c-1.7,0,-3,-1.4,-3,-3.1c0,-1.7,1.3,-3,3,-3c1.7,0,3.1,1.3,3.1,3Z" class="g28_1" />
<path d="M530.7,197.2c0,1.7,-1.4,3.1,-3.1,3.1c-1.7,0,-3,-1.4,-3,-3.1c0,-1.7,1.3,-3,3,-3c1.7,0,3.1,1.3,3.1,3Z" class="g27_1" />
<path d="M530.7,197.2c0,1.7,-1.4,3.1,-3.1,3.1c-1.7,0,-3,-1.4,-3,-3.1c0,-1.7,1.3,-3,3,-3c1.7,0,3.1,1.3,3.1,3Z" class="g28_1" />
<path d="M448.2,206.4c0,1.7,-1.4,3.1,-3.1,3.1c-1.7,0,-3,-1.4,-3,-3.1c0,-1.7,1.3,-3.1,3,-3.1c1.7,0,3.1,1.4,3.1,3.1Z" class="g27_1" />
<path d="M448.2,206.4c0,1.7,-1.4,3.1,-3.1,3.1c-1.7,0,-3,-1.4,-3,-3.1c0,-1.7,1.3,-3.1,3,-3.1c1.7,0,3.1,1.4,3.1,3.1Z" class="g28_1" />
<path d="M364.2,214c0,1.7,-1.4,3.1,-3.1,3.1c-1.7,0,-3.1,-1.4,-3.1,-3.1c0,-1.6,1.4,-3,3.1,-3c1.7,0,3.1,1.4,3.1,3Z" class="g27_1" />
<path d="M364.2,214c0,1.7,-1.4,3.1,-3.1,3.1c-1.7,0,-3.1,-1.4,-3.1,-3.1c0,-1.6,1.4,-3,3.1,-3c1.7,0,3.1,1.4,3.1,3Z" class="g28_1" />
<path d="M238.9,218.6c0,1.7,-1.4,3.1,-3.1,3.1c-1.7,0,-3,-1.4,-3,-3.1c0,-1.7,1.3,-3,3,-3c1.7,0,3.1,1.3,3.1,3Z" class="g27_1" />
<path d="M238.9,218.6c0,1.7,-1.4,3.1,-3.1,3.1c-1.7,0,-3,-1.4,-3,-3.1c0,-1.7,1.3,-3,3,-3c1.7,0,3.1,1.3,3.1,3Z" class="g28_1" />
<path d="M113.6,223.2c0,1.7,-1.4,3.1,-3.1,3.1c-1.6,0,-3,-1.4,-3,-3.1c0,-1.7,1.4,-3,3,-3c1.7,0,3.1,1.3,3.1,3Z" class="g27_1" />
<path d="M113.6,223.2c0,1.7,-1.4,3.1,-3.1,3.1c-1.6,0,-3,-1.4,-3,-3.1c0,-1.7,1.4,-3,3,-3c1.7,0,3.1,1.3,3.1,3Z" class="g28_1" />
<path d="M781.2,204.9c0,1.7,-1.3,3,-3,3c-1.7,0,-3.1,-1.3,-3.1,-3c0,-1.7,1.4,-3.1,3.1,-3.1c1.7,0,3,1.4,3,3.1Z" class="g29_1" />
<path d="M781.2,204.9c0,1.7,-1.3,3,-3,3c-1.7,0,-3.1,-1.3,-3.1,-3c0,-1.7,1.4,-3.1,3.1,-3.1c1.7,0,3,1.4,3,3.1Z" class="g30_1" />
<path d="M656,204.9c0,1.7,-1.4,3,-3.1,3c-1.7,0,-3,-1.3,-3,-3c0,-1.7,1.3,-3.1,3,-3.1c1.7,0,3.1,1.4,3.1,3.1Z" class="g29_1" />
<path d="M656,204.9c0,1.7,-1.4,3,-3.1,3c-1.7,0,-3,-1.3,-3,-3c0,-1.7,1.3,-3.1,3,-3.1c1.7,0,3.1,1.4,3.1,3.1Z" class="g30_1" />
<path d="M530.7,204.9c0,1.7,-1.4,3,-3.1,3c-1.7,0,-3,-1.3,-3,-3c0,-1.7,1.3,-3.1,3,-3.1c1.7,0,3.1,1.4,3.1,3.1Z" class="g29_1" />
<path d="M530.7,204.9c0,1.7,-1.4,3,-3.1,3c-1.7,0,-3,-1.3,-3,-3c0,-1.7,1.3,-3.1,3,-3.1c1.7,0,3.1,1.4,3.1,3.1Z" class="g30_1" />
<path d="M448.2,206.4c0,1.7,-1.4,3.1,-3.1,3.1c-1.7,0,-3,-1.4,-3,-3.1c0,-1.7,1.3,-3.1,3,-3.1c1.7,0,3.1,1.4,3.1,3.1Z" class="g29_1" />
<path d="M448.2,206.4c0,1.7,-1.4,3.1,-3.1,3.1c-1.7,0,-3,-1.4,-3,-3.1c0,-1.7,1.3,-3.1,3,-3.1c1.7,0,3.1,1.4,3.1,3.1Z" class="g30_1" />
<path d="M364.2,206.4c0,1.7,-1.4,3.1,-3.1,3.1c-1.7,0,-3.1,-1.4,-3.1,-3.1c0,-1.7,1.4,-3.1,3.1,-3.1c1.7,0,3.1,1.4,3.1,3.1Z" class="g29_1" />
<path d="M364.2,206.4c0,1.7,-1.4,3.1,-3.1,3.1c-1.7,0,-3.1,-1.4,-3.1,-3.1c0,-1.7,1.4,-3.1,3.1,-3.1c1.7,0,3.1,1.4,3.1,3.1Z" class="g30_1" />
<path d="M238.9,204.9c0,1.7,-1.4,3,-3.1,3c-1.7,0,-3,-1.3,-3,-3c0,-1.7,1.3,-3.1,3,-3.1c1.7,0,3.1,1.4,3.1,3.1Z" class="g29_1" />
<path d="M238.9,204.9c0,1.7,-1.4,3,-3.1,3c-1.7,0,-3,-1.3,-3,-3c0,-1.7,1.3,-3.1,3,-3.1c1.7,0,3.1,1.4,3.1,3.1Z" class="g30_1" />
<path d="M113.6,206.4c0,1.7,-1.4,3.1,-3.1,3.1c-1.6,0,-3,-1.4,-3,-3.1c0,-1.7,1.4,-3.1,3,-3.1c1.7,0,3.1,1.4,3.1,3.1Z" class="g29_1" />
<path d="M113.6,206.4c0,1.7,-1.4,3.1,-3.1,3.1c-1.6,0,-3,-1.4,-3,-3.1c0,-1.7,1.4,-3.1,3,-3.1c1.7,0,3.1,1.4,3.1,3.1Z" class="g30_1" />
<path d="M781.2,185c0,1.7,-1.3,3.1,-3,3.1c-1.7,0,-3.1,-1.4,-3.1,-3.1c0,-1.7,1.4,-3,3.1,-3c1.7,0,3,1.3,3,3Z" class="g31_1" />
<path d="M781.2,185c0,1.7,-1.3,3.1,-3,3.1c-1.7,0,-3.1,-1.4,-3.1,-3.1c0,-1.7,1.4,-3,3.1,-3c1.7,0,3,1.3,3,3Z" class="g32_1" />
<path d="M656,191.1c0,1.7,-1.4,3.1,-3.1,3.1c-1.7,0,-3,-1.4,-3,-3.1c0,-1.7,1.3,-3,3,-3c1.7,0,3.1,1.3,3.1,3Z" class="g31_1" />
<path d="M656,191.1c0,1.7,-1.4,3.1,-3.1,3.1c-1.7,0,-3,-1.4,-3,-3.1c0,-1.7,1.3,-3,3,-3c1.7,0,3.1,1.3,3.1,3Z" class="g32_1" />
<path d="M530.7,198.8c0,1.7,-1.4,3,-3.1,3c-1.7,0,-3,-1.3,-3,-3c0,-1.7,1.3,-3.1,3,-3.1c1.7,0,3.1,1.4,3.1,3.1Z" class="g31_1" />
<path d="M530.7,198.8c0,1.7,-1.4,3,-3.1,3c-1.7,0,-3,-1.3,-3,-3c0,-1.7,1.3,-3.1,3,-3.1c1.7,0,3.1,1.4,3.1,3.1Z" class="g32_1" />
<path d="M448.2,206.4c0,1.7,-1.4,3.1,-3.1,3.1c-1.7,0,-3,-1.4,-3,-3.1c0,-1.7,1.3,-3.1,3,-3.1c1.7,0,3.1,1.4,3.1,3.1Z" class="g31_1" />
<path d="M448.2,206.4c0,1.7,-1.4,3.1,-3.1,3.1c-1.7,0,-3,-1.4,-3,-3.1c0,-1.7,1.3,-3.1,3,-3.1c1.7,0,3.1,1.4,3.1,3.1Z" class="g32_1" />
<path d="M364.2,211c0,1.7,-1.4,3,-3.1,3c-1.7,0,-3.1,-1.3,-3.1,-3c0,-1.7,1.4,-3.1,3.1,-3.1c1.7,0,3.1,1.4,3.1,3.1Z" class="g31_1" />
<path d="M364.2,211c0,1.7,-1.4,3,-3.1,3c-1.7,0,-3.1,-1.3,-3.1,-3c0,-1.7,1.4,-3.1,3.1,-3.1c1.7,0,3.1,1.4,3.1,3.1Z" class="g32_1" />
<path d="M238.9,220.2c0,1.6,-1.4,3,-3.1,3c-1.7,0,-3,-1.4,-3,-3c0,-1.7,1.3,-3.1,3,-3.1c1.7,0,3.1,1.4,3.1,3.1Z" class="g31_1" />
<path d="M238.9,220.2c0,1.6,-1.4,3,-3.1,3c-1.7,0,-3,-1.4,-3,-3c0,-1.7,1.3,-3.1,3,-3.1c1.7,0,3.1,1.4,3.1,3.1Z" class="g32_1" />
<path d="M113.6,226.3c0,1.7,-1.4,3,-3.1,3c-1.6,0,-3,-1.3,-3,-3c0,-1.7,1.4,-3.1,3,-3.1c1.7,0,3.1,1.4,3.1,3.1Z" class="g31_1" />
<path d="M113.6,226.3c0,1.7,-1.4,3,-3.1,3c-1.6,0,-3,-1.3,-3,-3c0,-1.7,1.4,-3.1,3,-3.1c1.7,0,3.1,1.4,3.1,3.1Z" class="g32_1" />
<path d="M781.2,204.9c0,1.7,-1.3,3,-3,3c-1.7,0,-3.1,-1.3,-3.1,-3c0,-1.7,1.4,-3.1,3.1,-3.1c1.7,0,3,1.4,3,3.1Z" class="g33_1" />
<path d="M781.2,204.9c0,1.7,-1.3,3,-3,3c-1.7,0,-3.1,-1.3,-3.1,-3c0,-1.7,1.4,-3.1,3.1,-3.1c1.7,0,3,1.4,3,3.1Z" class="g34_1" />
<path d="M656,204.9c0,1.7,-1.4,3,-3.1,3c-1.7,0,-3,-1.3,-3,-3c0,-1.7,1.3,-3.1,3,-3.1c1.7,0,3.1,1.4,3.1,3.1Z" class="g33_1" />
<path d="M656,204.9c0,1.7,-1.4,3,-3.1,3c-1.7,0,-3,-1.3,-3,-3c0,-1.7,1.3,-3.1,3,-3.1c1.7,0,3.1,1.4,3.1,3.1Z" class="g34_1" />
<path d="M530.7,206.4c0,1.7,-1.4,3.1,-3.1,3.1c-1.7,0,-3,-1.4,-3,-3.1c0,-1.7,1.3,-3.1,3,-3.1c1.7,0,3.1,1.4,3.1,3.1Z" class="g33_1" />
<path d="M530.7,206.4c0,1.7,-1.4,3.1,-3.1,3.1c-1.7,0,-3,-1.4,-3,-3.1c0,-1.7,1.3,-3.1,3,-3.1c1.7,0,3.1,1.4,3.1,3.1Z" class="g34_1" />
<path d="M448.2,206.4c0,1.7,-1.4,3.1,-3.1,3.1c-1.7,0,-3,-1.4,-3,-3.1c0,-1.7,1.3,-3.1,3,-3.1c1.7,0,3.1,1.4,3.1,3.1Z" class="g33_1" />
<path d="M448.2,206.4c0,1.7,-1.4,3.1,-3.1,3.1c-1.7,0,-3,-1.4,-3,-3.1c0,-1.7,1.3,-3.1,3,-3.1c1.7,0,3.1,1.4,3.1,3.1Z" class="g34_1" />
<path d="M364.2,204.9c0,1.7,-1.4,3,-3.1,3c-1.7,0,-3.1,-1.3,-3.1,-3c0,-1.7,1.4,-3.1,3.1,-3.1c1.7,0,3.1,1.4,3.1,3.1Z" class="g33_1" />
<path d="M364.2,204.9c0,1.7,-1.4,3,-3.1,3c-1.7,0,-3.1,-1.3,-3.1,-3c0,-1.7,1.4,-3.1,3.1,-3.1c1.7,0,3.1,1.4,3.1,3.1Z" class="g34_1" />
<path d="M238.9,206.4c0,1.7,-1.4,3.1,-3.1,3.1c-1.7,0,-3,-1.4,-3,-3.1c0,-1.7,1.3,-3.1,3,-3.1c1.7,0,3.1,1.4,3.1,3.1Z" class="g33_1" />
<path d="M238.9,206.4c0,1.7,-1.4,3.1,-3.1,3.1c-1.7,0,-3,-1.4,-3,-3.1c0,-1.7,1.3,-3.1,3,-3.1c1.7,0,3.1,1.4,3.1,3.1Z" class="g34_1" />
<path d="M113.6,206.4c0,1.7,-1.4,3.1,-3.1,3.1c-1.6,0,-3,-1.4,-3,-3.1c0,-1.7,1.4,-3.1,3,-3.1c1.7,0,3.1,1.4,3.1,3.1Z" class="g33_1" />
<path d="M113.6,206.4c0,1.7,-1.4,3.1,-3.1,3.1c-1.6,0,-3,-1.4,-3,-3.1c0,-1.7,1.4,-3.1,3,-3.1c1.7,0,3.1,1.4,3.1,3.1Z" class="g34_1" />
<path d="M113.7,41.4v0c.8,.4,1.1,1.3,.7,2.1c-.3,.7,-1.3,1,-2,.7v-.1c-.8,-.3,-1.1,-1.2,-.7,-2c.4,-.8,1.3,-1.1,2,-.7Zm5.5,2.7v0c.8,.4,1.1,1.3,.7,2c-.3,.8,-1.3,1.1,-2,.7c-.8,-.3,-1.1,-1.2,-.7,-2c.3,-.8,1.3,-1.1,2,-.7Zm5.5,2.7v0c.8,.4,1.1,1.3,.7,2c-.4,.8,-1.3,1.1,-2,.7c-.8,-.3,-1.1,-1.3,-.7,-2c.3,-.8,1.3,-1.1,2,-.7Zm5.5,2.7v0c.8,.3,1.1,1.3,.7,2c-.4,.8,-1.3,1.1,-2,.7c-.8,-.4,-1.1,-1.3,-.7,-2c.3,-.8,1.2,-1.1,2,-.7Zm5.5,2.7v0c.8,.3,1.1,1.2,.7,2c-.4,.8,-1.3,1.1,-2,.7h-.1c-.7,-.4,-1,-1.3,-.7,-2c.4,-.8,1.3,-1.1,2.1,-.7Zm5.5,2.7v0c.7,.3,1.1,1.2,.7,2c-.4,.8,-1.3,1.1,-2.1,.7c-.7,-.4,-1,-1.3,-.7,-2c.4,-.8,1.3,-1.1,2.1,-.7Zm5.5,2.6v0c.7,.4,1,1.3,.7,2.1c-.4,.7,-1.3,1.1,-2.1,.7c-.7,-.4,-1,-1.3,-.7,-2.1c.4,-.7,1.3,-1,2.1,-.7Zm5.5,2.7v0c.7,.4,1,1.3,.7,2.1c-.4,.7,-1.3,1,-2.1,.7c-.7,-.4,-1,-1.3,-.7,-2.1c.4,-.7,1.3,-1,2.1,-.7Zm5.5,2.7v0c.7,.4,1,1.3,.7,2.1c-.4,.7,-1.3,1,-2.1,.7c-.7,-.4,-1.1,-1.3,-.7,-2.1c.4,-.7,1.3,-1.1,2.1,-.7Zm5.4,2.7h.1c.7,.4,1,1.3,.7,2.1c-.4,.7,-1.3,1,-2.1,.7c-.8,-.4,-1.1,-1.3,-.7,-2.1c.4,-.8,1.3,-1.1,2,-.7Zm5.5,2.7v0c.8,.4,1.1,1.3,.7,2c-.3,.8,-1.2,1.1,-2,.7c-.8,-.3,-1.1,-1.2,-.7,-2c.4,-.8,1.3,-1.1,2,-.7Zm5.5,2.7v0c.8,.4,1.1,1.3,.7,2c-.3,.8,-1.3,1.1,-2,.7c-.8,-.3,-1.1,-1.3,-.7,-2c.4,-.8,1.3,-1.1,2,-.7Zm5.5,2.7v0c.8,.3,1.1,1.3,.7,2c-.3,.8,-1.3,1.1,-2,.7c-.8,-.4,-1.1,-1.3,-.7,-2c.3,-.8,1.3,-1.1,2,-.7Zm5.5,2.7v0c.8,.3,1.1,1.2,.7,2c-.4,.8,-1.3,1.1,-2,.7c-.8,-.4,-1.1,-1.3,-.7,-2c.3,-.8,1.3,-1.1,2,-.7Zm5.5,2.7v0c.8,.3,1.1,1.2,.7,2c-.4,.8,-1.3,1.1,-2,.7c-.8,-.4,-1.1,-1.3,-.7,-2c.3,-.8,1.2,-1.1,2,-.7Zm5.5,2.6v0c.8,.4,1.1,1.3,.7,2.1c-.4,.7,-1.3,1.1,-2,.7c-.8,-.4,-1.1,-1.3,-.8,-2.1c.4,-.7,1.3,-1,2.1,-.7Zm5.5,2.7v0c.7,.4,1.1,1.3,.7,2.1c-.4,.7,-1.3,1,-2.1,.7c-.7,-.4,-1,-1.3,-.7,-2.1c.4,-.7,1.3,-1,2.1,-.7Zm5.5,2.7v0c.7,.4,1.1,1.3,.7,2.1c-.4,.7,-1.3,1,-2.1,.7c-.7,-.4,-1,-1.3,-.7,-2.1c.4,-.7,1.3,-1.1,2.1,-.7Zm5.5,2.7v0c.7,.4,1,1.3,.7,2.1c-.4,.7,-1.3,1,-2.1,.7c-.7,-.4,-1,-1.3,-.7,-2.1c.4,-.7,1.3,-1.1,2.1,-.7Zm5.5,2.7v0c.7,.4,1,1.3,.7,2c-.4,.8,-1.3,1.1,-2.1,.7c-.7,-.3,-1.1,-1.2,-.7,-2c.4,-.8,1.3,-1.1,2.1,-.7Zm5.4,2.7h.1c.7,.4,1,1.3,.7,2c-.4,.8,-1.3,1.1,-2.1,.7c-.8,-.3,-1.1,-1.3,-.7,-2c.4,-.8,1.3,-1.1,2,-.7Zm5.5,2.7v0c.8,.3,1.1,1.3,.7,2c-.3,.8,-1.2,1.1,-2,.7c-.8,-.4,-1.1,-1.3,-.7,-2c.4,-.8,1.3,-1.1,2,-.7Zm5.5,2.7v0c.8,.3,1.1,1.3,.7,2c-.3,.8,-1.3,1.1,-2,.7c-.8,-.4,-1.1,-1.3,-.7,-2c.4,-.8,1.3,-1.1,2,-.7Zm5.5,2.7v0c.8,.3,1.1,1.2,.7,2c-.3,.8,-1.3,1.1,-2,.7c-.8,-.4,-1.1,-1.3,-.7,-2c.4,-.8,1.3,-1.1,2,-.7Zm5.5,2.6v0c.8,.4,1.1,1.3,.7,2.1c-.4,.7,-1.3,1.1,-2,.7c-.8,-.4,-1.1,-1.3,-.7,-2.1c.3,-.7,1.3,-1,2,-.7Zm5.5,2.7v0c.8,.4,1.1,1.3,.7,2.1c-.4,.7,-1.3,1,-2,.7c-.8,-.4,-1.1,-1.3,-.7,-2.1c.3,-.7,1.3,-1,2,-.7Zm5.5,2.7v0c.8,.4,1.1,1.3,.7,2.1c-.4,.7,-1.3,1,-2,.7c-.8,-.4,-1.1,-1.3,-.7,-2.1c.3,-.7,1.2,-1.1,2,-.7ZM262,114v0c.7,.4,1.1,1.3,.7,2.1c-.4,.7,-1.3,1,-2.1,.7c-.7,-.4,-1,-1.3,-.7,-2.1c.4,-.8,1.3,-1.1,2.1,-.7Zm5.5,2.7v0c.7,.4,1.1,1.3,.7,2c-.4,.8,-1.3,1.1,-2.1,.7c-.7,-.3,-1,-1.2,-.7,-2c.4,-.8,1.3,-1.1,2.1,-.7Zm5.5,2.7v0c.7,.4,1,1.3,.7,2c-.4,.8,-1.3,1.1,-2.1,.7c-.7,-.3,-1,-1.3,-.7,-2c.4,-.8,1.3,-1.1,2.1,-.7Zm5.5,2.7v0c.7,.4,1,1.3,.7,2c-.4,.8,-1.3,1.1,-2.1,.7c-.7,-.4,-1.1,-1.3,-.7,-2c.4,-.8,1.3,-1.1,2.1,-.7Zm5.5,2.7v0c.7,.3,1,1.3,.7,2c-.4,.8,-1.3,1.1,-2.1,.7c-.8,-.4,-1.1,-1.3,-.7,-2c.4,-.8,1.3,-1.1,2.1,-.7Zm5.4,2.7v0c.8,.3,1.1,1.2,.7,2c-.3,.8,-1.2,1.1,-2,.7c-.8,-.4,-1.1,-1.3,-.7,-2c.4,-.8,1.3,-1.1,2,-.7Zm5.5,2.6v0c.8,.4,1.1,1.3,.7,2.1c-.3,.7,-1.3,1.1,-2,.7c-.8,-.4,-1.1,-1.3,-.7,-2.1c.4,-.7,1.3,-1,2,-.7Zm5.5,2.7v0c.8,.4,1.1,1.3,.7,2.1c-.3,.7,-1.3,1,-2,.7c-.8,-.4,-1.1,-1.3,-.7,-2.1c.4,-.7,1.3,-1,2,-.7Zm5.5,2.7v0c.8,.4,1.1,1.3,.7,2.1c-.4,.7,-1.3,1,-2,.7c-.8,-.4,-1.1,-1.3,-.7,-2.1c.3,-.7,1.3,-1.1,2,-.7Zm5.5,2.7v0c.8,.4,1.1,1.3,.7,2.1c-.4,.7,-1.3,1,-2,.7c-.8,-.4,-1.1,-1.3,-.7,-2.1c.3,-.7,1.3,-1.1,2,-.7Zm5.5,2.7v0c.8,.4,1.1,1.3,.7,2c-.4,.8,-1.3,1.1,-2,.7c-.8,-.3,-1.1,-1.2,-.7,-2c.3,-.8,1.2,-1.1,2,-.7Zm5.5,2.7v0c.8,.4,1.1,1.3,.7,2c-.4,.8,-1.3,1.1,-2.1,.7c-.7,-.3,-1,-1.3,-.7,-2c.4,-.8,1.3,-1.1,2.1,-.7Zm5.5,2.7v0c.7,.4,1.1,1.3,.7,2c-.4,.8,-1.3,1.1,-2.1,.7c-.7,-.4,-1,-1.3,-.7,-2c.4,-.8,1.3,-1.1,2.1,-.7Zm5.5,2.7v0c.7,.3,1,1.3,.7,2c-.4,.8,-1.3,1.1,-2.1,.7c-.7,-.4,-1,-1.3,-.7,-2c.4,-.8,1.3,-1.1,2.1,-.7Zm5.5,2.7v0c.7,.3,1,1.2,.7,2c-.4,.8,-1.3,1.1,-2.1,.7c-.7,-.4,-1.1,-1.3,-.7,-2c.4,-.8,1.3,-1.1,2.1,-.7Zm5.5,2.6v0c.7,.4,1,1.3,.7,2.1c-.4,.7,-1.3,1.1,-2.1,.7c-.7,-.4,-1.1,-1.3,-.7,-2.1c.4,-.7,1.3,-1,2.1,-.7Zm5.4,2.7h.1c.7,.4,1,1.3,.6,2.1c-.3,.7,-1.2,1,-2,.7c-.8,-.4,-1.1,-1.3,-.7,-2.1c.4,-.7,1.3,-1,2,-.7Zm5.5,2.7v0c.8,.4,1.1,1.3,.7,2.1c-.3,.7,-1.3,1,-2,.7c-.8,-.4,-1.1,-1.3,-.7,-2.1c.4,-.7,1.3,-1,2,-.7Zm5.5,2.7v0c.8,.4,1.1,1.3,.7,2.1c-.3,.7,-1.3,1,-2,.7c-.8,-.4,-1.1,-1.3,-.7,-2.1c.4,-.7,1.3,-1.1,2,-.7Zm5.5,2.7v0c.8,.4,1.1,1.3,.7,2c-.4,.8,-1.3,1.1,-2,.7c-.8,-.3,-1.1,-1.2,-.7,-2c.3,-.8,1.3,-1.1,2,-.7Zm5.5,2.7v0c.8,.4,1.1,1.3,.7,2c-.4,.8,-1.3,1.1,-2,.7c-.8,-.3,-1.1,-1.3,-.7,-2c.3,-.8,1.3,-1.1,2,-.7Zm5.5,2.7v0c.8,.3,1.1,1.3,.7,2c-.4,.8,-1.3,1.1,-2,.7c-.8,-.3,-1.1,-1.3,-.7,-2c.3,-.8,1.2,-1.1,2,-.7Zm5.5,2.7v0c.8,.3,1.1,1.3,.7,2c-.4,.8,-1.3,1.1,-2,.7h-.1c-.7,-.4,-1,-1.3,-.7,-2c.4,-.8,1.3,-1.1,2.1,-.7Zm5.5,2.7v0c.7,.3,1.1,1.2,.7,2c-.4,.8,-1.3,1.1,-2.1,.7c-.7,-.4,-1,-1.3,-.7,-2c.4,-.8,1.3,-1.1,2.1,-.7Zm5.5,2.6v0c.7,.4,1,1.3,.7,2.1c-.4,.7,-1.3,1.1,-2.1,.7c-.7,-.4,-1,-1.3,-.7,-2.1c.4,-.7,1.3,-1,2.1,-.7Zm5.5,2.7v0c.7,.4,1,1.3,.7,2.1c-.4,.7,-1.3,1.1,-2.1,.7c-.7,-.4,-1.1,-1.3,-.7,-2.1c.4,-.7,1.3,-1,2.1,-.7Zm5.5,2.7v0c.7,.4,1,1.3,.7,2.1c-.4,.7,-1.3,1,-2.1,.7c-.7,-.4,-1.1,-1.3,-.7,-2.1c.4,-.7,1.3,-1,2.1,-.7Zm5.4,2.7v0c.8,.4,1.1,1.3,.8,2.1c-.4,.7,-1.3,1,-2.1,.7c-.8,-.4,-1.1,-1.3,-.7,-2.1c.4,-.7,1.3,-1.1,2,-.7Zm5.5,2.7v0c.8,.4,1.1,1.3,.7,2c-.3,.8,-1.2,1.1,-2,.7c-.8,-.3,-1.1,-1.2,-.7,-2c.4,-.8,1.3,-1.1,2,-.7Zm5.5,2.7v0c.8,.4,1.1,1.3,.7,2c-.3,.8,-1.3,1.1,-2,.7c-.8,-.3,-1.1,-1.3,-.7,-2c.4,-.8,1.3,-1.1,2,-.7Zm5.5,2.7v0c.8,.4,1.1,1.3,.7,2c-.3,.8,-1.3,1.1,-2,.7c-.8,-.3,-1.1,-1.3,-.7,-2c.3,-.8,1.3,-1.1,2,-.7Zm5.5,2.7v0c.8,.3,1.1,1.3,.7,2c-.4,.8,-1.3,1.1,-2,.7c-.8,-.4,-1.1,-1.3,-.7,-2c.3,-.8,1.3,-1.1,2,-.7Zm5.5,2.7v0c.8,.3,1.1,1.2,.7,2c-.4,.8,-1.3,1.1,-2,.7c-.8,-.4,-1.1,-1.3,-.7,-2c.3,-.8,1.2,-1.1,2,-.7Zm5.5,2.6v0c.8,.4,1.1,1.3,.7,2.1c-.4,.7,-1.3,1.1,-2,.7c-.8,-.4,-1.1,-1.3,-.8,-2.1c.4,-.7,1.3,-1,2.1,-.7Zm5.5,2.7v0c.7,.4,1.1,1.3,.7,2.1c-.4,.7,-1.3,1.1,-2.1,.7c-.7,-.4,-1,-1.3,-.7,-2.1c.4,-.7,1.3,-1,2.1,-.7Zm5.5,2.7v0c.7,.4,1,1.3,.7,2.1c-.4,.7,-1.3,1,-2.1,.7c-.7,-.4,-1,-1.3,-.7,-2.1c.4,-.7,1.3,-1,2.1,-.7Zm5.5,2.7v0c.7,.4,1,1.3,.7,2.1c-.4,.7,-1.3,1,-2.1,.7c-.7,-.4,-1,-1.3,-.7,-2.1c.4,-.7,1.3,-1.1,2.1,-.7Zm5.5,2.7v0c.7,.4,1,1.3,.7,2c-.4,.8,-1.3,1.1,-2.1,.7c-.7,-.3,-1.1,-1.2,-.7,-2c.4,-.8,1.3,-1.1,2.1,-.7Zm5.4,2.7h.1c.7,.4,1,1.3,.7,2c-.4,.8,-1.3,1.1,-2.1,.7c-.8,-.3,-1.1,-1.2,-.7,-2c.4,-.8,1.3,-1.1,2,-.7Zm5.5,2.7v0c.8,.4,1.1,1.3,.7,2c-.3,.8,-1.2,1.1,-2,.7c-.8,-.3,-1.1,-1.3,-.7,-2c.4,-.8,1.3,-1.1,2,-.7Zm5.5,2.7v0c.8,.3,1.1,1.3,.7,2c-.3,.8,-1.3,1.1,-2,.7c-.8,-.4,-1.1,-1.3,-.7,-2c.4,-.8,1.3,-1.1,2,-.7Zm5.5,2.7v0c.8,.3,1.1,1.2,.7,2c-.3,.8,-1.3,1.1,-2,.7c-.8,-.4,-1.1,-1.3,-.7,-2c.3,-.8,1.3,-1.1,2,-.7Zm5.5,2.6v0c.8,.4,1.1,1.3,.7,2.1c-.4,.7,-1.3,1.1,-2,.7c-.8,-.4,-1.1,-1.3,-.7,-2.1c.3,-.7,1.3,-1,2,-.7Zm5.5,2.7v0c.8,.4,1.1,1.3,.7,2.1c-.4,.7,-1.3,1.1,-2,.7c-.8,-.4,-1.1,-1.3,-.7,-2.1c.3,-.7,1.2,-1,2,-.7Zm5.5,2.7v0c.8,.4,1.1,1.3,.7,2.1c-.4,.7,-1.3,1,-2,.7c-.8,-.4,-1.1,-1.3,-.7,-2.1c.3,-.7,1.2,-1,2,-.7Zm5.5,2.7v0c.7,.4,1.1,1.3,.7,2.1c-.4,.7,-1.3,1,-2.1,.7c-.7,-.4,-1,-1.3,-.7,-2.1c.4,-.7,1.3,-1.1,2.1,-.7Zm5.5,2.7v0c.7,.4,1.1,1.3,.7,2c-.4,.8,-1.3,1.1,-2.1,.7c-.7,-.3,-1,-1.2,-.7,-2c.4,-.8,1.3,-1.1,2.1,-.7Zm5.5,2.7v0c.7,.4,1,1.3,.7,2c-.4,.8,-1.3,1.1,-2.1,.7c-.7,-.3,-1,-1.2,-.7,-2c.4,-.8,1.3,-1.1,2.1,-.7Zm5.5,2.7v0c.7,.4,1,1.3,.7,2c-.4,.8,-1.3,1.1,-2.1,.7c-.7,-.3,-1.1,-1.3,-.7,-2c.4,-.8,1.3,-1.1,2.1,-.7Zm5.5,2.7v0c.7,.3,1,1.3,.7,2c-.4,.8,-1.3,1.1,-2.1,.7c-.7,-.4,-1.1,-1.3,-.7,-2c.4,-.8,1.3,-1.1,2.1,-.7Zm5.4,2.7v0c.8,.3,1.1,1.2,.7,2c-.3,.8,-1.2,1.1,-2,.7c-.8,-.4,-1.1,-1.3,-.7,-2c.4,-.8,1.3,-1.1,2,-.7Zm5.5,2.6v0c.8,.4,1.1,1.3,.7,2.1c-.3,.8,-1.2,1.1,-2,.7c-.8,-.4,-1.1,-1.3,-.7,-2.1c.4,-.7,1.3,-1,2,-.7Zm5.5,2.7v0c.8,.4,1.1,1.3,.7,2.1c-.3,.7,-1.3,1.1,-2,.7c-.8,-.4,-1.1,-1.3,-.7,-2.1c.4,-.7,1.3,-1,2,-.7Zm5.5,2.7v0c.8,.4,1.1,1.3,.7,2.1c-.4,.7,-1.3,1,-2,.7c-.8,-.4,-1.1,-1.3,-.7,-2.1c.3,-.7,1.3,-1,2,-.7Zm5.5,2.7v0c.8,.4,1.1,1.3,.7,2.1c-.4,.7,-1.3,1,-2,.7c-.8,-.4,-1.1,-1.3,-.7,-2.1c.3,-.7,1.2,-1.1,2,-.7Zm5.5,2.7v0c.8,.4,1.1,1.3,.7,2c-.4,.8,-1.3,1.1,-2,.8v-.1c-.8,-.3,-1.1,-1.2,-.7,-2c.3,-.8,1.2,-1.1,2,-.7Zm5.5,2.7v0c.7,.4,1.1,1.3,.7,2c-.4,.8,-1.3,1.1,-2.1,.7c-.7,-.3,-1,-1.2,-.7,-2c.4,-.8,1.3,-1.1,2.1,-.7Zm5.5,2.7v0c.7,.4,1.1,1.3,.7,2c-.4,.8,-1.3,1.1,-2.1,.7c-.7,-.3,-1,-1.3,-.7,-2c.4,-.8,1.3,-1.1,2.1,-.7Zm5.5,2.7v0c.7,.3,1,1.3,.7,2c-.4,.8,-1.3,1.1,-2.1,.7c-.7,-.4,-1,-1.3,-.7,-2c.4,-.8,1.3,-1.1,2.1,-.7Zm5.5,2.7v0c.7,.3,1,1.2,.7,2c-.4,.8,-1.3,1.1,-2.1,.7c-.7,-.4,-1.1,-1.3,-.7,-2c.4,-.8,1.3,-1.1,2.1,-.7Zm5.5,2.6v.1c.7,.3,1,1.2,.7,2c-.4,.8,-1.3,1.1,-2.1,.7c-.7,-.4,-1.1,-1.3,-.7,-2c.4,-.8,1.3,-1.1,2.1,-.8Zm5.4,2.7v0c.8,.4,1.1,1.3,.7,2.1c-.3,.7,-1.2,1.1,-2,.7c-.8,-.4,-1.1,-1.3,-.7,-2.1c.4,-.7,1.3,-1,2,-.7Zm5.5,2.7v0c.8,.4,1.1,1.3,.7,2.1c-.3,.7,-1.2,1,-2,.7c-.8,-.4,-1.1,-1.3,-.7,-2.1c.4,-.7,1.3,-1,2,-.7Zm5.5,2.7v0c.8,.4,1.1,1.3,.7,2.1c-.3,.7,-1.3,1,-2,.7c-.8,-.4,-1.1,-1.3,-.7,-2.1c.4,-.7,1.3,-1.1,2,-.7Zm5.5,2.7v0c.8,.4,1.1,1.3,.7,2.1c-.3,.7,-1.3,1,-2,.7c-.8,-.4,-1.1,-1.3,-.7,-2.1c.3,-.8,1.3,-1.1,2,-.7Zm5.5,2.7v0c.8,.4,1.1,1.3,.7,2c-.4,.8,-1.3,1.1,-2,.7c-.8,-.3,-1.1,-1.2,-.7,-2c.3,-.8,1.2,-1.1,2,-.7Zm5.5,2.7v0c.8,.3,1.1,1.3,.7,2c-.4,.8,-1.3,1.1,-2,.7c-.8,-.3,-1.1,-1.2,-.7,-2c.3,-.8,1.2,-1.1,2,-.7Zm5.5,2.7v0c.8,.3,1.1,1.3,.7,2c-.4,.8,-1.3,1.1,-2,.7h-.1c-.7,-.4,-1,-1.3,-.7,-2c.4,-.8,1.3,-1.1,2.1,-.7Zm5.5,2.7v0c.7,.3,1.1,1.2,.7,2c-.4,.8,-1.3,1.1,-2.1,.7c-.7,-.4,-1,-1.3,-.7,-2c.4,-.8,1.3,-1.1,2.1,-.7Zm5.5,2.7v0c.7,.3,1,1.2,.7,2c-.4,.8,-1.3,1.1,-2.1,.7c-.7,-.4,-1,-1.3,-.7,-2c.4,-.8,1.3,-1.1,2.1,-.7Zm5.5,2.6v0c.7,.4,1,1.3,.7,2.1c-.4,.7,-1.3,1.1,-2.1,.7c-.7,-.4,-1,-1.3,-.7,-2.1c.4,-.7,1.3,-1,2.1,-.7Zm5.5,2.7v0c.7,.4,1,1.3,.7,2.1c-.4,.7,-1.3,1,-2.1,.7c-.7,-.4,-1.1,-1.3,-.7,-2.1c.4,-.7,1.3,-1,2.1,-.7Zm5.4,2.7h.1c.7,.4,1,1.3,.7,2.1c-.4,.7,-1.3,1,-2.1,.7c-.8,-.4,-1.1,-1.3,-.7,-2.1c.4,-.7,1.3,-1.1,2,-.7Zm5.5,2.7v0c.8,.4,1.1,1.3,.7,2.1c-.3,.7,-1.2,1,-2,.7c-.8,-.4,-1.1,-1.3,-.7,-2.1c.4,-.8,1.3,-1.1,2,-.7Zm5.5,2.7v0c.8,.4,1.1,1.3,.7,2c-.3,.8,-1.3,1.1,-2,.7c-.8,-.3,-1.1,-1.2,-.7,-2c.4,-.8,1.3,-1.1,2,-.7Zm5.5,2.7v0c.8,.4,1.1,1.3,.7,2c-.3,.8,-1.3,1.1,-2,.7c-.8,-.3,-1.1,-1.3,-.7,-2c.3,-.8,1.3,-1.1,2,-.7Zm5.5,2.7v0c.8,.3,1.1,1.3,.7,2c-.4,.8,-1.3,1.1,-2,.7c-.8,-.4,-1.1,-1.3,-.7,-2c.3,-.8,1.3,-1.1,2,-.7Zm5.5,2.7v0c.8,.3,1.1,1.2,.7,2c-.4,.8,-1.3,1.1,-2,.7c-.8,-.4,-1.1,-1.3,-.7,-2c.3,-.8,1.2,-1.1,2,-.7Zm5.5,2.7v0c.8,.3,1.1,1.2,.7,2c-.4,.8,-1.3,1.1,-2,.7c-.8,-.4,-1.1,-1.3,-.7,-2c.3,-.8,1.2,-1.1,2,-.7Zm5.5,2.6v0c.7,.4,1.1,1.3,.7,2.1c-.4,.7,-1.3,1.1,-2.1,.7c-.7,-.4,-1,-1.3,-.7,-2.1c.4,-.7,1.3,-1,2.1,-.7Zm5.5,2.7v0c.7,.4,1.1,1.3,.7,2.1c-.4,.7,-1.3,1,-2.1,.7c-.7,-.4,-1,-1.3,-.7,-2.1c.4,-.7,1.3,-1,2.1,-.7Zm5.5,2.7v0c.7,.4,1,1.3,.7,2.1c-.4,.7,-1.3,1,-2.1,.7c-.7,-.4,-1,-1.3,-.7,-2.1c.4,-.7,1.3,-1.1,2.1,-.7Zm5.5,2.7v0c.7,.4,1,1.3,.7,2.1c-.4,.7,-1.3,1,-2.1,.7c-.7,-.4,-1.1,-1.3,-.7,-2.1c.4,-.7,1.3,-1.1,2.1,-.7Zm5.4,2.7h.1c.7,.4,1,1.3,.7,2c-.4,.8,-1.3,1.1,-2.1,.7c-.8,-.3,-1.1,-1.2,-.7,-2c.4,-.8,1.3,-1.1,2,-.7Zm5.5,2.7v0c.8,.4,1.1,1.3,.7,2c-.3,.8,-1.2,1.1,-2,.7c-.8,-.3,-1.1,-1.3,-.7,-2c.4,-.8,1.3,-1.1,2,-.7Zm5.5,2.7v0c.8,.3,1.1,1.3,.7,2c-.3,.8,-1.3,1.1,-2,.7c-.8,-.4,-1.1,-1.3,-.7,-2c.4,-.8,1.3,-1.1,2,-.7Zm5.5,2.7v0c.8,.3,1.1,1.3,.7,2c-.3,.8,-1.3,1.1,-2,.7c-.8,-.4,-1.1,-1.3,-.7,-2c.3,-.8,1.3,-1.1,2,-.7Zm5.5,2.7v0c.8,.3,1.1,1.2,.7,2c-.4,.8,-1.3,1.1,-2,.7c-.8,-.4,-1.1,-1.3,-.7,-2c.3,-.8,1.3,-1.1,2,-.7Zm5.5,2.6v0c.8,.4,1.1,1.3,.7,2.1c-.4,.7,-1.3,1.1,-2,.7c-.8,-.4,-1.1,-1.3,-.7,-2.1c.3,-.7,1.2,-1,2,-.7Zm5.5,2.7v0c.8,.4,1.1,1.3,.7,2.1c-.4,.7,-1.3,1,-2,.7c-.8,-.4,-1.1,-1.3,-.7,-2.1c.3,-.7,1.2,-1,2,-.7Zm5.5,2.7v0c.7,.4,1.1,1.3,.7,2.1c-.4,.7,-1.3,1,-2.1,.7c-.7,-.4,-1,-1.3,-.7,-2.1c.4,-.7,1.3,-1.1,2.1,-.7Zm5.5,2.7v0c.7,.4,1.1,1.3,.7,2.1c-.4,.7,-1.3,1,-2.1,.7c-.7,-.4,-1,-1.3,-.7,-2.1c.4,-.7,1.3,-1.1,2.1,-.7Zm5.5,2.7v0c.7,.4,1,1.3,.7,2c-.4,.8,-1.3,1.1,-2.1,.7c-.7,-.3,-1,-1.2,-.7,-2c.4,-.8,1.3,-1.1,2.1,-.7Zm5.5,2.7v0c.7,.4,1,1.3,.7,2c-.4,.8,-1.3,1.1,-2.1,.7c-.7,-.3,-1.1,-1.3,-.7,-2c.4,-.8,1.3,-1.1,2.1,-.7Zm5.5,2.7v0c.7,.3,1,1.3,.7,2c-.4,.8,-1.3,1.1,-2.1,.7c-.7,-.4,-1.1,-1.3,-.7,-2c.4,-.8,1.3,-1.1,2.1,-.7Z" class="g3_1" />
<path d="M113.2,175.7v0c.8,.1,1.5,.8,1.4,1.7c-.1,.8,-.8,1.4,-1.7,1.3c-.8,0,-1.4,-.8,-1.4,-1.6c.1,-.9,.9,-1.5,1.7,-1.4Zm6.1,.5v0c.8,.1,1.4,.9,1.4,1.7c-.1,.8,-.8,1.5,-1.7,1.4c-.8,-.1,-1.5,-.8,-1.4,-1.7c.1,-.8,.8,-1.4,1.7,-1.4Zm6.1,.6v0c.8,.1,1.4,.8,1.4,1.6c-.1,.9,-.9,1.5,-1.7,1.4c-.8,0,-1.5,-.8,-1.4,-1.6c.1,-.9,.8,-1.5,1.7,-1.4Zm6.1,.5v0c.8,.1,1.4,.8,1.4,1.7c-.1,.8,-.9,1.4,-1.7,1.4c-.9,-.1,-1.5,-.8,-1.4,-1.7c.1,-.8,.8,-1.4,1.7,-1.4Zm6.1,.6v0c.8,0,1.4,.8,1.3,1.6c0,.9,-.8,1.5,-1.6,1.4c-.9,-.1,-1.5,-.8,-1.4,-1.6c.1,-.9,.8,-1.5,1.7,-1.4Zm6,.5v0c.9,.1,1.5,.8,1.4,1.7c0,.8,-.8,1.4,-1.6,1.4c-.9,-.1,-1.5,-.9,-1.4,-1.7c.1,-.8,.8,-1.5,1.6,-1.4Zm6.1,.6v0c.9,0,1.5,.8,1.4,1.6c-.1,.9,-.8,1.5,-1.6,1.4c-.9,-.1,-1.5,-.8,-1.4,-1.7c0,-.8,.8,-1.4,1.6,-1.3Zm6.1,.5v0c.9,.1,1.5,.8,1.4,1.7c-.1,.8,-.8,1.4,-1.6,1.3h-.1c-.8,0,-1.4,-.8,-1.3,-1.6c0,-.8,.8,-1.5,1.6,-1.4Zm6.1,.5v0c.9,.1,1.5,.9,1.4,1.7c-.1,.8,-.8,1.5,-1.7,1.4c-.8,-.1,-1.4,-.8,-1.3,-1.7c0,-.8,.8,-1.4,1.6,-1.4Zm6.1,.6v0c.8,.1,1.5,.8,1.4,1.6c-.1,.9,-.8,1.5,-1.7,1.4c-.8,0,-1.4,-.8,-1.4,-1.6c.1,-.9,.9,-1.5,1.7,-1.4Zm6.1,.5v0c.8,.1,1.5,.9,1.4,1.7c-.1,.8,-.8,1.5,-1.7,1.4c-.8,-.1,-1.4,-.8,-1.4,-1.7c.1,-.8,.9,-1.4,1.7,-1.4Zm6.1,.6v0c.8,.1,1.4,.8,1.4,1.6c-.1,.9,-.8,1.5,-1.7,1.4c-.8,-.1,-1.5,-.8,-1.4,-1.6c.1,-.9,.8,-1.5,1.7,-1.4Zm6.1,.5v0c.8,.1,1.4,.8,1.4,1.7c-.1,.8,-.9,1.4,-1.7,1.4c-.8,-.1,-1.5,-.9,-1.4,-1.7c.1,-.8,.8,-1.5,1.7,-1.4Zm6.1,.6v0c.8,0,1.4,.8,1.3,1.6c0,.9,-.8,1.5,-1.6,1.4c-.9,-.1,-1.5,-.8,-1.4,-1.6c.1,-.9,.8,-1.5,1.7,-1.4Zm6.1,.5v0c.8,.1,1.4,.8,1.3,1.7c0,.8,-.8,1.4,-1.6,1.4c-.9,-.1,-1.5,-.9,-1.4,-1.7c.1,-.8,.8,-1.5,1.7,-1.4Zm6,.6v0c.9,0,1.5,.8,1.4,1.6c0,.9,-.8,1.5,-1.6,1.4c-.9,-.1,-1.5,-.8,-1.4,-1.7c.1,-.8,.8,-1.4,1.6,-1.3Zm6.1,.5v0c.9,.1,1.5,.8,1.4,1.7c-.1,.8,-.8,1.4,-1.6,1.3c-.9,0,-1.5,-.8,-1.4,-1.6c0,-.9,.8,-1.5,1.6,-1.4Zm6.1,.5v0c.9,.1,1.5,.9,1.4,1.7c-.1,.8,-.8,1.5,-1.6,1.4h-.1c-.8,-.1,-1.4,-.8,-1.3,-1.7c0,-.8,.8,-1.4,1.6,-1.4Zm6.1,.6v0c.9,.1,1.5,.8,1.4,1.6c-.1,.9,-.8,1.5,-1.7,1.4c-.8,0,-1.4,-.8,-1.3,-1.6c0,-.9,.8,-1.5,1.6,-1.4Zm6.1,.5v0c.8,.1,1.5,.8,1.4,1.7c-.1,.8,-.8,1.4,-1.7,1.4c-.8,-.1,-1.4,-.8,-1.4,-1.7c.1,-.8,.9,-1.4,1.7,-1.4Zm6.1,.6v0c.8,0,1.5,.8,1.4,1.6c-.1,.9,-.8,1.5,-1.7,1.4c-.8,-.1,-1.4,-.8,-1.4,-1.6c.1,-.9,.9,-1.5,1.7,-1.4Zm6.1,.5v0c.8,.1,1.4,.8,1.4,1.7c-.1,.8,-.8,1.4,-1.7,1.4c-.8,-.1,-1.5,-.9,-1.4,-1.7c.1,-.8,.8,-1.5,1.7,-1.4Zm6.1,.6v0c.8,0,1.4,.8,1.4,1.6c-.1,.9,-.9,1.5,-1.7,1.4c-.8,-.1,-1.5,-.8,-1.4,-1.7c.1,-.8,.8,-1.4,1.7,-1.3Zm6.1,.5v0c.8,.1,1.4,.8,1.3,1.7c0,.8,-.8,1.4,-1.6,1.3c-.9,0,-1.5,-.8,-1.4,-1.6c.1,-.9,.8,-1.5,1.7,-1.4Zm6.1,.5v0c.8,.1,1.4,.9,1.3,1.7c0,.8,-.8,1.5,-1.6,1.4c-.9,-.1,-1.5,-.8,-1.4,-1.7c.1,-.8,.8,-1.4,1.7,-1.4Zm6,.6v0c.9,.1,1.5,.8,1.4,1.6c0,.9,-.8,1.5,-1.6,1.4c-.9,0,-1.5,-.8,-1.4,-1.6c.1,-.9,.8,-1.5,1.6,-1.4Zm6.1,.5v0c.9,.1,1.5,.8,1.4,1.7c-.1,.8,-.8,1.5,-1.6,1.4c-.9,-.1,-1.5,-.8,-1.4,-1.7c0,-.8,.8,-1.4,1.6,-1.4Zm6.1,.6v0c.9,.1,1.5,.8,1.4,1.6c-.1,.9,-.8,1.5,-1.6,1.4h-.1c-.8,-.1,-1.4,-.8,-1.3,-1.6c0,-.9,.8,-1.5,1.6,-1.4Zm6.1,.5v0c.9,.1,1.5,.8,1.4,1.7c-.1,.8,-.8,1.4,-1.7,1.4c-.8,-.1,-1.4,-.9,-1.3,-1.7c0,-.8,.8,-1.5,1.6,-1.4Zm6.1,.6v0c.8,0,1.5,.8,1.4,1.6c-.1,.9,-.8,1.5,-1.7,1.4c-.8,-.1,-1.4,-.8,-1.4,-1.7c.1,-.8,.9,-1.4,1.7,-1.3Zm6.1,.5v0c.8,.1,1.5,.8,1.4,1.7c-.1,.8,-.8,1.4,-1.7,1.3c-.8,0,-1.4,-.8,-1.4,-1.6c.1,-.8,.9,-1.5,1.7,-1.4Zm6.1,.5v0c.8,.1,1.4,.9,1.4,1.7c-.1,.8,-.8,1.5,-1.7,1.4c-.8,-.1,-1.5,-.8,-1.4,-1.7c.1,-.8,.8,-1.4,1.7,-1.4Zm6.1,.6v0c.8,.1,1.4,.8,1.4,1.7c-.1,.8,-.9,1.4,-1.7,1.3c-.8,0,-1.5,-.8,-1.4,-1.6c.1,-.9,.8,-1.5,1.7,-1.4Zm6.1,.5v0c.8,.1,1.4,.9,1.3,1.7c0,.8,-.8,1.5,-1.6,1.4c-.9,-.1,-1.5,-.8,-1.4,-1.7c.1,-.8,.8,-1.4,1.7,-1.4Zm6.1,.6v0c.8,.1,1.4,.8,1.3,1.6c0,.9,-.8,1.5,-1.6,1.4c-.9,-.1,-1.5,-.8,-1.4,-1.6c.1,-.9,.8,-1.5,1.7,-1.4Zm6,.5v0c.9,.1,1.5,.8,1.4,1.7c0,.8,-.8,1.4,-1.6,1.4c-.9,-.1,-1.5,-.9,-1.4,-1.7c.1,-.8,.8,-1.5,1.6,-1.4Zm6.1,.6v0c.9,0,1.5,.8,1.4,1.6c-.1,.9,-.8,1.5,-1.6,1.4c-.9,-.1,-1.5,-.8,-1.4,-1.6c0,-.9,.8,-1.5,1.6,-1.4Zm6.1,.5v0c.9,.1,1.5,.8,1.4,1.7c-.1,.8,-.8,1.4,-1.6,1.4h-.1c-.8,-.1,-1.4,-.9,-1.3,-1.7c0,-.8,.8,-1.5,1.6,-1.4Zm6.1,.6v0c.9,0,1.5,.8,1.4,1.6c-.1,.9,-.8,1.5,-1.7,1.4c-.8,-.1,-1.4,-.8,-1.3,-1.7c0,-.8,.8,-1.4,1.6,-1.3Zm6.1,.5v0c.8,.1,1.5,.8,1.4,1.7c-.1,.8,-.8,1.4,-1.7,1.3c-.8,0,-1.4,-.8,-1.4,-1.6c.1,-.9,.9,-1.5,1.7,-1.4Zm6.1,.5v0c.8,.1,1.5,.9,1.4,1.7c-.1,.8,-.8,1.5,-1.7,1.4c-.8,-.1,-1.4,-.8,-1.4,-1.7c.1,-.8,.9,-1.4,1.7,-1.4Zm6.1,.6v0c.8,.1,1.4,.8,1.4,1.6c-.1,.9,-.8,1.5,-1.7,1.4c-.8,0,-1.5,-.8,-1.4,-1.6c.1,-.9,.8,-1.5,1.7,-1.4Zm6.1,.5v0c.8,.1,1.4,.8,1.4,1.7c-.1,.8,-.9,1.4,-1.7,1.4c-.8,-.1,-1.5,-.8,-1.4,-1.7c.1,-.8,.8,-1.4,1.7,-1.4Zm6.1,.6v0c.8,0,1.4,.8,1.3,1.6c0,.9,-.8,1.5,-1.6,1.4c-.9,-.1,-1.5,-.8,-1.4,-1.6c.1,-.9,.8,-1.5,1.7,-1.4Zm6.1,.5v0c.8,.1,1.4,.8,1.3,1.7c0,.8,-.8,1.4,-1.6,1.4c-.9,-.1,-1.5,-.9,-1.4,-1.7c.1,-.8,.8,-1.5,1.7,-1.4Zm6,.6v0c.9,0,1.5,.8,1.4,1.6c0,.9,-.8,1.5,-1.6,1.4c-.9,-.1,-1.5,-.8,-1.4,-1.7c.1,-.8,.8,-1.4,1.6,-1.3Zm6.1,.5v0c.9,.1,1.5,.8,1.4,1.7c-.1,.8,-.8,1.4,-1.6,1.3c-.9,0,-1.5,-.8,-1.4,-1.6c0,-.9,.8,-1.5,1.6,-1.4Zm6.1,.5v0c.9,.1,1.5,.9,1.4,1.7c-.1,.8,-.8,1.5,-1.6,1.4h-.1c-.8,-.1,-1.4,-.8,-1.3,-1.7c0,-.8,.8,-1.4,1.6,-1.4Zm6.1,.6v0c.9,.1,1.5,.8,1.4,1.6c-.1,.9,-.8,1.5,-1.7,1.4c-.8,0,-1.4,-.8,-1.3,-1.6c0,-.9,.8,-1.5,1.6,-1.4Zm6.1,.5v0c.8,.1,1.5,.8,1.4,1.7c-.1,.8,-.8,1.5,-1.7,1.4c-.8,-.1,-1.4,-.8,-1.4,-1.7c.1,-.8,.9,-1.4,1.7,-1.4Zm6.1,.6v0c.8,.1,1.5,.8,1.4,1.6c-.1,.9,-.8,1.5,-1.7,1.4c-.8,-.1,-1.4,-.8,-1.4,-1.6c.1,-.9,.8,-1.5,1.7,-1.4Zm6.1,.5v0c.8,.1,1.4,.8,1.4,1.7c-.1,.8,-.8,1.4,-1.7,1.4c-.8,-.1,-1.5,-.9,-1.4,-1.7c.1,-.8,.8,-1.5,1.7,-1.4Zm6.1,.6v0c.8,0,1.4,.8,1.4,1.6c-.1,.9,-.9,1.5,-1.7,1.4c-.8,-.1,-1.5,-.8,-1.4,-1.7c.1,-.8,.8,-1.4,1.7,-1.3Zm6.1,.5v0c.8,.1,1.4,.8,1.3,1.7c0,.8,-.8,1.4,-1.6,1.3c-.9,0,-1.5,-.8,-1.4,-1.6c.1,-.8,.8,-1.5,1.7,-1.4Zm6.1,.5v0c.8,.1,1.4,.9,1.3,1.7c0,.8,-.8,1.5,-1.6,1.4c-.9,-.1,-1.5,-.8,-1.4,-1.7c.1,-.8,.8,-1.4,1.7,-1.4Zm6,.6v0c.9,.1,1.5,.8,1.4,1.7c0,.8,-.8,1.4,-1.6,1.3c-.9,0,-1.5,-.8,-1.4,-1.6c.1,-.9,.8,-1.5,1.6,-1.4Zm6.1,.5v0c.9,.1,1.5,.9,1.4,1.7c-.1,.8,-.8,1.5,-1.6,1.4c-.9,-.1,-1.5,-.8,-1.4,-1.7c0,-.8,.8,-1.4,1.6,-1.4Zm6.1,.6v0c.9,.1,1.5,.8,1.4,1.6c-.1,.9,-.8,1.5,-1.6,1.4H460c-.8,-.1,-1.4,-.8,-1.3,-1.6c0,-.9,.8,-1.5,1.6,-1.4Zm6.1,.5v0c.9,.1,1.5,.8,1.4,1.7c-.1,.8,-.8,1.4,-1.7,1.4c-.8,-.1,-1.4,-.9,-1.3,-1.7c0,-.8,.8,-1.5,1.6,-1.4Zm6.1,.6v0c.8,0,1.5,.8,1.4,1.6c-.1,.9,-.8,1.5,-1.7,1.4c-.8,-.1,-1.4,-.8,-1.4,-1.6c.1,-.9,.9,-1.5,1.7,-1.4Zm6.1,.5v0c.8,.1,1.5,.8,1.4,1.7c-.1,.8,-.8,1.4,-1.7,1.4c-.8,-.1,-1.4,-.9,-1.4,-1.7c.1,-.8,.8,-1.5,1.7,-1.4Zm6.1,.6v0c.8,0,1.4,.8,1.4,1.6c-.1,.9,-.8,1.5,-1.7,1.4c-.8,-.1,-1.5,-.8,-1.4,-1.7c.1,-.8,.8,-1.4,1.7,-1.3Zm6.1,.5v0c.8,.1,1.4,.8,1.4,1.7c-.1,.8,-.9,1.4,-1.7,1.3c-.8,0,-1.5,-.8,-1.4,-1.6c.1,-.9,.8,-1.5,1.7,-1.4Zm6.1,.5v0c.8,.1,1.4,.9,1.3,1.7c0,.8,-.8,1.5,-1.6,1.4c-.9,-.1,-1.5,-.8,-1.4,-1.7c.1,-.8,.8,-1.4,1.7,-1.4Zm6,.6h.1c.8,.1,1.4,.8,1.3,1.6c0,.9,-.8,1.5,-1.6,1.4c-.9,0,-1.5,-.8,-1.4,-1.6c.1,-.9,.8,-1.5,1.6,-1.4Zm6.1,.5v0c.9,.1,1.5,.8,1.4,1.7c0,.8,-.8,1.4,-1.6,1.4c-.9,-.1,-1.5,-.8,-1.4,-1.7c.1,-.8,.8,-1.4,1.6,-1.4Zm6.1,.6v0c.9,0,1.5,.8,1.4,1.6c-.1,.9,-.8,1.5,-1.6,1.4c-.9,-.1,-1.5,-.8,-1.4,-1.6c0,-.9,.8,-1.5,1.6,-1.4Zm6.1,.5v0c.9,.1,1.5,.8,1.4,1.7c-.1,.8,-.8,1.4,-1.6,1.4h-.1c-.8,-.1,-1.4,-.9,-1.3,-1.7c0,-.8,.8,-1.5,1.6,-1.4Zm6.1,.6v0c.9,0,1.5,.8,1.4,1.6c-.1,.9,-.8,1.5,-1.7,1.4c-.8,-.1,-1.4,-.8,-1.3,-1.7c0,-.8,.8,-1.4,1.6,-1.3Zm6.1,.5v0c.8,.1,1.5,.8,1.4,1.7c-.1,.8,-.8,1.4,-1.7,1.3c-.8,0,-1.4,-.8,-1.4,-1.6c.1,-.9,.9,-1.5,1.7,-1.4Zm6.1,.5v0c.8,.1,1.5,.9,1.4,1.7c-.1,.8,-.8,1.5,-1.7,1.4c-.8,-.1,-1.4,-.8,-1.4,-1.7c.1,-.8,.8,-1.4,1.7,-1.4Zm6.1,.6v0c.8,.1,1.4,.8,1.4,1.6c-.1,.9,-.8,1.5,-1.7,1.4c-.8,0,-1.5,-.8,-1.4,-1.6c.1,-.9,.8,-1.5,1.7,-1.4Zm6.1,.5v0c.8,.1,1.4,.8,1.4,1.7c-.1,.8,-.9,1.5,-1.7,1.4c-.8,-.1,-1.5,-.8,-1.4,-1.7c.1,-.8,.8,-1.4,1.7,-1.4Zm6.1,.6v0c.8,.1,1.4,.8,1.3,1.6c0,.9,-.8,1.5,-1.6,1.4c-.9,-.1,-1.5,-.8,-1.4,-1.6c.1,-.9,.8,-1.5,1.7,-1.4Zm6,.5h.1c.8,.1,1.4,.8,1.3,1.7c0,.8,-.8,1.4,-1.6,1.4c-.9,-.1,-1.5,-.9,-1.4,-1.7c.1,-.8,.8,-1.5,1.6,-1.4Zm6.1,.6v0c.9,0,1.5,.8,1.4,1.6c0,.9,-.8,1.5,-1.6,1.4c-.9,-.1,-1.5,-.8,-1.4,-1.7c.1,-.8,.8,-1.4,1.6,-1.3Zm6.1,.5v0c.9,.1,1.5,.8,1.4,1.7c-.1,.8,-.8,1.4,-1.6,1.4V220c-.9,0,-1.5,-.8,-1.4,-1.6c0,-.8,.8,-1.5,1.6,-1.4Zm6.1,.5v.1c.9,0,1.5,.8,1.4,1.6c-.1,.8,-.8,1.5,-1.6,1.4h-.1c-.8,-.1,-1.4,-.8,-1.3,-1.7c0,-.8,.8,-1.4,1.6,-1.4Zm6.1,.6v0c.9,.1,1.5,.8,1.4,1.7c-.1,.8,-.8,1.4,-1.7,1.3c-.8,0,-1.4,-.8,-1.3,-1.6c0,-.9,.8,-1.5,1.6,-1.4Zm6.1,.5v0c.8,.1,1.5,.9,1.4,1.7c-.1,.8,-.8,1.5,-1.7,1.4c-.8,-.1,-1.4,-.8,-1.4,-1.7c.1,-.8,.9,-1.4,1.7,-1.4Zm6.1,.6v0c.8,.1,1.5,.8,1.4,1.6c-.1,.9,-.8,1.5,-1.7,1.4c-.8,-.1,-1.4,-.8,-1.4,-1.6c.1,-.9,.8,-1.5,1.7,-1.4Zm6.1,.5v0c.8,.1,1.4,.8,1.4,1.7c-.1,.8,-.8,1.4,-1.7,1.4c-.8,-.1,-1.5,-.8,-1.4,-1.7c.1,-.8,.8,-1.5,1.7,-1.4Zm6.1,.6v0c.8,0,1.4,.8,1.4,1.6c-.1,.9,-.9,1.5,-1.7,1.4c-.8,-.1,-1.5,-.8,-1.4,-1.6c.1,-.9,.8,-1.5,1.7,-1.4Zm6.1,.5v0c.8,.1,1.4,.8,1.3,1.7c0,.8,-.8,1.4,-1.6,1.4c-.9,-.1,-1.5,-.9,-1.4,-1.7c.1,-.8,.8,-1.5,1.7,-1.4Zm6,.6h.1c.8,0,1.4,.8,1.3,1.6c0,.9,-.8,1.5,-1.6,1.4c-.9,-.1,-1.5,-.8,-1.4,-1.7c.1,-.8,.8,-1.4,1.6,-1.3Zm6.1,.5v0c.9,.1,1.5,.8,1.4,1.7c0,.8,-.8,1.4,-1.6,1.3c-.9,0,-1.5,-.8,-1.4,-1.6c.1,-.9,.8,-1.5,1.6,-1.4Zm6.1,.5v0c.9,.1,1.5,.9,1.4,1.7c-.1,.8,-.8,1.5,-1.6,1.4c-.9,-.1,-1.5,-.8,-1.4,-1.7c0,-.8,.8,-1.4,1.6,-1.4Zm6.1,.6v0c.9,.1,1.5,.8,1.4,1.6c-.1,.9,-.8,1.5,-1.6,1.4h-.1c-.8,0,-1.4,-.8,-1.3,-1.6c0,-.9,.8,-1.5,1.6,-1.4Zm6.1,.5v0c.9,.1,1.5,.8,1.4,1.7c-.1,.8,-.8,1.4,-1.7,1.4c-.8,-.1,-1.4,-.8,-1.3,-1.7c0,-.8,.8,-1.4,1.6,-1.4Zm6.1,.6v0c.8,0,1.5,.8,1.4,1.6c-.1,.9,-.8,1.5,-1.7,1.4c-.8,-.1,-1.4,-.8,-1.4,-1.6c.1,-.9,.9,-1.5,1.7,-1.4Zm6.1,.5v0c.8,.1,1.5,.8,1.4,1.7c-.1,.8,-.8,1.4,-1.7,1.4c-.8,-.1,-1.4,-.9,-1.4,-1.7c.1,-.8,.8,-1.5,1.7,-1.4Zm6.1,.6v0c.8,0,1.4,.8,1.4,1.6c-.1,.9,-.8,1.5,-1.7,1.4c-.8,-.1,-1.5,-.8,-1.4,-1.7c.1,-.8,.8,-1.4,1.7,-1.3Zm6.1,.5v0c.8,.1,1.4,.8,1.4,1.7c-.1,.8,-.9,1.4,-1.7,1.3c-.8,0,-1.5,-.8,-1.4,-1.6c.1,-.9,.8,-1.5,1.7,-1.4Zm6.1,.5v0c.8,.1,1.4,.9,1.3,1.7c0,.8,-.8,1.5,-1.6,1.4c-.9,-.1,-1.5,-.8,-1.4,-1.7c.1,-.8,.8,-1.4,1.7,-1.4Zm6,.6h.1c.8,.1,1.4,.8,1.3,1.6c0,.9,-.8,1.5,-1.6,1.4c-.9,0,-1.5,-.8,-1.4,-1.6c.1,-.9,.8,-1.5,1.6,-1.4Zm6.1,.5v0c.9,.1,1.5,.8,1.4,1.7c0,.8,-.8,1.5,-1.6,1.4c-.9,-.1,-1.5,-.8,-1.4,-1.7c.1,-.8,.8,-1.4,1.6,-1.4Zm6.1,.6v0c.9,.1,1.5,.8,1.4,1.6c-.1,.9,-.8,1.5,-1.6,1.4c-.9,-.1,-1.5,-.8,-1.4,-1.6c0,-.9,.8,-1.5,1.6,-1.4Zm6.1,.5v0c.9,.1,1.5,.8,1.4,1.7c-.1,.8,-.8,1.4,-1.6,1.4h-.1c-.8,-.1,-1.4,-.9,-1.3,-1.7c0,-.8,.8,-1.5,1.6,-1.4Zm6.1,.6v0c.9,0,1.5,.8,1.4,1.6c-.1,.9,-.8,1.5,-1.7,1.4c-.8,-.1,-1.4,-.8,-1.3,-1.6c0,-.9,.8,-1.5,1.6,-1.4Zm6.1,.5v0c.8,.1,1.5,.8,1.4,1.7c-.1,.8,-.8,1.4,-1.7,1.4c-.8,-.1,-1.4,-.9,-1.4,-1.7c.1,-.8,.9,-1.5,1.7,-1.4Zm6.1,.6v0c.8,0,1.5,.8,1.4,1.6c-.1,.8,-.8,1.5,-1.7,1.4c-.8,-.1,-1.4,-.8,-1.4,-1.7c.1,-.8,.8,-1.4,1.7,-1.3Zm6.1,.5v0c.8,.1,1.4,.8,1.4,1.7c-.1,.8,-.8,1.4,-1.7,1.3c-.8,0,-1.5,-.8,-1.4,-1.6c.1,-.9,.8,-1.5,1.7,-1.4Zm6.1,.5v0c.8,.1,1.4,.9,1.4,1.7c-.1,.8,-.9,1.5,-1.7,1.4c-.8,-.1,-1.5,-.8,-1.4,-1.7c.1,-.8,.8,-1.4,1.7,-1.4Zm6.1,.6v0c.8,.1,1.4,.8,1.3,1.6c0,.9,-.8,1.5,-1.6,1.4c-.9,0,-1.5,-.8,-1.4,-1.6c.1,-.9,.8,-1.5,1.7,-1.4Zm6,.5v0c.9,.1,1.5,.8,1.4,1.7c0,.8,-.8,1.4,-1.6,1.4c-.9,-.1,-1.5,-.8,-1.4,-1.7c.1,-.8,.8,-1.5,1.6,-1.4Zm6.1,.6v0c.9,0,1.5,.8,1.4,1.6c0,.9,-.8,1.5,-1.6,1.4c-.9,-.1,-1.5,-.8,-1.4,-1.6c.1,-.9,.8,-1.5,1.6,-1.4Zm6.1,.5v0c.9,.1,1.5,.8,1.4,1.7c-.1,.8,-.8,1.4,-1.6,1.4c-.9,-.1,-1.5,-.9,-1.4,-1.7c0,-.8,.8,-1.5,1.6,-1.4Zm6.1,.6v0c.9,0,1.5,.8,1.4,1.6c-.1,.9,-.8,1.5,-1.6,1.4h-.1c-.8,-.1,-1.4,-.8,-1.3,-1.7c0,-.8,.8,-1.4,1.6,-1.3Zm6.1,.5v0c.9,.1,1.5,.8,1.4,1.7c-.1,.8,-.8,1.4,-1.7,1.3c-.8,0,-1.4,-.8,-1.3,-1.6c0,-.9,.8,-1.5,1.6,-1.4Zm6.1,.5v0c.8,.1,1.5,.9,1.4,1.7c-.1,.8,-.8,1.5,-1.7,1.4c-.8,-.1,-1.4,-.8,-1.4,-1.7c.1,-.8,.9,-1.4,1.7,-1.4Z" class="g5_1" />
<text x="689" y="377" dx="0,0.2,-0.5,-0.2,-0.7,-0.6" class="s1_1">Bare: </text>
<text x="642" y="394" dx="0,-0.1,0,-0.7,1.5,0.4,0.7,-0.4,0.7,0.7,0.7,0.7,0.2,0,-0.7,0,0.7,-0.4,0.7,0.7,-0.9" class="s1_1">y = -1.2118x + 6.2379</text>
<text x="738" y="278" dx="0,-0.4,0.4,0,-0.7,-0.2,-0.5,0.3,0,-0.1,-0.1,-0.7" class="s1_1">Interactive:</text>
<text x="708" y="294" dx="0,-0.1,0,-0.7,1.5,0.4,0.7,-0.4,0.7,0.7,0.7,0.7,0.2,0,-0.7,0,0.7,-0.4,0.7,0.7,-0.9" class="s1_1">y = -0.2172x + 6.2379</text>
<text x="416" y="443" dx="0,0.7,-0.4" class="s1_1">6.1</text>
<text x="409" y="359" dx="0,0.7,-0.4,-0.9" class="s1_1">6.15</text>
<text x="416" y="275" dx="0,0.7,-0.4" class="s1_1">6.2</text>
<text x="409" y="190" dx="0,0.7,-0.4,-0.9" class="s1_1">6.25</text>
<text x="416" y="106" dx="0,0.7,-0.4" class="s1_1">6.3</text>
<text x="409" y="21" dx="0,0.7,-0.4,-0.9" class="s1_1">6.35</text>
<text x="18" y="461" dx="0,0.4,-0.9,1.1" class="s1_1">-0.1</text>
<text x="98" y="461" dx="0,0.4,-0.9,0,-2.3,-0.9" class="s1_1">-0. 08</text>
<text x="181" y="461" dx="0,0.4,-0.9,0,-2.3,-0.9" class="s1_1">-0. 06</text>
<text x="265" y="461" dx="0,0.4,-0.9,0,-2.3,-0.9" class="s1_1">-0. 04</text>
<text x="348" y="461" dx="0,0.4,-0.9,0,-2.3,-0.9" class="s1_1">-0. 02</text>
<text x="443" y="461" class="s1_1">0</text>
<text x="517" y="461" dx="0,0.7,-0.4,-0.9" class="s1_1">0.02</text>
<text x="601" y="461" dx="0,0.7,-0.4,-0.9" class="s1_1">0.04</text>
<text x="684" y="461" dx="0,0.7,-0.4,-0.9" class="s1_1">0.06</text>
<text x="768" y="461" dx="0,0.7,-0.4,-0.9" class="s1_1">0.08</text>
<text x="855" y="461" dx="0,0.7,-0.4" class="s1_1">0.1</text>
<path d="M.8,.8H889.9V474.4H.8Z" class="g1_1" />

</g>

<!-- Any embedded fonts defined here -->
<style type="text/css" ><![CDATA[

@font-face {
	font-family: Calibri_9;
	src: url("fonts/Calibri_9.woff") format("woff");
}

]]></style>

</svg>
