<?xml version="1.0" encoding="UTF-8" standalone="no"?>
<!DOCTYPE svg PUBLIC "-//W3C//DTD SVG 1.1//EN"
"http://www.w3.org/Graphics/SVG/1.1/DTD/svg11.dtd">


<!-- Page 1 -->
<svg x="0" y="0" width="895" height="467" viewBox="0 0 895 467" version="1.1" xmlns="http://www.w3.org/2000/svg" xmlns:xlink="http://www.w3.org/1999/xlink"
style="display: block;margin-left: auto;margin-right: auto;">
<defs>
<clipPath id="c_1"><path d="M0,0H895V467H0Z" /></clipPath>
<style type="text/css"><![CDATA[
text { white-space: pre; }
path, image { pointer-events: none; }

.s1_1{
font-size: 13.75px;
font-family: Calibri_9;
fill: #595959;
}

.g0_1{
fill: #FFFFFF;
}
.g1_1{
fill: none;
stroke: #D9D9D9;
stroke-width: 1.5277778;
stroke-linecap: butt;
stroke-linejoin: round;
}
.g2_1{
fill: none;
stroke: #BFBFBF;
stroke-width: 1.5277778;
stroke-linecap: butt;
stroke-linejoin: round;
}
.g3_1{
fill: #5B9BD5;
}
.g4_1{
fill: none;
stroke: #5B9BD5;
stroke-width: 1.5277778;
stroke-linecap: butt;
stroke-linejoin: round;
}
.g5_1{
fill: #ED7D31;
}
.g6_1{
fill: none;
stroke: #ED7D31;
stroke-width: 1.5277778;
stroke-linecap: butt;
stroke-linejoin: round;
}
.g7_1{
fill: #A5A5A5;
}
.g8_1{
fill: none;
stroke: #A5A5A5;
stroke-width: 1.5277778;
stroke-linecap: butt;
stroke-linejoin: round;
}
.g9_1{
fill: #FFC000;
}
.g10_1{
fill: none;
stroke: #FFC000;
stroke-width: 1.5277778;
stroke-linecap: butt;
stroke-linejoin: round;
}
.g11_1{
fill: #4472C4;
}
.g12_1{
fill: none;
stroke: #4472C4;
stroke-width: 1.5277778;
stroke-linecap: butt;
stroke-linejoin: round;
}
.g13_1{
fill: #70AD47;
}
.g14_1{
fill: none;
stroke: #70AD47;
stroke-width: 1.5277778;
stroke-linecap: butt;
stroke-linejoin: round;
}
.g15_1{
fill: #255E91;
}
.g16_1{
fill: none;
stroke: #255E91;
stroke-width: 1.5277778;
stroke-linecap: butt;
stroke-linejoin: round;
}
.g17_1{
fill: #9E480E;
}
.g18_1{
fill: none;
stroke: #9E480E;
stroke-width: 1.5277778;
stroke-linecap: butt;
stroke-linejoin: round;
}
.g19_1{
fill: #636363;
}
.g20_1{
fill: none;
stroke: #636363;
stroke-width: 1.5277778;
stroke-linecap: butt;
stroke-linejoin: round;
}
.g21_1{
fill: #997300;
}
.g22_1{
fill: none;
stroke: #997300;
stroke-width: 1.5277778;
stroke-linecap: butt;
stroke-linejoin: round;
}
.g23_1{
fill: #264478;
}
.g24_1{
fill: none;
stroke: #264478;
stroke-width: 1.5277778;
stroke-linecap: butt;
stroke-linejoin: round;
}
.g25_1{
fill: #43682B;
}
.g26_1{
fill: none;
stroke: #43682B;
stroke-width: 1.5277778;
stroke-linecap: butt;
stroke-linejoin: round;
}
.g27_1{
fill: #7CAFDD;
}
.g28_1{
fill: none;
stroke: #7CAFDD;
stroke-width: 1.5277778;
stroke-linecap: butt;
stroke-linejoin: round;
}
.g29_1{
fill: #F1975A;
}
.g30_1{
fill: none;
stroke: #F1975A;
stroke-width: 1.5277778;
stroke-linecap: butt;
stroke-linejoin: round;
}
.g31_1{
fill: #B7B7B7;
}
.g32_1{
fill: none;
stroke: #B7B7B7;
stroke-width: 1.5277778;
stroke-linecap: butt;
stroke-linejoin: round;
}
.g33_1{
fill: #FFCD33;
}
.g34_1{
fill: none;
stroke: #FFCD33;
stroke-width: 1.5277778;
stroke-linecap: butt;
stroke-linejoin: round;
}

]]></style>

</defs>
<g clip-path="url(#c_1)">
<path d="M0,0
L0,467
L895,467
L895,0 Z " 
fill="#FFFFFF" stroke="none" />
<path d="M0,0H895.3V467.5H0Z" class="g0_1" />
<path d="M1.5,1.5H895.3v466H1.5Z" class="g0_1" />
<path d="M28.3,362.8H870.1M28.3,294.1H870.1M28.3,225.3H870.1M28.3,155.1H870.1M28.3,86.3H870.1M28.3,17.6H870.1m-841.8,0v414m84,-414v414m85.5,-414v414m84.1,-414v414m84,-414v414M534,17.6v414m84,-414v414m84,-414v414m84,-414v414m84.1,-414v414" class="g1_1" />
<path d="M449.9,431.6V17.6M28.3,431.6H870.1" class="g2_1" />
<path d="M787.4,353.2c0,1.7,-1.4,3,-3,3c-1.7,0,-3.1,-1.3,-3.1,-3c0,-1.7,1.4,-3.1,3.1,-3.1c1.6,0,3,1.4,3,3.1Z" class="g3_1" />
<path d="M787.4,353.2c0,1.7,-1.4,3,-3,3c-1.7,0,-3.1,-1.3,-3.1,-3c0,-1.7,1.4,-3.1,3.1,-3.1c1.6,0,3,1.4,3,3.1Z" class="g4_1" />
<path d="M660.6,304.3c0,1.7,-1.4,3,-3,3c-1.7,0,-3.1,-1.3,-3.1,-3c0,-1.7,1.4,-3.1,3.1,-3.1c1.6,0,3,1.4,3,3.1Z" class="g3_1" />
<path d="M660.6,304.3c0,1.7,-1.4,3,-3,3c-1.7,0,-3.1,-1.3,-3.1,-3c0,-1.7,1.4,-3.1,3.1,-3.1c1.6,0,3,1.4,3,3.1Z" class="g4_1" />
<path d="M535.3,253.9c0,1.6,-1.3,3,-3,3c-1.7,0,-3.1,-1.4,-3.1,-3c0,-1.7,1.4,-3.1,3.1,-3.1c1.7,0,3,1.4,3,3.1Z" class="g3_1" />
<path d="M535.3,253.9c0,1.6,-1.3,3,-3,3c-1.7,0,-3.1,-1.4,-3.1,-3c0,-1.7,1.4,-3.1,3.1,-3.1c1.7,0,3,1.4,3,3.1Z" class="g4_1" />
<path d="M451.3,215.7c0,1.7,-1.4,3,-3.1,3c-1.6,0,-3,-1.3,-3,-3c0,-1.7,1.4,-3.1,3,-3.1c1.7,0,3.1,1.4,3.1,3.1Z" class="g3_1" />
<path d="M451.3,215.7c0,1.7,-1.4,3,-3.1,3c-1.6,0,-3,-1.3,-3,-3c0,-1.7,1.4,-3.1,3,-3.1c1.7,0,3.1,1.4,3.1,3.1Z" class="g4_1" />
<path d="M367.3,180.5c0,1.7,-1.4,3.1,-3.1,3.1c-1.7,0,-3,-1.4,-3,-3.1c0,-1.7,1.3,-3,3,-3c1.7,0,3.1,1.3,3.1,3Z" class="g3_1" />
<path d="M367.3,180.5c0,1.7,-1.4,3.1,-3.1,3.1c-1.7,0,-3,-1.4,-3,-3.1c0,-1.7,1.3,-3,3,-3c1.7,0,3.1,1.3,3.1,3Z" class="g4_1" />
<path d="M240.5,131.6c0,1.7,-1.4,3.1,-3.1,3.1c-1.7,0,-3,-1.4,-3,-3.1c0,-1.7,1.3,-3,3,-3c1.7,0,3.1,1.3,3.1,3Z" class="g3_1" />
<path d="M240.5,131.6c0,1.7,-1.4,3.1,-3.1,3.1c-1.7,0,-3,-1.4,-3,-3.1c0,-1.7,1.3,-3,3,-3c1.7,0,3.1,1.3,3.1,3Z" class="g4_1" />
<path d="M113.7,82.7c0,1.7,-1.4,3.1,-3.1,3.1c-1.7,0,-3,-1.4,-3,-3.1c0,-1.6,1.3,-3,3,-3c1.7,0,3.1,1.4,3.1,3Z" class="g3_1" />
<path d="M113.7,82.7c0,1.7,-1.4,3.1,-3.1,3.1c-1.7,0,-3,-1.4,-3,-3.1c0,-1.6,1.3,-3,3,-3c1.7,0,3.1,1.4,3.1,3Z" class="g4_1" />
<path d="M787.4,237.1c0,1.6,-1.4,3,-3,3c-1.7,0,-3.1,-1.4,-3.1,-3c0,-1.7,1.4,-3.1,3.1,-3.1c1.6,0,3,1.4,3,3.1Z" class="g5_1" />
<path d="M787.4,237.1c0,1.6,-1.4,3,-3,3c-1.7,0,-3.1,-1.4,-3.1,-3c0,-1.7,1.4,-3.1,3.1,-3.1c1.6,0,3,1.4,3,3.1Z" class="g6_1" />
<path d="M660.6,230.9c0,1.7,-1.4,3.1,-3,3.1c-1.7,0,-3.1,-1.4,-3.1,-3.1c0,-1.6,1.4,-3,3.1,-3c1.6,0,3,1.4,3,3Z" class="g5_1" />
<path d="M660.6,230.9c0,1.7,-1.4,3.1,-3,3.1c-1.7,0,-3.1,-1.4,-3.1,-3.1c0,-1.6,1.4,-3,3.1,-3c1.6,0,3,1.4,3,3Z" class="g6_1" />
<path d="M535.3,223.3c0,1.7,-1.3,3.1,-3,3.1c-1.7,0,-3.1,-1.4,-3.1,-3.1c0,-1.7,1.4,-3.1,3.1,-3.1c1.7,0,3,1.4,3,3.1Z" class="g5_1" />
<path d="M535.3,223.3c0,1.7,-1.3,3.1,-3,3.1c-1.7,0,-3.1,-1.4,-3.1,-3.1c0,-1.7,1.4,-3.1,3.1,-3.1c1.7,0,3,1.4,3,3.1Z" class="g6_1" />
<path d="M451.3,215.7c0,1.7,-1.4,3,-3.1,3c-1.6,0,-3,-1.3,-3,-3c0,-1.7,1.4,-3.1,3,-3.1c1.7,0,3.1,1.4,3.1,3.1Z" class="g5_1" />
<path d="M451.3,215.7c0,1.7,-1.4,3,-3.1,3c-1.6,0,-3,-1.3,-3,-3c0,-1.7,1.4,-3.1,3,-3.1c1.7,0,3.1,1.4,3.1,3.1Z" class="g6_1" />
<path d="M367.3,209.6c0,1.6,-1.4,3,-3.1,3c-1.7,0,-3,-1.4,-3,-3c0,-1.7,1.3,-3.1,3,-3.1c1.7,0,3.1,1.4,3.1,3.1Z" class="g5_1" />
<path d="M367.3,209.6c0,1.6,-1.4,3,-3.1,3c-1.7,0,-3,-1.4,-3,-3c0,-1.7,1.3,-3.1,3,-3.1c1.7,0,3.1,1.4,3.1,3.1Z" class="g6_1" />
<path d="M240.5,201.9c0,1.7,-1.4,3.1,-3.1,3.1c-1.7,0,-3,-1.4,-3,-3.1c0,-1.7,1.3,-3,3,-3c1.7,0,3.1,1.3,3.1,3Z" class="g5_1" />
<path d="M240.5,201.9c0,1.7,-1.4,3.1,-3.1,3.1c-1.7,0,-3,-1.4,-3,-3.1c0,-1.7,1.3,-3,3,-3c1.7,0,3.1,1.3,3.1,3Z" class="g6_1" />
<path d="M113.7,194.3c0,1.7,-1.4,3,-3.1,3c-1.7,0,-3,-1.3,-3,-3c0,-1.7,1.3,-3.1,3,-3.1c1.7,0,3.1,1.4,3.1,3.1Z" class="g5_1" />
<path d="M113.7,194.3c0,1.7,-1.4,3,-3.1,3c-1.7,0,-3,-1.3,-3,-3c0,-1.7,1.3,-3.1,3,-3.1c1.7,0,3.1,1.4,3.1,3.1Z" class="g6_1" />
<path d="M787.4,197.3c0,1.7,-1.4,3.1,-3,3.1c-1.7,0,-3.1,-1.4,-3.1,-3.1c0,-1.7,1.4,-3,3.1,-3c1.6,0,3,1.3,3,3Z" class="g7_1" />
<path d="M787.4,197.3c0,1.7,-1.4,3.1,-3,3.1c-1.7,0,-3.1,-1.4,-3.1,-3.1c0,-1.7,1.4,-3,3.1,-3c1.6,0,3,1.3,3,3Z" class="g8_1" />
<path d="M660.6,205c0,1.7,-1.4,3,-3,3c-1.7,0,-3.1,-1.3,-3.1,-3c0,-1.7,1.4,-3.1,3.1,-3.1c1.6,0,3,1.4,3,3.1Z" class="g7_1" />
<path d="M660.6,205c0,1.7,-1.4,3,-3,3c-1.7,0,-3.1,-1.3,-3.1,-3c0,-1.7,1.4,-3.1,3.1,-3.1c1.6,0,3,1.4,3,3.1Z" class="g8_1" />
<path d="M535.3,211.1c0,1.7,-1.3,3,-3,3c-1.7,0,-3.1,-1.3,-3.1,-3c0,-1.7,1.4,-3.1,3.1,-3.1c1.7,0,3,1.4,3,3.1Z" class="g7_1" />
<path d="M535.3,211.1c0,1.7,-1.3,3,-3,3c-1.7,0,-3.1,-1.3,-3.1,-3c0,-1.7,1.4,-3.1,3.1,-3.1c1.7,0,3,1.4,3,3.1Z" class="g8_1" />
<path d="M451.3,217.2c0,1.7,-1.4,3,-3.1,3c-1.6,0,-3,-1.3,-3,-3c0,-1.7,1.4,-3.1,3,-3.1c1.7,0,3.1,1.4,3.1,3.1Z" class="g7_1" />
<path d="M451.3,217.2c0,1.7,-1.4,3,-3.1,3c-1.6,0,-3,-1.3,-3,-3c0,-1.7,1.4,-3.1,3,-3.1c1.7,0,3.1,1.4,3.1,3.1Z" class="g8_1" />
<path d="M367.3,220.2c0,1.7,-1.4,3.1,-3.1,3.1c-1.7,0,-3,-1.4,-3,-3.1c0,-1.6,1.3,-3,3,-3c1.7,0,3.1,1.4,3.1,3Z" class="g7_1" />
<path d="M367.3,220.2c0,1.7,-1.4,3.1,-3.1,3.1c-1.7,0,-3,-1.4,-3,-3.1c0,-1.6,1.3,-3,3,-3c1.7,0,3.1,1.4,3.1,3Z" class="g8_1" />
<path d="M240.5,226.4c0,1.6,-1.4,3,-3.1,3c-1.7,0,-3,-1.4,-3,-3c0,-1.7,1.3,-3.1,3,-3.1c1.7,0,3.1,1.4,3.1,3.1Z" class="g7_1" />
<path d="M240.5,226.4c0,1.6,-1.4,3,-3.1,3c-1.7,0,-3,-1.4,-3,-3c0,-1.7,1.3,-3.1,3,-3.1c1.7,0,3.1,1.4,3.1,3.1Z" class="g8_1" />
<path d="M113.7,232.5c0,1.7,-1.4,3,-3.1,3c-1.7,0,-3,-1.3,-3,-3c0,-1.7,1.3,-3.1,3,-3.1c1.7,0,3.1,1.4,3.1,3.1Z" class="g7_1" />
<path d="M113.7,232.5c0,1.7,-1.4,3,-3.1,3c-1.7,0,-3,-1.3,-3,-3c0,-1.7,1.3,-3.1,3,-3.1c1.7,0,3.1,1.4,3.1,3.1Z" class="g8_1" />
<path d="M787.4,215.7c0,1.7,-1.4,3,-3,3c-1.7,0,-3.1,-1.3,-3.1,-3c0,-1.7,1.4,-3.1,3.1,-3.1c1.6,0,3,1.4,3,3.1Z" class="g9_1" />
<path d="M787.4,215.7c0,1.7,-1.4,3,-3,3c-1.7,0,-3.1,-1.3,-3.1,-3c0,-1.7,1.4,-3.1,3.1,-3.1c1.6,0,3,1.4,3,3.1Z" class="g10_1" />
<path d="M660.6,215.7c0,1.7,-1.4,3,-3,3c-1.7,0,-3.1,-1.3,-3.1,-3c0,-1.7,1.4,-3.1,3.1,-3.1c1.6,0,3,1.4,3,3.1Z" class="g9_1" />
<path d="M660.6,215.7c0,1.7,-1.4,3,-3,3c-1.7,0,-3.1,-1.3,-3.1,-3c0,-1.7,1.4,-3.1,3.1,-3.1c1.6,0,3,1.4,3,3.1Z" class="g10_1" />
<path d="M535.3,217.2c0,1.7,-1.3,3,-3,3c-1.7,0,-3.1,-1.3,-3.1,-3c0,-1.7,1.4,-3.1,3.1,-3.1c1.7,0,3,1.4,3,3.1Z" class="g9_1" />
<path d="M535.3,217.2c0,1.7,-1.3,3,-3,3c-1.7,0,-3.1,-1.3,-3.1,-3c0,-1.7,1.4,-3.1,3.1,-3.1c1.7,0,3,1.4,3,3.1Z" class="g10_1" />
<path d="M451.3,217.2c0,1.7,-1.4,3,-3.1,3c-1.6,0,-3,-1.3,-3,-3c0,-1.7,1.4,-3.1,3,-3.1c1.7,0,3.1,1.4,3.1,3.1Z" class="g9_1" />
<path d="M451.3,217.2c0,1.7,-1.4,3,-3.1,3c-1.6,0,-3,-1.3,-3,-3c0,-1.7,1.4,-3.1,3,-3.1c1.7,0,3.1,1.4,3.1,3.1Z" class="g10_1" />
<path d="M367.3,217.2c0,1.7,-1.4,3,-3.1,3c-1.7,0,-3,-1.3,-3,-3c0,-1.7,1.3,-3.1,3,-3.1c1.7,0,3.1,1.4,3.1,3.1Z" class="g9_1" />
<path d="M367.3,217.2c0,1.7,-1.4,3,-3.1,3c-1.7,0,-3,-1.3,-3,-3c0,-1.7,1.3,-3.1,3,-3.1c1.7,0,3.1,1.4,3.1,3.1Z" class="g10_1" />
<path d="M240.5,217.2c0,1.7,-1.4,3,-3.1,3c-1.7,0,-3,-1.3,-3,-3c0,-1.7,1.3,-3.1,3,-3.1c1.7,0,3.1,1.4,3.1,3.1Z" class="g9_1" />
<path d="M240.5,217.2c0,1.7,-1.4,3,-3.1,3c-1.7,0,-3,-1.3,-3,-3c0,-1.7,1.3,-3.1,3,-3.1c1.7,0,3.1,1.4,3.1,3.1Z" class="g10_1" />
<path d="M113.7,217.2c0,1.7,-1.4,3,-3.1,3c-1.7,0,-3,-1.3,-3,-3c0,-1.7,1.3,-3.1,3,-3.1c1.7,0,3.1,1.4,3.1,3.1Z" class="g9_1" />
<path d="M113.7,217.2c0,1.7,-1.4,3,-3.1,3c-1.7,0,-3,-1.3,-3,-3c0,-1.7,1.3,-3.1,3,-3.1c1.7,0,3.1,1.4,3.1,3.1Z" class="g10_1" />
<path d="M787.4,198.9c0,1.6,-1.4,3,-3,3c-1.7,0,-3.1,-1.4,-3.1,-3c0,-1.7,1.4,-3.1,3.1,-3.1c1.6,0,3,1.4,3,3.1Z" class="g11_1" />
<path d="M787.4,198.9c0,1.6,-1.4,3,-3,3c-1.7,0,-3.1,-1.4,-3.1,-3c0,-1.7,1.4,-3.1,3.1,-3.1c1.6,0,3,1.4,3,3.1Z" class="g12_1" />
<path d="M660.6,206.5c0,1.7,-1.4,3.1,-3,3.1c-1.7,0,-3.1,-1.4,-3.1,-3.1c0,-1.7,1.4,-3.1,3.1,-3.1c1.6,0,3,1.4,3,3.1Z" class="g11_1" />
<path d="M660.6,206.5c0,1.7,-1.4,3.1,-3,3.1c-1.7,0,-3.1,-1.4,-3.1,-3.1c0,-1.7,1.4,-3.1,3.1,-3.1c1.6,0,3,1.4,3,3.1Z" class="g12_1" />
<path d="M535.3,212.6c0,1.7,-1.3,3.1,-3,3.1c-1.7,0,-3.1,-1.4,-3.1,-3.1c0,-1.7,1.4,-3,3.1,-3c1.7,0,3,1.3,3,3Z" class="g11_1" />
<path d="M535.3,212.6c0,1.7,-1.3,3.1,-3,3.1c-1.7,0,-3.1,-1.4,-3.1,-3.1c0,-1.7,1.4,-3,3.1,-3c1.7,0,3,1.3,3,3Z" class="g12_1" />
<path d="M451.3,217.2c0,1.7,-1.4,3,-3.1,3c-1.6,0,-3,-1.3,-3,-3c0,-1.7,1.4,-3.1,3,-3.1c1.7,0,3.1,1.4,3.1,3.1Z" class="g11_1" />
<path d="M451.3,217.2c0,1.7,-1.4,3,-3.1,3c-1.6,0,-3,-1.3,-3,-3c0,-1.7,1.4,-3.1,3,-3.1c1.7,0,3.1,1.4,3.1,3.1Z" class="g12_1" />
<path d="M367.3,220.2c0,1.7,-1.4,3.1,-3.1,3.1c-1.7,0,-3,-1.4,-3,-3.1c0,-1.6,1.3,-3,3,-3c1.7,0,3.1,1.4,3.1,3Z" class="g11_1" />
<path d="M367.3,220.2c0,1.7,-1.4,3.1,-3.1,3.1c-1.7,0,-3,-1.4,-3,-3.1c0,-1.6,1.3,-3,3,-3c1.7,0,3.1,1.4,3.1,3Z" class="g12_1" />
<path d="M240.5,226.4c0,1.6,-1.4,3,-3.1,3c-1.7,0,-3,-1.4,-3,-3c0,-1.7,1.3,-3.1,3,-3.1c1.7,0,3.1,1.4,3.1,3.1Z" class="g11_1" />
<path d="M240.5,226.4c0,1.6,-1.4,3,-3.1,3c-1.7,0,-3,-1.4,-3,-3c0,-1.7,1.3,-3.1,3,-3.1c1.7,0,3.1,1.4,3.1,3.1Z" class="g12_1" />
<path d="M113.7,234c0,1.7,-1.4,3.1,-3.1,3.1c-1.7,0,-3,-1.4,-3,-3.1c0,-1.7,1.3,-3.1,3,-3.1c1.7,0,3.1,1.4,3.1,3.1Z" class="g11_1" />
<path d="M113.7,234c0,1.7,-1.4,3.1,-3.1,3.1c-1.7,0,-3,-1.4,-3,-3.1c0,-1.7,1.3,-3.1,3,-3.1c1.7,0,3.1,1.4,3.1,3.1Z" class="g12_1" />
<path d="M787.4,215.7c0,1.7,-1.4,3,-3,3c-1.7,0,-3.1,-1.3,-3.1,-3c0,-1.7,1.4,-3.1,3.1,-3.1c1.6,0,3,1.4,3,3.1Z" class="g13_1" />
<path d="M787.4,215.7c0,1.7,-1.4,3,-3,3c-1.7,0,-3.1,-1.3,-3.1,-3c0,-1.7,1.4,-3.1,3.1,-3.1c1.6,0,3,1.4,3,3.1Z" class="g14_1" />
<path d="M660.6,215.7c0,1.7,-1.4,3,-3,3c-1.7,0,-3.1,-1.3,-3.1,-3c0,-1.7,1.4,-3.1,3.1,-3.1c1.6,0,3,1.4,3,3.1Z" class="g13_1" />
<path d="M660.6,215.7c0,1.7,-1.4,3,-3,3c-1.7,0,-3.1,-1.3,-3.1,-3c0,-1.7,1.4,-3.1,3.1,-3.1c1.6,0,3,1.4,3,3.1Z" class="g14_1" />
<path d="M535.3,217.2c0,1.7,-1.3,3,-3,3c-1.7,0,-3.1,-1.3,-3.1,-3c0,-1.7,1.4,-3.1,3.1,-3.1c1.7,0,3,1.4,3,3.1Z" class="g13_1" />
<path d="M535.3,217.2c0,1.7,-1.3,3,-3,3c-1.7,0,-3.1,-1.3,-3.1,-3c0,-1.7,1.4,-3.1,3.1,-3.1c1.7,0,3,1.4,3,3.1Z" class="g14_1" />
<path d="M451.3,217.2c0,1.7,-1.4,3,-3.1,3c-1.6,0,-3,-1.3,-3,-3c0,-1.7,1.4,-3.1,3,-3.1c1.7,0,3.1,1.4,3.1,3.1Z" class="g13_1" />
<path d="M451.3,217.2c0,1.7,-1.4,3,-3.1,3c-1.6,0,-3,-1.3,-3,-3c0,-1.7,1.4,-3.1,3,-3.1c1.7,0,3.1,1.4,3.1,3.1Z" class="g14_1" />
<path d="M367.3,217.2c0,1.7,-1.4,3,-3.1,3c-1.7,0,-3,-1.3,-3,-3c0,-1.7,1.3,-3.1,3,-3.1c1.7,0,3.1,1.4,3.1,3.1Z" class="g13_1" />
<path d="M367.3,217.2c0,1.7,-1.4,3,-3.1,3c-1.7,0,-3,-1.3,-3,-3c0,-1.7,1.3,-3.1,3,-3.1c1.7,0,3.1,1.4,3.1,3.1Z" class="g14_1" />
<path d="M240.5,217.2c0,1.7,-1.4,3,-3.1,3c-1.7,0,-3,-1.3,-3,-3c0,-1.7,1.3,-3.1,3,-3.1c1.7,0,3.1,1.4,3.1,3.1Z" class="g13_1" />
<path d="M240.5,217.2c0,1.7,-1.4,3,-3.1,3c-1.7,0,-3,-1.3,-3,-3c0,-1.7,1.3,-3.1,3,-3.1c1.7,0,3.1,1.4,3.1,3.1Z" class="g14_1" />
<path d="M113.7,217.2c0,1.7,-1.4,3,-3.1,3c-1.7,0,-3,-1.3,-3,-3c0,-1.7,1.3,-3.1,3,-3.1c1.7,0,3.1,1.4,3.1,3.1Z" class="g13_1" />
<path d="M113.7,217.2c0,1.7,-1.4,3,-3.1,3c-1.7,0,-3,-1.3,-3,-3c0,-1.7,1.3,-3.1,3,-3.1c1.7,0,3.1,1.4,3.1,3.1Z" class="g14_1" />
<path d="M787.4,203.4c0,1.7,-1.4,3.1,-3,3.1c-1.7,0,-3.1,-1.4,-3.1,-3.1c0,-1.6,1.4,-3,3.1,-3c1.6,0,3,1.4,3,3Z" class="g15_1" />
<path d="M787.4,203.4c0,1.7,-1.4,3.1,-3,3.1c-1.7,0,-3.1,-1.4,-3.1,-3.1c0,-1.6,1.4,-3,3.1,-3c1.6,0,3,1.4,3,3Z" class="g16_1" />
<path d="M660.6,208c0,1.7,-1.4,3.1,-3,3.1c-1.7,0,-3.1,-1.4,-3.1,-3.1c0,-1.7,1.4,-3,3.1,-3c1.6,0,3,1.3,3,3Z" class="g15_1" />
<path d="M660.6,208c0,1.7,-1.4,3.1,-3,3.1c-1.7,0,-3.1,-1.4,-3.1,-3.1c0,-1.7,1.4,-3,3.1,-3c1.6,0,3,1.3,3,3Z" class="g16_1" />
<path d="M535.3,211.1c0,1.7,-1.3,3,-3,3c-1.7,0,-3.1,-1.3,-3.1,-3c0,-1.7,1.4,-3.1,3.1,-3.1c1.7,0,3,1.4,3,3.1Z" class="g15_1" />
<path d="M535.3,211.1c0,1.7,-1.3,3,-3,3c-1.7,0,-3.1,-1.3,-3.1,-3c0,-1.7,1.4,-3.1,3.1,-3.1c1.7,0,3,1.4,3,3.1Z" class="g16_1" />
<path d="M451.3,217.2c0,1.7,-1.4,3,-3.1,3c-1.6,0,-3,-1.3,-3,-3c0,-1.7,1.4,-3.1,3,-3.1c1.7,0,3.1,1.4,3.1,3.1Z" class="g15_1" />
<path d="M451.3,217.2c0,1.7,-1.4,3,-3.1,3c-1.6,0,-3,-1.3,-3,-3c0,-1.7,1.4,-3.1,3,-3.1c1.7,0,3.1,1.4,3.1,3.1Z" class="g16_1" />
<path d="M367.3,221.8c0,1.7,-1.4,3,-3.1,3c-1.7,0,-3,-1.3,-3,-3c0,-1.7,1.3,-3.1,3,-3.1c1.7,0,3.1,1.4,3.1,3.1Z" class="g15_1" />
<path d="M367.3,221.8c0,1.7,-1.4,3,-3.1,3c-1.7,0,-3,-1.3,-3,-3c0,-1.7,1.3,-3.1,3,-3.1c1.7,0,3.1,1.4,3.1,3.1Z" class="g16_1" />
<path d="M240.5,223.3c0,1.7,-1.4,3.1,-3.1,3.1c-1.7,0,-3,-1.4,-3,-3.1c0,-1.7,1.3,-3.1,3,-3.1c1.7,0,3.1,1.4,3.1,3.1Z" class="g15_1" />
<path d="M240.5,223.3c0,1.7,-1.4,3.1,-3.1,3.1c-1.7,0,-3,-1.4,-3,-3.1c0,-1.7,1.3,-3.1,3,-3.1c1.7,0,3.1,1.4,3.1,3.1Z" class="g16_1" />
<path d="M113.7,227.9c0,1.7,-1.4,3,-3.1,3c-1.7,0,-3,-1.3,-3,-3c0,-1.7,1.3,-3.1,3,-3.1c1.7,0,3.1,1.4,3.1,3.1Z" class="g15_1" />
<path d="M113.7,227.9c0,1.7,-1.4,3,-3.1,3c-1.7,0,-3,-1.3,-3,-3c0,-1.7,1.3,-3.1,3,-3.1c1.7,0,3.1,1.4,3.1,3.1Z" class="g16_1" />
<path d="M787.4,217.2c0,1.7,-1.4,3,-3,3c-1.7,0,-3.1,-1.3,-3.1,-3c0,-1.7,1.4,-3.1,3.1,-3.1c1.6,0,3,1.4,3,3.1Z" class="g17_1" />
<path d="M787.4,217.2c0,1.7,-1.4,3,-3,3c-1.7,0,-3.1,-1.3,-3.1,-3c0,-1.7,1.4,-3.1,3.1,-3.1c1.6,0,3,1.4,3,3.1Z" class="g18_1" />
<path d="M660.6,217.2c0,1.7,-1.4,3,-3,3c-1.7,0,-3.1,-1.3,-3.1,-3c0,-1.7,1.4,-3.1,3.1,-3.1c1.6,0,3,1.4,3,3.1Z" class="g17_1" />
<path d="M660.6,217.2c0,1.7,-1.4,3,-3,3c-1.7,0,-3.1,-1.3,-3.1,-3c0,-1.7,1.4,-3.1,3.1,-3.1c1.6,0,3,1.4,3,3.1Z" class="g18_1" />
<path d="M535.3,217.2c0,1.7,-1.3,3,-3,3c-1.7,0,-3.1,-1.3,-3.1,-3c0,-1.7,1.4,-3.1,3.1,-3.1c1.7,0,3,1.4,3,3.1Z" class="g17_1" />
<path d="M535.3,217.2c0,1.7,-1.3,3,-3,3c-1.7,0,-3.1,-1.3,-3.1,-3c0,-1.7,1.4,-3.1,3.1,-3.1c1.7,0,3,1.4,3,3.1Z" class="g18_1" />
<path d="M451.3,217.2c0,1.7,-1.4,3,-3.1,3c-1.6,0,-3,-1.3,-3,-3c0,-1.7,1.4,-3.1,3,-3.1c1.7,0,3.1,1.4,3.1,3.1Z" class="g17_1" />
<path d="M451.3,217.2c0,1.7,-1.4,3,-3.1,3c-1.6,0,-3,-1.3,-3,-3c0,-1.7,1.4,-3.1,3,-3.1c1.7,0,3.1,1.4,3.1,3.1Z" class="g18_1" />
<path d="M367.3,215.7c0,1.7,-1.4,3,-3.1,3c-1.7,0,-3,-1.3,-3,-3c0,-1.7,1.3,-3.1,3,-3.1c1.7,0,3.1,1.4,3.1,3.1Z" class="g17_1" />
<path d="M367.3,215.7c0,1.7,-1.4,3,-3.1,3c-1.7,0,-3,-1.3,-3,-3c0,-1.7,1.3,-3.1,3,-3.1c1.7,0,3.1,1.4,3.1,3.1Z" class="g18_1" />
<path d="M240.5,217.2c0,1.7,-1.4,3,-3.1,3c-1.7,0,-3,-1.3,-3,-3c0,-1.7,1.3,-3.1,3,-3.1c1.7,0,3.1,1.4,3.1,3.1Z" class="g17_1" />
<path d="M240.5,217.2c0,1.7,-1.4,3,-3.1,3c-1.7,0,-3,-1.3,-3,-3c0,-1.7,1.3,-3.1,3,-3.1c1.7,0,3.1,1.4,3.1,3.1Z" class="g18_1" />
<path d="M113.7,215.7c0,1.7,-1.4,3,-3.1,3c-1.7,0,-3,-1.3,-3,-3c0,-1.7,1.3,-3.1,3,-3.1c1.7,0,3.1,1.4,3.1,3.1Z" class="g17_1" />
<path d="M113.7,215.7c0,1.7,-1.4,3,-3.1,3c-1.7,0,-3,-1.3,-3,-3c0,-1.7,1.3,-3.1,3,-3.1c1.7,0,3.1,1.4,3.1,3.1Z" class="g18_1" />
<path d="M787.4,200.4c0,1.7,-1.4,3,-3,3c-1.7,0,-3.1,-1.3,-3.1,-3c0,-1.7,1.4,-3.1,3.1,-3.1c1.6,0,3,1.4,3,3.1Z" class="g19_1" />
<path d="M787.4,200.4c0,1.7,-1.4,3,-3,3c-1.7,0,-3.1,-1.3,-3.1,-3c0,-1.7,1.4,-3.1,3.1,-3.1c1.6,0,3,1.4,3,3.1Z" class="g20_1" />
<path d="M660.6,208c0,1.7,-1.4,3.1,-3,3.1c-1.7,0,-3.1,-1.4,-3.1,-3.1c0,-1.7,1.4,-3,3.1,-3c1.6,0,3,1.3,3,3Z" class="g19_1" />
<path d="M660.6,208c0,1.7,-1.4,3.1,-3,3.1c-1.7,0,-3.1,-1.4,-3.1,-3.1c0,-1.7,1.4,-3,3.1,-3c1.6,0,3,1.3,3,3Z" class="g20_1" />
<path d="M535.3,214.1c0,1.7,-1.3,3.1,-3,3.1c-1.7,0,-3.1,-1.4,-3.1,-3.1c0,-1.7,1.4,-3,3.1,-3c1.7,0,3,1.3,3,3Z" class="g19_1" />
<path d="M535.3,214.1c0,1.7,-1.3,3.1,-3,3.1c-1.7,0,-3.1,-1.4,-3.1,-3.1c0,-1.7,1.4,-3,3.1,-3c1.7,0,3,1.3,3,3Z" class="g20_1" />
<path d="M451.3,217.2c0,1.7,-1.4,3,-3.1,3c-1.6,0,-3,-1.3,-3,-3c0,-1.7,1.4,-3.1,3,-3.1c1.7,0,3.1,1.4,3.1,3.1Z" class="g19_1" />
<path d="M451.3,217.2c0,1.7,-1.4,3,-3.1,3c-1.6,0,-3,-1.3,-3,-3c0,-1.7,1.4,-3.1,3,-3.1c1.7,0,3.1,1.4,3.1,3.1Z" class="g20_1" />
<path d="M367.3,223.3c0,1.7,-1.4,3.1,-3.1,3.1c-1.7,0,-3,-1.4,-3,-3.1c0,-1.7,1.3,-3.1,3,-3.1c1.7,0,3.1,1.4,3.1,3.1Z" class="g19_1" />
<path d="M367.3,223.3c0,1.7,-1.4,3.1,-3.1,3.1c-1.7,0,-3,-1.4,-3,-3.1c0,-1.7,1.3,-3.1,3,-3.1c1.7,0,3.1,1.4,3.1,3.1Z" class="g20_1" />
<path d="M240.5,229.4c0,1.7,-1.4,3.1,-3.1,3.1c-1.7,0,-3,-1.4,-3,-3.1c0,-1.7,1.3,-3,3,-3c1.7,0,3.1,1.3,3.1,3Z" class="g19_1" />
<path d="M240.5,229.4c0,1.7,-1.4,3.1,-3.1,3.1c-1.7,0,-3,-1.4,-3,-3.1c0,-1.7,1.3,-3,3,-3c1.7,0,3.1,1.3,3.1,3Z" class="g20_1" />
<path d="M113.7,237.1c0,1.6,-1.4,3,-3.1,3c-1.7,0,-3,-1.4,-3,-3c0,-1.7,1.3,-3.1,3,-3.1c1.7,0,3.1,1.4,3.1,3.1Z" class="g19_1" />
<path d="M113.7,237.1c0,1.6,-1.4,3,-3.1,3c-1.7,0,-3,-1.4,-3,-3c0,-1.7,1.3,-3.1,3,-3.1c1.7,0,3.1,1.4,3.1,3.1Z" class="g20_1" />
<path d="M787.4,215.7c0,1.7,-1.4,3,-3,3c-1.7,0,-3.1,-1.3,-3.1,-3c0,-1.7,1.4,-3.1,3.1,-3.1c1.6,0,3,1.4,3,3.1Z" class="g21_1" />
<path d="M787.4,215.7c0,1.7,-1.4,3,-3,3c-1.7,0,-3.1,-1.3,-3.1,-3c0,-1.7,1.4,-3.1,3.1,-3.1c1.6,0,3,1.4,3,3.1Z" class="g22_1" />
<path d="M660.6,215.7c0,1.7,-1.4,3,-3,3c-1.7,0,-3.1,-1.3,-3.1,-3c0,-1.7,1.4,-3.1,3.1,-3.1c1.6,0,3,1.4,3,3.1Z" class="g21_1" />
<path d="M660.6,215.7c0,1.7,-1.4,3,-3,3c-1.7,0,-3.1,-1.3,-3.1,-3c0,-1.7,1.4,-3.1,3.1,-3.1c1.6,0,3,1.4,3,3.1Z" class="g22_1" />
<path d="M535.3,215.7c0,1.7,-1.3,3,-3,3c-1.7,0,-3.1,-1.3,-3.1,-3c0,-1.7,1.4,-3.1,3.1,-3.1c1.7,0,3,1.4,3,3.1Z" class="g21_1" />
<path d="M535.3,215.7c0,1.7,-1.3,3,-3,3c-1.7,0,-3.1,-1.3,-3.1,-3c0,-1.7,1.4,-3.1,3.1,-3.1c1.7,0,3,1.4,3,3.1Z" class="g22_1" />
<path d="M451.3,217.2c0,1.7,-1.4,3,-3.1,3c-1.6,0,-3,-1.3,-3,-3c0,-1.7,1.4,-3.1,3,-3.1c1.7,0,3.1,1.4,3.1,3.1Z" class="g21_1" />
<path d="M451.3,217.2c0,1.7,-1.4,3,-3.1,3c-1.6,0,-3,-1.3,-3,-3c0,-1.7,1.4,-3.1,3,-3.1c1.7,0,3.1,1.4,3.1,3.1Z" class="g22_1" />
<path d="M367.3,217.2c0,1.7,-1.4,3,-3.1,3c-1.7,0,-3,-1.3,-3,-3c0,-1.7,1.3,-3.1,3,-3.1c1.7,0,3.1,1.4,3.1,3.1Z" class="g21_1" />
<path d="M367.3,217.2c0,1.7,-1.4,3,-3.1,3c-1.7,0,-3,-1.3,-3,-3c0,-1.7,1.3,-3.1,3,-3.1c1.7,0,3.1,1.4,3.1,3.1Z" class="g22_1" />
<path d="M240.5,217.2c0,1.7,-1.4,3,-3.1,3c-1.7,0,-3,-1.3,-3,-3c0,-1.7,1.3,-3.1,3,-3.1c1.7,0,3.1,1.4,3.1,3.1Z" class="g21_1" />
<path d="M240.5,217.2c0,1.7,-1.4,3,-3.1,3c-1.7,0,-3,-1.3,-3,-3c0,-1.7,1.3,-3.1,3,-3.1c1.7,0,3.1,1.4,3.1,3.1Z" class="g22_1" />
<path d="M113.7,217.2c0,1.7,-1.4,3,-3.1,3c-1.7,0,-3,-1.3,-3,-3c0,-1.7,1.3,-3.1,3,-3.1c1.7,0,3.1,1.4,3.1,3.1Z" class="g21_1" />
<path d="M113.7,217.2c0,1.7,-1.4,3,-3.1,3c-1.7,0,-3,-1.3,-3,-3c0,-1.7,1.3,-3.1,3,-3.1c1.7,0,3.1,1.4,3.1,3.1Z" class="g22_1" />
<path d="M787.4,203.4c0,1.7,-1.4,3.1,-3,3.1c-1.7,0,-3.1,-1.4,-3.1,-3.1c0,-1.6,1.4,-3,3.1,-3c1.6,0,3,1.4,3,3Z" class="g23_1" />
<path d="M787.4,203.4c0,1.7,-1.4,3.1,-3,3.1c-1.7,0,-3.1,-1.4,-3.1,-3.1c0,-1.6,1.4,-3,3.1,-3c1.6,0,3,1.4,3,3Z" class="g24_1" />
<path d="M660.6,208c0,1.7,-1.4,3.1,-3,3.1c-1.7,0,-3.1,-1.4,-3.1,-3.1c0,-1.7,1.4,-3,3.1,-3c1.6,0,3,1.3,3,3Z" class="g23_1" />
<path d="M660.6,208c0,1.7,-1.4,3.1,-3,3.1c-1.7,0,-3.1,-1.4,-3.1,-3.1c0,-1.7,1.4,-3,3.1,-3c1.6,0,3,1.3,3,3Z" class="g24_1" />
<path d="M535.3,211.1c0,1.7,-1.3,3,-3,3c-1.7,0,-3.1,-1.3,-3.1,-3c0,-1.7,1.4,-3.1,3.1,-3.1c1.7,0,3,1.4,3,3.1Z" class="g23_1" />
<path d="M535.3,211.1c0,1.7,-1.3,3,-3,3c-1.7,0,-3.1,-1.3,-3.1,-3c0,-1.7,1.4,-3.1,3.1,-3.1c1.7,0,3,1.4,3,3.1Z" class="g24_1" />
<path d="M451.3,217.2c0,1.7,-1.4,3,-3.1,3c-1.6,0,-3,-1.3,-3,-3c0,-1.7,1.4,-3.1,3,-3.1c1.7,0,3.1,1.4,3.1,3.1Z" class="g23_1" />
<path d="M451.3,217.2c0,1.7,-1.4,3,-3.1,3c-1.6,0,-3,-1.3,-3,-3c0,-1.7,1.4,-3.1,3,-3.1c1.7,0,3.1,1.4,3.1,3.1Z" class="g24_1" />
<path d="M367.3,221.8c0,1.7,-1.4,3,-3.1,3c-1.7,0,-3,-1.3,-3,-3c0,-1.7,1.3,-3.1,3,-3.1c1.7,0,3.1,1.4,3.1,3.1Z" class="g23_1" />
<path d="M367.3,221.8c0,1.7,-1.4,3,-3.1,3c-1.7,0,-3,-1.3,-3,-3c0,-1.7,1.3,-3.1,3,-3.1c1.7,0,3.1,1.4,3.1,3.1Z" class="g24_1" />
<path d="M240.5,224.8c0,1.7,-1.4,3.1,-3.1,3.1c-1.7,0,-3,-1.4,-3,-3.1c0,-1.7,1.3,-3,3,-3c1.7,0,3.1,1.3,3.1,3Z" class="g23_1" />
<path d="M240.5,224.8c0,1.7,-1.4,3.1,-3.1,3.1c-1.7,0,-3,-1.4,-3,-3.1c0,-1.7,1.3,-3,3,-3c1.7,0,3.1,1.3,3.1,3Z" class="g24_1" />
<path d="M113.7,227.9c0,1.7,-1.4,3,-3.1,3c-1.7,0,-3,-1.3,-3,-3c0,-1.7,1.3,-3.1,3,-3.1c1.7,0,3.1,1.4,3.1,3.1Z" class="g23_1" />
<path d="M113.7,227.9c0,1.7,-1.4,3,-3.1,3c-1.7,0,-3,-1.3,-3,-3c0,-1.7,1.3,-3.1,3,-3.1c1.7,0,3.1,1.4,3.1,3.1Z" class="g24_1" />
<path d="M787.4,217.2c0,1.7,-1.4,3,-3,3c-1.7,0,-3.1,-1.3,-3.1,-3c0,-1.7,1.4,-3.1,3.1,-3.1c1.6,0,3,1.4,3,3.1Z" class="g25_1" />
<path d="M787.4,217.2c0,1.7,-1.4,3,-3,3c-1.7,0,-3.1,-1.3,-3.1,-3c0,-1.7,1.4,-3.1,3.1,-3.1c1.6,0,3,1.4,3,3.1Z" class="g26_1" />
<path d="M660.6,215.7c0,1.7,-1.4,3,-3,3c-1.7,0,-3.1,-1.3,-3.1,-3c0,-1.7,1.4,-3.1,3.1,-3.1c1.6,0,3,1.4,3,3.1Z" class="g25_1" />
<path d="M660.6,215.7c0,1.7,-1.4,3,-3,3c-1.7,0,-3.1,-1.3,-3.1,-3c0,-1.7,1.4,-3.1,3.1,-3.1c1.6,0,3,1.4,3,3.1Z" class="g26_1" />
<path d="M535.3,217.2c0,1.7,-1.3,3,-3,3c-1.7,0,-3.1,-1.3,-3.1,-3c0,-1.7,1.4,-3.1,3.1,-3.1c1.7,0,3,1.4,3,3.1Z" class="g25_1" />
<path d="M535.3,217.2c0,1.7,-1.3,3,-3,3c-1.7,0,-3.1,-1.3,-3.1,-3c0,-1.7,1.4,-3.1,3.1,-3.1c1.7,0,3,1.4,3,3.1Z" class="g26_1" />
<path d="M451.3,217.2c0,1.7,-1.4,3,-3.1,3c-1.6,0,-3,-1.3,-3,-3c0,-1.7,1.4,-3.1,3,-3.1c1.7,0,3.1,1.4,3.1,3.1Z" class="g25_1" />
<path d="M451.3,217.2c0,1.7,-1.4,3,-3.1,3c-1.6,0,-3,-1.3,-3,-3c0,-1.7,1.4,-3.1,3,-3.1c1.7,0,3.1,1.4,3.1,3.1Z" class="g26_1" />
<path d="M367.3,217.2c0,1.7,-1.4,3,-3.1,3c-1.7,0,-3,-1.3,-3,-3c0,-1.7,1.3,-3.1,3,-3.1c1.7,0,3.1,1.4,3.1,3.1Z" class="g25_1" />
<path d="M367.3,217.2c0,1.7,-1.4,3,-3.1,3c-1.7,0,-3,-1.3,-3,-3c0,-1.7,1.3,-3.1,3,-3.1c1.7,0,3.1,1.4,3.1,3.1Z" class="g26_1" />
<path d="M240.5,215.7c0,1.7,-1.4,3,-3.1,3c-1.7,0,-3,-1.3,-3,-3c0,-1.7,1.3,-3.1,3,-3.1c1.7,0,3.1,1.4,3.1,3.1Z" class="g25_1" />
<path d="M240.5,215.7c0,1.7,-1.4,3,-3.1,3c-1.7,0,-3,-1.3,-3,-3c0,-1.7,1.3,-3.1,3,-3.1c1.7,0,3.1,1.4,3.1,3.1Z" class="g26_1" />
<path d="M113.7,215.7c0,1.7,-1.4,3,-3.1,3c-1.7,0,-3,-1.3,-3,-3c0,-1.7,1.3,-3.1,3,-3.1c1.7,0,3.1,1.4,3.1,3.1Z" class="g25_1" />
<path d="M113.7,215.7c0,1.7,-1.4,3,-3.1,3c-1.7,0,-3,-1.3,-3,-3c0,-1.7,1.3,-3.1,3,-3.1c1.7,0,3.1,1.4,3.1,3.1Z" class="g26_1" />
<path d="M787.4,205c0,1.7,-1.4,3,-3,3c-1.7,0,-3.1,-1.3,-3.1,-3c0,-1.7,1.4,-3.1,3.1,-3.1c1.6,0,3,1.4,3,3.1Z" class="g27_1" />
<path d="M787.4,205c0,1.7,-1.4,3,-3,3c-1.7,0,-3.1,-1.3,-3.1,-3c0,-1.7,1.4,-3.1,3.1,-3.1c1.6,0,3,1.4,3,3.1Z" class="g28_1" />
<path d="M660.6,208c0,1.7,-1.4,3.1,-3,3.1c-1.7,0,-3.1,-1.4,-3.1,-3.1c0,-1.7,1.4,-3,3.1,-3c1.6,0,3,1.3,3,3Z" class="g27_1" />
<path d="M660.6,208c0,1.7,-1.4,3.1,-3,3.1c-1.7,0,-3.1,-1.4,-3.1,-3.1c0,-1.7,1.4,-3,3.1,-3c1.6,0,3,1.3,3,3Z" class="g28_1" />
<path d="M535.3,212.6c0,1.7,-1.3,3.1,-3,3.1c-1.7,0,-3.1,-1.4,-3.1,-3.1c0,-1.7,1.4,-3,3.1,-3c1.7,0,3,1.3,3,3Z" class="g27_1" />
<path d="M535.3,212.6c0,1.7,-1.3,3.1,-3,3.1c-1.7,0,-3.1,-1.4,-3.1,-3.1c0,-1.7,1.4,-3,3.1,-3c1.7,0,3,1.3,3,3Z" class="g28_1" />
<path d="M451.3,215.7c0,1.7,-1.4,3,-3.1,3c-1.6,0,-3,-1.3,-3,-3c0,-1.7,1.4,-3.1,3,-3.1c1.7,0,3.1,1.4,3.1,3.1Z" class="g27_1" />
<path d="M451.3,215.7c0,1.7,-1.4,3,-3.1,3c-1.6,0,-3,-1.3,-3,-3c0,-1.7,1.4,-3.1,3,-3.1c1.7,0,3.1,1.4,3.1,3.1Z" class="g28_1" />
<path d="M367.3,221.8c0,1.7,-1.4,3,-3.1,3c-1.7,0,-3,-1.3,-3,-3c0,-1.7,1.3,-3.1,3,-3.1c1.7,0,3.1,1.4,3.1,3.1Z" class="g27_1" />
<path d="M367.3,221.8c0,1.7,-1.4,3,-3.1,3c-1.7,0,-3,-1.3,-3,-3c0,-1.7,1.3,-3.1,3,-3.1c1.7,0,3.1,1.4,3.1,3.1Z" class="g28_1" />
<path d="M240.5,224.8c0,1.7,-1.4,3.1,-3.1,3.1c-1.7,0,-3,-1.4,-3,-3.1c0,-1.7,1.3,-3,3,-3c1.7,0,3.1,1.3,3.1,3Z" class="g27_1" />
<path d="M240.5,224.8c0,1.7,-1.4,3.1,-3.1,3.1c-1.7,0,-3,-1.4,-3,-3.1c0,-1.7,1.3,-3,3,-3c1.7,0,3.1,1.3,3.1,3Z" class="g28_1" />
<path d="M113.7,227.9c0,1.7,-1.4,3,-3.1,3c-1.7,0,-3,-1.3,-3,-3c0,-1.7,1.3,-3.1,3,-3.1c1.7,0,3.1,1.4,3.1,3.1Z" class="g27_1" />
<path d="M113.7,227.9c0,1.7,-1.4,3,-3.1,3c-1.7,0,-3,-1.3,-3,-3c0,-1.7,1.3,-3.1,3,-3.1c1.7,0,3.1,1.4,3.1,3.1Z" class="g28_1" />
<path d="M787.4,217.2c0,1.7,-1.4,3,-3,3c-1.7,0,-3.1,-1.3,-3.1,-3c0,-1.7,1.4,-3.1,3.1,-3.1c1.6,0,3,1.4,3,3.1Z" class="g29_1" />
<path d="M787.4,217.2c0,1.7,-1.4,3,-3,3c-1.7,0,-3.1,-1.3,-3.1,-3c0,-1.7,1.4,-3.1,3.1,-3.1c1.6,0,3,1.4,3,3.1Z" class="g30_1" />
<path d="M660.6,217.2c0,1.7,-1.4,3,-3,3c-1.7,0,-3.1,-1.3,-3.1,-3c0,-1.7,1.4,-3.1,3.1,-3.1c1.6,0,3,1.4,3,3.1Z" class="g29_1" />
<path d="M660.6,217.2c0,1.7,-1.4,3,-3,3c-1.7,0,-3.1,-1.3,-3.1,-3c0,-1.7,1.4,-3.1,3.1,-3.1c1.6,0,3,1.4,3,3.1Z" class="g30_1" />
<path d="M535.3,215.7c0,1.7,-1.3,3,-3,3c-1.7,0,-3.1,-1.3,-3.1,-3c0,-1.7,1.4,-3.1,3.1,-3.1c1.7,0,3,1.4,3,3.1Z" class="g29_1" />
<path d="M535.3,215.7c0,1.7,-1.3,3,-3,3c-1.7,0,-3.1,-1.3,-3.1,-3c0,-1.7,1.4,-3.1,3.1,-3.1c1.7,0,3,1.4,3,3.1Z" class="g30_1" />
<path d="M451.3,215.7c0,1.7,-1.4,3,-3.1,3c-1.6,0,-3,-1.3,-3,-3c0,-1.7,1.4,-3.1,3,-3.1c1.7,0,3.1,1.4,3.1,3.1Z" class="g29_1" />
<path d="M451.3,215.7c0,1.7,-1.4,3,-3.1,3c-1.6,0,-3,-1.3,-3,-3c0,-1.7,1.4,-3.1,3,-3.1c1.7,0,3.1,1.4,3.1,3.1Z" class="g30_1" />
<path d="M367.3,217.2c0,1.7,-1.4,3,-3.1,3c-1.7,0,-3,-1.3,-3,-3c0,-1.7,1.3,-3.1,3,-3.1c1.7,0,3.1,1.4,3.1,3.1Z" class="g29_1" />
<path d="M367.3,217.2c0,1.7,-1.4,3,-3.1,3c-1.7,0,-3,-1.3,-3,-3c0,-1.7,1.3,-3.1,3,-3.1c1.7,0,3.1,1.4,3.1,3.1Z" class="g30_1" />
<path d="M240.5,218.7c0,1.7,-1.4,3.1,-3.1,3.1c-1.7,0,-3,-1.4,-3,-3.1c0,-1.7,1.3,-3,3,-3c1.7,0,3.1,1.3,3.1,3Z" class="g29_1" />
<path d="M240.5,218.7c0,1.7,-1.4,3.1,-3.1,3.1c-1.7,0,-3,-1.4,-3,-3.1c0,-1.7,1.3,-3,3,-3c1.7,0,3.1,1.3,3.1,3Z" class="g30_1" />
<path d="M113.7,217.2c0,1.7,-1.4,3,-3.1,3c-1.7,0,-3,-1.3,-3,-3c0,-1.7,1.3,-3.1,3,-3.1c1.7,0,3.1,1.4,3.1,3.1Z" class="g29_1" />
<path d="M113.7,217.2c0,1.7,-1.4,3,-3.1,3c-1.7,0,-3,-1.3,-3,-3c0,-1.7,1.3,-3.1,3,-3.1c1.7,0,3.1,1.4,3.1,3.1Z" class="g30_1" />
<path d="M787.4,197.3c0,1.7,-1.4,3.1,-3,3.1c-1.7,0,-3.1,-1.4,-3.1,-3.1c0,-1.7,1.4,-3,3.1,-3c1.6,0,3,1.3,3,3Z" class="g31_1" />
<path d="M787.4,197.3c0,1.7,-1.4,3.1,-3,3.1c-1.7,0,-3.1,-1.4,-3.1,-3.1c0,-1.7,1.4,-3,3.1,-3c1.6,0,3,1.3,3,3Z" class="g32_1" />
<path d="M660.6,205c0,1.7,-1.4,3,-3,3c-1.7,0,-3.1,-1.3,-3.1,-3c0,-1.7,1.4,-3.1,3.1,-3.1c1.6,0,3,1.4,3,3.1Z" class="g31_1" />
<path d="M660.6,205c0,1.7,-1.4,3,-3,3c-1.7,0,-3.1,-1.3,-3.1,-3c0,-1.7,1.4,-3.1,3.1,-3.1c1.6,0,3,1.4,3,3.1Z" class="g32_1" />
<path d="M535.3,211.1c0,1.7,-1.3,3,-3,3c-1.7,0,-3.1,-1.3,-3.1,-3c0,-1.7,1.4,-3.1,3.1,-3.1c1.7,0,3,1.4,3,3.1Z" class="g31_1" />
<path d="M535.3,211.1c0,1.7,-1.3,3,-3,3c-1.7,0,-3.1,-1.3,-3.1,-3c0,-1.7,1.4,-3.1,3.1,-3.1c1.7,0,3,1.4,3,3.1Z" class="g32_1" />
<path d="M451.3,217.2c0,1.7,-1.4,3,-3.1,3c-1.6,0,-3,-1.3,-3,-3c0,-1.7,1.4,-3.1,3,-3.1c1.7,0,3.1,1.4,3.1,3.1Z" class="g31_1" />
<path d="M451.3,217.2c0,1.7,-1.4,3,-3.1,3c-1.6,0,-3,-1.3,-3,-3c0,-1.7,1.4,-3.1,3,-3.1c1.7,0,3.1,1.4,3.1,3.1Z" class="g32_1" />
<path d="M367.3,220.2c0,1.7,-1.4,3.1,-3.1,3.1c-1.7,0,-3,-1.4,-3,-3.1c0,-1.6,1.3,-3,3,-3c1.7,0,3.1,1.4,3.1,3Z" class="g31_1" />
<path d="M367.3,220.2c0,1.7,-1.4,3.1,-3.1,3.1c-1.7,0,-3,-1.4,-3,-3.1c0,-1.6,1.3,-3,3,-3c1.7,0,3.1,1.4,3.1,3Z" class="g32_1" />
<path d="M240.5,226.4c0,1.6,-1.4,3,-3.1,3c-1.7,0,-3,-1.4,-3,-3c0,-1.7,1.3,-3.1,3,-3.1c1.7,0,3.1,1.4,3.1,3.1Z" class="g31_1" />
<path d="M240.5,226.4c0,1.6,-1.4,3,-3.1,3c-1.7,0,-3,-1.4,-3,-3c0,-1.7,1.3,-3.1,3,-3.1c1.7,0,3.1,1.4,3.1,3.1Z" class="g32_1" />
<path d="M113.7,232.5c0,1.7,-1.4,3,-3.1,3c-1.7,0,-3,-1.3,-3,-3c0,-1.7,1.3,-3.1,3,-3.1c1.7,0,3.1,1.4,3.1,3.1Z" class="g31_1" />
<path d="M113.7,232.5c0,1.7,-1.4,3,-3.1,3c-1.7,0,-3,-1.3,-3,-3c0,-1.7,1.3,-3.1,3,-3.1c1.7,0,3.1,1.4,3.1,3.1Z" class="g32_1" />
<path d="M787.4,215.7c0,1.7,-1.4,3,-3,3c-1.7,0,-3.1,-1.3,-3.1,-3c0,-1.7,1.4,-3.1,3.1,-3.1c1.6,0,3,1.4,3,3.1Z" class="g33_1" />
<path d="M787.4,215.7c0,1.7,-1.4,3,-3,3c-1.7,0,-3.1,-1.3,-3.1,-3c0,-1.7,1.4,-3.1,3.1,-3.1c1.6,0,3,1.4,3,3.1Z" class="g34_1" />
<path d="M660.6,217.2c0,1.7,-1.4,3,-3,3c-1.7,0,-3.1,-1.3,-3.1,-3c0,-1.7,1.4,-3.1,3.1,-3.1c1.6,0,3,1.4,3,3.1Z" class="g33_1" />
<path d="M660.6,217.2c0,1.7,-1.4,3,-3,3c-1.7,0,-3.1,-1.3,-3.1,-3c0,-1.7,1.4,-3.1,3.1,-3.1c1.6,0,3,1.4,3,3.1Z" class="g34_1" />
<path d="M535.3,215.7c0,1.7,-1.3,3,-3,3c-1.7,0,-3.1,-1.3,-3.1,-3c0,-1.7,1.4,-3.1,3.1,-3.1c1.7,0,3,1.4,3,3.1Z" class="g33_1" />
<path d="M535.3,215.7c0,1.7,-1.3,3,-3,3c-1.7,0,-3.1,-1.3,-3.1,-3c0,-1.7,1.4,-3.1,3.1,-3.1c1.7,0,3,1.4,3,3.1Z" class="g34_1" />
<path d="M451.3,217.2c0,1.7,-1.4,3,-3.1,3c-1.6,0,-3,-1.3,-3,-3c0,-1.7,1.4,-3.1,3,-3.1c1.7,0,3.1,1.4,3.1,3.1Z" class="g33_1" />
<path d="M451.3,217.2c0,1.7,-1.4,3,-3.1,3c-1.6,0,-3,-1.3,-3,-3c0,-1.7,1.4,-3.1,3,-3.1c1.7,0,3.1,1.4,3.1,3.1Z" class="g34_1" />
<path d="M367.3,218.7c0,1.7,-1.4,3.1,-3.1,3.1c-1.7,0,-3,-1.4,-3,-3.1c0,-1.7,1.3,-3,3,-3c1.7,0,3.1,1.3,3.1,3Z" class="g33_1" />
<path d="M367.3,218.7c0,1.7,-1.4,3.1,-3.1,3.1c-1.7,0,-3,-1.4,-3,-3.1c0,-1.7,1.3,-3,3,-3c1.7,0,3.1,1.3,3.1,3Z" class="g34_1" />
<path d="M240.5,218.7c0,1.7,-1.4,3.1,-3.1,3.1c-1.7,0,-3,-1.4,-3,-3.1c0,-1.7,1.3,-3,3,-3c1.7,0,3.1,1.3,3.1,3Z" class="g33_1" />
<path d="M240.5,218.7c0,1.7,-1.4,3.1,-3.1,3.1c-1.7,0,-3,-1.4,-3,-3.1c0,-1.7,1.3,-3,3,-3c1.7,0,3.1,1.3,3.1,3Z" class="g34_1" />
<path d="M113.7,217.2c0,1.7,-1.4,3,-3.1,3c-1.7,0,-3,-1.3,-3,-3c0,-1.7,1.3,-3.1,3,-3.1c1.7,0,3.1,1.4,3.1,3.1Z" class="g33_1" />
<path d="M113.7,217.2c0,1.7,-1.4,3,-3.1,3c-1.7,0,-3,-1.3,-3,-3c0,-1.7,1.3,-3.1,3,-3.1c1.7,0,3.1,1.4,3.1,3.1Z" class="g34_1" />
<path d="M113.6,81.1v0c.8,.3,1.2,1.2,.9,2c-.3,.8,-1.2,1.1,-2,.8c-.8,-.3,-1.2,-1.2,-.9,-2c.4,-.8,1.2,-1.1,2,-.8Zm5.7,2.3v0c.8,.3,1.2,1.2,.8,2c-.3,.8,-1.2,1.1,-2,.8c-.7,-.3,-1.1,-1.2,-.8,-2c.3,-.8,1.2,-1.1,2,-.8Zm5.7,2.3v0c.7,.3,1.1,1.2,.8,2c-.3,.8,-1.2,1.1,-2,.8c-.8,-.3,-1.2,-1.2,-.8,-2c.3,-.7,1.2,-1.1,2,-.8Zm5.6,2.3v0c.8,.3,1.2,1.2,.9,2c-.4,.8,-1.2,1.1,-2,.8c-.8,-.3,-1.2,-1.2,-.9,-2c.3,-.7,1.2,-1.1,2,-.8Zm5.7,2.3v0c.8,.3,1.1,1.2,.8,2c-.3,.8,-1.2,1.2,-2,.8c-.7,-.3,-1.1,-1.2,-.8,-2c.3,-.7,1.2,-1.1,2,-.8Zm5.6,2.3h.1c.7,.3,1.1,1.2,.8,2c-.3,.8,-1.2,1.2,-2,.8c-.8,-.3,-1.2,-1.2,-.8,-2c.3,-.7,1.2,-1.1,1.9,-.8Zm5.7,2.3v0c.8,.3,1.2,1.2,.9,2c-.4,.8,-1.3,1.2,-2,.8c-.8,-.3,-1.2,-1.2,-.9,-2c.3,-.7,1.2,-1.1,2,-.8Zm5.7,2.3v0c.8,.3,1.1,1.2,.8,2c-.3,.8,-1.2,1.2,-2,.8c-.8,-.3,-1.1,-1.2,-.8,-1.9c.3,-.8,1.2,-1.2,2,-.9Zm5.6,2.3v0c.8,.3,1.2,1.2,.9,2c-.3,.8,-1.2,1.2,-2,.8c-.8,-.3,-1.2,-1.2,-.9,-1.9c.4,-.8,1.3,-1.2,2,-.9Zm5.7,2.3v0c.8,.3,1.2,1.2,.8,2c-.3,.8,-1.2,1.2,-1.9,.9c-.8,-.4,-1.2,-1.3,-.9,-2c.3,-.8,1.2,-1.2,2,-.9Zm5.7,2.3v0c.8,.3,1.1,1.2,.8,2c-.3,.8,-1.2,1.2,-2,.9c-.8,-.4,-1.1,-1.3,-.8,-2c.3,-.8,1.2,-1.2,2,-.9Zm5.6,2.3v0c.8,.3,1.2,1.2,.9,2c-.3,.8,-1.2,1.2,-2,.9c-.8,-.4,-1.2,-1.3,-.9,-2c.4,-.8,1.2,-1.2,2,-.9Zm5.7,2.3v0c.8,.4,1.2,1.2,.8,2c-.3,.8,-1.2,1.2,-2,.9c-.7,-.4,-1.1,-1.2,-.8,-2c.3,-.8,1.2,-1.2,2,-.9Zm5.7,2.3v0c.7,.4,1.1,1.2,.8,2c-.3,.8,-1.2,1.2,-2,.9c-.8,-.4,-1.2,-1.2,-.8,-2c.3,-.8,1.2,-1.2,2,-.9Zm5.6,2.3v0c.8,.4,1.2,1.3,.9,2c-.4,.8,-1.2,1.2,-2,.9c-.8,-.3,-1.2,-1.2,-.9,-2c.3,-.8,1.2,-1.2,2,-.9Zm5.7,2.3v0c.8,.4,1.1,1.3,.8,2c-.3,.8,-1.2,1.2,-2,.9c-.8,-.3,-1.1,-1.2,-.8,-2c.3,-.8,1.2,-1.2,2,-.9Zm5.6,2.3v0c.8,.4,1.2,1.3,.9,2c-.3,.8,-1.2,1.2,-2,.9c-.8,-.3,-1.2,-1.2,-.8,-2c.3,-.8,1.2,-1.2,1.9,-.9Zm5.7,2.4v0c.8,.3,1.2,1.2,.9,1.9c-.4,.8,-1.3,1.2,-2,.9c-.8,-.3,-1.2,-1.2,-.9,-2c.3,-.8,1.2,-1.2,2,-.8Zm5.7,2.3v0c.8,.3,1.1,1.2,.8,1.9c-.3,.8,-1.2,1.2,-2,.9c-.8,-.3,-1.1,-1.2,-.8,-2c.3,-.8,1.2,-1.2,2,-.8Zm5.6,2.3v0c.8,.3,1.2,1.2,.9,2c-.3,.7,-1.2,1.1,-2,.8c-.8,-.3,-1.2,-1.2,-.9,-2c.4,-.8,1.3,-1.2,2,-.8Zm5.7,2.3v0c.8,.3,1.2,1.2,.8,2c-.3,.7,-1.2,1.1,-1.9,.8h-.1c-.7,-.3,-1.1,-1.2,-.8,-2c.3,-.8,1.2,-1.2,2,-.8Zm5.7,2.3v0c.7,.3,1.1,1.2,.8,2c-.3,.7,-1.2,1.1,-2,.8c-.8,-.3,-1.1,-1.2,-.8,-2c.3,-.8,1.2,-1.1,2,-.8Zm5.6,2.3v0c.8,.3,1.2,1.2,.9,2c-.3,.7,-1.2,1.1,-2,.8c-.8,-.3,-1.2,-1.2,-.9,-2c.4,-.8,1.2,-1.1,2,-.8Zm5.7,2.3v0c.8,.3,1.2,1.2,.8,2c-.3,.8,-1.2,1.1,-2,.8c-.7,-.3,-1.1,-1.2,-.8,-2c.3,-.8,1.2,-1.1,2,-.8Zm5.7,2.3v0c.7,.3,1.1,1.2,.8,2c-.3,.8,-1.2,1.1,-2,.8c-.8,-.3,-1.2,-1.2,-.8,-2c.3,-.8,1.2,-1.1,2,-.8Zm5.6,2.3v0c.8,.3,1.2,1.2,.9,2c-.4,.8,-1.2,1.1,-2,.8c-.8,-.3,-1.2,-1.2,-.9,-2c.3,-.8,1.2,-1.1,2,-.8Zm5.7,2.3v0c.8,.3,1.1,1.2,.8,2c-.3,.8,-1.2,1.1,-2,.8c-.8,-.3,-1.1,-1.2,-.8,-2c.3,-.8,1.2,-1.1,2,-.8Zm5.6,2.3v0c.8,.3,1.2,1.2,.9,2c-.3,.8,-1.2,1.1,-2,.8c-.8,-.3,-1.2,-1.2,-.8,-2c.3,-.7,1.2,-1.1,1.9,-.8Zm5.7,2.3v0c.8,.3,1.2,1.2,.9,2c-.4,.8,-1.3,1.1,-2,.8c-.8,-.3,-1.2,-1.2,-.9,-2c.3,-.7,1.2,-1.1,2,-.8Zm5.7,2.3v0c.8,.3,1.1,1.2,.8,2c-.3,.8,-1.2,1.2,-2,.8c-.8,-.3,-1.1,-1.2,-.8,-2c.3,-.7,1.2,-1.1,2,-.8Zm5.6,2.3v0c.8,.3,1.2,1.2,.9,2c-.3,.8,-1.2,1.2,-2,.8c-.8,-.3,-1.2,-1.2,-.9,-2c.4,-.7,1.3,-1.1,2,-.8Zm5.7,2.3v0c.8,.3,1.2,1.2,.8,2c-.3,.8,-1.2,1.2,-2,.8c-.7,-.3,-1.1,-1.2,-.8,-2c.3,-.7,1.2,-1.1,2,-.8Zm5.7,2.3v0c.7,.3,1.1,1.2,.8,2c-.3,.8,-1.2,1.2,-2,.8c-.8,-.3,-1.1,-1.2,-.8,-1.9c.3,-.8,1.2,-1.2,2,-.9Zm5.6,2.3v0c.8,.3,1.2,1.2,.9,2c-.4,.8,-1.2,1.2,-2,.8c-.8,-.3,-1.2,-1.2,-.9,-1.9c.4,-.8,1.2,-1.2,2,-.9Zm5.7,2.3v0c.8,.3,1.1,1.2,.8,2c-.3,.8,-1.2,1.2,-2,.9c-.7,-.4,-1.1,-1.3,-.8,-2c.3,-.8,1.2,-1.2,2,-.9Zm5.7,2.3v0c.7,.3,1.1,1.2,.8,2c-.3,.8,-1.2,1.2,-2,.9c-.8,-.4,-1.2,-1.3,-.8,-2c.3,-.8,1.2,-1.2,2,-.9Zm5.6,2.3v0c.8,.3,1.2,1.2,.9,2c-.4,.8,-1.3,1.2,-2,.9c-.8,-.4,-1.2,-1.3,-.9,-2c.3,-.8,1.2,-1.2,2,-.9Zm5.7,2.3v0c.8,.4,1.1,1.2,.8,2c-.3,.8,-1.2,1.2,-2,.9c-.8,-.4,-1.1,-1.2,-.8,-2c.3,-.8,1.2,-1.2,2,-.9Zm5.6,2.3v0c.8,.4,1.2,1.2,.9,2c-.3,.8,-1.2,1.2,-2,.9c-.8,-.4,-1.2,-1.2,-.8,-2c.3,-.8,1.2,-1.2,1.9,-.9Zm5.7,2.3v0c.8,.4,1.2,1.3,.8,2c-.3,.8,-1.2,1.2,-1.9,.9c-.8,-.3,-1.2,-1.2,-.9,-2c.3,-.8,1.2,-1.2,2,-.9Zm5.7,2.3v0c.8,.4,1.1,1.3,.8,2c-.3,.8,-1.2,1.2,-2,.9c-.8,-.3,-1.1,-1.2,-.8,-2c.3,-.8,1.2,-1.2,2,-.9Zm5.6,2.3v0c.8,.4,1.2,1.3,.9,2c-.3,.8,-1.2,1.2,-2,.9c-.8,-.3,-1.2,-1.2,-.9,-2c.4,-.8,1.3,-1.2,2,-.9Zm5.7,2.4v0c.8,.3,1.2,1.2,.8,1.9c-.3,.8,-1.2,1.2,-2,.9c-.7,-.3,-1.1,-1.2,-.8,-2c.3,-.8,1.2,-1.2,2,-.8Zm5.7,2.3v0c.7,.3,1.1,1.2,.8,1.9c-.3,.8,-1.2,1.2,-2,.9c-.8,-.3,-1.1,-1.2,-.8,-2c.3,-.8,1.2,-1.2,2,-.8Zm5.6,2.3v0c.8,.3,1.2,1.2,.9,2c-.4,.7,-1.2,1.1,-2,.8c-.8,-.3,-1.2,-1.2,-.9,-2c.4,-.8,1.2,-1.2,2,-.8Zm5.7,2.3v0c.8,.3,1.1,1.2,.8,2c-.3,.7,-1.2,1.1,-2,.8c-.7,-.3,-1.1,-1.2,-.8,-2c.3,-.8,1.2,-1.2,2,-.8Zm5.7,2.3v0c.7,.3,1.1,1.2,.8,2c-.3,.7,-1.2,1.1,-2,.8c-.8,-.3,-1.2,-1.2,-.8,-2c.3,-.8,1.2,-1.1,2,-.8Zm5.6,2.3v0c.8,.3,1.2,1.2,.9,2c-.4,.7,-1.3,1.1,-2,.8c-.8,-.3,-1.2,-1.2,-.9,-2c.3,-.8,1.2,-1.1,2,-.8Zm5.7,2.3v0c.8,.3,1.1,1.2,.8,2c-.3,.8,-1.2,1.1,-2,.8c-.8,-.3,-1.1,-1.2,-.8,-2c.3,-.8,1.2,-1.1,2,-.8Zm5.6,2.3v0c.8,.3,1.2,1.2,.9,2c-.3,.8,-1.2,1.1,-2,.8c-.8,-.3,-1.2,-1.2,-.9,-2c.4,-.8,1.3,-1.1,2,-.8Zm5.7,2.3v0c.8,.3,1.2,1.2,.8,2c-.3,.8,-1.2,1.1,-1.9,.8c-.8,-.3,-1.2,-1.2,-.9,-2c.3,-.8,1.2,-1.1,2,-.8Zm5.7,2.3v0c.8,.3,1.1,1.2,.8,2c-.3,.8,-1.2,1.1,-2,.8c-.8,-.3,-1.1,-1.2,-.8,-2c.3,-.8,1.2,-1.1,2,-.8Zm5.6,2.3v0c.8,.3,1.2,1.2,.9,2c-.3,.8,-1.2,1.1,-2,.8c-.8,-.3,-1.2,-1.2,-.9,-2c.4,-.7,1.2,-1.1,2,-.8Zm5.7,2.3v0c.8,.3,1.2,1.2,.8,2c-.3,.8,-1.2,1.1,-2,.8c-.7,-.3,-1.1,-1.2,-.8,-2c.3,-.7,1.2,-1.1,2,-.8Zm5.7,2.3v0c.7,.3,1.1,1.2,.8,2c-.3,.8,-1.2,1.1,-2,.8c-.8,-.3,-1.2,-1.2,-.8,-2c.3,-.7,1.2,-1.1,2,-.8Zm5.6,2.3v0c.8,.3,1.2,1.2,.9,2c-.4,.8,-1.2,1.2,-2,.8c-.8,-.3,-1.2,-1.2,-.9,-2c.4,-.7,1.2,-1.1,2,-.8Zm5.7,2.3v0c.8,.3,1.1,1.2,.8,2c-.3,.8,-1.2,1.2,-2,.8c-.8,-.3,-1.1,-1.2,-.8,-2c.3,-.7,1.2,-1.1,2,-.8Zm5.7,2.3v0c.7,.3,1.1,1.2,.8,2c-.3,.8,-1.2,1.2,-2,.8c-.8,-.3,-1.2,-1.2,-.8,-2c.3,-.7,1.2,-1.1,2,-.8Zm5.6,2.3v0c.8,.3,1.2,1.2,.9,2c-.4,.8,-1.3,1.2,-2,.8c-.8,-.3,-1.2,-1.2,-.9,-1.9c.3,-.8,1.2,-1.2,2,-.9Zm5.7,2.3v0c.8,.3,1.1,1.2,.8,2c-.3,.8,-1.2,1.2,-2,.9v-.1c-.8,-.3,-1.1,-1.2,-.8,-1.9c.3,-.8,1.2,-1.2,2,-.9Zm5.6,2.3v0c.8,.3,1.2,1.2,.9,2c-.3,.8,-1.2,1.2,-2,.9c-.8,-.4,-1.2,-1.3,-.9,-2c.4,-.8,1.3,-1.2,2,-.9Zm5.7,2.3v0c.8,.4,1.2,1.2,.8,2c-.3,.8,-1.2,1.2,-2,.9c-.7,-.4,-1.1,-1.3,-.8,-2c.3,-.8,1.2,-1.2,2,-.9Zm5.7,2.3v0c.8,.4,1.1,1.2,.8,2c-.3,.8,-1.2,1.2,-2,.9c-.8,-.4,-1.1,-1.3,-.8,-2c.3,-.8,1.2,-1.2,2,-.9Zm5.6,2.3v0c.8,.4,1.2,1.3,.9,2c-.4,.8,-1.2,1.2,-2,.9c-.8,-.4,-1.2,-1.2,-.9,-2c.4,-.8,1.3,-1.2,2,-.9Zm5.7,2.3v0c.8,.4,1.2,1.3,.8,2c-.3,.8,-1.2,1.2,-2,.9c-.7,-.4,-1.1,-1.2,-.8,-2c.3,-.8,1.2,-1.2,2,-.9Zm5.7,2.3v0c.7,.4,1.1,1.3,.8,2c-.3,.8,-1.2,1.2,-2,.9c-.8,-.3,-1.2,-1.2,-.8,-2c.3,-.8,1.2,-1.2,2,-.9Zm5.6,2.3v.1c.8,.3,1.2,1.2,.9,1.9c-.4,.8,-1.3,1.2,-2,.9c-.8,-.3,-1.2,-1.2,-.9,-2c.3,-.8,1.2,-1.2,2,-.9Zm5.7,2.4v0c.8,.3,1.1,1.2,.8,1.9c-.3,.8,-1.2,1.2,-2,.9c-.8,-.3,-1.1,-1.2,-.8,-2c.3,-.8,1.2,-1.2,2,-.8Zm5.6,2.3h.1c.7,.3,1.1,1.2,.8,2c-.3,.7,-1.2,1.1,-2,.8c-.8,-.3,-1.2,-1.2,-.8,-2c.3,-.8,1.2,-1.2,1.9,-.8Zm5.7,2.3v0c.8,.3,1.2,1.2,.9,2c-.4,.7,-1.3,1.1,-2,.8c-.8,-.3,-1.2,-1.2,-.9,-2c.3,-.8,1.2,-1.2,2,-.8Zm5.7,2.3v0c.8,.3,1.1,1.2,.8,2c-.3,.7,-1.2,1.1,-2,.8c-.8,-.3,-1.1,-1.2,-.8,-2c.3,-.8,1.2,-1.2,2,-.8Zm5.6,2.3v0c.8,.3,1.2,1.2,.9,2c-.3,.7,-1.2,1.1,-2,.8c-.8,-.3,-1.2,-1.2,-.9,-2c.4,-.8,1.3,-1.1,2,-.8Zm5.7,2.3v0c.8,.3,1.2,1.2,.8,2c-.3,.7,-1.2,1.1,-2,.8c-.7,-.3,-1.1,-1.2,-.8,-2c.3,-.8,1.2,-1.1,2,-.8Zm5.7,2.3v0c.8,.3,1.1,1.2,.8,2c-.3,.8,-1.2,1.1,-2,.8c-.8,-.3,-1.1,-1.2,-.8,-2c.3,-.8,1.2,-1.1,2,-.8Zm5.6,2.3v0c.8,.3,1.2,1.2,.9,2c-.4,.8,-1.2,1.1,-2,.8c-.8,-.3,-1.2,-1.2,-.9,-2c.4,-.8,1.2,-1.1,2,-.8Zm5.7,2.3v0c.8,.3,1.2,1.2,.8,2c-.3,.8,-1.2,1.1,-2,.8c-.7,-.3,-1.1,-1.2,-.8,-2c.3,-.8,1.2,-1.1,2,-.8Zm5.7,2.3v0c.7,.3,1.1,1.2,.8,2c-.3,.8,-1.2,1.1,-2,.8c-.8,-.3,-1.2,-1.2,-.8,-2c.3,-.8,1.2,-1.1,2,-.8Zm5.6,2.3v0c.8,.3,1.2,1.2,.9,2c-.4,.8,-1.3,1.1,-2,.8c-.8,-.3,-1.2,-1.2,-.9,-2c.3,-.8,1.2,-1.1,2,-.8Zm5.7,2.3v0c.8,.3,1.1,1.2,.8,2c-.3,.8,-1.2,1.1,-2,.8c-.8,-.3,-1.1,-1.2,-.8,-2c.3,-.7,1.2,-1.1,2,-.8Zm5.6,2.3h.1c.7,.3,1.1,1.2,.8,2c-.3,.8,-1.2,1.2,-2,.8c-.8,-.3,-1.2,-1.2,-.8,-2c.3,-.7,1.2,-1.1,1.9,-.8Zm5.7,2.3v0c.8,.3,1.2,1.2,.8,2c-.3,.8,-1.2,1.2,-1.9,.8c-.8,-.3,-1.2,-1.2,-.9,-2c.3,-.7,1.2,-1.1,2,-.8Zm5.7,2.3v0c.8,.3,1.1,1.2,.8,2c-.3,.8,-1.2,1.2,-2,.8c-.8,-.3,-1.1,-1.2,-.8,-2c.3,-.7,1.2,-1.1,2,-.8ZM578,270v0c.8,.3,1.2,1.2,.9,2c-.3,.8,-1.2,1.2,-2,.8c-.8,-.3,-1.2,-1.2,-.9,-2c.4,-.7,1.3,-1.1,2,-.8Zm5.7,2.3v0c.8,.3,1.2,1.2,.8,2c-.3,.8,-1.2,1.2,-2,.8c-.7,-.3,-1.1,-1.2,-.8,-1.9c.3,-.8,1.2,-1.2,2,-.9Zm5.7,2.3v0c.7,.3,1.1,1.2,.8,2c-.3,.8,-1.2,1.2,-2,.9v-.1c-.8,-.3,-1.1,-1.2,-.8,-1.9c.3,-.8,1.2,-1.2,2,-.9Zm5.6,2.3v0c.8,.3,1.2,1.2,.9,2c-.4,.8,-1.2,1.2,-2,.9c-.8,-.4,-1.2,-1.3,-.9,-2c.4,-.8,1.2,-1.2,2,-.9Zm5.7,2.3v0c.8,.4,1.1,1.2,.8,2c-.3,.8,-1.2,1.2,-2,.9c-.7,-.4,-1.1,-1.3,-.8,-2c.3,-.8,1.2,-1.2,2,-.9Zm5.7,2.3v0c.7,.4,1.1,1.2,.8,2c-.3,.8,-1.2,1.2,-2,.9c-.8,-.4,-1.2,-1.3,-.8,-2c.3,-.8,1.2,-1.2,2,-.9Zm5.6,2.3v0c.8,.4,1.2,1.3,.9,2c-.4,.8,-1.3,1.2,-2,.9c-.8,-.4,-1.2,-1.2,-.9,-2c.3,-.8,1.2,-1.2,2,-.9Zm5.7,2.3v0c.8,.4,1.1,1.3,.8,2c-.3,.8,-1.2,1.2,-2,.9c-.8,-.4,-1.1,-1.2,-.8,-2c.3,-.8,1.2,-1.2,2,-.9Zm5.6,2.3v0c.8,.4,1.2,1.3,.9,2c-.3,.8,-1.2,1.2,-2,.9c-.8,-.3,-1.2,-1.2,-.8,-2c.3,-.8,1.2,-1.2,1.9,-.9Zm5.7,2.3v.1c.8,.3,1.2,1.2,.8,1.9c-.3,.8,-1.2,1.2,-1.9,.9c-.8,-.3,-1.2,-1.2,-.9,-2c.3,-.8,1.2,-1.2,2,-.9Zm5.7,2.4v0c.8,.3,1.1,1.2,.8,1.9c-.3,.8,-1.2,1.2,-2,.9c-.8,-.3,-1.1,-1.2,-.8,-2c.3,-.8,1.2,-1.2,2,-.8Zm5.6,2.3v0c.8,.3,1.2,1.2,.9,2c-.3,.7,-1.2,1.1,-2,.8c-.8,-.3,-1.2,-1.2,-.9,-2c.4,-.8,1.3,-1.2,2,-.8Zm5.7,2.3v0c.8,.3,1.2,1.2,.8,2c-.3,.7,-1.2,1.1,-2,.8c-.7,-.3,-1.1,-1.2,-.8,-2c.3,-.8,1.2,-1.2,2,-.8Zm5.7,2.3v0c.7,.3,1.1,1.2,.8,2c-.3,.7,-1.2,1.1,-2,.8c-.8,-.3,-1.1,-1.2,-.8,-2c.3,-.8,1.2,-1.2,2,-.8Zm5.6,2.3v0c.8,.3,1.2,1.2,.9,2c-.4,.7,-1.2,1.1,-2,.8c-.8,-.3,-1.2,-1.2,-.9,-2c.4,-.8,1.2,-1.1,2,-.8Zm5.7,2.3v0c.8,.3,1.1,1.2,.8,2c-.3,.7,-1.2,1.1,-2,.8c-.7,-.3,-1.1,-1.2,-.8,-2c.3,-.8,1.2,-1.1,2,-.8Zm5.7,2.3v0c.7,.3,1.1,1.2,.8,2c-.3,.8,-1.2,1.1,-2,.8c-.8,-.3,-1.2,-1.2,-.8,-2c.3,-.8,1.2,-1.1,2,-.8Zm5.6,2.3v0c.8,.3,1.2,1.2,.9,2c-.4,.8,-1.3,1.1,-2,.8c-.8,-.3,-1.2,-1.2,-.9,-2c.3,-.8,1.2,-1.1,2,-.8Zm5.7,2.3v0c.8,.3,1.1,1.2,.8,2c-.3,.8,-1.2,1.1,-2,.8c-.8,-.3,-1.1,-1.2,-.8,-2c.3,-.8,1.2,-1.1,2,-.8Zm5.6,2.3v0c.8,.3,1.2,1.2,.9,2c-.3,.8,-1.2,1.1,-2,.8c-.8,-.3,-1.2,-1.2,-.8,-2c.3,-.8,1.2,-1.1,1.9,-.8Zm5.7,2.3v0c.8,.3,1.2,1.2,.8,2c-.3,.8,-1.2,1.1,-1.9,.8h-.1c-.7,-.3,-1.1,-1.2,-.8,-2c.3,-.8,1.2,-1.1,2,-.8Zm5.7,2.3v0c.8,.3,1.1,1.2,.8,2c-.3,.8,-1.2,1.1,-2,.8c-.8,-.3,-1.1,-1.2,-.8,-2c.3,-.7,1.2,-1.1,2,-.8Zm5.6,2.3v0c.8,.3,1.2,1.2,.9,2c-.3,.8,-1.2,1.2,-2,.8c-.8,-.3,-1.2,-1.2,-.9,-2c.4,-.7,1.3,-1.1,2,-.8Zm5.7,2.3v0c.8,.3,1.2,1.2,.8,2c-.3,.8,-1.2,1.2,-2,.8c-.7,-.3,-1.1,-1.2,-.8,-2c.3,-.7,1.2,-1.1,2,-.8Zm5.7,2.3v0c.7,.3,1.1,1.2,.8,2c-.3,.8,-1.2,1.2,-2,.8c-.8,-.3,-1.2,-1.2,-.8,-2c.3,-.7,1.2,-1.1,2,-.8Zm5.6,2.3v0c.8,.3,1.2,1.2,.9,2c-.4,.8,-1.3,1.2,-2,.8c-.8,-.3,-1.2,-1.2,-.9,-2c.4,-.7,1.2,-1.1,2,-.8Zm5.7,2.3v0c.8,.3,1.1,1.2,.8,2c-.3,.8,-1.2,1.2,-2,.8c-.8,-.3,-1.1,-1.2,-.8,-1.9c.3,-.8,1.2,-1.2,2,-.9Zm5.7,2.3v0c.7,.3,1.1,1.2,.8,2c-.3,.8,-1.2,1.2,-2,.9V335c-.8,-.3,-1.2,-1.2,-.8,-1.9c.3,-.8,1.2,-1.2,2,-.9Zm5.6,2.3v0c.8,.3,1.2,1.2,.9,2c-.4,.8,-1.3,1.2,-2,.9c-.8,-.4,-1.2,-1.3,-.9,-2c.3,-.8,1.2,-1.2,2,-.9Zm5.7,2.3v0c.8,.3,1.1,1.2,.8,2c-.3,.8,-1.2,1.2,-2,.9c-.8,-.4,-1.1,-1.2,-.8,-2c.3,-.8,1.2,-1.2,2,-.9Zm5.6,2.3v0c.8,.3,1.2,1.2,.9,2c-.3,.8,-1.2,1.2,-2,.9c-.8,-.4,-1.2,-1.2,-.9,-2c.4,-.8,1.3,-1.2,2,-.9Zm5.7,2.3v0c.8,.4,1.2,1.2,.8,2c-.3,.8,-1.2,1.2,-1.9,.9c-.8,-.3,-1.2,-1.2,-.9,-2c.3,-.8,1.2,-1.2,2,-.9Zm5.7,2.3v0c.7,.4,1.1,1.2,.8,2c-.3,.8,-1.2,1.2,-2,.9c-.8,-.3,-1.1,-1.2,-.8,-2c.3,-.8,1.2,-1.2,2,-.9Zm5.6,2.3v0c.8,.4,1.2,1.3,.9,2c-.3,.8,-1.2,1.2,-2,.9c-.8,-.3,-1.2,-1.2,-.9,-2c.4,-.8,1.2,-1.2,2,-.9Zm5.7,2.3v0c.8,.4,1.2,1.3,.8,2c-.3,.8,-1.2,1.2,-2,.9c-.7,-.3,-1.1,-1.2,-.8,-2c.3,-.8,1.2,-1.2,2,-.9Zm5.7,2.4v0c.7,.3,1.1,1.2,.8,1.9c-.3,.8,-1.2,1.2,-2,.9c-.8,-.3,-1.2,-1.2,-.8,-2c.3,-.8,1.2,-1.2,2,-.8Zm5.6,2.3v0c.8,.3,1.2,1.2,.9,1.9c-.4,.8,-1.2,1.2,-2,.9c-.8,-.3,-1.2,-1.2,-.9,-2c.3,-.8,1.2,-1.2,2,-.8Z" class="g3_1" />
<path d="M113.2,194v0c.8,.1,1.4,.8,1.4,1.7c-.1,.8,-.8,1.4,-1.6,1.4c-.9,-.1,-1.5,-.8,-1.5,-1.6c.1,-.9,.8,-1.5,1.7,-1.5Zm6.1,.4v0c.8,.1,1.4,.8,1.4,1.7c-.1,.8,-.8,1.4,-1.6,1.4c-.9,-.1,-1.5,-.8,-1.5,-1.6c.1,-.9,.8,-1.5,1.7,-1.5Zm6.1,.4v0c.8,.1,1.4,.8,1.4,1.7c-.1,.8,-.8,1.4,-1.6,1.4c-.9,-.1,-1.5,-.8,-1.5,-1.6c.1,-.9,.8,-1.5,1.7,-1.5Zm6.1,.4v0c.8,.1,1.4,.8,1.4,1.7c-.1,.8,-.8,1.4,-1.6,1.4c-.9,-.1,-1.5,-.8,-1.5,-1.6c.1,-.9,.8,-1.5,1.7,-1.5Zm6.1,.4v0c.8,.1,1.4,.8,1.4,1.7c-.1,.8,-.8,1.4,-1.6,1.4c-.9,-.1,-1.5,-.8,-1.5,-1.6c.1,-.9,.8,-1.5,1.7,-1.5Zm6.1,.4v0c.8,.1,1.4,.8,1.4,1.7c-.1,.8,-.8,1.4,-1.6,1.4c-.9,-.1,-1.5,-.8,-1.5,-1.6c.1,-.9,.8,-1.5,1.7,-1.5Zm6.1,.4v0c.8,.1,1.4,.8,1.4,1.7c-.1,.8,-.8,1.4,-1.6,1.4c-.9,-.1,-1.5,-.8,-1.5,-1.6c.1,-.9,.8,-1.5,1.7,-1.5Zm6.1,.4v0c.8,.1,1.4,.8,1.4,1.7c-.1,.8,-.8,1.5,-1.6,1.4c-.9,-.1,-1.5,-.8,-1.5,-1.6c.1,-.9,.8,-1.5,1.7,-1.5Zm6.1,.4v0c.8,.1,1.4,.8,1.4,1.7c-.1,.8,-.8,1.5,-1.6,1.4c-.9,-.1,-1.5,-.8,-1.5,-1.6c.1,-.9,.8,-1.5,1.7,-1.5Zm6.1,.4v.1c.8,0,1.4,.7,1.4,1.6c-.1,.8,-.8,1.5,-1.6,1.4c-.9,-.1,-1.5,-.8,-1.5,-1.6c.1,-.9,.8,-1.5,1.7,-1.5Zm6.1,.5v0c.8,0,1.4,.7,1.4,1.6c-.1,.8,-.8,1.5,-1.6,1.4c-.9,-.1,-1.5,-.8,-1.5,-1.6c.1,-.9,.8,-1.5,1.7,-1.4Zm6.1,.4v0c.8,0,1.4,.7,1.4,1.6c-.1,.8,-.8,1.5,-1.6,1.4c-.9,-.1,-1.5,-.8,-1.5,-1.6c.1,-.9,.8,-1.5,1.7,-1.4Zm6.1,.4v0c.8,0,1.4,.7,1.4,1.6c-.1,.8,-.8,1.5,-1.6,1.4c-.9,-.1,-1.5,-.8,-1.5,-1.6c.1,-.9,.8,-1.5,1.7,-1.4Zm6.1,.4v0c.8,0,1.5,.7,1.4,1.6c-.1,.8,-.8,1.5,-1.6,1.4c-.9,0,-1.5,-.8,-1.5,-1.6c.1,-.9,.8,-1.5,1.7,-1.4Zm6.1,.4v0c.8,0,1.5,.7,1.4,1.6c-.1,.8,-.8,1.5,-1.6,1.4c-.9,0,-1.5,-.8,-1.5,-1.6c.1,-.9,.8,-1.5,1.7,-1.4Zm6.1,.4v0c.8,0,1.5,.7,1.4,1.6c-.1,.8,-.8,1.5,-1.6,1.4c-.9,0,-1.5,-.8,-1.5,-1.6c.1,-.9,.8,-1.5,1.7,-1.4Zm6.1,.4v0c.8,0,1.5,.7,1.4,1.6c-.1,.8,-.8,1.5,-1.6,1.4c-.9,0,-1.5,-.8,-1.5,-1.6c.1,-.9,.8,-1.5,1.7,-1.4Zm6.1,.4v0c.8,0,1.5,.8,1.4,1.6c-.1,.8,-.8,1.5,-1.6,1.4c-.9,0,-1.5,-.8,-1.5,-1.6c.1,-.9,.8,-1.5,1.7,-1.4Zm6.1,.4v0c.8,0,1.5,.8,1.4,1.6c-.1,.8,-.8,1.5,-1.6,1.4c-.9,0,-1.5,-.8,-1.5,-1.6c.1,-.8,.8,-1.5,1.7,-1.4Zm6.1,.4v0c.8,0,1.5,.8,1.4,1.6c-.1,.8,-.8,1.5,-1.6,1.4c-.9,0,-1.5,-.8,-1.5,-1.6c.1,-.8,.8,-1.5,1.7,-1.4Zm6.1,.4v0c.8,0,1.5,.8,1.4,1.6c-.1,.8,-.8,1.5,-1.6,1.4c-.9,0,-1.5,-.8,-1.5,-1.6c.1,-.8,.8,-1.5,1.7,-1.4Zm6.1,.4v0c.8,0,1.5,.8,1.4,1.6c-.1,.8,-.8,1.5,-1.6,1.4c-.9,0,-1.5,-.8,-1.4,-1.6c0,-.8,.7,-1.5,1.6,-1.4Zm6.1,.4v0c.8,0,1.5,.8,1.4,1.6c-.1,.8,-.8,1.5,-1.6,1.4c-.9,0,-1.5,-.8,-1.4,-1.6c0,-.8,.7,-1.5,1.6,-1.4Zm6.1,.4v0c.8,0,1.5,.8,1.4,1.6c-.1,.8,-.8,1.5,-1.6,1.4c-.9,0,-1.5,-.8,-1.4,-1.6c0,-.8,.7,-1.5,1.6,-1.4Zm6.1,.4v0c.8,0,1.5,.8,1.4,1.6c-.1,.8,-.8,1.5,-1.6,1.4c-.9,0,-1.5,-.8,-1.4,-1.6c0,-.8,.7,-1.5,1.6,-1.4Zm6.1,.4v0c.8,0,1.5,.8,1.4,1.6c0,.9,-.8,1.5,-1.6,1.4c-.9,0,-1.5,-.8,-1.4,-1.6c0,-.8,.7,-1.5,1.6,-1.4Zm6.1,.4v0c.8,0,1.5,.8,1.4,1.6c0,.9,-.8,1.5,-1.6,1.4c-.9,0,-1.5,-.7,-1.4,-1.6c0,-.8,.7,-1.5,1.6,-1.4Zm6.1,.4v0c.8,0,1.5,.8,1.4,1.6c0,.9,-.8,1.5,-1.6,1.4c-.9,0,-1.5,-.7,-1.4,-1.6c0,-.8,.7,-1.5,1.6,-1.4Zm6.1,.4v0c.8,0,1.5,.8,1.4,1.6c0,.9,-.8,1.5,-1.6,1.4c-.9,0,-1.5,-.7,-1.4,-1.6c0,-.8,.7,-1.5,1.6,-1.4Zm6.1,.4v0c.8,0,1.5,.8,1.4,1.6c0,.9,-.8,1.5,-1.6,1.4c-.9,0,-1.5,-.7,-1.4,-1.6c0,-.8,.7,-1.5,1.6,-1.4Zm6.1,.4v0c.8,0,1.5,.8,1.4,1.6c0,.9,-.8,1.5,-1.6,1.4c-.9,0,-1.5,-.7,-1.4,-1.6c0,-.8,.7,-1.5,1.6,-1.4Zm6.1,.4v0c.8,.1,1.5,.8,1.4,1.6c0,.9,-.8,1.5,-1.6,1.4c-.9,0,-1.5,-.7,-1.4,-1.6c0,-.8,.7,-1.5,1.6,-1.4Zm6.1,.4v0c.8,.1,1.5,.8,1.4,1.6c0,.9,-.8,1.5,-1.6,1.4c-.9,0,-1.5,-.7,-1.4,-1.6c0,-.8,.7,-1.5,1.6,-1.4Zm6.1,.4v0c.8,.1,1.5,.8,1.4,1.6c0,.9,-.8,1.5,-1.6,1.4c-.9,0,-1.5,-.7,-1.4,-1.6c0,-.8,.7,-1.5,1.6,-1.4Zm6.1,.4v0c.8,.1,1.5,.8,1.4,1.6c0,.9,-.8,1.5,-1.6,1.5c-.9,-.1,-1.5,-.8,-1.4,-1.7c0,-.8,.7,-1.5,1.6,-1.4Zm6.1,.4v0c.8,.1,1.5,.8,1.4,1.6c0,.9,-.8,1.5,-1.6,1.5c-.9,-.1,-1.5,-.8,-1.4,-1.7c0,-.8,.7,-1.5,1.6,-1.4Zm6.1,.4v0c.8,.1,1.5,.8,1.4,1.6c0,.9,-.8,1.5,-1.6,1.5c-.9,-.1,-1.5,-.8,-1.4,-1.7c0,-.8,.7,-1.4,1.6,-1.4Zm6.1,.4v0c.8,.1,1.5,.8,1.4,1.6c0,.9,-.8,1.5,-1.6,1.5c-.9,-.1,-1.5,-.8,-1.4,-1.7c0,-.8,.7,-1.4,1.6,-1.4Zm6.1,.4v0c.8,.1,1.5,.8,1.4,1.6c0,.9,-.8,1.5,-1.6,1.5c-.9,-.1,-1.5,-.8,-1.4,-1.7c0,-.8,.7,-1.4,1.6,-1.4Zm6.1,.4v0c.8,.1,1.5,.8,1.4,1.6c0,.9,-.8,1.5,-1.6,1.5c-.9,-.1,-1.5,-.8,-1.4,-1.7c0,-.8,.8,-1.4,1.6,-1.4Zm6.1,.4v0c.8,.1,1.5,.8,1.4,1.6c0,.9,-.8,1.5,-1.6,1.5c-.8,-.1,-1.5,-.8,-1.4,-1.7c0,-.8,.8,-1.4,1.6,-1.4Zm6.1,.4v0c.8,.1,1.5,.8,1.4,1.6c0,.9,-.8,1.5,-1.6,1.5c-.8,-.1,-1.5,-.8,-1.4,-1.7c0,-.8,.8,-1.4,1.6,-1.4Zm6.1,.4v0c.8,.1,1.5,.8,1.4,1.6c0,.9,-.8,1.5,-1.6,1.5c-.8,-.1,-1.5,-.8,-1.4,-1.7c0,-.8,.8,-1.4,1.6,-1.4Zm6.1,.4v0c.8,.1,1.5,.8,1.4,1.6c0,.9,-.8,1.5,-1.6,1.5c-.8,-.1,-1.5,-.8,-1.4,-1.7c0,-.8,.8,-1.4,1.6,-1.4Zm6.1,.4v0c.8,.1,1.5,.8,1.4,1.6c0,.9,-.8,1.5,-1.6,1.5c-.8,-.1,-1.5,-.8,-1.4,-1.7c0,-.8,.8,-1.4,1.6,-1.4Zm6.1,.4v0c.8,.1,1.5,.8,1.4,1.7c0,.8,-.8,1.4,-1.6,1.4c-.8,-.1,-1.5,-.8,-1.4,-1.7c0,-.8,.8,-1.4,1.6,-1.4Zm6.1,.4v0c.8,.1,1.5,.8,1.4,1.7c0,.8,-.8,1.4,-1.6,1.4c-.8,-.1,-1.5,-.8,-1.4,-1.6c0,-.9,.8,-1.5,1.6,-1.5Zm6.1,.4v0c.8,.1,1.5,.8,1.4,1.7c0,.8,-.8,1.4,-1.6,1.4c-.8,-.1,-1.5,-.8,-1.4,-1.6c0,-.9,.8,-1.5,1.6,-1.5Zm6.1,.4v0c.8,.1,1.5,.8,1.4,1.7c0,.8,-.8,1.4,-1.6,1.4c-.8,-.1,-1.5,-.8,-1.4,-1.6c0,-.9,.8,-1.5,1.6,-1.5Zm6.1,.4v0c.8,.1,1.5,.8,1.4,1.7c0,.8,-.8,1.4,-1.6,1.4c-.8,-.1,-1.5,-.8,-1.4,-1.6c0,-.9,.8,-1.5,1.6,-1.5Zm6.1,.4v0c.8,.1,1.5,.8,1.4,1.7c0,.8,-.8,1.4,-1.6,1.4c-.8,-.1,-1.5,-.8,-1.4,-1.6c0,-.9,.8,-1.5,1.6,-1.5Zm6.1,.4v0c.8,.1,1.5,.8,1.4,1.7c0,.8,-.8,1.4,-1.6,1.4c-.8,-.1,-1.5,-.8,-1.4,-1.6c0,-.9,.8,-1.5,1.6,-1.5Zm6.1,.4v0c.8,.1,1.5,.8,1.4,1.7c0,.8,-.8,1.4,-1.6,1.4c-.8,-.1,-1.5,-.8,-1.4,-1.6c0,-.9,.8,-1.5,1.6,-1.5Zm6.1,.4v0c.9,.1,1.5,.8,1.4,1.7c0,.8,-.8,1.4,-1.6,1.4c-.8,-.1,-1.5,-.8,-1.4,-1.6c0,-.9,.8,-1.5,1.6,-1.5Zm6.1,.4v0c.9,.1,1.5,.8,1.4,1.7c0,.8,-.8,1.4,-1.6,1.4c-.8,-.1,-1.5,-.8,-1.4,-1.6c0,-.9,.8,-1.5,1.6,-1.5Zm6.1,.4v0c.9,.1,1.5,.8,1.4,1.7c0,.8,-.7,1.5,-1.6,1.4c-.8,-.1,-1.5,-.8,-1.4,-1.6c0,-.9,.8,-1.5,1.6,-1.5Zm6.1,.4v0c.9,.1,1.5,.8,1.4,1.7c0,.8,-.7,1.5,-1.6,1.4c-.8,-.1,-1.5,-.8,-1.4,-1.6c0,-.9,.8,-1.5,1.6,-1.5Zm6.1,.5v0c.9,0,1.5,.7,1.4,1.6c0,.8,-.7,1.5,-1.6,1.4c-.8,-.1,-1.5,-.8,-1.4,-1.6c0,-.9,.8,-1.5,1.6,-1.4Zm6.1,.4v0c.9,0,1.5,.7,1.4,1.6c0,.8,-.7,1.5,-1.6,1.4c-.8,-.1,-1.5,-.8,-1.4,-1.6c0,-.9,.8,-1.5,1.6,-1.4Zm6.1,.4v0c.9,0,1.5,.7,1.4,1.6c0,.8,-.7,1.5,-1.6,1.4c-.8,-.1,-1.5,-.8,-1.4,-1.6c0,-.9,.8,-1.5,1.6,-1.4Zm6.1,.4v0c.9,0,1.5,.7,1.4,1.6c0,.8,-.7,1.5,-1.6,1.4c-.8,0,-1.5,-.8,-1.4,-1.6c0,-.9,.8,-1.5,1.6,-1.4Zm6.1,.4v0c.9,0,1.5,.7,1.4,1.6c0,.8,-.7,1.5,-1.6,1.4c-.8,0,-1.5,-.8,-1.4,-1.6c0,-.9,.8,-1.5,1.6,-1.4Zm6.1,.4v0c.9,0,1.5,.7,1.4,1.6c0,.8,-.7,1.5,-1.6,1.4c-.8,0,-1.5,-.8,-1.4,-1.6c0,-.9,.8,-1.5,1.6,-1.4Zm6.1,.4v0c.9,0,1.5,.7,1.4,1.6c0,.8,-.7,1.5,-1.6,1.4c-.8,0,-1.5,-.8,-1.4,-1.6c0,-.9,.8,-1.5,1.6,-1.4Zm6.1,.4v0c.9,0,1.5,.7,1.4,1.6c0,.8,-.7,1.5,-1.6,1.4c-.8,0,-1.5,-.8,-1.4,-1.6c0,-.9,.8,-1.5,1.6,-1.4Zm6.1,.4v0c.9,0,1.5,.8,1.4,1.6c0,.8,-.7,1.5,-1.6,1.4c-.8,0,-1.5,-.8,-1.4,-1.6c0,-.9,.8,-1.5,1.6,-1.4Zm6.1,.4v0c.9,0,1.5,.8,1.4,1.6c0,.8,-.7,1.5,-1.6,1.4c-.8,0,-1.5,-.8,-1.4,-1.6c0,-.8,.8,-1.5,1.6,-1.4Zm6.1,.4v0c.9,0,1.5,.8,1.4,1.6c0,.8,-.7,1.5,-1.6,1.4c-.8,0,-1.5,-.8,-1.4,-1.6c0,-.8,.8,-1.5,1.6,-1.4Zm6.1,.4v0c.9,0,1.5,.8,1.4,1.6c0,.8,-.7,1.5,-1.6,1.4c-.8,0,-1.5,-.8,-1.4,-1.6c.1,-.8,.8,-1.5,1.6,-1.4Zm6.1,.4v0c.9,0,1.5,.8,1.4,1.6c0,.8,-.7,1.5,-1.6,1.4c-.8,0,-1.5,-.8,-1.4,-1.6c.1,-.8,.8,-1.5,1.6,-1.4Zm6.1,.4v0c.9,0,1.5,.8,1.4,1.6c0,.8,-.7,1.5,-1.6,1.4c-.8,0,-1.5,-.8,-1.4,-1.6c.1,-.8,.8,-1.5,1.6,-1.4Zm6.1,.4v0c.9,0,1.5,.8,1.4,1.6c0,.8,-.7,1.5,-1.6,1.4c-.8,0,-1.5,-.8,-1.4,-1.6c.1,-.8,.8,-1.5,1.6,-1.4Zm6.1,.4v0c.9,0,1.5,.8,1.5,1.6c-.1,.9,-.8,1.5,-1.7,1.4c-.8,0,-1.5,-.8,-1.4,-1.6c.1,-.8,.8,-1.5,1.6,-1.4Zm6.1,.4v0c.9,0,1.5,.8,1.5,1.6c-.1,.9,-.8,1.5,-1.7,1.4c-.8,0,-1.5,-.7,-1.4,-1.6c.1,-.8,.8,-1.5,1.6,-1.4Zm6.1,.4v0c.9,0,1.5,.8,1.5,1.6c-.1,.9,-.8,1.5,-1.7,1.4c-.8,0,-1.5,-.7,-1.4,-1.6c.1,-.8,.8,-1.5,1.6,-1.4Zm6.1,.4v0c.9,0,1.5,.8,1.5,1.6c-.1,.9,-.8,1.5,-1.7,1.4c-.8,0,-1.5,-.7,-1.4,-1.6c.1,-.8,.8,-1.5,1.6,-1.4Zm6.1,.4v0c.9,0,1.5,.8,1.5,1.6c-.1,.9,-.8,1.5,-1.7,1.4c-.8,0,-1.5,-.7,-1.4,-1.6c.1,-.8,.8,-1.5,1.6,-1.4Zm6.1,.4v0c.9,0,1.5,.8,1.5,1.6c-.1,.9,-.8,1.5,-1.7,1.4c-.8,0,-1.5,-.7,-1.4,-1.6c.1,-.8,.8,-1.5,1.6,-1.4Zm6.1,.4v0c.9,.1,1.5,.8,1.5,1.6c-.1,.9,-.8,1.5,-1.7,1.4c-.8,0,-1.5,-.7,-1.4,-1.6c.1,-.8,.8,-1.5,1.6,-1.4Zm6.1,.4v0c.9,.1,1.5,.8,1.5,1.6c-.1,.9,-.8,1.5,-1.7,1.4c-.8,0,-1.5,-.7,-1.4,-1.6c.1,-.8,.8,-1.5,1.6,-1.4Zm6.1,.4v0c.9,.1,1.5,.8,1.5,1.6c-.1,.9,-.8,1.5,-1.7,1.4c-.8,0,-1.4,-.7,-1.4,-1.6c.1,-.8,.8,-1.5,1.6,-1.4Zm6.1,.4v0c.9,.1,1.5,.8,1.5,1.6c-.1,.9,-.8,1.5,-1.7,1.5c-.8,-.1,-1.4,-.8,-1.4,-1.7c.1,-.8,.8,-1.5,1.6,-1.4Zm6.1,.4v0c.9,.1,1.5,.8,1.5,1.6c-.1,.9,-.8,1.5,-1.7,1.5c-.8,-.1,-1.4,-.8,-1.4,-1.7c.1,-.8,.8,-1.5,1.6,-1.4Zm6.1,.4v0c.9,.1,1.5,.8,1.5,1.6c-.1,.9,-.8,1.5,-1.7,1.5c-.8,-.1,-1.4,-.8,-1.4,-1.7c.1,-.8,.8,-1.4,1.6,-1.4Zm6.1,.4v0c.9,.1,1.5,.8,1.5,1.6c-.1,.9,-.8,1.5,-1.7,1.5c-.8,-.1,-1.4,-.8,-1.4,-1.7c.1,-.8,.8,-1.4,1.6,-1.4Zm6.1,.4v0c.9,.1,1.5,.8,1.5,1.6c-.1,.9,-.8,1.5,-1.7,1.5c-.8,-.1,-1.4,-.8,-1.4,-1.7c.1,-.8,.8,-1.4,1.6,-1.4Zm6.1,.4v0c.9,.1,1.5,.8,1.5,1.6c-.1,.9,-.8,1.5,-1.7,1.5c-.8,-.1,-1.4,-.8,-1.4,-1.7c.1,-.8,.8,-1.4,1.6,-1.4Zm6.1,.4v0c.9,.1,1.5,.8,1.5,1.6c-.1,.9,-.8,1.5,-1.7,1.5c-.8,-.1,-1.4,-.8,-1.4,-1.7c.1,-.8,.8,-1.4,1.6,-1.4Zm6.1,.4v0c.9,.1,1.5,.8,1.5,1.6c-.1,.9,-.8,1.5,-1.7,1.5c-.8,-.1,-1.4,-.8,-1.4,-1.7c.1,-.8,.8,-1.4,1.6,-1.4Zm6.1,.4v0c.9,.1,1.5,.8,1.5,1.6c-.1,.9,-.8,1.5,-1.7,1.5c-.8,-.1,-1.4,-.8,-1.4,-1.7c.1,-.8,.8,-1.4,1.6,-1.4Zm6.1,.4v0c.9,.1,1.5,.8,1.5,1.6c-.1,.9,-.8,1.5,-1.7,1.5c-.8,-.1,-1.4,-.8,-1.4,-1.7c.1,-.8,.8,-1.4,1.6,-1.4Zm6.1,.4v0c.9,.1,1.5,.8,1.5,1.6c-.1,.9,-.8,1.5,-1.7,1.5c-.8,-.1,-1.4,-.8,-1.4,-1.7c.1,-.8,.8,-1.4,1.6,-1.4Zm6.1,.4v0c.9,.1,1.5,.8,1.5,1.6c-.1,.9,-.8,1.5,-1.7,1.5c-.8,-.1,-1.4,-.8,-1.4,-1.6c.1,-.9,.8,-1.5,1.6,-1.5Zm6.1,.4v0c.9,.1,1.5,.8,1.5,1.7c-.1,.8,-.8,1.4,-1.7,1.4c-.8,-.1,-1.4,-.8,-1.4,-1.6c.1,-.9,.8,-1.5,1.6,-1.5Zm6.1,.4v0c.9,.1,1.5,.8,1.5,1.7c-.1,.8,-.8,1.4,-1.7,1.4c-.8,-.1,-1.4,-.8,-1.4,-1.6c.1,-.9,.8,-1.5,1.6,-1.5Zm6.1,.4v0c.9,.1,1.5,.8,1.5,1.7c-.1,.8,-.8,1.4,-1.7,1.4c-.8,-.1,-1.4,-.8,-1.4,-1.6c.1,-.9,.8,-1.5,1.6,-1.5Zm6.1,.4v0c.9,.1,1.5,.8,1.5,1.7c-.1,.8,-.8,1.4,-1.7,1.4c-.8,-.1,-1.4,-.8,-1.4,-1.6c.1,-.9,.8,-1.5,1.6,-1.5Zm6.1,.4v0c.9,.1,1.5,.8,1.5,1.7c-.1,.8,-.8,1.4,-1.6,1.4h-.1c-.8,-.1,-1.4,-.8,-1.4,-1.6c.1,-.9,.8,-1.5,1.6,-1.5Zm6.1,.4v0c.9,.1,1.5,.8,1.5,1.7c-.1,.8,-.8,1.4,-1.6,1.4h-.1c-.8,-.1,-1.4,-.8,-1.4,-1.6c.1,-.9,.8,-1.5,1.6,-1.5Zm6.1,.4h.1c.8,.1,1.4,.8,1.4,1.7c-.1,.8,-.8,1.4,-1.6,1.4h-.1c-.8,-.1,-1.4,-.8,-1.4,-1.6c.1,-.9,.8,-1.5,1.6,-1.5Zm6.1,.4h.1c.8,.1,1.4,.8,1.4,1.7c-.1,.8,-.8,1.4,-1.6,1.4c-.9,-.1,-1.5,-.8,-1.5,-1.6c.1,-.9,.8,-1.5,1.6,-1.5Zm6.1,.4h.1c.8,.1,1.4,.8,1.4,1.7c-.1,.8,-.8,1.4,-1.6,1.4c-.9,-.1,-1.5,-.8,-1.5,-1.6c.1,-.9,.8,-1.5,1.6,-1.5Zm6.2,.4v0c.8,.1,1.4,.8,1.4,1.7c-.1,.8,-.8,1.5,-1.6,1.4c-.9,-.1,-1.5,-.8,-1.5,-1.6c.1,-.9,.8,-1.5,1.7,-1.5Zm6.1,.4v0c.8,.1,1.4,.8,1.4,1.7c-.1,.8,-.8,1.5,-1.6,1.4c-.9,-.1,-1.5,-.8,-1.5,-1.6c.1,-.9,.8,-1.5,1.7,-1.5Zm6.1,.5v0c.8,0,1.4,.7,1.4,1.6c-.1,.8,-.8,1.5,-1.6,1.4c-.9,-.1,-1.5,-.8,-1.5,-1.6c.1,-.9,.8,-1.5,1.7,-1.4Zm6.1,.4v0c.8,0,1.4,.7,1.4,1.6c-.1,.8,-.8,1.5,-1.6,1.4c-.9,-.1,-1.5,-.8,-1.5,-1.6c.1,-.9,.8,-1.5,1.7,-1.4Zm6.1,.4v0c.8,0,1.4,.7,1.4,1.6c-.1,.8,-.8,1.5,-1.6,1.4c-.9,-.1,-1.5,-.8,-1.5,-1.6c.1,-.9,.8,-1.5,1.7,-1.4Zm6.1,.4v0c.8,0,1.4,.7,1.4,1.6c-.1,.8,-.8,1.5,-1.6,1.4c-.9,0,-1.5,-.8,-1.5,-1.6c.1,-.9,.8,-1.5,1.7,-1.4Zm6.1,.4v0c.8,0,1.4,.7,1.4,1.6c-.1,.8,-.8,1.5,-1.6,1.4c-.9,0,-1.5,-.8,-1.5,-1.6c.1,-.9,.8,-1.5,1.7,-1.4Zm6.1,.4v0c.8,0,1.4,.7,1.4,1.6c-.1,.8,-.8,1.5,-1.6,1.4c-.9,0,-1.5,-.8,-1.5,-1.6c.1,-.9,.8,-1.5,1.7,-1.4Zm6.1,.4v0c.8,0,1.4,.7,1.4,1.6c-.1,.8,-.8,1.5,-1.6,1.4c-.9,0,-1.5,-.8,-1.5,-1.6c.1,-.9,.8,-1.5,1.7,-1.4Z" class="g5_1" />
<text x="696" y="380" dx="0,0.2,-0.5,-0.2,-0.7" class="s1_1">Bare:</text>
<text x="648" y="397" dx="0,-0.1,0,-0.7,1.5,0.4,0.7,-0.4,0.7,0.7,0.7,0.7,0.2,0,-0.7,0,0.7,-0.4,0.7,0.7,-0.9" class="s1_1">y = -1.2371x + 6.2537</text>
<text x="739" y="267" dx="0,-0.4,0.4,0,-0.7,-0.2,-0.5,0.3,0,-0.1,-0.1,-0.7" class="s1_1">Interactive:</text>
<text x="707" y="284" dx="0,-0.1,0,-0.7,1.5,0.4,0.7,-0.4,0.7,0.7,0.7,0.7,0.2,0,-0.7,0,0.7,-0.4,0.7,0.7,-0.9" class="s1_1">y = -0.2038x + 6.2547</text>
<text x="419" y="435" dx="0,0.7,-0.4" class="s1_1">6.1</text>
<text x="412" y="366" dx="0,0.7,-0.4,-0.9" class="s1_1">6.15</text>
<text x="419" y="297" dx="0,0.7,-0.4" class="s1_1">6.2</text>
<text x="412" y="229" dx="0,0.7,-0.4,-0.9" class="s1_1">6.25</text>
<text x="419" y="160" dx="0,0.7,-0.4" class="s1_1">6.3</text>
<text x="412" y="91" dx="0,0.7,-0.4,-0.9" class="s1_1">6.35</text>
<text x="419" y="21" dx="0,0.7,-0.4" class="s1_1">6.4</text>
<text x="18" y="453" dx="0,0.4,-0.9,1.1" class="s1_1">-0.1</text>
<text x="98" y="453" dx="0,0.4,-0.9,0,-2.3,-0.9" class="s1_1">-0. 08</text>
<text x="182" y="453" dx="0,0.4,-0.9,0,-2.3,-0.9" class="s1_1">-0. 06</text>
<text x="266" y="453" dx="0,0.4,-0.9,0,-2.3,-0.9" class="s1_1">-0. 04</text>
<text x="350" y="453" dx="0,0.4,-0.9,0,-2.3,-0.9" class="s1_1">-0. 02</text>
<text x="445" y="453" class="s1_1">0</text>
<text x="521" y="453" dx="0,0.7,-0.4,-0.9" class="s1_1">0.02</text>
<text x="605" y="453" dx="0,0.7,-0.4,-0.9" class="s1_1">0.04</text>
<text x="689" y="453" dx="0,0.7,-0.4,-0.9" class="s1_1">0.06</text>
<text x="773" y="453" dx="0,0.7,-0.4,-0.9" class="s1_1">0.08</text>
<text x="860" y="453" dx="0,0.7,-0.4" class="s1_1">0.1</text>
<path d="M.8,.8H894.5V466.7H.8Z" class="g1_1" />

</g>

<!-- Any embedded fonts defined here -->
<style type="text/css" ><![CDATA[

@font-face {
	font-family: Calibri_9;
	src: url("fonts/Calibri_9.woff") format("woff");
}

]]></style>

</svg>
