<?xml version="1.0" encoding="UTF-8" standalone="no"?>
<!DOCTYPE svg PUBLIC "-//W3C//DTD SVG 1.1//EN"
"http://www.w3.org/Graphics/SVG/1.1/DTD/svg11.dtd">


<!-- Page 1 -->
<svg x="0" y="0" width="896" height="464" viewBox="0 0 896 464" version="1.1" xmlns="http://www.w3.org/2000/svg" xmlns:xlink="http://www.w3.org/1999/xlink"
style="display: block;margin-left: auto;margin-right: auto;">
<defs>
<clipPath id="c_1"><path d="M0,0H896V464H0Z" /></clipPath>
<style type="text/css"><![CDATA[
text { white-space: pre; }
path, image { pointer-events: none; }

.s1_1{
font-size: 13.75px;
font-family: Calibri_9;
fill: #595959;
}

.g0_1{
fill: #FFFFFF;
}
.g1_1{
fill: none;
stroke: #D9D9D9;
stroke-width: 1.5277778;
stroke-linecap: butt;
stroke-linejoin: round;
}
.g2_1{
fill: none;
stroke: #BFBFBF;
stroke-width: 1.5277778;
stroke-linecap: butt;
stroke-linejoin: round;
}
.g3_1{
fill: #5B9BD5;
}
.g4_1{
fill: none;
stroke: #5B9BD5;
stroke-width: 1.5277778;
stroke-linecap: butt;
stroke-linejoin: round;
}
.g5_1{
fill: #ED7D31;
}
.g6_1{
fill: none;
stroke: #ED7D31;
stroke-width: 1.5277778;
stroke-linecap: butt;
stroke-linejoin: round;
}

]]></style>

</defs>
<g clip-path="url(#c_1)">
<path d="M0,0
L0,464
L896,464
L896,0 Z " 
fill="#FFFFFF" stroke="none" />
<path d="M0,0H896.8V464.4H0Z" class="g0_1" />
<path d="M0,0H895.3V462.9H0Z" class="g0_1" />
<path d="M28.3,390.3H870.1M28.3,353.7H870.1M28.3,315.5H870.1M28.3,278.8H870.1M28.3,240.6H870.1M28.3,204H870.1M28.3,165.8H870.1M28.3,129.1H870.1M28.3,90.9H870.1M28.3,54.2H870.1M28.3,17.6H870.1m-841.8,0V428.5m84,-410.9V428.5m84,-410.9V428.5m84,-410.9V428.5M364.4,17.6V428.5M534,17.6V428.5M618,17.6V428.5M702,17.6V428.5M786,17.6V428.5M870.1,17.6V428.5" class="g1_1" />
<path d="M449.9,428.5V17.6M28.3,428.5H870.1" class="g2_1" />
<path d="M788.1,402.6c0,1.7,-1.4,3,-3.1,3c-1.7,0,-3,-1.3,-3,-3c0,-1.7,1.3,-3.1,3,-3.1c1.7,0,3.1,1.4,3.1,3.1Z" class="g3_1" />
<path d="M788.1,402.6c0,1.7,-1.4,3,-3.1,3c-1.7,0,-3,-1.3,-3,-3c0,-1.7,1.3,-3.1,3,-3.1c1.7,0,3.1,1.4,3.1,3.1Z" class="g4_1" />
<path d="M661.3,338.4c0,1.7,-1.4,3.1,-3.1,3.1c-1.7,0,-3,-1.4,-3,-3.1c0,-1.7,1.3,-3.1,3,-3.1c1.7,0,3.1,1.4,3.1,3.1Z" class="g3_1" />
<path d="M661.3,338.4c0,1.7,-1.4,3.1,-3.1,3.1c-1.7,0,-3,-1.4,-3,-3.1c0,-1.7,1.3,-3.1,3,-3.1c1.7,0,3.1,1.4,3.1,3.1Z" class="g4_1" />
<path d="M536,275.8c0,1.7,-1.4,3,-3.1,3c-1.6,0,-3,-1.3,-3,-3c0,-1.7,1.4,-3.1,3,-3.1c1.7,0,3.1,1.4,3.1,3.1Z" class="g3_1" />
<path d="M536,275.8c0,1.7,-1.4,3,-3.1,3c-1.6,0,-3,-1.3,-3,-3c0,-1.7,1.4,-3.1,3,-3.1c1.7,0,3.1,1.4,3.1,3.1Z" class="g4_1" />
<path d="M452,234.5c0,1.7,-1.4,3.1,-3.1,3.1c-1.7,0,-3,-1.4,-3,-3.1c0,-1.7,1.3,-3,3,-3c1.7,0,3.1,1.3,3.1,3Z" class="g3_1" />
<path d="M452,234.5c0,1.7,-1.4,3.1,-3.1,3.1c-1.7,0,-3,-1.4,-3,-3.1c0,-1.7,1.3,-3,3,-3c1.7,0,3.1,1.3,3.1,3Z" class="g4_1" />
<path d="M366.4,193.3c0,1.7,-1.4,3,-3,3c-1.7,0,-3.1,-1.3,-3.1,-3c0,-1.7,1.4,-3.1,3.1,-3.1c1.6,0,3,1.4,3,3.1Z" class="g3_1" />
<path d="M366.4,193.3c0,1.7,-1.4,3,-3,3c-1.7,0,-3.1,-1.3,-3.1,-3c0,-1.7,1.4,-3.1,3.1,-3.1c1.6,0,3,1.4,3,3.1Z" class="g4_1" />
<path d="M241.1,130.6c0,1.7,-1.3,3.1,-3,3.1c-1.7,0,-3.1,-1.4,-3.1,-3.1c0,-1.7,1.4,-3,3.1,-3c1.7,0,3,1.3,3,3Z" class="g3_1" />
<path d="M241.1,130.6c0,1.7,-1.3,3.1,-3,3.1c-1.7,0,-3.1,-1.4,-3.1,-3.1c0,-1.7,1.4,-3,3.1,-3c1.7,0,3,1.3,3,3Z" class="g4_1" />
<path d="M114.3,69.5c0,1.7,-1.3,3.1,-3,3.1c-1.7,0,-3.1,-1.4,-3.1,-3.1c0,-1.7,1.4,-3,3.1,-3c1.7,0,3,1.3,3,3Z" class="g3_1" />
<path d="M114.3,69.5c0,1.7,-1.3,3.1,-3,3.1c-1.7,0,-3.1,-1.4,-3.1,-3.1c0,-1.7,1.4,-3,3.1,-3c1.7,0,3,1.3,3,3Z" class="g4_1" />
<path d="M788.1,263.5c0,1.7,-1.4,3.1,-3.1,3.1c-1.7,0,-3,-1.4,-3,-3.1c0,-1.6,1.3,-3,3,-3c1.7,0,3.1,1.4,3.1,3Z" class="g5_1" />
<path d="M788.1,263.5c0,1.7,-1.4,3.1,-3.1,3.1c-1.7,0,-3,-1.4,-3,-3.1c0,-1.6,1.3,-3,3,-3c1.7,0,3.1,1.4,3.1,3Z" class="g6_1" />
<path d="M661.3,252.8c0,1.7,-1.4,3.1,-3.1,3.1c-1.7,0,-3,-1.4,-3,-3.1c0,-1.6,1.3,-3,3,-3c1.7,0,3.1,1.4,3.1,3Z" class="g5_1" />
<path d="M661.3,252.8c0,1.7,-1.4,3.1,-3.1,3.1c-1.7,0,-3,-1.4,-3,-3.1c0,-1.6,1.3,-3,3,-3c1.7,0,3.1,1.4,3.1,3Z" class="g6_1" />
<path d="M536,242.2c0,1.6,-1.4,3,-3.1,3c-1.6,0,-3,-1.4,-3,-3c0,-1.7,1.4,-3.1,3,-3.1c1.7,0,3.1,1.4,3.1,3.1Z" class="g5_1" />
<path d="M536,242.2c0,1.6,-1.4,3,-3.1,3c-1.6,0,-3,-1.4,-3,-3c0,-1.7,1.4,-3.1,3,-3.1c1.7,0,3.1,1.4,3.1,3.1Z" class="g6_1" />
<path d="M452,234.5c0,1.7,-1.4,3.1,-3.1,3.1c-1.7,0,-3,-1.4,-3,-3.1c0,-1.7,1.3,-3,3,-3c1.7,0,3.1,1.3,3.1,3Z" class="g5_1" />
<path d="M452,234.5c0,1.7,-1.4,3.1,-3.1,3.1c-1.7,0,-3,-1.4,-3,-3.1c0,-1.7,1.3,-3,3,-3c1.7,0,3.1,1.3,3.1,3Z" class="g6_1" />
<path d="M366.4,226.9c0,1.7,-1.4,3,-3,3c-1.7,0,-3.1,-1.3,-3.1,-3c0,-1.7,1.4,-3.1,3.1,-3.1c1.6,0,3,1.4,3,3.1Z" class="g5_1" />
<path d="M366.4,226.9c0,1.7,-1.4,3,-3,3c-1.7,0,-3.1,-1.3,-3.1,-3c0,-1.7,1.4,-3.1,3.1,-3.1c1.6,0,3,1.4,3,3.1Z" class="g6_1" />
<path d="M241.1,214.7c0,1.6,-1.3,3,-3,3c-1.7,0,-3.1,-1.4,-3.1,-3c0,-1.7,1.4,-3.1,3.1,-3.1c1.7,0,3,1.4,3,3.1Z" class="g5_1" />
<path d="M241.1,214.7c0,1.6,-1.3,3,-3,3c-1.7,0,-3.1,-1.4,-3.1,-3c0,-1.7,1.4,-3.1,3.1,-3.1c1.7,0,3,1.4,3,3.1Z" class="g6_1" />
<path d="M114.3,204c0,1.6,-1.3,3,-3,3c-1.7,0,-3.1,-1.4,-3.1,-3c0,-1.7,1.4,-3.1,3.1,-3.1c1.7,0,3,1.4,3,3.1Z" class="g5_1" />
<path d="M114.3,204c0,1.6,-1.3,3,-3,3c-1.7,0,-3.1,-1.4,-3.1,-3c0,-1.7,1.4,-3.1,3.1,-3.1c1.7,0,3,1.4,3,3.1Z" class="g6_1" />
<path d="M113.7,68.9v0c.8,.4,1.1,1.3,.7,2.1c-.3,.7,-1.3,1,-2,.6c-.8,-.3,-1.1,-1.2,-.7,-2c.4,-.8,1.3,-1.1,2,-.7Zm5.5,2.7v0c.8,.4,1.1,1.3,.7,2.1c-.4,.7,-1.3,1,-2,.6c-.8,-.3,-1.1,-1.2,-.7,-2c.3,-.8,1.3,-1.1,2,-.7Zm5.5,2.7v0c.8,.4,1.1,1.3,.7,2.1c-.4,.7,-1.3,1,-2,.6c-.8,-.3,-1.1,-1.2,-.7,-2c.3,-.8,1.2,-1.1,2,-.7Zm5.5,2.7v0c.7,.4,1.1,1.3,.7,2.1c-.4,.7,-1.3,1,-2.1,.6c-.7,-.3,-1,-1.2,-.7,-2c.4,-.8,1.3,-1.1,2.1,-.7Zm5.5,2.7v0c.7,.4,1,1.3,.7,2.1c-.4,.7,-1.3,1,-2.1,.6c-.7,-.3,-1,-1.2,-.7,-2c.4,-.8,1.3,-1.1,2.1,-.7Zm5.5,2.7v0c.7,.4,1,1.3,.7,2.1c-.4,.7,-1.3,1,-2.1,.6c-.7,-.3,-1.1,-1.2,-.7,-2c.4,-.8,1.3,-1.1,2.1,-.7Zm5.4,2.7v0c.8,.4,1.1,1.3,.7,2.1c-.3,.7,-1.2,1,-2,.6c-.8,-.3,-1.1,-1.2,-.7,-2c.4,-.8,1.3,-1.1,2,-.7Zm5.5,2.7v0c.8,.4,1.1,1.3,.7,2.1c-.3,.7,-1.3,1,-2,.6c-.8,-.3,-1.1,-1.2,-.7,-2c.4,-.8,1.3,-1.1,2,-.7Zm5.5,2.7v0c.8,.4,1.1,1.3,.7,2c-.4,.8,-1.3,1.1,-2,.7c-.8,-.3,-1.1,-1.2,-.7,-2c.3,-.8,1.3,-1.1,2,-.7Zm5.5,2.7v0c.8,.4,1.1,1.3,.7,2c-.4,.8,-1.3,1.1,-2,.7c-.8,-.3,-1.1,-1.2,-.7,-2c.3,-.8,1.2,-1.1,2,-.7Zm5.5,2.7v0c.8,.4,1.1,1.3,.7,2c-.4,.8,-1.3,1.1,-2.1,.7c-.7,-.3,-1,-1.2,-.7,-2c.4,-.8,1.3,-1.1,2.1,-.7Zm5.5,2.7v0c.7,.4,1,1.3,.7,2c-.4,.8,-1.3,1.1,-2.1,.7c-.7,-.3,-1,-1.2,-.7,-2c.4,-.8,1.3,-1.1,2.1,-.7Zm5.5,2.7v0c.7,.4,1,1.3,.7,2c-.4,.8,-1.3,1.1,-2.1,.7c-.7,-.3,-1.1,-1.2,-.7,-2c.4,-.8,1.3,-1.1,2.1,-.7ZM185,104h.1c.7,.4,1,1.3,.6,2c-.3,.8,-1.2,1.1,-2,.7c-.8,-.3,-1.1,-1.2,-.7,-2c.4,-.8,1.3,-1.1,2,-.7Zm5.5,2.7v0c.8,.4,1.1,1.3,.7,2c-.3,.8,-1.3,1.1,-2,.7c-.8,-.3,-1.1,-1.2,-.7,-2c.4,-.8,1.3,-1.1,2,-.7Zm5.5,2.7v0c.8,.4,1.1,1.3,.7,2c-.4,.8,-1.3,1.1,-2,.7c-.8,-.3,-1.1,-1.2,-.7,-2c.3,-.8,1.3,-1.1,2,-.7Zm5.5,2.7v0c.8,.4,1.1,1.3,.7,2c-.4,.8,-1.3,1.1,-2,.7c-.8,-.3,-1.1,-1.2,-.7,-2c.3,-.8,1.2,-1.1,2,-.7Zm5.5,2.7v0c.8,.4,1.1,1.3,.7,2c-.4,.8,-1.3,1.1,-2.1,.7c-.7,-.3,-1,-1.2,-.7,-2c.4,-.8,1.3,-1.1,2.1,-.7Zm5.5,2.7v0c.7,.4,1,1.3,.7,2c-.4,.8,-1.3,1.1,-2.1,.7c-.7,-.3,-1,-1.2,-.7,-2c.4,-.8,1.3,-1.1,2.1,-.7Zm5.5,2.7v0c.7,.4,1,1.3,.7,2c-.4,.8,-1.3,1.1,-2.1,.7c-.7,-.3,-1.1,-1.2,-.7,-2c.4,-.8,1.3,-1.1,2.1,-.7Zm5.4,2.7h.1c.7,.4,1,1.3,.6,2c-.3,.8,-1.2,1.1,-2,.7c-.8,-.3,-1.1,-1.3,-.7,-2c.4,-.8,1.3,-1.1,2,-.7Zm5.5,2.7v0c.8,.4,1.1,1.3,.7,2c-.3,.8,-1.3,1.1,-2,.7c-.8,-.3,-1.1,-1.3,-.7,-2c.4,-.8,1.3,-1.1,2,-.7Zm5.5,2.7v0c.8,.4,1.1,1.3,.7,2c-.4,.8,-1.3,1.1,-2,.7c-.8,-.3,-1.1,-1.3,-.7,-2c.3,-.8,1.3,-1.1,2,-.7Zm5.5,2.7v0c.8,.4,1.1,1.3,.7,2c-.4,.8,-1.3,1.1,-2,.7c-.8,-.3,-1.1,-1.3,-.7,-2c.3,-.8,1.3,-1.1,2,-.7Zm5.5,2.7v0c.8,.4,1.1,1.3,.7,2c-.4,.8,-1.3,1.1,-2.1,.7c-.7,-.3,-1,-1.3,-.7,-2c.4,-.8,1.3,-1.1,2.1,-.7Zm5.5,2.7v0c.7,.4,1.1,1.3,.7,2c-.4,.8,-1.3,1.1,-2.1,.7c-.7,-.3,-1,-1.3,-.7,-2c.4,-.8,1.3,-1.1,2.1,-.7Zm5.5,2.7v0c.7,.4,1,1.3,.7,2c-.4,.8,-1.3,1.1,-2.1,.7c-.7,-.3,-1.1,-1.3,-.7,-2c.4,-.8,1.3,-1.1,2.1,-.7Zm5.5,2.7v0c.7,.4,1,1.3,.7,2c-.4,.8,-1.3,1.1,-2.1,.7c-.8,-.3,-1.1,-1.3,-.7,-2c.4,-.8,1.3,-1.1,2.1,-.7Zm5.4,2.7v0c.8,.4,1.1,1.3,.7,2c-.3,.8,-1.3,1.1,-2,.7c-.8,-.3,-1.1,-1.3,-.7,-2c.4,-.8,1.3,-1.1,2,-.7Zm5.5,2.7v0c.8,.4,1.1,1.3,.7,2c-.3,.8,-1.3,1.1,-2,.7c-.8,-.3,-1.1,-1.3,-.7,-2c.4,-.8,1.3,-1.1,2,-.7Zm5.5,2.7v0c.8,.4,1.1,1.3,.7,2c-.4,.8,-1.3,1.1,-2,.7c-.8,-.3,-1.1,-1.3,-.7,-2c.3,-.8,1.3,-1.1,2,-.7Zm5.5,2.7v0c.8,.4,1.1,1.3,.7,2c-.4,.8,-1.3,1.1,-2.1,.7c-.7,-.3,-1,-1.3,-.6,-2c.3,-.8,1.2,-1.1,2,-.7Zm5.5,2.7v0c.7,.4,1.1,1.3,.7,2c-.4,.8,-1.3,1.1,-2.1,.7c-.7,-.3,-1,-1.3,-.7,-2c.4,-.8,1.3,-1.1,2.1,-.7Zm5.5,2.7v0c.7,.4,1,1.3,.7,2c-.4,.8,-1.3,1.1,-2.1,.7c-.7,-.3,-1.1,-1.3,-.7,-2c.4,-.8,1.3,-1.1,2.1,-.7Zm5.5,2.7v0c.7,.4,1,1.3,.7,2c-.4,.8,-1.3,1.1,-2.1,.7c-.8,-.3,-1.1,-1.3,-.7,-2c.4,-.8,1.3,-1.1,2.1,-.7Zm5.4,2.7v0c.8,.4,1.1,1.3,.7,2c-.3,.8,-1.2,1.1,-2,.7c-.8,-.3,-1.1,-1.3,-.7,-2c.4,-.8,1.3,-1.1,2,-.7Zm5.5,2.7v0c.8,.4,1.1,1.3,.7,2c-.3,.8,-1.3,1.1,-2,.7c-.8,-.3,-1.1,-1.3,-.7,-2c.4,-.8,1.3,-1.1,2,-.7Zm5.5,2.7v0c.8,.4,1.1,1.3,.7,2c-.4,.8,-1.3,1.1,-2,.7c-.8,-.3,-1.1,-1.3,-.7,-2c.3,-.8,1.3,-1.1,2,-.7Zm5.5,2.7v0c.8,.4,1.1,1.3,.7,2c-.4,.8,-1.3,1.1,-2,.7h-.1c-.7,-.3,-1,-1.3,-.6,-2c.3,-.8,1.2,-1.1,2,-.7Zm5.5,2.7v0c.7,.4,1.1,1.3,.7,2c-.4,.8,-1.3,1.1,-2.1,.7c-.7,-.3,-1,-1.3,-.7,-2c.4,-.8,1.3,-1.1,2.1,-.7Zm5.5,2.7v0c.7,.4,1,1.3,.7,2c-.4,.8,-1.3,1.1,-2.1,.7c-.7,-.3,-1,-1.3,-.7,-2c.4,-.8,1.3,-1.1,2.1,-.7Zm5.5,2.7v0c.7,.4,1,1.3,.7,2c-.4,.8,-1.3,1.1,-2.1,.7c-.8,-.3,-1.1,-1.3,-.7,-2c.4,-.8,1.3,-1.1,2.1,-.7Zm5.4,2.7v0c.8,.4,1.1,1.3,.7,2c-.3,.8,-1.2,1.1,-2,.7c-.8,-.3,-1.1,-1.3,-.7,-2c.4,-.8,1.3,-1.1,2,-.7Zm5.5,2.7v0c.8,.4,1.1,1.3,.7,2c-.3,.8,-1.3,1.1,-2,.7c-.8,-.3,-1.1,-1.3,-.7,-2c.4,-.8,1.3,-1.1,2,-.7Zm5.5,2.7v0c.8,.4,1.1,1.3,.7,2c-.4,.8,-1.3,1.1,-2,.7c-.8,-.3,-1.1,-1.3,-.7,-2c.3,-.8,1.3,-1.1,2,-.7Zm5.5,2.7v0c.8,.4,1.1,1.3,.7,2c-.4,.8,-1.3,1.1,-2,.7c-.8,-.3,-1.1,-1.3,-.7,-2c.3,-.8,1.2,-1.1,2,-.7Zm5.5,2.7v0c.7,.4,1.1,1.3,.7,2c-.4,.8,-1.3,1.1,-2.1,.7c-.7,-.3,-1,-1.3,-.7,-2c.4,-.8,1.3,-1.1,2.1,-.7Zm5.5,2.7v0c.7,.4,1,1.3,.7,2c-.4,.8,-1.3,1.1,-2.1,.7c-.7,-.4,-1,-1.3,-.7,-2c.4,-.8,1.3,-1.1,2.1,-.7Zm5.5,2.7v0c.7,.4,1,1.3,.7,2c-.4,.8,-1.3,1.1,-2.1,.7c-.8,-.4,-1.1,-1.3,-.7,-2c.4,-.8,1.3,-1.1,2.1,-.7Zm5.4,2.7v0c.8,.4,1.1,1.3,.7,2c-.3,.8,-1.2,1.1,-2,.7c-.8,-.4,-1.1,-1.3,-.7,-2c.4,-.8,1.3,-1.1,2,-.7Zm5.5,2.7v0c.8,.4,1.1,1.3,.7,2c-.3,.8,-1.3,1.1,-2,.7c-.8,-.4,-1.1,-1.3,-.7,-2c.4,-.8,1.3,-1.1,2,-.7Zm5.5,2.7v0c.8,.4,1.1,1.3,.7,2c-.4,.8,-1.3,1.1,-2,.7c-.8,-.4,-1.1,-1.3,-.7,-2c.3,-.8,1.3,-1.1,2,-.7Zm5.5,2.7v0c.8,.4,1.1,1.3,.7,2c-.4,.8,-1.3,1.1,-2,.7h-.1c-.7,-.4,-1,-1.3,-.6,-2c.3,-.8,1.2,-1.1,2,-.7Zm5.5,2.7v0c.7,.4,1.1,1.3,.7,2c-.4,.8,-1.3,1.1,-2.1,.7c-.7,-.4,-1,-1.3,-.7,-2c.4,-.8,1.3,-1.1,2.1,-.7Zm5.5,2.7v0c.7,.4,1,1.3,.7,2c-.4,.8,-1.3,1.1,-2.1,.7c-.7,-.4,-1,-1.3,-.7,-2c.4,-.8,1.3,-1.1,2.1,-.7Zm5.5,2.7v0c.7,.4,1,1.3,.7,2c-.4,.8,-1.3,1.1,-2.1,.7c-.7,-.4,-1.1,-1.3,-.7,-2c.4,-.8,1.3,-1.1,2.1,-.7Zm5.4,2.7h.1c.7,.4,1,1.3,.6,2c-.3,.8,-1.2,1.1,-2,.7c-.8,-.4,-1.1,-1.3,-.7,-2c.4,-.8,1.3,-1.1,2,-.7Zm5.5,2.7v0c.8,.4,1.1,1.3,.7,2c-.3,.8,-1.3,1.1,-2,.7c-.8,-.4,-1.1,-1.3,-.7,-2c.4,-.8,1.3,-1.1,2,-.7Zm5.5,2.7v0c.8,.4,1.1,1.3,.7,2c-.4,.8,-1.3,1.1,-2,.7c-.8,-.4,-1.1,-1.3,-.7,-2c.3,-.8,1.3,-1.1,2,-.7Zm5.5,2.7v0c.8,.4,1.1,1.3,.7,2c-.4,.8,-1.3,1.1,-2,.7c-.8,-.4,-1.1,-1.3,-.7,-2c.3,-.8,1.2,-1.1,2,-.7Zm5.5,2.7v0c.8,.4,1.1,1.3,.7,2c-.4,.8,-1.3,1.1,-2.1,.7c-.7,-.4,-1,-1.3,-.7,-2c.4,-.8,1.3,-1.1,2.1,-.7Zm5.5,2.7v0c.7,.4,1,1.3,.7,2c-.4,.8,-1.3,1.1,-2.1,.7c-.7,-.4,-1,-1.3,-.7,-2c.4,-.8,1.3,-1.1,2.1,-.7Zm5.5,2.7v0c.7,.3,1,1.3,.7,2c-.4,.8,-1.3,1.1,-2.1,.7c-.7,-.4,-1.1,-1.3,-.7,-2c.4,-.8,1.3,-1.1,2.1,-.7Zm5.4,2.7h.1c.7,.3,1,1.3,.6,2c-.3,.8,-1.2,1.1,-2,.7c-.8,-.4,-1.1,-1.3,-.7,-2c.4,-.8,1.3,-1.1,2,-.7Zm5.5,2.7v0c.8,.3,1.1,1.3,.7,2c-.3,.8,-1.3,1.1,-2,.7c-.8,-.4,-1.1,-1.3,-.7,-2c.4,-.8,1.3,-1.1,2,-.7Zm5.5,2.7v0c.8,.3,1.1,1.3,.7,2c-.4,.8,-1.3,1.1,-2,.7c-.8,-.4,-1.1,-1.3,-.7,-2c.3,-.8,1.3,-1.1,2,-.7Zm5.5,2.7v0c.8,.3,1.1,1.3,.7,2c-.4,.8,-1.3,1.1,-2,.7c-.8,-.4,-1.1,-1.3,-.7,-2c.3,-.8,1.3,-1.1,2,-.7Zm5.5,2.7v0c.8,.3,1.1,1.3,.7,2c-.4,.8,-1.3,1.1,-2.1,.7c-.7,-.4,-1,-1.3,-.7,-2c.4,-.8,1.3,-1.1,2.1,-.7Zm5.5,2.7v0c.7,.3,1,1.3,.7,2c-.4,.8,-1.3,1.1,-2.1,.7c-.7,-.4,-1,-1.3,-.7,-2c.4,-.8,1.3,-1.1,2.1,-.7Zm5.5,2.7v0c.7,.3,1,1.3,.7,2c-.4,.8,-1.3,1.1,-2.1,.7c-.7,-.4,-1.1,-1.3,-.7,-2c.4,-.8,1.3,-1.1,2.1,-.7Zm5.5,2.7v0c.7,.3,1,1.3,.6,2c-.3,.8,-1.2,1.1,-2,.7c-.8,-.4,-1.1,-1.3,-.7,-2c.4,-.8,1.3,-1.1,2.1,-.7Zm5.4,2.7v0c.8,.3,1.1,1.3,.7,2c-.3,.8,-1.3,1.1,-2,.7c-.8,-.4,-1.1,-1.3,-.7,-2c.4,-.8,1.3,-1.1,2,-.7Zm5.5,2.7v0c.8,.3,1.1,1.3,.7,2c-.4,.8,-1.3,1.1,-2,.7c-.8,-.4,-1.1,-1.3,-.7,-2c.4,-.8,1.3,-1.1,2,-.7Zm5.5,2.7v0c.8,.3,1.1,1.3,.7,2c-.4,.8,-1.3,1.1,-2,.7c-.8,-.4,-1.1,-1.3,-.7,-2c.3,-.8,1.3,-1.1,2,-.7Zm5.5,2.7v0c.8,.3,1.1,1.3,.7,2c-.4,.8,-1.3,1.1,-2.1,.7c-.7,-.4,-1,-1.3,-.7,-2c.4,-.8,1.3,-1.1,2.1,-.7Zm5.5,2.7v0c.7,.3,1.1,1.3,.7,2c-.4,.8,-1.3,1.1,-2.1,.7c-.7,-.4,-1,-1.3,-.7,-2c.4,-.8,1.3,-1.1,2.1,-.7Zm5.5,2.7v0c.7,.3,1,1.3,.7,2c-.4,.8,-1.3,1.1,-2.1,.7c-.7,-.4,-1.1,-1.3,-.7,-2c.4,-.8,1.3,-1.1,2.1,-.7Zm5.5,2.7v0c.7,.3,1,1.3,.6,2c-.3,.8,-1.2,1.1,-2,.7c-.8,-.4,-1.1,-1.3,-.7,-2c.4,-.8,1.3,-1.1,2.1,-.7Zm5.4,2.7v0c.8,.3,1.1,1.3,.7,2c-.3,.8,-1.3,1.1,-2,.7c-.8,-.4,-1.1,-1.3,-.7,-2c.4,-.8,1.3,-1.1,2,-.7Zm5.5,2.7v0c.8,.3,1.1,1.3,.7,2c-.4,.8,-1.3,1.1,-2,.7c-.8,-.4,-1.1,-1.3,-.7,-2c.4,-.8,1.3,-1.1,2,-.7Zm5.5,2.7v0c.8,.3,1.1,1.3,.7,2c-.4,.8,-1.3,1.1,-2,.7c-.8,-.4,-1.1,-1.3,-.7,-2c.3,-.8,1.3,-1.1,2,-.7Zm5.5,2.7v0c.8,.3,1.1,1.3,.7,2c-.4,.8,-1.3,1.1,-2.1,.7c-.7,-.4,-1,-1.3,-.6,-2c.3,-.8,1.2,-1.1,2,-.7Zm5.5,2.7v0c.7,.3,1.1,1.3,.7,2c-.4,.8,-1.3,1.1,-2.1,.7c-.7,-.4,-1,-1.3,-.7,-2c.4,-.8,1.3,-1.1,2.1,-.7Zm5.5,2.7v0c.7,.3,1,1.3,.7,2c-.4,.8,-1.3,1.1,-2.1,.7c-.7,-.4,-1.1,-1.3,-.7,-2c.4,-.8,1.3,-1.1,2.1,-.7Zm5.5,2.7v0c.7,.3,1,1.3,.7,2c-.4,.8,-1.3,1.1,-2.1,.7c-.8,-.4,-1.1,-1.3,-.7,-2c.4,-.8,1.3,-1.1,2.1,-.7Zm5.4,2.7v0c.8,.3,1.1,1.3,.7,2c-.3,.8,-1.3,1.1,-2,.7c-.8,-.4,-1.1,-1.3,-.7,-2c.4,-.8,1.3,-1.1,2,-.7Zm5.5,2.7v0c.8,.3,1.1,1.3,.7,2c-.4,.8,-1.3,1.1,-2,.7c-.8,-.4,-1.1,-1.3,-.7,-2c.4,-.8,1.3,-1.1,2,-.7Zm5.5,2.7v0c.8,.3,1.1,1.3,.7,2c-.4,.8,-1.3,1.1,-2,.7c-.8,-.4,-1.1,-1.3,-.7,-2c.3,-.8,1.3,-1.1,2,-.7Zm5.5,2.7v0c.8,.3,1.1,1.3,.7,2c-.4,.8,-1.3,1.1,-2.1,.7c-.7,-.4,-1,-1.3,-.6,-2c.3,-.8,1.2,-1.1,2,-.7Zm5.5,2.7v0c.7,.3,1.1,1.3,.7,2c-.4,.8,-1.3,1.1,-2.1,.7c-.7,-.4,-1,-1.3,-.7,-2c.4,-.8,1.3,-1.1,2.1,-.7Zm5.5,2.7v0c.7,.3,1,1.3,.7,2c-.4,.8,-1.3,1.1,-2.1,.7c-.7,-.4,-1,-1.3,-.7,-2c.4,-.8,1.3,-1.1,2.1,-.7Zm5.5,2.7v0c.7,.3,1,1.3,.7,2c-.4,.8,-1.3,1.1,-2.1,.7c-.8,-.4,-1.1,-1.3,-.7,-2c.4,-.8,1.3,-1.1,2.1,-.7Zm5.4,2.7v0c.8,.3,1.1,1.2,.7,2c-.3,.8,-1.2,1.1,-2,.7c-.8,-.4,-1.1,-1.3,-.7,-2c.4,-.8,1.3,-1.1,2,-.7Zm5.5,2.7v0c.8,.3,1.1,1.2,.7,2c-.3,.8,-1.3,1.1,-2,.7c-.8,-.4,-1.1,-1.3,-.7,-2c.4,-.8,1.3,-1.1,2,-.7Zm5.5,2.7v0c.8,.3,1.1,1.2,.7,2c-.4,.8,-1.3,1.1,-2,.7c-.8,-.4,-1.1,-1.3,-.7,-2c.3,-.8,1.3,-1.1,2,-.7Zm5.5,2.7v0c.8,.3,1.1,1.2,.7,2c-.4,.8,-1.3,1.1,-2,.7c-.8,-.4,-1.1,-1.3,-.7,-2c.3,-.8,1.2,-1.1,2,-.7Zm5.5,2.7v0c.7,.3,1.1,1.2,.7,2c-.4,.8,-1.3,1.1,-2.1,.7c-.7,-.4,-1,-1.3,-.7,-2c.4,-.8,1.3,-1.1,2.1,-.7Zm5.5,2.7v0c.7,.3,1,1.2,.7,2c-.4,.8,-1.3,1.1,-2.1,.7c-.7,-.4,-1,-1.3,-.7,-2c.4,-.8,1.3,-1.1,2.1,-.7Zm5.5,2.7v0c.7,.3,1,1.2,.7,2c-.4,.8,-1.3,1.1,-2.1,.7c-.7,-.4,-1.1,-1.3,-.7,-2c.4,-.8,1.3,-1.1,2.1,-.7Zm5.4,2.7v0c.8,.3,1.1,1.2,.7,2c-.3,.8,-1.2,1.1,-2,.7c-.8,-.4,-1.1,-1.3,-.7,-2c.4,-.8,1.3,-1.1,2,-.7Zm5.5,2.7v0c.8,.3,1.1,1.2,.7,2c-.3,.8,-1.3,1.1,-2,.7c-.8,-.4,-1.1,-1.3,-.7,-2c.4,-.8,1.3,-1.1,2,-.7Zm5.5,2.7v0c.8,.3,1.1,1.2,.7,2c-.4,.8,-1.3,1.1,-2,.7c-.8,-.4,-1.1,-1.3,-.7,-2c.3,-.8,1.3,-1.1,2,-.7Zm5.5,2.6v.1c.8,.3,1.1,1.2,.7,2c-.4,.8,-1.3,1.1,-2,.7c-.8,-.4,-1.1,-1.3,-.7,-2c.3,-.8,1.2,-1.1,2,-.8Zm5.5,2.7v.1c.7,.3,1.1,1.2,.7,2c-.4,.8,-1.3,1.1,-2.1,.7c-.7,-.4,-1,-1.3,-.7,-2c.4,-.8,1.3,-1.1,2.1,-.8Zm5.5,2.7v.1c.7,.3,1,1.2,.7,2c-.4,.8,-1.3,1.1,-2.1,.7c-.7,-.4,-1,-1.3,-.7,-2.1c.4,-.7,1.3,-1,2.1,-.7Zm5.5,2.7v0c.7,.4,1,1.3,.7,2.1c-.4,.8,-1.3,1.1,-2.1,.7c-.7,-.4,-1.1,-1.3,-.7,-2.1c.4,-.7,1.3,-1,2.1,-.7Zm5.4,2.7v0c.8,.4,1.1,1.3,.7,2.1c-.3,.8,-1.2,1.1,-2,.7c-.8,-.4,-1.1,-1.3,-.7,-2.1c.4,-.7,1.3,-1,2,-.7Zm5.5,2.7v0c.8,.4,1.1,1.3,.7,2.1c-.3,.8,-1.3,1.1,-2,.7c-.8,-.4,-1.1,-1.3,-.7,-2.1c.4,-.7,1.3,-1,2,-.7Zm5.5,2.7v0c.8,.4,1.1,1.3,.7,2.1c-.4,.7,-1.3,1.1,-2,.7c-.8,-.4,-1.1,-1.3,-.7,-2.1c.3,-.7,1.3,-1,2,-.7Zm5.5,2.7v0c.8,.4,1.1,1.3,.7,2.1c-.4,.7,-1.3,1.1,-2,.7c-.8,-.4,-1.1,-1.3,-.7,-2.1c.3,-.7,1.2,-1,2,-.7Zm5.5,2.7v0c.7,.4,1.1,1.3,.7,2.1c-.4,.7,-1.3,1.1,-2.1,.7c-.7,-.4,-1,-1.3,-.7,-2.1c.4,-.7,1.3,-1,2.1,-.7Zm5.5,2.7v0c.7,.4,1,1.3,.7,2.1c-.4,.7,-1.3,1.1,-2.1,.7c-.7,-.4,-1,-1.3,-.7,-2.1c.4,-.7,1.3,-1,2.1,-.7Zm5.5,2.7v0c.7,.4,1,1.3,.7,2.1c-.4,.7,-1.3,1.1,-2.1,.7c-.7,-.4,-1.1,-1.3,-.7,-2.1c.4,-.7,1.3,-1,2.1,-.7Zm5.4,2.7v0c.8,.4,1.1,1.3,.7,2.1c-.3,.7,-1.2,1.1,-2,.7c-.8,-.4,-1.1,-1.3,-.7,-2.1c.4,-.7,1.3,-1,2,-.7Zm5.5,2.7v0c.8,.4,1.1,1.3,.7,2.1c-.3,.7,-1.3,1.1,-2,.7c-.8,-.4,-1.1,-1.3,-.7,-2.1c.4,-.7,1.3,-1,2,-.7Zm5.5,2.7v0c.8,.4,1.1,1.3,.7,2.1c-.4,.7,-1.3,1.1,-2,.7c-.8,-.4,-1.1,-1.3,-.7,-2.1c.3,-.7,1.3,-1,2,-.7Zm5.5,2.7v0c.8,.4,1.1,1.3,.7,2.1c-.4,.7,-1.3,1.1,-2,.7c-.8,-.4,-1.1,-1.3,-.7,-2.1c.3,-.7,1.2,-1,2,-.7Zm5.5,2.7v0c.7,.4,1.1,1.3,.7,2.1c-.4,.7,-1.3,1.1,-2.1,.7c-.7,-.4,-1,-1.3,-.7,-2.1c.4,-.7,1.3,-1,2.1,-.7Zm5.5,2.7v0c.7,.4,1,1.3,.7,2.1c-.4,.7,-1.3,1.1,-2.1,.7c-.7,-.4,-1,-1.3,-.7,-2.1c.4,-.7,1.3,-1,2.1,-.7Zm5.5,2.7v0c.7,.4,1,1.3,.7,2.1c-.4,.7,-1.3,1.1,-2.1,.7c-.7,-.4,-1.1,-1.3,-.7,-2.1c.4,-.7,1.3,-1,2.1,-.7Zm5.4,2.7v0c.8,.4,1.1,1.3,.7,2.1c-.3,.7,-1.2,1.1,-2,.7c-.8,-.4,-1.1,-1.3,-.7,-2.1c.4,-.7,1.3,-1,2,-.7Zm5.5,2.7v0c.8,.4,1.1,1.3,.7,2.1c-.3,.7,-1.3,1.1,-2,.7c-.8,-.4,-1.1,-1.3,-.7,-2.1c.4,-.7,1.3,-1,2,-.7Zm5.5,2.7v0c.8,.4,1.1,1.3,.7,2.1c-.3,.7,-1.3,1.1,-2,.7c-.8,-.4,-1.1,-1.3,-.7,-2.1c.3,-.7,1.3,-1,2,-.7Z" class="g3_1" />
<path d="M113.2,204.7v0c.8,.1,1.5,.8,1.4,1.7c-.1,.8,-.8,1.4,-1.7,1.4c-.8,-.1,-1.4,-.8,-1.4,-1.7c.1,-.8,.8,-1.4,1.7,-1.4Zm6.1,.6v0c.8,0,1.4,.8,1.4,1.6c-.1,.9,-.8,1.5,-1.7,1.4c-.8,-.1,-1.5,-.8,-1.4,-1.6c.1,-.9,.8,-1.5,1.7,-1.4Zm6.1,.5v0c.8,.1,1.4,.8,1.4,1.7c-.1,.8,-.9,1.4,-1.7,1.3c-.8,0,-1.5,-.8,-1.4,-1.6c.1,-.8,.8,-1.5,1.7,-1.4Zm6.1,.5v0c.8,.1,1.4,.9,1.4,1.7c-.1,.8,-.9,1.5,-1.7,1.4c-.8,-.1,-1.5,-.8,-1.4,-1.7c.1,-.8,.8,-1.4,1.7,-1.4Zm6.1,.6v0c.8,.1,1.4,.8,1.3,1.6c0,.9,-.8,1.5,-1.6,1.4c-.9,0,-1.5,-.8,-1.4,-1.6c.1,-.9,.8,-1.5,1.7,-1.4Zm6,.5v0c.9,.1,1.5,.8,1.4,1.7c0,.8,-.8,1.4,-1.6,1.4c-.9,-.1,-1.5,-.9,-1.4,-1.7c.1,-.8,.8,-1.5,1.6,-1.4Zm6.1,.6v0c.9,0,1.5,.8,1.4,1.6c-.1,.9,-.8,1.5,-1.6,1.4c-.9,-.1,-1.5,-.8,-1.4,-1.7c.1,-.8,.8,-1.4,1.6,-1.3Zm6.1,.5v0c.9,.1,1.5,.8,1.4,1.7c-.1,.8,-.8,1.4,-1.6,1.3c-.9,0,-1.5,-.8,-1.4,-1.6c0,-.9,.8,-1.5,1.6,-1.4Zm6.1,.5v0c.9,.1,1.5,.9,1.4,1.7c-.1,.8,-.8,1.5,-1.7,1.4c-.8,-.1,-1.4,-.8,-1.3,-1.7c0,-.8,.8,-1.4,1.6,-1.4Zm6.1,.6v0c.8,.1,1.5,.8,1.4,1.6c-.1,.9,-.8,1.5,-1.7,1.4c-.8,-.1,-1.4,-.8,-1.4,-1.6c.1,-.9,.9,-1.5,1.7,-1.4Zm6.1,.5v0c.8,.1,1.5,.8,1.4,1.7c-.1,.8,-.8,1.4,-1.7,1.4c-.8,-.1,-1.4,-.9,-1.4,-1.7c.1,-.8,.9,-1.5,1.7,-1.4Zm6.1,.6v0c.8,0,1.4,.8,1.4,1.6c-.1,.9,-.8,1.5,-1.7,1.4c-.8,-.1,-1.4,-.8,-1.4,-1.7c.1,-.8,.8,-1.4,1.7,-1.3Zm6.1,.5v0c.8,.1,1.4,.8,1.4,1.6c-.1,.9,-.9,1.5,-1.7,1.4c-.8,0,-1.5,-.8,-1.4,-1.6c.1,-.9,.8,-1.5,1.7,-1.4Zm6.1,.5v0c.8,.1,1.4,.8,1.4,1.7c-.1,.8,-.9,1.4,-1.7,1.4c-.8,-.1,-1.5,-.8,-1.4,-1.7c.1,-.8,.8,-1.4,1.7,-1.4Zm6.1,.6v0c.8,0,1.4,.8,1.3,1.6c0,.9,-.8,1.5,-1.6,1.4c-.9,-.1,-1.5,-.8,-1.4,-1.6c.1,-.9,.8,-1.5,1.7,-1.4Zm6,.5v0c.9,.1,1.5,.8,1.4,1.7c0,.8,-.8,1.4,-1.6,1.4c-.9,-.1,-1.5,-.9,-1.4,-1.7c.1,-.8,.8,-1.5,1.6,-1.4Zm6.1,.5v0c.9,.1,1.5,.9,1.4,1.7c0,.8,-.8,1.5,-1.6,1.4c-.9,-.1,-1.5,-.8,-1.4,-1.7c.1,-.8,.8,-1.4,1.6,-1.4Zm6.1,.6v0c.9,.1,1.5,.8,1.4,1.6c-.1,.9,-.8,1.5,-1.6,1.4c-.9,0,-1.5,-.8,-1.4,-1.6c0,-.9,.8,-1.5,1.6,-1.4Zm6.1,.5v0c.9,.1,1.5,.8,1.4,1.7c-.1,.8,-.8,1.4,-1.6,1.4h-.1c-.8,-.1,-1.4,-.8,-1.3,-1.7c0,-.8,.8,-1.5,1.6,-1.4Zm6.1,.6v0c.9,0,1.5,.8,1.4,1.6c-.1,.9,-.8,1.5,-1.7,1.4c-.8,-.1,-1.4,-.8,-1.3,-1.7c0,-.8,.8,-1.4,1.6,-1.3Zm6.1,.5v0c.8,.1,1.5,.8,1.4,1.7c-.1,.8,-.8,1.4,-1.7,1.3c-.8,0,-1.4,-.8,-1.4,-1.6c.1,-.9,.9,-1.5,1.7,-1.4Zm6.1,.5v0c.8,.1,1.5,.9,1.4,1.7c-.1,.8,-.8,1.5,-1.7,1.4c-.8,-.1,-1.4,-.8,-1.4,-1.7c.1,-.8,.8,-1.4,1.7,-1.4Zm6.1,.6v0c.8,.1,1.4,.8,1.4,1.6c-.1,.9,-.8,1.5,-1.7,1.4c-.8,-.1,-1.5,-.8,-1.4,-1.6c.1,-.9,.8,-1.5,1.7,-1.4Zm6.1,.5v0c.8,.1,1.4,.8,1.4,1.7c-.1,.8,-.9,1.4,-1.7,1.4c-.8,-.1,-1.5,-.9,-1.4,-1.7c.1,-.8,.8,-1.5,1.7,-1.4Zm6.1,.6v0c.8,0,1.4,.8,1.3,1.6c0,.9,-.8,1.5,-1.6,1.4c-.9,-.1,-1.5,-.8,-1.4,-1.7c.1,-.8,.8,-1.4,1.7,-1.3Zm6.1,.5v0c.8,.1,1.4,.8,1.3,1.7c0,.8,-.8,1.4,-1.6,1.3c-.9,0,-1.5,-.8,-1.4,-1.6c.1,-.9,.8,-1.5,1.7,-1.4Zm6,.5v0c.9,.1,1.5,.8,1.4,1.7c0,.8,-.8,1.5,-1.6,1.4c-.9,-.1,-1.5,-.8,-1.4,-1.7c.1,-.8,.8,-1.4,1.6,-1.4Zm6.1,.6v0c.9,0,1.5,.8,1.4,1.6c-.1,.9,-.8,1.5,-1.6,1.4c-.9,-.1,-1.5,-.8,-1.4,-1.6c0,-.9,.8,-1.5,1.6,-1.4Zm6.1,.5v0c.9,.1,1.5,.8,1.4,1.7c-.1,.8,-.8,1.4,-1.6,1.4c-.9,-.1,-1.5,-.9,-1.4,-1.7c0,-.8,.8,-1.5,1.6,-1.4Zm6.1,.5v0c.9,.1,1.5,.9,1.4,1.7c-.1,.8,-.8,1.5,-1.7,1.4c-.8,-.1,-1.4,-.8,-1.3,-1.7c0,-.8,.8,-1.4,1.6,-1.4Zm6.1,.6v0c.8,.1,1.5,.8,1.4,1.6c-.1,.9,-.8,1.5,-1.7,1.4c-.8,0,-1.4,-.8,-1.4,-1.6c.1,-.9,.9,-1.5,1.7,-1.4Zm6.1,.5v0c.8,.1,1.5,.8,1.4,1.7c-.1,.8,-.8,1.4,-1.7,1.4c-.8,-.1,-1.4,-.8,-1.4,-1.7c.1,-.8,.9,-1.4,1.7,-1.4Zm6.1,.6v0c.8,0,1.4,.8,1.4,1.6c-.1,.9,-.8,1.5,-1.7,1.4c-.8,-.1,-1.4,-.8,-1.4,-1.6c.1,-.9,.8,-1.5,1.7,-1.4Zm6.1,.5v0c.8,.1,1.4,.8,1.4,1.7c-.1,.8,-.9,1.4,-1.7,1.3c-.8,0,-1.5,-.8,-1.4,-1.6c.1,-.9,.8,-1.5,1.7,-1.4Zm6.1,.5v0c.8,.1,1.4,.9,1.4,1.7c-.1,.8,-.9,1.5,-1.7,1.4c-.8,-.1,-1.5,-.8,-1.4,-1.7c.1,-.8,.8,-1.4,1.7,-1.4Zm6.1,.6v0c.8,.1,1.4,.8,1.3,1.6c0,.9,-.8,1.5,-1.6,1.4c-.9,-.1,-1.5,-.8,-1.4,-1.6c.1,-.9,.8,-1.5,1.7,-1.4Zm6,.5v0c.9,.1,1.5,.8,1.4,1.7c0,.8,-.8,1.4,-1.6,1.4c-.9,-.1,-1.5,-.9,-1.4,-1.7c.1,-.8,.8,-1.5,1.6,-1.4Zm6.1,.6v0c.9,0,1.5,.8,1.4,1.6c0,.9,-.8,1.5,-1.6,1.4c-.9,-.1,-1.5,-.8,-1.4,-1.7c.1,-.8,.8,-1.4,1.6,-1.3Zm6.1,.5v0c.9,.1,1.5,.8,1.4,1.7c-.1,.8,-.8,1.4,-1.6,1.3c-.9,0,-1.5,-.8,-1.4,-1.6c0,-.9,.8,-1.5,1.6,-1.4Zm6.1,.5v0c.9,.1,1.5,.9,1.4,1.7c-.1,.8,-.8,1.5,-1.7,1.4c-.8,-.1,-1.4,-.8,-1.3,-1.7c0,-.8,.8,-1.4,1.6,-1.4Zm6.1,.6v0c.8,0,1.5,.8,1.4,1.6c-.1,.9,-.8,1.5,-1.7,1.4c-.8,-.1,-1.4,-.8,-1.4,-1.6c.1,-.9,.9,-1.5,1.7,-1.4Zm6.1,.5v0c.8,.1,1.5,.8,1.4,1.7c-.1,.8,-.8,1.4,-1.7,1.4c-.8,-.1,-1.4,-.9,-1.4,-1.7c.1,-.8,.9,-1.5,1.7,-1.4Zm6.1,.5v0c.8,.1,1.5,.9,1.4,1.7c-.1,.8,-.8,1.5,-1.7,1.4c-.8,-.1,-1.4,-.8,-1.4,-1.7c.1,-.8,.8,-1.4,1.7,-1.4Zm6.1,.6v0c.8,.1,1.4,.8,1.4,1.6c-.1,.9,-.8,1.5,-1.7,1.4c-.8,0,-1.5,-.8,-1.4,-1.6c.1,-.9,.8,-1.5,1.7,-1.4Zm6.1,.5v0c.8,.1,1.4,.8,1.4,1.7c-.1,.8,-.9,1.4,-1.7,1.4c-.8,-.1,-1.5,-.8,-1.4,-1.7c.1,-.8,.8,-1.4,1.7,-1.4Zm6.1,.6v0c.8,0,1.4,.8,1.3,1.6c0,.9,-.8,1.5,-1.6,1.4c-.9,-.1,-1.5,-.8,-1.4,-1.6c.1,-.9,.8,-1.5,1.7,-1.4Zm6,.5h.1c.8,.1,1.4,.8,1.3,1.7c0,.8,-.8,1.4,-1.6,1.3c-.9,0,-1.5,-.8,-1.4,-1.6c.1,-.8,.8,-1.5,1.6,-1.4Zm6.1,.5v0c.9,.1,1.5,.9,1.4,1.7c0,.8,-.8,1.5,-1.6,1.4c-.9,-.1,-1.5,-.8,-1.4,-1.7c.1,-.8,.8,-1.4,1.6,-1.4Zm6.1,.6v0c.9,.1,1.5,.8,1.4,1.6c-.1,.9,-.8,1.5,-1.6,1.4c-.9,0,-1.5,-.8,-1.4,-1.6c0,-.9,.8,-1.5,1.6,-1.4Zm6.1,.5v0c.9,.1,1.5,.8,1.4,1.7c-.1,.8,-.8,1.4,-1.6,1.4c-.9,-.1,-1.5,-.9,-1.4,-1.7c0,-.8,.8,-1.5,1.6,-1.4Zm6.1,.6v0c.9,0,1.5,.8,1.4,1.6c-.1,.9,-.8,1.5,-1.7,1.4c-.8,-.1,-1.4,-.8,-1.3,-1.7c0,-.8,.8,-1.4,1.6,-1.3Zm6.1,.5v0c.8,.1,1.5,.8,1.4,1.7c-.1,.8,-.8,1.4,-1.7,1.3c-.8,0,-1.4,-.8,-1.4,-1.6c.1,-.9,.9,-1.5,1.7,-1.4Zm6.1,.5v0c.8,.1,1.5,.9,1.4,1.7c-.1,.8,-.8,1.5,-1.7,1.4c-.8,-.1,-1.4,-.8,-1.4,-1.7c.1,-.8,.9,-1.4,1.7,-1.4Zm6.1,.6v0c.8,0,1.4,.8,1.4,1.6c-.1,.9,-.8,1.5,-1.7,1.4c-.8,-.1,-1.4,-.8,-1.4,-1.6c.1,-.9,.8,-1.5,1.7,-1.4Zm6.1,.5v0c.8,.1,1.4,.8,1.4,1.7c-.1,.8,-.9,1.4,-1.7,1.4c-.8,-.1,-1.5,-.9,-1.4,-1.7c.1,-.8,.8,-1.5,1.7,-1.4Zm6.1,.6v0c.8,0,1.4,.8,1.4,1.6c-.1,.8,-.9,1.5,-1.7,1.4c-.8,-.1,-1.5,-.8,-1.4,-1.7c.1,-.8,.8,-1.4,1.7,-1.3Zm6.1,.5v0c.8,.1,1.4,.8,1.3,1.6c0,.9,-.8,1.5,-1.6,1.4c-.9,0,-1.5,-.8,-1.4,-1.6c.1,-.9,.8,-1.5,1.7,-1.4Zm6,.5v0c.9,.1,1.5,.8,1.4,1.7c0,.8,-.8,1.4,-1.6,1.4c-.9,-.1,-1.5,-.8,-1.4,-1.7c.1,-.8,.8,-1.4,1.6,-1.4Zm6.1,.6v0c.9,0,1.5,.8,1.4,1.6c-.1,.9,-.8,1.5,-1.6,1.4c-.9,-.1,-1.5,-.8,-1.4,-1.6c.1,-.9,.8,-1.5,1.6,-1.4Zm6.1,.5v0c.9,.1,1.5,.8,1.4,1.7c-.1,.8,-.8,1.4,-1.6,1.3c-.9,0,-1.5,-.8,-1.4,-1.6c0,-.8,.8,-1.5,1.6,-1.4Zm6.1,.5v0c.9,.1,1.5,.9,1.4,1.7c-.1,.8,-.8,1.5,-1.7,1.4c-.8,-.1,-1.4,-.8,-1.3,-1.7c0,-.8,.8,-1.4,1.6,-1.4Zm6.1,.6v0c.8,.1,1.5,.8,1.4,1.6c-.1,.9,-.8,1.5,-1.7,1.4c-.8,0,-1.4,-.8,-1.4,-1.6c.1,-.9,.9,-1.5,1.7,-1.4Zm6.1,.5v0c.8,.1,1.5,.8,1.4,1.7c-.1,.8,-.8,1.4,-1.7,1.4c-.8,-.1,-1.4,-.9,-1.4,-1.7c.1,-.8,.9,-1.5,1.7,-1.4Zm6.1,.6v0c.8,0,1.5,.8,1.4,1.6c-.1,.9,-.8,1.5,-1.7,1.4c-.8,-.1,-1.4,-.8,-1.4,-1.7c.1,-.8,.8,-1.4,1.7,-1.3Zm6.1,.5v0c.8,.1,1.4,.8,1.4,1.7c-.1,.8,-.9,1.4,-1.7,1.3c-.8,0,-1.5,-.8,-1.4,-1.6c.1,-.9,.8,-1.5,1.7,-1.4Zm6.1,.5v0c.8,.1,1.4,.9,1.4,1.7c-.1,.8,-.9,1.5,-1.7,1.4c-.8,-.1,-1.5,-.8,-1.4,-1.7c.1,-.8,.8,-1.4,1.7,-1.4Zm6.1,.6v0c.8,.1,1.4,.8,1.3,1.6c0,.9,-.8,1.5,-1.6,1.4c-.9,-.1,-1.5,-.8,-1.4,-1.6c.1,-.9,.8,-1.5,1.7,-1.4Zm6,.5h.1c.8,.1,1.4,.8,1.3,1.7c0,.8,-.8,1.4,-1.6,1.4c-.9,-.1,-1.5,-.9,-1.4,-1.7c.1,-.8,.8,-1.5,1.6,-1.4Zm6.1,.6v0c.9,0,1.5,.8,1.4,1.6c0,.9,-.8,1.5,-1.6,1.4c-.9,-.1,-1.5,-.8,-1.4,-1.7c.1,-.8,.8,-1.4,1.6,-1.3Zm6.1,.5v0c.9,.1,1.5,.8,1.4,1.6c-.1,.9,-.8,1.5,-1.6,1.4c-.9,0,-1.5,-.8,-1.4,-1.6c0,-.9,.8,-1.5,1.6,-1.4Zm6.1,.5v0c.9,.1,1.5,.8,1.4,1.7c-.1,.8,-.8,1.4,-1.6,1.4h-.1c-.8,-.1,-1.4,-.8,-1.3,-1.7c0,-.8,.8,-1.4,1.6,-1.4Zm6.1,.6v0c.9,0,1.5,.8,1.4,1.6c-.1,.9,-.8,1.5,-1.7,1.4c-.8,-.1,-1.4,-.8,-1.3,-1.6c0,-.9,.8,-1.5,1.6,-1.4Zm6.1,.5v0c.8,.1,1.5,.8,1.4,1.7c-.1,.8,-.8,1.4,-1.7,1.4c-.8,-.1,-1.4,-.9,-1.4,-1.7c.1,-.8,.9,-1.5,1.7,-1.4Zm6.1,.5v0c.8,.1,1.5,.9,1.4,1.7c-.1,.8,-.8,1.5,-1.7,1.4c-.8,-.1,-1.4,-.8,-1.4,-1.7c.1,-.8,.9,-1.4,1.7,-1.4Zm6.1,.6v0c.8,.1,1.4,.8,1.4,1.6c-.1,.9,-.8,1.5,-1.7,1.4c-.8,0,-1.5,-.8,-1.4,-1.6c.1,-.9,.8,-1.5,1.7,-1.4Zm6.1,.5v0c.8,.1,1.4,.8,1.4,1.7c-.1,.8,-.9,1.4,-1.7,1.4c-.8,-.1,-1.5,-.8,-1.4,-1.7c.1,-.8,.8,-1.5,1.7,-1.4Zm6.1,.6v0c.8,0,1.4,.8,1.4,1.6c-.1,.9,-.9,1.5,-1.7,1.4c-.9,-.1,-1.5,-.8,-1.4,-1.7c.1,-.8,.8,-1.4,1.7,-1.3Zm6.1,.5v0c.8,.1,1.4,.8,1.3,1.7c0,.8,-.8,1.4,-1.6,1.3c-.9,0,-1.5,-.8,-1.4,-1.6c.1,-.9,.8,-1.5,1.7,-1.4Zm6,.5v0c.9,.1,1.5,.9,1.4,1.7c0,.8,-.8,1.5,-1.6,1.4c-.9,-.1,-1.5,-.8,-1.4,-1.7c.1,-.8,.8,-1.4,1.6,-1.4Zm6.1,.6v0c.9,.1,1.5,.8,1.4,1.6c-.1,.9,-.8,1.5,-1.6,1.4c-.9,-.1,-1.5,-.8,-1.4,-1.6c.1,-.9,.8,-1.5,1.6,-1.4Zm6.1,.5v0c.9,.1,1.5,.8,1.4,1.7c-.1,.8,-.8,1.4,-1.6,1.4c-.9,-.1,-1.5,-.9,-1.4,-1.7c0,-.8,.8,-1.5,1.6,-1.4Zm6.1,.6v0c.9,0,1.5,.8,1.4,1.6c-.1,.9,-.8,1.5,-1.7,1.4c-.8,-.1,-1.4,-.8,-1.3,-1.7c0,-.8,.8,-1.4,1.6,-1.3Zm6.1,.5v0c.8,.1,1.5,.8,1.4,1.7c-.1,.8,-.8,1.4,-1.7,1.3c-.8,0,-1.4,-.8,-1.4,-1.6c.1,-.9,.9,-1.5,1.7,-1.4Zm6.1,.5v0c.8,.1,1.5,.8,1.4,1.7c-.1,.8,-.8,1.5,-1.7,1.4c-.8,-.1,-1.4,-.8,-1.4,-1.7c.1,-.8,.9,-1.4,1.7,-1.4Zm6.1,.6v0c.8,0,1.4,.8,1.4,1.6c-.1,.9,-.8,1.5,-1.7,1.4c-.8,-.1,-1.4,-.8,-1.4,-1.6c.1,-.9,.8,-1.5,1.7,-1.4Zm6.1,.5v0c.8,.1,1.4,.8,1.4,1.7c-.1,.8,-.9,1.4,-1.7,1.4c-.8,-.1,-1.5,-.9,-1.4,-1.7c.1,-.8,.8,-1.5,1.7,-1.4Zm6.1,.5v0c.8,.1,1.4,.9,1.4,1.7c-.1,.8,-.9,1.5,-1.7,1.4c-.8,-.1,-1.5,-.8,-1.4,-1.7c.1,-.8,.8,-1.4,1.7,-1.4Zm6.1,.6v0c.8,.1,1.4,.8,1.3,1.6c0,.9,-.8,1.5,-1.6,1.4c-.9,0,-1.5,-.8,-1.4,-1.6c.1,-.9,.8,-1.5,1.7,-1.4Zm6,.5v0c.9,.1,1.5,.8,1.4,1.7c0,.8,-.8,1.4,-1.6,1.4c-.9,-.1,-1.5,-.8,-1.4,-1.7c.1,-.8,.8,-1.4,1.6,-1.4Zm6.1,.6v0c.9,0,1.5,.8,1.4,1.6c0,.9,-.8,1.5,-1.6,1.4c-.9,-.1,-1.5,-.8,-1.4,-1.6c.1,-.9,.8,-1.5,1.6,-1.4Zm6.1,.5v0c.9,.1,1.5,.8,1.4,1.7c-.1,.8,-.8,1.4,-1.6,1.3c-.9,0,-1.5,-.8,-1.4,-1.6c0,-.9,.8,-1.5,1.6,-1.4Zm6.1,.5v0c.9,.1,1.5,.9,1.4,1.7c-.1,.8,-.8,1.5,-1.6,1.4h-.1c-.8,-.1,-1.4,-.8,-1.3,-1.7c0,-.8,.8,-1.4,1.6,-1.4Zm6.1,.6v0c.9,.1,1.5,.8,1.4,1.6c-.1,.9,-.8,1.5,-1.7,1.4c-.8,-.1,-1.4,-.8,-1.3,-1.6c0,-.9,.8,-1.5,1.6,-1.4Zm6.1,.5v0c.8,.1,1.5,.8,1.4,1.7c-.1,.8,-.8,1.4,-1.7,1.4c-.8,-.1,-1.4,-.9,-1.4,-1.7c.1,-.8,.9,-1.5,1.7,-1.4Zm6.1,.6v0c.8,0,1.5,.8,1.4,1.6c-.1,.9,-.8,1.5,-1.7,1.4c-.8,-.1,-1.4,-.8,-1.4,-1.7c.1,-.8,.8,-1.4,1.7,-1.3Zm6.1,.5v0c.8,.1,1.4,.8,1.4,1.7c-.1,.8,-.8,1.4,-1.7,1.3c-.8,0,-1.5,-.8,-1.4,-1.6c.1,-.9,.8,-1.5,1.7,-1.4Zm6.1,.5v0c.8,.1,1.4,.9,1.4,1.7c-.1,.8,-.9,1.5,-1.7,1.4c-.8,-.1,-1.5,-.8,-1.4,-1.7c.1,-.8,.8,-1.4,1.7,-1.4Zm6.1,.6v0c.8,0,1.4,.8,1.3,1.6c0,.9,-.8,1.5,-1.6,1.4c-.8,-.1,-1.5,-.8,-1.4,-1.6c.1,-.9,.8,-1.5,1.7,-1.4Zm6,.5h.1c.8,.1,1.4,.8,1.3,1.7c0,.8,-.8,1.4,-1.6,1.4c-.9,-.1,-1.5,-.9,-1.4,-1.7c.1,-.8,.8,-1.5,1.6,-1.4Zm6.1,.6v0c.9,0,1.5,.8,1.4,1.6c0,.8,-.8,1.5,-1.6,1.4c-.9,-.1,-1.5,-.8,-1.4,-1.7c.1,-.8,.8,-1.4,1.6,-1.3Zm6.1,.5v0c.9,.1,1.5,.8,1.4,1.6c-.1,.9,-.8,1.5,-1.6,1.4c-.9,0,-1.5,-.8,-1.4,-1.6c0,-.9,.8,-1.5,1.6,-1.4Zm6.1,.5v0c.9,.1,1.5,.8,1.4,1.7c-.1,.8,-.8,1.4,-1.6,1.4c-.9,-.1,-1.5,-.8,-1.4,-1.7c0,-.8,.8,-1.4,1.6,-1.4Zm6.1,.6v0c.9,0,1.5,.8,1.4,1.6c-.1,.9,-.8,1.5,-1.7,1.4c-.8,-.1,-1.4,-.8,-1.3,-1.6c0,-.9,.8,-1.5,1.6,-1.4Zm6.1,.5v0c.8,.1,1.5,.8,1.4,1.7c-.1,.8,-.8,1.4,-1.7,1.3c-.8,0,-1.4,-.8,-1.4,-1.6c.1,-.8,.9,-1.5,1.7,-1.4Zm6.1,.5v0c.8,.1,1.5,.9,1.4,1.7c-.1,.8,-.8,1.5,-1.7,1.4c-.8,-.1,-1.4,-.8,-1.4,-1.7c.1,-.8,.9,-1.4,1.7,-1.4Zm6.1,.6v0c.8,.1,1.4,.8,1.4,1.6c-.1,.9,-.8,1.5,-1.7,1.4c-.8,0,-1.4,-.8,-1.4,-1.6c.1,-.9,.8,-1.5,1.7,-1.4Zm6.1,.5v0c.8,.1,1.4,.8,1.4,1.7c-.1,.8,-.9,1.4,-1.7,1.4c-.8,-.1,-1.5,-.9,-1.4,-1.7c.1,-.8,.8,-1.5,1.7,-1.4Zm6.1,.6v0c.8,0,1.4,.8,1.4,1.6c-.1,.9,-.9,1.5,-1.7,1.4c-.8,-.1,-1.5,-.8,-1.4,-1.7c.1,-.8,.8,-1.4,1.7,-1.3Zm6.1,.5v0c.8,.1,1.4,.8,1.3,1.7c0,.8,-.8,1.4,-1.6,1.3c-.9,0,-1.5,-.8,-1.4,-1.6c.1,-.9,.8,-1.5,1.7,-1.4Zm6,.5v0c.9,.1,1.5,.9,1.4,1.7c0,.8,-.8,1.5,-1.6,1.4c-.9,-.1,-1.5,-.8,-1.4,-1.7c.1,-.8,.8,-1.4,1.6,-1.4Zm6.1,.6v0c.9,0,1.5,.8,1.4,1.6c0,.9,-.8,1.5,-1.6,1.4c-.9,-.1,-1.5,-.8,-1.4,-1.6c.1,-.9,.8,-1.5,1.6,-1.4Z" class="g5_1" />
<text x="651" y="398" dx="0,0.2,-0.5,-0.2,-0.7" class="s1_1">Bare:</text>
<text x="604" y="415" dx="0,-0.1,0,-0.7,1.5,0.4,0.7,-0.4,0.7,0.7,0.7,0.7,0.2,0,-0.7,0,0.7,-0.4,0.7,0.7,-0.9" class="s1_1">y = -1.1113x + 6.2826</text>
<text x="714" y="290" dx="0,-0.4,0.4,0,-0.7,-0.2,-0.5,0.3,0,-0.1,-0.1,-0.7" class="s1_1">Interactive:</text>
<text x="697" y="307" dx="0,-0.1,0,-0.7,1.5,0.4,0.7,-0.4,0.7,0.2,0,-0.7,0,0.7,-0.4,0.7,0.7" class="s1_1">y = -0.2x + 6.283</text>
<text x="412" y="432" dx="0,0.7,-0.4,-0.9" class="s1_1">6.18</text>
<text x="419" y="394" dx="0,0.7,-0.4" class="s1_1">6.2</text>
<text x="412" y="357" dx="0,0.7,-0.4,-0.9" class="s1_1">6.22</text>
<text x="412" y="320" dx="0,0.7,-0.4,-0.9" class="s1_1">6.24</text>
<text x="412" y="282" dx="0,0.7,-0.4,-0.9" class="s1_1">6.26</text>
<text x="412" y="245" dx="0,0.7,-0.4,-0.9" class="s1_1">6.28</text>
<text x="419" y="207" dx="0,0.7,-0.4" class="s1_1">6.3</text>
<text x="412" y="171" dx="0,0.7,-0.4,-0.9" class="s1_1">6.32</text>
<text x="412" y="132" dx="0,0.7,-0.4,-0.9" class="s1_1">6.34</text>
<text x="412" y="96" dx="0,0.7,-0.4,-0.9" class="s1_1">6.36</text>
<text x="412" y="58" dx="0,0.7,-0.4,-0.9" class="s1_1">6.38</text>
<text x="419" y="21" dx="0,0.7,-0.4" class="s1_1">6.4</text>
<text x="17" y="450" dx="0,0.4,-0.9,1.1" class="s1_1">-0.1</text>
<text x="98" y="450" dx="0,0.4,-0.9,0,-2.3,-0.9" class="s1_1">-0. 08</text>
<text x="182" y="450" dx="0,0.4,-0.9,0,-2.3,-0.9" class="s1_1">-0. 06</text>
<text x="266" y="450" dx="0,0.4,-0.9,0,-2.3,-0.9" class="s1_1">-0. 04</text>
<text x="350" y="450" dx="0,0.4,-0.9,0,-2.3,-0.9" class="s1_1">-0. 02</text>
<text x="445" y="450" class="s1_1">0</text>
<text x="521" y="450" dx="0,0.7,-0.4,-0.9" class="s1_1">0.02</text>
<text x="605" y="450" dx="0,0.7,-0.4,-0.9" class="s1_1">0.04</text>
<text x="689" y="450" dx="0,0.7,-0.4,-0.9" class="s1_1">0.06</text>
<text x="773" y="450" dx="0,0.7,-0.4,-0.9" class="s1_1">0.08</text>
<text x="861" y="450" dx="0,0.7,-0.4" class="s1_1">0.1</text>
<path d="M.8,.8H896V463.7H.8Z" class="g1_1" />

</g>

<!-- Any embedded fonts defined here -->
<style type="text/css" ><![CDATA[

@font-face {
	font-family: Calibri_9;
	src: url("fonts/Calibri_9.woff") format("woff");
}

]]></style>

</svg>
