<?xml version="1.0" encoding="UTF-8" standalone="no"?>
<svg
   xmlns:dc="http://purl.org/dc/elements/1.1/"
   xmlns:cc="http://creativecommons.org/ns#"
   xmlns:rdf="http://www.w3.org/1999/02/22-rdf-syntax-ns#"
   xmlns:svg="http://www.w3.org/2000/svg"
   xmlns="http://www.w3.org/2000/svg"
   viewBox="0 0 772.30798 524.21735"
   height="524.21735"
   width="772.30798"
   xml:space="preserve"
   id="svg2"
   version="1.1"><metadata
     id="metadata8"><rdf:RDF><cc:Work
         rdf:about=""><dc:format>image/svg+xml</dc:format><dc:type
           rdf:resource="http://purl.org/dc/dcmitype/StillImage" /></cc:Work></rdf:RDF></metadata><defs
     id="defs6"><clipPath
       id="clipPath20"
       clipPathUnits="userSpaceOnUse"><path
         id="path18"
         d="M 0,0 H 595 V 842 H 0 Z" /></clipPath><clipPath
       id="clipPath30"
       clipPathUnits="userSpaceOnUse"><path
         id="path28"
         d="m 0,212.75 h 595 v 416.5 H 0 Z" /></clipPath></defs><g
     transform="matrix(1.3333333,0,0,-1.3333333,0,524.21733)"
     id="g10"><g
       transform="translate(-2.102,-233.334)"
       id="g12"><g
         id="g14"><g
           clip-path="url(#clipPath20)"
           id="g16"><g
             id="g22" /><g
             id="g24"><g
               clip-path="url(#clipPath30)"
               id="g26"><g
                 transform="matrix(1.652778,0,0,1.652778,0,212.75)"
                 id="g32"><path
                   id="path34"
                   style="fill:none;stroke:#000000;stroke-width:0.25;stroke-linecap:butt;stroke-linejoin:miter;stroke-miterlimit:3.79999995;stroke-dasharray:none;stroke-opacity:1"
                   d="m 87.6,50.4 h 3.15 m 247.6,0 h -3.15" /></g><g
                 transform="matrix(1.652778,0,0,1.652778,0,212.75)"
                 id="g36"><text
                   id="text40"
                   style="font-variant:normal;font-weight:normal;font-size:12px;font-family:Times;-inkscape-font-specification:Times-Roman;writing-mode:lr-tb;fill:#000000;fill-opacity:1;fill-rule:nonzero;stroke:none"
                   transform="matrix(1,0,0,-1,34.6324,46.4)"><tspan
                     id="tspan38"
                     y="0"
                     x="0">−</tspan></text>
</g><g
                 transform="matrix(1.652778,0,0,1.652778,0,212.75)"
                 id="g42"><text
                   id="text46"
                   style="font-variant:normal;font-weight:normal;font-size:12px;font-family:Times;-inkscape-font-specification:Times-Roman;writing-mode:lr-tb;fill:#000000;fill-opacity:1;fill-rule:nonzero;stroke:none"
                   transform="matrix(1,0,0,-1,41.4004,46.4)"><tspan
                     id="tspan44"
                     y="0"
                     x="0 6 12 15 21 27 33">36.9175</tspan></text>
</g><g
                 transform="matrix(1.652778,0,0,1.652778,0,212.75)"
                 id="g48"><path
                   id="path50"
                   style="fill:none;stroke:#000000;stroke-width:0.25;stroke-linecap:butt;stroke-linejoin:miter;stroke-miterlimit:3.79999995;stroke-dasharray:none;stroke-opacity:1"
                   d="m 87.6,82 h 3.15 m 247.6,0 h -3.15" /></g><g
                 transform="matrix(1.652778,0,0,1.652778,0,212.75)"
                 id="g52"><text
                   id="text56"
                   style="font-variant:normal;font-weight:normal;font-size:12px;font-family:Times;-inkscape-font-specification:Times-Roman;writing-mode:lr-tb;fill:#000000;fill-opacity:1;fill-rule:nonzero;stroke:none"
                   transform="matrix(1,0,0,-1,40.6324,78)"><tspan
                     id="tspan54"
                     y="0"
                     x="0">−</tspan></text>
</g><g
                 transform="matrix(1.652778,0,0,1.652778,0,212.75)"
                 id="g58"><text
                   id="text62"
                   style="font-variant:normal;font-weight:normal;font-size:12px;font-family:Times;-inkscape-font-specification:Times-Roman;writing-mode:lr-tb;fill:#000000;fill-opacity:1;fill-rule:nonzero;stroke:none"
                   transform="matrix(1,0,0,-1,47.4004,78)"><tspan
                     id="tspan60"
                     y="0"
                     x="0 6 12 15 21 27">36.917</tspan></text>
</g><g
                 transform="matrix(1.652778,0,0,1.652778,0,212.75)"
                 id="g64"><path
                   id="path66"
                   style="fill:none;stroke:#000000;stroke-width:0.25;stroke-linecap:butt;stroke-linejoin:miter;stroke-miterlimit:3.79999995;stroke-dasharray:none;stroke-opacity:1"
                   d="m 87.6,113.6 h 3.15 m 247.6,0 h -3.15" /></g><g
                 transform="matrix(1.652778,0,0,1.652778,0,212.75)"
                 id="g68"><text
                   id="text72"
                   style="font-variant:normal;font-weight:normal;font-size:12px;font-family:Times;-inkscape-font-specification:Times-Roman;writing-mode:lr-tb;fill:#000000;fill-opacity:1;fill-rule:nonzero;stroke:none"
                   transform="matrix(1,0,0,-1,34.6324,109.6)"><tspan
                     id="tspan70"
                     y="0"
                     x="0">−</tspan></text>
</g><g
                 transform="matrix(1.652778,0,0,1.652778,0,212.75)"
                 id="g74"><text
                   id="text78"
                   style="font-variant:normal;font-weight:normal;font-size:12px;font-family:Times;-inkscape-font-specification:Times-Roman;writing-mode:lr-tb;fill:#000000;fill-opacity:1;fill-rule:nonzero;stroke:none"
                   transform="matrix(1,0,0,-1,41.4004,109.6)"><tspan
                     id="tspan76"
                     y="0"
                     x="0 6 12 15 21 27 33">36.9165</tspan></text>
</g><g
                 transform="matrix(1.652778,0,0,1.652778,0,212.75)"
                 id="g80"><path
                   id="path82"
                   style="fill:none;stroke:#000000;stroke-width:0.25;stroke-linecap:butt;stroke-linejoin:miter;stroke-miterlimit:3.79999995;stroke-dasharray:none;stroke-opacity:1"
                   d="m 87.6,145.2 h 3.15 m 247.6,0 h -3.15" /></g><g
                 transform="matrix(1.652778,0,0,1.652778,0,212.75)"
                 id="g84"><text
                   id="text88"
                   style="font-variant:normal;font-weight:normal;font-size:12px;font-family:Times;-inkscape-font-specification:Times-Roman;writing-mode:lr-tb;fill:#000000;fill-opacity:1;fill-rule:nonzero;stroke:none"
                   transform="matrix(1,0,0,-1,40.6324,141.2)"><tspan
                     id="tspan86"
                     y="0"
                     x="0">−</tspan></text>
</g><g
                 transform="matrix(1.652778,0,0,1.652778,0,212.75)"
                 id="g90"><text
                   id="text94"
                   style="font-variant:normal;font-weight:normal;font-size:12px;font-family:Times;-inkscape-font-specification:Times-Roman;writing-mode:lr-tb;fill:#000000;fill-opacity:1;fill-rule:nonzero;stroke:none"
                   transform="matrix(1,0,0,-1,47.4004,141.2)"><tspan
                     id="tspan92"
                     y="0"
                     x="0 6 12 15 21 27">36.916</tspan></text>
</g><g
                 transform="matrix(1.652778,0,0,1.652778,0,212.75)"
                 id="g96"><path
                   id="path98"
                   style="fill:none;stroke:#000000;stroke-width:0.25;stroke-linecap:butt;stroke-linejoin:miter;stroke-miterlimit:3.79999995;stroke-dasharray:none;stroke-opacity:1"
                   d="m 87.6,176.75 h 3.15 m 247.6,0 h -3.15" /></g><g
                 transform="matrix(1.652778,0,0,1.652778,0,212.75)"
                 id="g100"><text
                   id="text104"
                   style="font-variant:normal;font-weight:normal;font-size:12px;font-family:Times;-inkscape-font-specification:Times-Roman;writing-mode:lr-tb;fill:#000000;fill-opacity:1;fill-rule:nonzero;stroke:none"
                   transform="matrix(1,0,0,-1,34.6324,172.75)"><tspan
                     id="tspan102"
                     y="0"
                     x="0">−</tspan></text>
</g><g
                 transform="matrix(1.652778,0,0,1.652778,0,212.75)"
                 id="g106"><text
                   id="text110"
                   style="font-variant:normal;font-weight:normal;font-size:12px;font-family:Times;-inkscape-font-specification:Times-Roman;writing-mode:lr-tb;fill:#000000;fill-opacity:1;fill-rule:nonzero;stroke:none"
                   transform="matrix(1,0,0,-1,41.4004,172.75)"><tspan
                     id="tspan108"
                     y="0"
                     x="0 6 12 15 21 27 33">36.9155</tspan></text>
</g><g
                 transform="matrix(1.652778,0,0,1.652778,0,212.75)"
                 id="g112"><path
                   id="path114"
                   style="fill:none;stroke:#000000;stroke-width:0.25;stroke-linecap:butt;stroke-linejoin:miter;stroke-miterlimit:3.79999995;stroke-dasharray:none;stroke-opacity:1"
                   d="m 87.6,208.35 h 3.15 m 247.6,0 h -3.15" /></g><g
                 transform="matrix(1.652778,0,0,1.652778,0,212.75)"
                 id="g116"><text
                   id="text120"
                   style="font-variant:normal;font-weight:normal;font-size:12px;font-family:Times;-inkscape-font-specification:Times-Roman;writing-mode:lr-tb;fill:#000000;fill-opacity:1;fill-rule:nonzero;stroke:none"
                   transform="matrix(1,0,0,-1,40.6324,204.35)"><tspan
                     id="tspan118"
                     y="0"
                     x="0">−</tspan></text>
</g><g
                 transform="matrix(1.652778,0,0,1.652778,0,212.75)"
                 id="g122"><text
                   id="text126"
                   style="font-variant:normal;font-weight:normal;font-size:12px;font-family:Times;-inkscape-font-specification:Times-Roman;writing-mode:lr-tb;fill:#000000;fill-opacity:1;fill-rule:nonzero;stroke:none"
                   transform="matrix(1,0,0,-1,47.4004,204.35)"><tspan
                     id="tspan124"
                     y="0"
                     x="0 6 12 15 21 27">36.915</tspan></text>
</g><g
                 transform="matrix(1.652778,0,0,1.652778,0,212.75)"
                 id="g128"><path
                   id="path130"
                   style="fill:none;stroke:#000000;stroke-width:0.25;stroke-linecap:butt;stroke-linejoin:miter;stroke-miterlimit:3.79999995;stroke-dasharray:none;stroke-opacity:1"
                   d="m 87.6,239.95 h 3.15 m 247.6,0 h -3.15" /></g><g
                 transform="matrix(1.652778,0,0,1.652778,0,212.75)"
                 id="g132"><text
                   id="text136"
                   style="font-variant:normal;font-weight:normal;font-size:12px;font-family:Times;-inkscape-font-specification:Times-Roman;writing-mode:lr-tb;fill:#000000;fill-opacity:1;fill-rule:nonzero;stroke:none"
                   transform="matrix(1,0,0,-1,34.6324,235.95)"><tspan
                     id="tspan134"
                     y="0"
                     x="0">−</tspan></text>
</g><g
                 transform="matrix(1.652778,0,0,1.652778,0,212.75)"
                 id="g138"><text
                   id="text142"
                   style="font-variant:normal;font-weight:normal;font-size:12px;font-family:Times;-inkscape-font-specification:Times-Roman;writing-mode:lr-tb;fill:#000000;fill-opacity:1;fill-rule:nonzero;stroke:none"
                   transform="matrix(1,0,0,-1,41.4004,235.95)"><tspan
                     id="tspan140"
                     y="0"
                     x="0 6 12 15 21 27 33">36.9145</tspan></text>
</g><g
                 transform="matrix(1.652778,0,0,1.652778,0,212.75)"
                 id="g144"><path
                   id="path146"
                   style="fill:none;stroke:#000000;stroke-width:0.25;stroke-linecap:butt;stroke-linejoin:miter;stroke-miterlimit:3.79999995;stroke-dasharray:none;stroke-opacity:1"
                   d="m 87.6,50.4 v 3.15 m 0,186.4 v -3.15" /></g><g
                 transform="matrix(1.652778,0,0,1.652778,0,212.75)"
                 id="g148"><text
                   id="text152"
                   style="font-variant:normal;font-weight:normal;font-size:12px;font-family:Times;-inkscape-font-specification:Times-Roman;writing-mode:lr-tb;fill:#000000;fill-opacity:1;fill-rule:nonzero;stroke:none"
                   transform="matrix(1,0,0,-1,76.7162,34.4)"><tspan
                     id="tspan150"
                     y="0"
                     x="0">−</tspan></text>
</g><g
                 transform="matrix(1.652778,0,0,1.652778,0,212.75)"
                 id="g154"><text
                   id="text158"
                   style="font-variant:normal;font-weight:normal;font-size:12px;font-family:Times;-inkscape-font-specification:Times-Roman;writing-mode:lr-tb;fill:#000000;fill-opacity:1;fill-rule:nonzero;stroke:none"
                   transform="matrix(1,0,0,-1,83.4842,34.4)"><tspan
                     id="tspan156"
                     y="0"
                     x="0 6 9">0.2</tspan></text>
</g><g
                 transform="matrix(1.652778,0,0,1.652778,0,212.75)"
                 id="g160"><path
                   id="path162"
                   style="fill:none;stroke:#000000;stroke-width:0.25;stroke-linecap:butt;stroke-linejoin:miter;stroke-miterlimit:3.79999995;stroke-dasharray:none;stroke-opacity:1"
                   d="m 118.95,50.4 v 3.15 m 0,186.4 v -3.15" /></g><g
                 transform="matrix(1.652778,0,0,1.652778,0,212.75)"
                 id="g164"><text
                   id="text168"
                   style="font-variant:normal;font-weight:normal;font-size:12px;font-family:Times;-inkscape-font-specification:Times-Roman;writing-mode:lr-tb;fill:#000000;fill-opacity:1;fill-rule:nonzero;stroke:none"
                   transform="matrix(1,0,0,-1,105.0662,34.4)"><tspan
                     id="tspan166"
                     y="0"
                     x="0">−</tspan></text>
</g><g
                 transform="matrix(1.652778,0,0,1.652778,0,212.75)"
                 id="g170"><text
                   id="text174"
                   style="font-variant:normal;font-weight:normal;font-size:12px;font-family:Times;-inkscape-font-specification:Times-Roman;writing-mode:lr-tb;fill:#000000;fill-opacity:1;fill-rule:nonzero;stroke:none"
                   transform="matrix(1,0,0,-1,111.8342,34.4)"><tspan
                     id="tspan172"
                     y="0"
                     x="0 6 9 15">0.15</tspan></text>
</g><g
                 transform="matrix(1.652778,0,0,1.652778,0,212.75)"
                 id="g176"><path
                   id="path178"
                   style="fill:none;stroke:#000000;stroke-width:0.25;stroke-linecap:butt;stroke-linejoin:miter;stroke-miterlimit:3.79999995;stroke-dasharray:none;stroke-opacity:1"
                   d="m 150.3,50.4 v 3.15 m 0,186.4 v -3.15" /></g><g
                 transform="matrix(1.652778,0,0,1.652778,0,212.75)"
                 id="g180"><text
                   id="text184"
                   style="font-variant:normal;font-weight:normal;font-size:12px;font-family:Times;-inkscape-font-specification:Times-Roman;writing-mode:lr-tb;fill:#000000;fill-opacity:1;fill-rule:nonzero;stroke:none"
                   transform="matrix(1,0,0,-1,139.4162,34.4)"><tspan
                     id="tspan182"
                     y="0"
                     x="0">−</tspan></text>
</g><g
                 transform="matrix(1.652778,0,0,1.652778,0,212.75)"
                 id="g186"><text
                   id="text190"
                   style="font-variant:normal;font-weight:normal;font-size:12px;font-family:Times;-inkscape-font-specification:Times-Roman;writing-mode:lr-tb;fill:#000000;fill-opacity:1;fill-rule:nonzero;stroke:none"
                   transform="matrix(1,0,0,-1,146.1842,34.4)"><tspan
                     id="tspan188"
                     y="0"
                     x="0 6 9">0.1</tspan></text>
</g><g
                 transform="matrix(1.652778,0,0,1.652778,0,212.75)"
                 id="g192"><path
                   id="path194"
                   style="fill:none;stroke:#000000;stroke-width:0.25;stroke-linecap:butt;stroke-linejoin:miter;stroke-miterlimit:3.79999995;stroke-dasharray:none;stroke-opacity:1"
                   d="m 181.65,50.4 v 3.15 m 0,186.4 v -3.15" /></g><g
                 transform="matrix(1.652778,0,0,1.652778,0,212.75)"
                 id="g196"><text
                   id="text200"
                   style="font-variant:normal;font-weight:normal;font-size:12px;font-family:Times;-inkscape-font-specification:Times-Roman;writing-mode:lr-tb;fill:#000000;fill-opacity:1;fill-rule:nonzero;stroke:none"
                   transform="matrix(1,0,0,-1,167.7662,34.4)"><tspan
                     id="tspan198"
                     y="0"
                     x="0">−</tspan></text>
</g><g
                 transform="matrix(1.652778,0,0,1.652778,0,212.75)"
                 id="g202"><text
                   id="text206"
                   style="font-variant:normal;font-weight:normal;font-size:12px;font-family:Times;-inkscape-font-specification:Times-Roman;writing-mode:lr-tb;fill:#000000;fill-opacity:1;fill-rule:nonzero;stroke:none"
                   transform="matrix(1,0,0,-1,174.5342,34.4)"><tspan
                     id="tspan204"
                     y="0"
                     x="0 6 9 15">0.05</tspan></text>
</g><g
                 transform="matrix(1.652778,0,0,1.652778,0,212.75)"
                 id="g208"><path
                   id="path210"
                   style="fill:none;stroke:#000000;stroke-width:0.25;stroke-linecap:butt;stroke-linejoin:miter;stroke-miterlimit:3.79999995;stroke-dasharray:none;stroke-opacity:1"
                   d="m 213,50.4 v 3.15 m 0,186.4 v -3.15" /></g><g
                 transform="matrix(1.652778,0,0,1.652778,0,212.75)"
                 id="g212"><text
                   id="text216"
                   style="font-variant:normal;font-weight:normal;font-size:12px;font-family:Times;-inkscape-font-specification:Times-Roman;writing-mode:lr-tb;fill:#000000;fill-opacity:1;fill-rule:nonzero;stroke:none"
                   transform="matrix(1,0,0,-1,211.5,34.4)"><tspan
                     id="tspan214"
                     y="0"
                     x="0">0</tspan></text>
</g><g
                 transform="matrix(1.652778,0,0,1.652778,0,212.75)"
                 id="g218"><path
                   id="path220"
                   style="fill:none;stroke:#000000;stroke-width:0.25;stroke-linecap:butt;stroke-linejoin:miter;stroke-miterlimit:3.79999995;stroke-dasharray:none;stroke-opacity:1"
                   d="m 244.3,50.4 v 3.15 m 0,186.4 v -3.15" /></g><g
                 transform="matrix(1.652778,0,0,1.652778,0,212.75)"
                 id="g222"><text
                   id="text226"
                   style="font-variant:normal;font-weight:normal;font-size:12px;font-family:Times;-inkscape-font-specification:Times-Roman;writing-mode:lr-tb;fill:#000000;fill-opacity:1;fill-rule:nonzero;stroke:none"
                   transform="matrix(1,0,0,-1,235.3,34.4)"><tspan
                     id="tspan224"
                     y="0"
                     x="0 6 9 15">0.05</tspan></text>
</g><g
                 transform="matrix(1.652778,0,0,1.652778,0,212.75)"
                 id="g228"><path
                   id="path230"
                   style="fill:none;stroke:#000000;stroke-width:0.25;stroke-linecap:butt;stroke-linejoin:miter;stroke-miterlimit:3.79999995;stroke-dasharray:none;stroke-opacity:1"
                   d="m 275.65,50.4 v 3.15 m 0,186.4 v -3.15" /></g><g
                 transform="matrix(1.652778,0,0,1.652778,0,212.75)"
                 id="g232"><text
                   id="text236"
                   style="font-variant:normal;font-weight:normal;font-size:12px;font-family:Times;-inkscape-font-specification:Times-Roman;writing-mode:lr-tb;fill:#000000;fill-opacity:1;fill-rule:nonzero;stroke:none"
                   transform="matrix(1,0,0,-1,269.65,34.4)"><tspan
                     id="tspan234"
                     y="0"
                     x="0 6 9">0.1</tspan></text>
</g><g
                 transform="matrix(1.652778,0,0,1.652778,0,212.75)"
                 id="g238"><path
                   id="path240"
                   style="fill:none;stroke:#000000;stroke-width:0.25;stroke-linecap:butt;stroke-linejoin:miter;stroke-miterlimit:3.79999995;stroke-dasharray:none;stroke-opacity:1"
                   d="m 307,50.4 v 3.15 m 0,186.4 v -3.15" /></g><g
                 transform="matrix(1.652778,0,0,1.652778,0,212.75)"
                 id="g242"><text
                   id="text246"
                   style="font-variant:normal;font-weight:normal;font-size:12px;font-family:Times;-inkscape-font-specification:Times-Roman;writing-mode:lr-tb;fill:#000000;fill-opacity:1;fill-rule:nonzero;stroke:none"
                   transform="matrix(1,0,0,-1,298,34.4)"><tspan
                     id="tspan244"
                     y="0"
                     x="0 6 9 15">0.15</tspan></text>
</g><g
                 transform="matrix(1.652778,0,0,1.652778,0,212.75)"
                 id="g248"><path
                   id="path250"
                   style="fill:none;stroke:#000000;stroke-width:0.25;stroke-linecap:butt;stroke-linejoin:miter;stroke-miterlimit:3.79999995;stroke-dasharray:none;stroke-opacity:1"
                   d="m 338.35,50.4 v 3.15 m 0,186.4 v -3.15" /></g><g
                 transform="matrix(1.652778,0,0,1.652778,0,212.75)"
                 id="g252"><text
                   id="text256"
                   style="font-variant:normal;font-weight:normal;font-size:12px;font-family:Times;-inkscape-font-specification:Times-Roman;writing-mode:lr-tb;fill:#000000;fill-opacity:1;fill-rule:nonzero;stroke:none"
                   transform="matrix(1,0,0,-1,332.35,34.4)"><tspan
                     id="tspan254"
                     y="0"
                     x="0 6 9">0.2</tspan></text>
</g><g
                 transform="matrix(1.652778,0,0,1.652778,0,212.75)"
                 id="g258" /><g
                 transform="matrix(1.652778,0,0,1.652778,0,212.75)"
                 id="g260"><path
                   id="path262"
                   style="fill:none;stroke:#000000;stroke-width:0.5;stroke-linecap:butt;stroke-linejoin:miter;stroke-miterlimit:3.79999995;stroke-dasharray:none;stroke-opacity:1"
                   d="M 87.6,50.4 H 338.35 V 239.95 H 87.6 Z" /></g><g
                 transform="matrix(1.652778,0,0,1.652778,0,212.75)"
                 id="g264" /><g
                 transform="matrix(1.652778,0,0,1.652778,0,212.75)"
                 id="g266"><text
                   id="text270"
                   style="font-variant:normal;font-weight:normal;font-size:12px;font-family:Times;-inkscape-font-specification:Times-Roman;writing-mode:lr-tb;fill:#000000;fill-opacity:1;fill-rule:nonzero;stroke:none"
                   transform="matrix(0,1,1,0,14.8,101.1695)"><tspan
                     id="tspan268"
                     y="0"
                     x="0 7.3319998 13.332 16.667999 21.996 25.332001 28.332001 35.664001 41.664001 46.992001 50.987999 56.987999 62.987999 65.987999 69.984001 75.311996 83.975998">Total Energy (eV)</tspan></text>
</g><g
                 transform="matrix(1.652778,0,0,1.652778,0,212.75)"
                 id="g272" /><g
                 transform="matrix(1.652778,0,0,1.652778,0,212.75)"
                 id="g274"><text
                   id="text278"
                   style="font-variant:normal;font-weight:normal;font-size:12px;font-family:Times;-inkscape-font-specification:Times-Roman;writing-mode:lr-tb;fill:#000000;fill-opacity:1;fill-rule:nonzero;stroke:none"
                   transform="matrix(1,0,0,-1,162.8277,17.6)"><tspan
                     id="tspan276"
                     y="0"
                     x="0">E</tspan></text>
</g><g
                 transform="matrix(1.652778,0,0,1.652778,0,212.75)"
                 id="g280"><text
                   id="text284"
                   style="font-variant:normal;font-weight:normal;font-size:9.60000038px;font-family:Times;-inkscape-font-specification:Times-Roman;writing-mode:lr-tb;fill:#000000;fill-opacity:1;fill-rule:nonzero;stroke:none"
                   transform="matrix(1,0,0,-1,170.1578,14)"><tspan
                     id="tspan282"
                     y="0"
                     x="0 3.1968 5.8656001 10.128 12.7968">field</tspan></text>
</g><g
                 transform="matrix(1.652778,0,0,1.652778,0,212.75)"
                 id="g286"><text
                   id="text290"
                   style="font-variant:normal;font-weight:normal;font-size:12px;font-family:Times;-inkscape-font-specification:Times-Roman;writing-mode:lr-tb;fill:#000000;fill-opacity:1;fill-rule:nonzero;stroke:none"
                   transform="matrix(1,0,0,-1,190.75,17.6)"><tspan
                     id="tspan288"
                     y="0"
                     x="0 6.6719999 10.008 14.004 19.332001 25.332001 31.332001 34.667999 40.667999 43.667999 47.664001 56.327999 59.664001 68.328003">Strength (V/Å)</tspan></text>
</g><g
                 transform="matrix(1.652778,0,0,1.652778,0,212.75)"
                 id="g292" /><g
                 transform="matrix(1.652778,0,0,1.652778,0,212.75)"
                 id="g294"><path
                   id="path296"
                   style="fill:none;stroke:#9400d4;stroke-width:0.25;stroke-linecap:butt;stroke-linejoin:miter;stroke-miterlimit:3.79999995;stroke-dasharray:none;stroke-opacity:1"
                   d="m 87.6,74.6 31.35,66.7 31.35,47.7 31.35,28.55 31.35,9.55 31.3,-9.55 L 275.65,189 307,141.3 338.35,74.6 M 87.6,73.025 v 3.15 M 86.025,74.6 h 3.15 m 29.775,65.125 v 3.15 m -1.575,-1.575 h 3.15 m 29.775,46.125 v 3.15 M 148.725,189 h 3.15 m 29.775,26.975 v 3.15 m -1.575,-1.575 h 3.15 M 213,225.525 v 3.15 m -1.575,-1.575 h 3.15 M 244.3,215.975 v 3.15 m -1.575,-1.575 h 3.15 m 29.775,-30.125 v 3.15 M 274.075,189 h 3.15 M 307,139.725 v 3.15 m -1.575,-1.575 h 3.15 M 338.35,73.025 v 3.15 M 336.775,74.6 h 3.15" /></g><g
                 transform="matrix(1.652778,0,0,1.652778,0,212.75)"
                 id="g298"><path
                   id="path300"
                   style="fill:none;stroke:#000000;stroke-width:0.5;stroke-linecap:butt;stroke-linejoin:miter;stroke-miterlimit:3.79999995;stroke-dasharray:none;stroke-opacity:1"
                   d="M 87.6,50.4 H 338.35 V 239.95 H 87.6 Z" /></g></g></g></g></g></g></g></svg>