<?xml version="1.0" encoding="utf-8" standalone="no"?>
<!DOCTYPE svg PUBLIC "-//W3C//DTD SVG 1.1//EN"
  "http://www.w3.org/Graphics/SVG/1.1/DTD/svg11.dtd">
<svg height="288pt" version="1.1" viewBox="0 0 432 288" width="432pt" xmlns="http://www.w3.org/2000/svg" xmlns:xlink="http://www.w3.org/1999/xlink">
 <metadata>
  <rdf:RDF xmlns:cc="http://creativecommons.org/ns#" xmlns:dc="http://purl.org/dc/elements/1.1/" xmlns:rdf="http://www.w3.org/1999/02/22-rdf-syntax-ns#">
   <cc:Work>
    <dc:type rdf:resource="http://purl.org/dc/dcmitype/StillImage"/>
    <dc:date>2021-08-22T23:26:27.347170</dc:date>
    <dc:format>image/svg+xml</dc:format>
    <dc:creator>
     <cc:Agent>
      <dc:title>Matplotlib v3.4.2, https://matplotlib.org/</dc:title>
     </cc:Agent>
    </dc:creator>
   </cc:Work>
  </rdf:RDF>
 </metadata>
 <defs>
  <style type="text/css">*{stroke-linecap:butt;stroke-linejoin:round;}</style>
 </defs>
 <g id="figure_1">
  <g id="patch_1">
   <path d="M 0 288 
L 432 288 
L 432 0 
L 0 0 
z
" style="fill:none;"/>
  </g>
  <g id="axes_1">
   <g id="patch_2">
    <path d="M 54 252 
L 388.8 252 
L 388.8 34.56 
L 54 34.56 
z
" style="fill:#ffffff;"/>
   </g>
   <g id="matplotlib.axis_1">
    <g id="xtick_1">
     <g id="line2d_1">
      <defs>
       <path d="M 0 0 
L 0 3.5 
" id="me251b3b6d9" style="stroke:#000000;stroke-width:0.8;"/>
      </defs>
      <g>
       <use style="stroke:#000000;stroke-width:0.8;" x="69.218182" xlink:href="#me251b3b6d9" y="252"/>
      </g>
     </g>
     <g id="text_1">
      <!-- 0 -->
      <g transform="translate(66.036932 266.598437)scale(0.1 -0.1)">
       <defs>
        <path d="M 2034 4250 
Q 1547 4250 1301 3770 
Q 1056 3291 1056 2328 
Q 1056 1369 1301 889 
Q 1547 409 2034 409 
Q 2525 409 2770 889 
Q 3016 1369 3016 2328 
Q 3016 3291 2770 3770 
Q 2525 4250 2034 4250 
z
M 2034 4750 
Q 2819 4750 3233 4129 
Q 3647 3509 3647 2328 
Q 3647 1150 3233 529 
Q 2819 -91 2034 -91 
Q 1250 -91 836 529 
Q 422 1150 422 2328 
Q 422 3509 836 4129 
Q 1250 4750 2034 4750 
z
" id="DejaVuSans-30" transform="scale(0.015625)"/>
       </defs>
       <use xlink:href="#DejaVuSans-30"/>
      </g>
     </g>
    </g>
    <g id="xtick_2">
     <g id="line2d_2">
      <g>
       <use style="stroke:#000000;stroke-width:0.8;" x="117.659159" xlink:href="#me251b3b6d9" y="252"/>
      </g>
     </g>
     <g id="text_2">
      <!-- 2 -->
      <g transform="translate(114.477909 266.598437)scale(0.1 -0.1)">
       <defs>
        <path d="M 1228 531 
L 3431 531 
L 3431 0 
L 469 0 
L 469 531 
Q 828 903 1448 1529 
Q 2069 2156 2228 2338 
Q 2531 2678 2651 2914 
Q 2772 3150 2772 3378 
Q 2772 3750 2511 3984 
Q 2250 4219 1831 4219 
Q 1534 4219 1204 4116 
Q 875 4013 500 3803 
L 500 4441 
Q 881 4594 1212 4672 
Q 1544 4750 1819 4750 
Q 2544 4750 2975 4387 
Q 3406 4025 3406 3419 
Q 3406 3131 3298 2873 
Q 3191 2616 2906 2266 
Q 2828 2175 2409 1742 
Q 1991 1309 1228 531 
z
" id="DejaVuSans-32" transform="scale(0.015625)"/>
       </defs>
       <use xlink:href="#DejaVuSans-32"/>
      </g>
     </g>
    </g>
    <g id="xtick_3">
     <g id="line2d_3">
      <g>
       <use style="stroke:#000000;stroke-width:0.8;" x="166.100136" xlink:href="#me251b3b6d9" y="252"/>
      </g>
     </g>
     <g id="text_3">
      <!-- 4 -->
      <g transform="translate(162.918886 266.598437)scale(0.1 -0.1)">
       <defs>
        <path d="M 2419 4116 
L 825 1625 
L 2419 1625 
L 2419 4116 
z
M 2253 4666 
L 3047 4666 
L 3047 1625 
L 3713 1625 
L 3713 1100 
L 3047 1100 
L 3047 0 
L 2419 0 
L 2419 1100 
L 313 1100 
L 313 1709 
L 2253 4666 
z
" id="DejaVuSans-34" transform="scale(0.015625)"/>
       </defs>
       <use xlink:href="#DejaVuSans-34"/>
      </g>
     </g>
    </g>
    <g id="xtick_4">
     <g id="line2d_4">
      <g>
       <use style="stroke:#000000;stroke-width:0.8;" x="214.541113" xlink:href="#me251b3b6d9" y="252"/>
      </g>
     </g>
     <g id="text_4">
      <!-- 6 -->
      <g transform="translate(211.359863 266.598437)scale(0.1 -0.1)">
       <defs>
        <path d="M 2113 2584 
Q 1688 2584 1439 2293 
Q 1191 2003 1191 1497 
Q 1191 994 1439 701 
Q 1688 409 2113 409 
Q 2538 409 2786 701 
Q 3034 994 3034 1497 
Q 3034 2003 2786 2293 
Q 2538 2584 2113 2584 
z
M 3366 4563 
L 3366 3988 
Q 3128 4100 2886 4159 
Q 2644 4219 2406 4219 
Q 1781 4219 1451 3797 
Q 1122 3375 1075 2522 
Q 1259 2794 1537 2939 
Q 1816 3084 2150 3084 
Q 2853 3084 3261 2657 
Q 3669 2231 3669 1497 
Q 3669 778 3244 343 
Q 2819 -91 2113 -91 
Q 1303 -91 875 529 
Q 447 1150 447 2328 
Q 447 3434 972 4092 
Q 1497 4750 2381 4750 
Q 2619 4750 2861 4703 
Q 3103 4656 3366 4563 
z
" id="DejaVuSans-36" transform="scale(0.015625)"/>
       </defs>
       <use xlink:href="#DejaVuSans-36"/>
      </g>
     </g>
    </g>
    <g id="xtick_5">
     <g id="line2d_5">
      <g>
       <use style="stroke:#000000;stroke-width:0.8;" x="262.982091" xlink:href="#me251b3b6d9" y="252"/>
      </g>
     </g>
     <g id="text_5">
      <!-- 8 -->
      <g transform="translate(259.800841 266.598437)scale(0.1 -0.1)">
       <defs>
        <path d="M 2034 2216 
Q 1584 2216 1326 1975 
Q 1069 1734 1069 1313 
Q 1069 891 1326 650 
Q 1584 409 2034 409 
Q 2484 409 2743 651 
Q 3003 894 3003 1313 
Q 3003 1734 2745 1975 
Q 2488 2216 2034 2216 
z
M 1403 2484 
Q 997 2584 770 2862 
Q 544 3141 544 3541 
Q 544 4100 942 4425 
Q 1341 4750 2034 4750 
Q 2731 4750 3128 4425 
Q 3525 4100 3525 3541 
Q 3525 3141 3298 2862 
Q 3072 2584 2669 2484 
Q 3125 2378 3379 2068 
Q 3634 1759 3634 1313 
Q 3634 634 3220 271 
Q 2806 -91 2034 -91 
Q 1263 -91 848 271 
Q 434 634 434 1313 
Q 434 1759 690 2068 
Q 947 2378 1403 2484 
z
M 1172 3481 
Q 1172 3119 1398 2916 
Q 1625 2713 2034 2713 
Q 2441 2713 2670 2916 
Q 2900 3119 2900 3481 
Q 2900 3844 2670 4047 
Q 2441 4250 2034 4250 
Q 1625 4250 1398 4047 
Q 1172 3844 1172 3481 
z
" id="DejaVuSans-38" transform="scale(0.015625)"/>
       </defs>
       <use xlink:href="#DejaVuSans-38"/>
      </g>
     </g>
    </g>
    <g id="xtick_6">
     <g id="line2d_6">
      <g>
       <use style="stroke:#000000;stroke-width:0.8;" x="311.423068" xlink:href="#me251b3b6d9" y="252"/>
      </g>
     </g>
     <g id="text_6">
      <!-- 10 -->
      <g transform="translate(305.060568 266.598437)scale(0.1 -0.1)">
       <defs>
        <path d="M 794 531 
L 1825 531 
L 1825 4091 
L 703 3866 
L 703 4441 
L 1819 4666 
L 2450 4666 
L 2450 531 
L 3481 531 
L 3481 0 
L 794 0 
L 794 531 
z
" id="DejaVuSans-31" transform="scale(0.015625)"/>
       </defs>
       <use xlink:href="#DejaVuSans-31"/>
       <use x="63.623047" xlink:href="#DejaVuSans-30"/>
      </g>
     </g>
    </g>
    <g id="xtick_7">
     <g id="line2d_7">
      <g>
       <use style="stroke:#000000;stroke-width:0.8;" x="359.864045" xlink:href="#me251b3b6d9" y="252"/>
      </g>
     </g>
     <g id="text_7">
      <!-- 12 -->
      <g transform="translate(353.501545 266.598437)scale(0.1 -0.1)">
       <use xlink:href="#DejaVuSans-31"/>
       <use x="63.623047" xlink:href="#DejaVuSans-32"/>
      </g>
     </g>
    </g>
   </g>
   <g id="matplotlib.axis_2">
    <g id="ytick_1">
     <g id="line2d_8">
      <defs>
       <path d="M 0 0 
L -3.5 0 
" id="m63b1d57a6c" style="stroke:#000000;stroke-width:0.8;"/>
      </defs>
      <g>
       <use style="stroke:#000000;stroke-width:0.8;" x="54" xlink:href="#m63b1d57a6c" y="242.147158"/>
      </g>
     </g>
     <g id="text_8">
      <!-- −1.00 -->
      <g transform="translate(16.354687 245.946377)scale(0.1 -0.1)">
       <defs>
        <path d="M 678 2272 
L 4684 2272 
L 4684 1741 
L 678 1741 
L 678 2272 
z
" id="DejaVuSans-2212" transform="scale(0.015625)"/>
        <path d="M 684 794 
L 1344 794 
L 1344 0 
L 684 0 
L 684 794 
z
" id="DejaVuSans-2e" transform="scale(0.015625)"/>
       </defs>
       <use xlink:href="#DejaVuSans-2212"/>
       <use x="83.789062" xlink:href="#DejaVuSans-31"/>
       <use x="147.412109" xlink:href="#DejaVuSans-2e"/>
       <use x="179.199219" xlink:href="#DejaVuSans-30"/>
       <use x="242.822266" xlink:href="#DejaVuSans-30"/>
      </g>
     </g>
    </g>
    <g id="ytick_2">
     <g id="line2d_9">
      <g>
       <use style="stroke:#000000;stroke-width:0.8;" x="54" xlink:href="#m63b1d57a6c" y="217.433448"/>
      </g>
     </g>
     <g id="text_9">
      <!-- −0.75 -->
      <g transform="translate(16.354687 221.232667)scale(0.1 -0.1)">
       <defs>
        <path d="M 525 4666 
L 3525 4666 
L 3525 4397 
L 1831 0 
L 1172 0 
L 2766 4134 
L 525 4134 
L 525 4666 
z
" id="DejaVuSans-37" transform="scale(0.015625)"/>
        <path d="M 691 4666 
L 3169 4666 
L 3169 4134 
L 1269 4134 
L 1269 2991 
Q 1406 3038 1543 3061 
Q 1681 3084 1819 3084 
Q 2600 3084 3056 2656 
Q 3513 2228 3513 1497 
Q 3513 744 3044 326 
Q 2575 -91 1722 -91 
Q 1428 -91 1123 -41 
Q 819 9 494 109 
L 494 744 
Q 775 591 1075 516 
Q 1375 441 1709 441 
Q 2250 441 2565 725 
Q 2881 1009 2881 1497 
Q 2881 1984 2565 2268 
Q 2250 2553 1709 2553 
Q 1456 2553 1204 2497 
Q 953 2441 691 2322 
L 691 4666 
z
" id="DejaVuSans-35" transform="scale(0.015625)"/>
       </defs>
       <use xlink:href="#DejaVuSans-2212"/>
       <use x="83.789062" xlink:href="#DejaVuSans-30"/>
       <use x="147.412109" xlink:href="#DejaVuSans-2e"/>
       <use x="179.199219" xlink:href="#DejaVuSans-37"/>
       <use x="242.822266" xlink:href="#DejaVuSans-35"/>
      </g>
     </g>
    </g>
    <g id="ytick_3">
     <g id="line2d_10">
      <g>
       <use style="stroke:#000000;stroke-width:0.8;" x="54" xlink:href="#m63b1d57a6c" y="192.719738"/>
      </g>
     </g>
     <g id="text_10">
      <!-- −0.50 -->
      <g transform="translate(16.354687 196.518957)scale(0.1 -0.1)">
       <use xlink:href="#DejaVuSans-2212"/>
       <use x="83.789062" xlink:href="#DejaVuSans-30"/>
       <use x="147.412109" xlink:href="#DejaVuSans-2e"/>
       <use x="179.199219" xlink:href="#DejaVuSans-35"/>
       <use x="242.822266" xlink:href="#DejaVuSans-30"/>
      </g>
     </g>
    </g>
    <g id="ytick_4">
     <g id="line2d_11">
      <g>
       <use style="stroke:#000000;stroke-width:0.8;" x="54" xlink:href="#m63b1d57a6c" y="168.006028"/>
      </g>
     </g>
     <g id="text_11">
      <!-- −0.25 -->
      <g transform="translate(16.354687 171.805246)scale(0.1 -0.1)">
       <use xlink:href="#DejaVuSans-2212"/>
       <use x="83.789062" xlink:href="#DejaVuSans-30"/>
       <use x="147.412109" xlink:href="#DejaVuSans-2e"/>
       <use x="179.199219" xlink:href="#DejaVuSans-32"/>
       <use x="242.822266" xlink:href="#DejaVuSans-35"/>
      </g>
     </g>
    </g>
    <g id="ytick_5">
     <g id="line2d_12">
      <g>
       <use style="stroke:#000000;stroke-width:0.8;" x="54" xlink:href="#m63b1d57a6c" y="143.292318"/>
      </g>
     </g>
     <g id="text_12">
      <!-- 0.00 -->
      <g transform="translate(24.734375 147.091536)scale(0.1 -0.1)">
       <use xlink:href="#DejaVuSans-30"/>
       <use x="63.623047" xlink:href="#DejaVuSans-2e"/>
       <use x="95.410156" xlink:href="#DejaVuSans-30"/>
       <use x="159.033203" xlink:href="#DejaVuSans-30"/>
      </g>
     </g>
    </g>
    <g id="ytick_6">
     <g id="line2d_13">
      <g>
       <use style="stroke:#000000;stroke-width:0.8;" x="54" xlink:href="#m63b1d57a6c" y="118.578607"/>
      </g>
     </g>
     <g id="text_13">
      <!-- 0.25 -->
      <g transform="translate(24.734375 122.377826)scale(0.1 -0.1)">
       <use xlink:href="#DejaVuSans-30"/>
       <use x="63.623047" xlink:href="#DejaVuSans-2e"/>
       <use x="95.410156" xlink:href="#DejaVuSans-32"/>
       <use x="159.033203" xlink:href="#DejaVuSans-35"/>
      </g>
     </g>
    </g>
    <g id="ytick_7">
     <g id="line2d_14">
      <g>
       <use style="stroke:#000000;stroke-width:0.8;" x="54" xlink:href="#m63b1d57a6c" y="93.864897"/>
      </g>
     </g>
     <g id="text_14">
      <!-- 0.50 -->
      <g transform="translate(24.734375 97.664116)scale(0.1 -0.1)">
       <use xlink:href="#DejaVuSans-30"/>
       <use x="63.623047" xlink:href="#DejaVuSans-2e"/>
       <use x="95.410156" xlink:href="#DejaVuSans-35"/>
       <use x="159.033203" xlink:href="#DejaVuSans-30"/>
      </g>
     </g>
    </g>
    <g id="ytick_8">
     <g id="line2d_15">
      <g>
       <use style="stroke:#000000;stroke-width:0.8;" x="54" xlink:href="#m63b1d57a6c" y="69.151187"/>
      </g>
     </g>
     <g id="text_15">
      <!-- 0.75 -->
      <g transform="translate(24.734375 72.950406)scale(0.1 -0.1)">
       <use xlink:href="#DejaVuSans-30"/>
       <use x="63.623047" xlink:href="#DejaVuSans-2e"/>
       <use x="95.410156" xlink:href="#DejaVuSans-37"/>
       <use x="159.033203" xlink:href="#DejaVuSans-35"/>
      </g>
     </g>
    </g>
    <g id="ytick_9">
     <g id="line2d_16">
      <g>
       <use style="stroke:#000000;stroke-width:0.8;" x="54" xlink:href="#m63b1d57a6c" y="44.437477"/>
      </g>
     </g>
     <g id="text_16">
      <!-- 1.00 -->
      <g transform="translate(24.734375 48.236696)scale(0.1 -0.1)">
       <use xlink:href="#DejaVuSans-31"/>
       <use x="63.623047" xlink:href="#DejaVuSans-2e"/>
       <use x="95.410156" xlink:href="#DejaVuSans-30"/>
       <use x="159.033203" xlink:href="#DejaVuSans-30"/>
      </g>
     </g>
    </g>
   </g>
   <g id="line2d_17">
    <path clip-path="url(#p0f6d22817b)" d="M 69.218182 143.292318 
L 70.747647 142.898646 
L 72.277113 141.723902 
L 73.806578 139.786798 
L 75.336044 137.118191 
L 76.865509 133.760591 
L 78.394975 129.76748 
L 79.92444 125.202467 
L 81.453906 120.13827 
L 84.512837 108.841662 
L 89.101233 90.356475 
L 92.160164 78.146408 
L 95.219095 66.933889 
L 96.748561 61.927829 
L 98.278026 57.430503 
L 99.807492 53.513552 
L 101.336958 50.239368 
L 102.866423 47.660108 
L 104.395889 45.816856 
L 105.925354 44.738976 
L 107.45482 44.443636 
L 108.984285 44.935542 
L 110.513751 46.206857 
L 112.043216 48.237331 
L 113.572682 50.994619 
L 115.102147 54.434799 
L 116.631613 58.503073 
L 118.161078 63.134636 
L 119.690544 68.255709 
L 122.749475 79.633591 
L 131.926268 116.060795 
L 133.455733 121.44683 
L 134.985199 126.393505 
L 136.514664 130.822022 
L 138.04413 134.661839 
L 139.573595 137.85179 
L 141.103061 140.341061 
L 142.632526 142.090001 
L 144.161992 143.070748 
L 145.691457 143.267682 
L 147.220923 142.677665 
L 148.750388 141.310096 
L 150.279854 139.186759 
L 151.809319 136.341477 
L 153.338785 132.819573 
L 154.86825 128.67715 
L 156.397716 123.980192 
L 157.927181 118.803519 
L 160.986112 107.347199 
L 170.162905 70.97459 
L 171.692371 65.638914 
L 173.221836 60.752857 
L 174.751302 56.394252 
L 176.280767 52.632527 
L 177.810233 49.527604 
L 179.339698 47.128942 
L 180.869164 45.474751 
L 182.39863 44.59138 
L 183.928095 44.492901 
L 185.457561 45.180882 
L 186.987026 46.644364 
L 188.516492 48.860036 
L 190.045957 51.792603 
L 191.575423 55.395352 
L 193.104888 59.610893 
L 194.634354 64.372075 
L 197.693285 75.220513 
L 200.752216 87.252187 
L 206.870078 111.784325 
L 209.929009 122.727897 
L 211.458474 127.552117 
L 212.98794 131.839725 
L 214.517405 135.522421 
L 216.046871 138.541542 
L 217.576336 140.848996 
L 219.105802 142.408027 
L 220.635267 143.193801 
L 222.164733 143.193801 
L 223.694198 142.408027 
L 225.223664 140.848996 
L 226.753129 138.541542 
L 228.282595 135.522421 
L 229.81206 131.839725 
L 231.341526 127.552117 
L 232.870991 122.727897 
L 235.929922 111.784325 
L 238.988853 99.703525 
L 245.106715 75.220513 
L 248.165646 64.372075 
L 249.695112 59.610893 
L 251.224577 55.395352 
L 252.754043 51.792603 
L 254.283508 48.860036 
L 255.812974 46.644364 
L 257.342439 45.180882 
L 258.871905 44.492901 
L 260.40137 44.59138 
L 261.930836 45.474751 
L 263.460302 47.128942 
L 264.989767 49.527604 
L 266.519233 52.632527 
L 268.048698 56.394252 
L 269.578164 60.752857 
L 271.107629 65.638914 
L 274.16656 76.674893 
L 278.754957 95.035246 
L 283.343353 113.229592 
L 286.402284 123.980192 
L 287.93175 128.67715 
L 289.461215 132.819573 
L 290.990681 136.341477 
L 292.520146 139.186759 
L 294.049612 141.310096 
L 295.579077 142.677665 
L 297.108543 143.267682 
L 298.638008 143.070748 
L 300.167474 142.090001 
L 301.696939 140.341061 
L 303.226405 137.85179 
L 304.75587 134.661839 
L 306.285336 130.822022 
L 307.814801 126.393505 
L 309.344267 121.44683 
L 312.403198 110.321195 
L 316.991594 91.91464 
L 320.050525 79.633591 
L 323.109456 68.255709 
L 324.638922 63.134636 
L 326.168387 58.503073 
L 327.697853 54.434799 
L 329.227318 50.994619 
L 330.756784 48.237331 
L 332.286249 46.206857 
L 333.815715 44.935542 
L 335.34518 44.443636 
L 336.874646 44.738976 
L 338.404111 45.816856 
L 339.933577 47.660108 
L 341.463042 50.239368 
L 342.992508 53.513552 
L 344.521974 57.430503 
L 346.051439 61.927829 
L 347.580905 66.933889 
L 350.639836 78.146408 
L 355.228232 96.594578 
L 358.287163 108.841662 
L 361.346094 120.13827 
L 362.87556 125.202467 
L 364.405025 129.76748 
L 365.934491 133.760591 
L 367.463956 137.118191 
L 368.993422 139.786798 
L 370.522887 141.723902 
L 372.052353 142.898646 
L 373.581818 143.292318 
L 373.581818 143.292318 
" style="fill:none;stroke:#1f77b4;stroke-linecap:square;stroke-width:1.5;"/>
   </g>
   <g id="line2d_18">
    <path clip-path="url(#p0f6d22817b)" d="M 69.218182 143.292318 
L 70.747647 139.299207 
L 72.277113 134.734194 
L 73.806578 129.669997 
L 76.865509 118.373389 
L 81.453906 99.888202 
L 84.512837 87.678134 
L 87.571768 76.465616 
L 89.101233 71.459556 
L 90.630699 66.96223 
L 92.160164 63.045278 
L 93.68963 59.771095 
L 95.219095 57.191834 
L 96.748561 55.348583 
L 98.278026 54.270703 
L 99.807492 53.975363 
L 101.336958 54.467269 
L 102.866423 55.738584 
L 104.395889 57.769058 
L 105.925354 60.526345 
L 107.45482 63.966526 
L 108.984285 68.0348 
L 110.513751 72.666363 
L 112.043216 77.787436 
L 115.102147 89.165318 
L 124.27894 125.592522 
L 125.808406 130.978557 
L 127.337871 135.925232 
L 128.867337 140.353749 
L 130.396802 144.193566 
L 131.926268 147.383517 
L 133.455733 149.872788 
L 134.985199 151.621727 
L 136.514664 152.602475 
L 138.04413 152.799409 
L 139.573595 152.209392 
L 141.103061 150.841823 
L 142.632526 148.718486 
L 144.161992 145.873204 
L 145.691457 142.3513 
L 147.220923 138.208877 
L 148.750388 133.511919 
L 150.279854 128.335246 
L 153.338785 116.878926 
L 162.515578 80.506317 
L 164.045043 75.170641 
L 165.574509 70.284584 
L 167.103974 65.925979 
L 168.63344 62.164254 
L 170.162905 59.059331 
L 171.692371 56.660669 
L 173.221836 55.006478 
L 174.751302 54.123107 
L 176.280767 54.024627 
L 177.810233 54.712609 
L 179.339698 56.176091 
L 180.869164 58.391763 
L 182.39863 61.32433 
L 183.928095 64.927079 
L 185.457561 69.14262 
L 186.987026 73.903802 
L 190.045957 84.75224 
L 193.104888 96.783914 
L 199.22275 121.316052 
L 202.281681 132.259624 
L 203.811147 137.083844 
L 205.340612 141.371452 
L 206.870078 145.054147 
L 208.399543 148.073269 
L 209.929009 150.380723 
L 211.458474 151.939754 
L 212.98794 152.725528 
L 214.517405 152.725528 
L 216.046871 151.939754 
L 217.576336 150.380723 
L 219.105802 148.073269 
L 220.635267 145.054147 
L 222.164733 141.371452 
L 223.694198 137.083844 
L 225.223664 132.259624 
L 228.282595 121.316052 
L 231.341526 109.235252 
L 237.459388 84.75224 
L 240.518319 73.903802 
L 242.047784 69.14262 
L 243.57725 64.927079 
L 245.106715 61.32433 
L 246.636181 58.391763 
L 248.165646 56.176091 
L 249.695112 54.712609 
L 251.224577 54.024627 
L 252.754043 54.123107 
L 254.283508 55.006478 
L 255.812974 56.660669 
L 257.342439 59.059331 
L 258.871905 62.164254 
L 260.40137 65.925979 
L 261.930836 70.284584 
L 263.460302 75.170641 
L 266.519233 86.20662 
L 271.107629 104.566973 
L 275.696026 122.761319 
L 278.754957 133.511919 
L 280.284422 138.208877 
L 281.813888 142.3513 
L 283.343353 145.873204 
L 284.872819 148.718486 
L 286.402284 150.841823 
L 287.93175 152.209392 
L 289.461215 152.799409 
L 290.990681 152.602475 
L 292.520146 151.621727 
L 294.049612 149.872788 
L 295.579077 147.383517 
L 297.108543 144.193566 
L 298.638008 140.353749 
L 300.167474 135.925232 
L 301.696939 130.978557 
L 304.75587 119.852922 
L 309.344267 101.446367 
L 312.403198 89.165318 
L 315.462129 77.787436 
L 316.991594 72.666363 
L 318.52106 68.0348 
L 320.050525 63.966526 
L 321.579991 60.526345 
L 323.109456 57.769058 
L 324.638922 55.738584 
L 326.168387 54.467269 
L 327.697853 53.975363 
L 329.227318 54.270703 
L 330.756784 55.348583 
L 332.286249 57.191834 
L 333.815715 59.771095 
L 335.34518 63.045278 
L 336.874646 66.96223 
L 338.404111 71.459556 
L 339.933577 76.465616 
L 342.992508 87.678134 
L 347.580905 106.126304 
L 350.639836 118.373389 
L 353.698767 129.669997 
L 355.228232 134.734194 
L 356.757698 139.299207 
L 358.287163 143.292318 
L 359.816629 143.292318 
L 361.346094 146.311439 
L 362.87556 148.618893 
L 364.405025 150.177924 
L 365.934491 150.963698 
L 367.463956 150.963698 
L 368.993422 150.177924 
L 370.522887 148.618893 
L 372.052353 146.311439 
L 373.581818 143.292318 
L 373.581818 143.292318 
" style="fill:none;stroke:#ff7f0e;stroke-linecap:square;stroke-width:1.5;"/>
   </g>
   <g id="line2d_19">
    <path clip-path="url(#p0f6d22817b)" d="M 69.218182 143.292318 
L 73.806578 124.807131 
L 76.865509 112.597063 
L 79.92444 101.384545 
L 81.453906 96.378485 
L 82.983371 91.881159 
L 84.512837 87.964207 
L 86.042302 84.690024 
L 87.571768 82.110763 
L 89.101233 80.267512 
L 90.630699 79.189632 
L 92.160164 78.894292 
L 93.68963 79.386198 
L 95.219095 80.657513 
L 96.748561 82.687986 
L 98.278026 85.445274 
L 99.807492 88.885455 
L 101.336958 92.953729 
L 102.866423 97.585292 
L 104.395889 102.706365 
L 107.45482 114.084247 
L 116.631613 150.511451 
L 118.161078 155.897486 
L 119.690544 160.844161 
L 121.220009 165.272678 
L 122.749475 169.112495 
L 124.27894 172.302446 
L 125.808406 174.791717 
L 127.337871 176.540656 
L 128.867337 177.521404 
L 130.396802 177.718338 
L 131.926268 177.128321 
L 133.455733 175.760752 
L 134.985199 173.637415 
L 136.514664 170.792133 
L 138.04413 167.270229 
L 139.573595 163.127806 
L 141.103061 158.430848 
L 142.632526 153.254175 
L 145.691457 141.797855 
L 154.86825 105.425246 
L 156.397716 100.08957 
L 157.927181 95.203513 
L 159.456647 90.844908 
L 160.986112 87.083183 
L 162.515578 83.97826 
L 164.045043 81.579598 
L 165.574509 79.925407 
L 167.103974 79.042036 
L 168.63344 78.943556 
L 170.162905 79.631538 
L 171.692371 81.09502 
L 173.221836 83.310692 
L 174.751302 86.243259 
L 176.280767 89.846008 
L 177.810233 94.061549 
L 179.339698 98.822731 
L 182.39863 109.671169 
L 185.457561 121.702843 
L 191.575423 146.234981 
L 194.634354 157.178553 
L 196.163819 162.002773 
L 197.693285 166.290381 
L 199.22275 169.973076 
L 200.752216 172.992198 
L 202.281681 175.299652 
L 203.811147 176.858683 
L 205.340612 177.644457 
L 206.870078 177.644457 
L 208.399543 176.858683 
L 209.929009 175.299652 
L 211.458474 172.992198 
L 212.98794 169.973076 
L 214.517405 166.290381 
L 216.046871 162.002773 
L 217.576336 157.178553 
L 220.635267 146.234981 
L 223.694198 134.154181 
L 229.81206 109.671169 
L 232.870991 98.822731 
L 234.400457 94.061549 
L 235.929922 89.846008 
L 237.459388 86.243259 
L 238.988853 83.310692 
L 240.518319 81.09502 
L 242.047784 79.631538 
L 243.57725 78.943556 
L 245.106715 79.042036 
L 246.636181 79.925407 
L 248.165646 81.579598 
L 249.695112 83.97826 
L 251.224577 87.083183 
L 252.754043 90.844908 
L 254.283508 95.203513 
L 255.812974 100.08957 
L 258.871905 111.125548 
L 263.460302 129.485902 
L 268.048698 147.680248 
L 271.107629 158.430848 
L 272.637095 163.127806 
L 274.16656 167.270229 
L 275.696026 170.792133 
L 277.225491 173.637415 
L 278.754957 175.760752 
L 280.284422 177.128321 
L 281.813888 177.718338 
L 283.343353 177.521404 
L 284.872819 176.540656 
L 286.402284 174.791717 
L 287.93175 172.302446 
L 289.461215 169.112495 
L 290.990681 165.272678 
L 292.520146 160.844161 
L 294.049612 155.897486 
L 297.108543 144.771851 
L 301.696939 126.365296 
L 304.75587 114.084247 
L 307.814801 102.706365 
L 309.344267 97.585292 
L 310.873732 92.953729 
L 312.403198 88.885455 
L 313.932663 85.445274 
L 315.462129 82.687986 
L 316.991594 80.657513 
L 318.52106 79.386198 
L 320.050525 78.894292 
L 321.579991 79.189632 
L 323.109456 80.267512 
L 324.638922 82.110763 
L 326.168387 84.690024 
L 327.697853 87.964207 
L 329.227318 91.881159 
L 330.756784 96.378485 
L 332.286249 101.384545 
L 335.34518 112.597063 
L 339.933577 131.045233 
L 342.992508 143.292318 
L 344.521974 143.292318 
L 347.580905 154.235889 
L 349.11037 159.06011 
L 350.639836 163.347718 
L 352.169301 167.030413 
L 353.698767 170.049535 
L 355.228232 172.356989 
L 356.757698 173.91602 
L 358.287163 174.701794 
L 359.816629 174.701794 
L 361.346094 173.91602 
L 362.87556 172.356989 
L 364.405025 170.049535 
L 365.934491 167.030413 
L 367.463956 163.347718 
L 368.993422 159.06011 
L 370.522887 154.235889 
L 373.581818 143.292318 
L 373.581818 143.292318 
" style="fill:none;stroke:#2ca02c;stroke-linecap:square;stroke-width:1.5;"/>
   </g>
   <g id="line2d_20">
    <path clip-path="url(#p0f6d22817b)" d="M 69.218182 143.292318 
L 72.277113 132.079799 
L 73.806578 127.073739 
L 75.336044 122.576413 
L 76.865509 118.659462 
L 78.394975 115.385278 
L 79.92444 112.806018 
L 81.453906 110.962766 
L 82.983371 109.884886 
L 84.512837 109.589546 
L 86.042302 110.081452 
L 87.571768 111.352767 
L 89.101233 113.383241 
L 90.630699 116.140529 
L 92.160164 119.580709 
L 93.68963 123.648983 
L 95.219095 128.280546 
L 96.748561 133.401619 
L 99.807492 144.779501 
L 108.984285 181.206705 
L 110.513751 186.59274 
L 112.043216 191.539415 
L 113.572682 195.967932 
L 115.102147 199.807749 
L 116.631613 202.9977 
L 118.161078 205.486971 
L 119.690544 207.235911 
L 121.220009 208.216658 
L 122.749475 208.413592 
L 124.27894 207.823576 
L 125.808406 206.456006 
L 127.337871 204.332669 
L 128.867337 201.487387 
L 130.396802 197.965483 
L 131.926268 193.82306 
L 133.455733 189.126102 
L 134.985199 183.949429 
L 138.04413 172.493109 
L 147.220923 136.1205 
L 148.750388 130.784824 
L 150.279854 125.898767 
L 151.809319 121.540162 
L 153.338785 117.778437 
L 154.86825 114.673514 
L 156.397716 112.274852 
L 157.927181 110.620661 
L 159.456647 109.73729 
L 160.986112 109.638811 
L 162.515578 110.326792 
L 164.045043 111.790274 
L 165.574509 114.005946 
L 167.103974 116.938513 
L 168.63344 120.541262 
L 170.162905 124.756803 
L 171.692371 129.517985 
L 174.751302 140.366423 
L 177.810233 152.398097 
L 183.928095 176.930235 
L 186.987026 187.873807 
L 188.516492 192.698027 
L 190.045957 196.985635 
L 191.575423 200.668331 
L 193.104888 203.687452 
L 194.634354 205.994906 
L 196.163819 207.553937 
L 197.693285 208.339712 
L 199.22275 208.339712 
L 200.752216 207.553937 
L 202.281681 205.994906 
L 203.811147 203.687452 
L 205.340612 200.668331 
L 206.870078 196.985635 
L 208.399543 192.698027 
L 209.929009 187.873807 
L 212.98794 176.930235 
L 216.046871 164.849435 
L 222.164733 140.366423 
L 225.223664 129.517985 
L 226.753129 124.756803 
L 228.282595 120.541262 
L 229.81206 116.938513 
L 231.341526 114.005946 
L 232.870991 111.790274 
L 234.400457 110.326792 
L 235.929922 109.638811 
L 237.459388 109.73729 
L 238.988853 110.620661 
L 240.518319 112.274852 
L 242.047784 114.673514 
L 243.57725 117.778437 
L 245.106715 121.540162 
L 246.636181 125.898767 
L 248.165646 130.784824 
L 251.224577 141.820803 
L 255.812974 160.181156 
L 260.40137 178.375502 
L 263.460302 189.126102 
L 264.989767 193.82306 
L 266.519233 197.965483 
L 268.048698 201.487387 
L 269.578164 204.332669 
L 271.107629 206.456006 
L 272.637095 207.823576 
L 274.16656 208.413592 
L 275.696026 208.216658 
L 277.225491 207.235911 
L 278.754957 205.486971 
L 280.284422 202.9977 
L 281.813888 199.807749 
L 283.343353 195.967932 
L 284.872819 191.539415 
L 286.402284 186.59274 
L 289.461215 175.467105 
L 294.049612 157.06055 
L 297.108543 144.779501 
L 300.167474 133.401619 
L 301.696939 128.280546 
L 303.226405 123.648983 
L 304.75587 119.580709 
L 306.285336 116.140529 
L 307.814801 113.383241 
L 309.344267 111.352767 
L 310.873732 110.081452 
L 312.403198 109.589546 
L 313.932663 109.884886 
L 315.462129 110.962766 
L 316.991594 112.806018 
L 318.52106 115.385278 
L 320.050525 118.659462 
L 321.579991 122.576413 
L 323.109456 127.073739 
L 324.638922 132.079799 
L 327.697853 143.292318 
L 329.227318 143.292318 
L 338.404111 179.601266 
L 339.933577 184.885254 
L 341.463042 189.709475 
L 342.992508 193.997082 
L 344.521974 197.679778 
L 346.051439 200.698899 
L 347.580905 203.006353 
L 349.11037 204.565384 
L 350.639836 205.351159 
L 352.169301 205.351159 
L 353.698767 204.565384 
L 355.228232 203.006353 
L 356.757698 200.698899 
L 358.287163 197.679778 
L 359.816629 193.997082 
L 361.346094 189.709475 
L 362.87556 184.885254 
L 365.934491 173.941682 
L 368.993422 161.860882 
L 373.581818 143.292318 
L 373.581818 143.292318 
" style="fill:none;stroke:#d62728;stroke-linecap:square;stroke-width:1.5;"/>
   </g>
   <g id="line2d_21">
    <path clip-path="url(#p0f6d22817b)" d="M 69.218182 143.292318 
L 70.747647 140.018134 
L 72.277113 137.438874 
L 73.806578 135.595622 
L 75.336044 134.517742 
L 76.865509 134.222402 
L 78.394975 134.714308 
L 79.92444 135.985623 
L 81.453906 138.016097 
L 82.983371 140.773385 
L 84.512837 144.213565 
L 86.042302 148.281839 
L 87.571768 152.913402 
L 89.101233 158.034475 
L 92.160164 169.412357 
L 101.336958 205.839561 
L 102.866423 211.225596 
L 104.395889 216.172271 
L 105.925354 220.600788 
L 107.45482 224.440605 
L 108.984285 227.630556 
L 110.513751 230.119827 
L 112.043216 231.868767 
L 113.572682 232.849514 
L 115.102147 233.046448 
L 116.631613 232.456431 
L 118.161078 231.088862 
L 119.690544 228.965525 
L 121.220009 226.120243 
L 122.749475 222.598339 
L 124.27894 218.455916 
L 125.808406 213.758958 
L 127.337871 208.582285 
L 130.396802 197.125965 
L 139.573595 160.753356 
L 141.103061 155.41768 
L 142.632526 150.531623 
L 144.161992 146.173018 
L 145.691457 142.411293 
L 147.220923 139.30637 
L 148.750388 136.907708 
L 150.279854 135.253517 
L 151.809319 134.370146 
L 153.338785 134.271667 
L 154.86825 134.959648 
L 156.397716 136.42313 
L 157.927181 138.638802 
L 159.456647 141.571369 
L 160.986112 145.174118 
L 162.515578 149.389659 
L 164.045043 154.150841 
L 167.103974 164.999279 
L 170.162905 177.030953 
L 176.280767 201.563091 
L 179.339698 212.506663 
L 180.869164 217.330883 
L 182.39863 221.618491 
L 183.928095 225.301187 
L 185.457561 228.320308 
L 186.987026 230.627762 
L 188.516492 232.186793 
L 190.045957 232.972568 
L 191.575423 232.972568 
L 193.104888 232.186793 
L 194.634354 230.627762 
L 196.163819 228.320308 
L 197.693285 225.301187 
L 199.22275 221.618491 
L 200.752216 217.330883 
L 202.281681 212.506663 
L 205.340612 201.563091 
L 208.399543 189.482291 
L 214.517405 164.999279 
L 217.576336 154.150841 
L 219.105802 149.389659 
L 220.635267 145.174118 
L 222.164733 141.571369 
L 223.694198 138.638802 
L 225.223664 136.42313 
L 226.753129 134.959648 
L 228.282595 134.271667 
L 229.81206 134.370146 
L 231.341526 135.253517 
L 232.870991 136.907708 
L 234.400457 139.30637 
L 235.929922 142.411293 
L 237.459388 146.173018 
L 238.988853 150.531623 
L 240.518319 155.41768 
L 243.57725 166.453659 
L 248.165646 184.814012 
L 252.754043 203.008358 
L 255.812974 213.758958 
L 257.342439 218.455916 
L 258.871905 222.598339 
L 260.40137 226.120243 
L 261.930836 228.965525 
L 263.460302 231.088862 
L 264.989767 232.456431 
L 266.519233 233.046448 
L 268.048698 232.849514 
L 269.578164 231.868767 
L 271.107629 230.119827 
L 272.637095 227.630556 
L 274.16656 224.440605 
L 275.696026 220.600788 
L 277.225491 216.172271 
L 278.754957 211.225596 
L 281.813888 200.099961 
L 286.402284 181.693406 
L 289.461215 169.412357 
L 292.520146 158.034475 
L 294.049612 152.913402 
L 295.579077 148.281839 
L 297.108543 144.213565 
L 298.638008 140.773385 
L 300.167474 138.016097 
L 301.696939 135.985623 
L 303.226405 134.714308 
L 304.75587 134.222402 
L 306.285336 134.517742 
L 307.814801 135.595622 
L 309.344267 137.438874 
L 310.873732 140.018134 
L 312.403198 143.292318 
L 313.932663 143.292318 
L 315.462129 147.507858 
L 316.991594 152.269041 
L 320.050525 163.117479 
L 323.109456 175.149152 
L 329.227318 199.68129 
L 332.286249 210.624862 
L 333.815715 215.449083 
L 335.34518 219.736691 
L 336.874646 223.419386 
L 338.404111 226.438507 
L 339.933577 228.745962 
L 341.463042 230.304993 
L 342.992508 231.090767 
L 344.521974 231.090767 
L 346.051439 230.304993 
L 347.580905 228.745962 
L 349.11037 226.438507 
L 350.639836 223.419386 
L 352.169301 219.736691 
L 353.698767 215.449083 
L 355.228232 210.624862 
L 358.287163 199.68129 
L 361.346094 187.600491 
L 367.463956 163.117479 
L 370.522887 152.269041 
L 372.052353 147.507858 
L 373.581818 143.292318 
L 373.581818 143.292318 
" style="fill:none;stroke:#9467bd;stroke-linecap:square;stroke-width:1.5;"/>
   </g>
   <g id="line2d_22">
    <path clip-path="url(#p0f6d22817b)" d="M 69.218182 143.292318 
L 70.747647 143.784223 
L 72.277113 145.055538 
L 73.806578 147.086012 
L 75.336044 149.8433 
L 76.865509 153.283481 
L 78.394975 157.351755 
L 79.92444 161.983317 
L 81.453906 167.10439 
L 84.512837 178.482272 
L 93.68963 214.909476 
L 95.219095 220.295512 
L 96.748561 225.242186 
L 98.278026 229.670704 
L 99.807492 233.510521 
L 101.336958 236.700471 
L 102.866423 239.189743 
L 104.395889 240.938682 
L 105.925354 241.91943 
L 107.45482 242.116364 
L 108.984285 241.526347 
L 110.513751 240.158777 
L 112.043216 238.03544 
L 113.572682 235.190158 
L 115.102147 231.668254 
L 116.631613 227.525831 
L 118.161078 222.828873 
L 119.690544 217.6522 
L 122.749475 206.19588 
L 131.926268 169.823271 
L 133.455733 164.487595 
L 134.985199 159.601539 
L 136.514664 155.242933 
L 138.04413 151.481208 
L 139.573595 148.376285 
L 141.103061 145.977623 
L 142.632526 144.323432 
L 144.161992 143.440061 
L 145.691457 143.341582 
L 147.220923 144.029563 
L 148.750388 145.493046 
L 150.279854 147.708718 
L 151.809319 150.641285 
L 153.338785 154.244033 
L 154.86825 158.459574 
L 156.397716 163.220757 
L 159.456647 174.069194 
L 162.515578 186.100868 
L 168.63344 210.633006 
L 171.692371 221.576578 
L 173.221836 226.400799 
L 174.751302 230.688406 
L 176.280767 234.371102 
L 177.810233 237.390223 
L 179.339698 239.697677 
L 180.869164 241.256709 
L 182.39863 242.042483 
L 183.928095 242.042483 
L 185.457561 241.256709 
L 186.987026 239.697677 
L 188.516492 237.390223 
L 190.045957 234.371102 
L 191.575423 230.688406 
L 193.104888 226.400799 
L 194.634354 221.576578 
L 197.693285 210.633006 
L 200.752216 198.552207 
L 206.870078 174.069194 
L 209.929009 163.220757 
L 211.458474 158.459574 
L 212.98794 154.244033 
L 214.517405 150.641285 
L 216.046871 147.708718 
L 217.576336 145.493046 
L 219.105802 144.029563 
L 220.635267 143.341582 
L 222.164733 143.440061 
L 223.694198 144.323432 
L 225.223664 145.977623 
L 226.753129 148.376285 
L 228.282595 151.481208 
L 229.81206 155.242933 
L 231.341526 159.601539 
L 232.870991 164.487595 
L 235.929922 175.523574 
L 240.518319 193.883928 
L 245.106715 212.078273 
L 248.165646 222.828873 
L 249.695112 227.525831 
L 251.224577 231.668254 
L 252.754043 235.190158 
L 254.283508 238.03544 
L 255.812974 240.158777 
L 257.342439 241.526347 
L 258.871905 242.116364 
L 260.40137 241.91943 
L 261.930836 240.938682 
L 263.460302 239.189743 
L 264.989767 236.700471 
L 266.519233 233.510521 
L 268.048698 229.670704 
L 269.578164 225.242186 
L 271.107629 220.295512 
L 274.16656 209.169877 
L 278.754957 190.763321 
L 281.813888 178.482272 
L 284.872819 167.10439 
L 286.402284 161.983317 
L 287.93175 157.351755 
L 289.461215 153.283481 
L 290.990681 149.8433 
L 292.520146 147.086012 
L 294.049612 145.055538 
L 295.579077 143.784223 
L 297.108543 143.292318 
L 298.638008 143.292318 
L 300.167474 143.980299 
L 301.696939 145.443782 
L 303.226405 147.659453 
L 304.75587 150.59202 
L 306.285336 154.194769 
L 307.814801 158.41031 
L 309.344267 163.171492 
L 312.403198 174.01993 
L 315.462129 186.051604 
L 321.579991 210.583742 
L 324.638922 221.527314 
L 326.168387 226.351534 
L 327.697853 230.639142 
L 329.227318 234.321838 
L 330.756784 237.340959 
L 332.286249 239.648413 
L 333.815715 241.207444 
L 335.34518 241.993219 
L 336.874646 241.993219 
L 338.404111 241.207444 
L 339.933577 239.648413 
L 341.463042 237.340959 
L 342.992508 234.321838 
L 344.521974 230.639142 
L 346.051439 226.351534 
L 347.580905 221.527314 
L 350.639836 210.583742 
L 353.698767 198.502942 
L 359.816629 174.01993 
L 362.87556 163.171492 
L 364.405025 158.41031 
L 365.934491 154.194769 
L 367.463956 150.59202 
L 368.993422 147.659453 
L 370.522887 145.443782 
L 372.052353 143.980299 
L 373.581818 143.292318 
L 373.581818 143.292318 
" style="fill:none;stroke:#8c564b;stroke-linecap:square;stroke-width:1.5;"/>
   </g>
   <g id="line2d_23">
    <path clip-path="url(#p0f6d22817b)" d="M 69.218182 143.292318 
L 70.747647 147.360592 
L 72.277113 151.992154 
L 73.806578 157.113227 
L 76.865509 168.491109 
L 86.042302 204.918313 
L 87.571768 210.304349 
L 89.101233 215.251023 
L 90.630699 219.679541 
L 92.160164 223.519357 
L 93.68963 226.709308 
L 95.219095 229.198579 
L 96.748561 230.947519 
L 98.278026 231.928267 
L 99.807492 232.125201 
L 101.336958 231.535184 
L 102.866423 230.167614 
L 104.395889 228.044277 
L 105.925354 225.198995 
L 107.45482 221.677091 
L 108.984285 217.534668 
L 110.513751 212.83771 
L 112.043216 207.661037 
L 115.102147 196.204717 
L 124.27894 159.832108 
L 125.808406 154.496432 
L 127.337871 149.610376 
L 128.867337 145.25177 
L 130.396802 141.490045 
L 131.926268 138.385122 
L 133.455733 135.98646 
L 134.985199 134.332269 
L 136.514664 133.448898 
L 138.04413 133.350419 
L 139.573595 134.0384 
L 141.103061 135.501883 
L 142.632526 137.717555 
L 144.161992 140.650122 
L 145.691457 144.25287 
L 147.220923 148.468411 
L 148.750388 153.229594 
L 151.809319 164.078031 
L 154.86825 176.109705 
L 160.986112 200.641843 
L 164.045043 211.585415 
L 165.574509 216.409636 
L 167.103974 220.697243 
L 168.63344 224.379939 
L 170.162905 227.39906 
L 171.692371 229.706514 
L 173.221836 231.265546 
L 174.751302 232.05132 
L 176.280767 232.05132 
L 177.810233 231.265546 
L 179.339698 229.706514 
L 180.869164 227.39906 
L 182.39863 224.379939 
L 183.928095 220.697243 
L 185.457561 216.409636 
L 186.987026 211.585415 
L 190.045957 200.641843 
L 193.104888 188.561044 
L 199.22275 164.078031 
L 202.281681 153.229594 
L 203.811147 148.468411 
L 205.340612 144.25287 
L 206.870078 140.650122 
L 208.399543 137.717555 
L 209.929009 135.501883 
L 211.458474 134.0384 
L 212.98794 133.350419 
L 214.517405 133.448898 
L 216.046871 134.332269 
L 217.576336 135.98646 
L 219.105802 138.385122 
L 220.635267 141.490045 
L 222.164733 145.25177 
L 223.694198 149.610376 
L 225.223664 154.496432 
L 228.282595 165.532411 
L 232.870991 183.892765 
L 237.459388 202.08711 
L 240.518319 212.83771 
L 242.047784 217.534668 
L 243.57725 221.677091 
L 245.106715 225.198995 
L 246.636181 228.044277 
L 248.165646 230.167614 
L 249.695112 231.535184 
L 251.224577 232.125201 
L 252.754043 231.928267 
L 254.283508 230.947519 
L 255.812974 229.198579 
L 257.342439 226.709308 
L 258.871905 223.519357 
L 260.40137 219.679541 
L 261.930836 215.251023 
L 263.460302 210.304349 
L 266.519233 199.178713 
L 271.107629 180.772158 
L 274.16656 168.491109 
L 277.225491 157.113227 
L 278.754957 151.992154 
L 280.284422 147.360592 
L 281.813888 143.292318 
L 283.343353 143.292318 
L 284.872819 140.187395 
L 286.402284 137.788733 
L 287.93175 136.134542 
L 289.461215 135.251171 
L 290.990681 135.152691 
L 292.520146 135.840673 
L 294.049612 137.304155 
L 295.579077 139.519827 
L 297.108543 142.452394 
L 298.638008 146.055143 
L 300.167474 150.270684 
L 301.696939 155.031866 
L 304.75587 165.880304 
L 307.814801 177.911977 
L 313.932663 202.444116 
L 316.991594 213.387687 
L 318.52106 218.211908 
L 320.050525 222.499516 
L 321.579991 226.182211 
L 323.109456 229.201333 
L 324.638922 231.508787 
L 326.168387 233.067818 
L 327.697853 233.853592 
L 329.227318 233.853592 
L 330.756784 233.067818 
L 332.286249 231.508787 
L 333.815715 229.201333 
L 335.34518 226.182211 
L 336.874646 222.499516 
L 338.404111 218.211908 
L 339.933577 213.387687 
L 342.992508 202.444116 
L 346.051439 190.363316 
L 352.169301 165.880304 
L 355.228232 155.031866 
L 356.757698 150.270684 
L 358.287163 146.055143 
L 359.816629 142.452394 
L 361.346094 139.519827 
L 362.87556 137.304155 
L 364.405025 135.840673 
L 365.934491 135.152691 
L 367.463956 135.251171 
L 368.993422 136.134542 
L 370.522887 137.788733 
L 372.052353 140.187395 
L 373.581818 143.292318 
L 373.581818 143.292318 
" style="fill:none;stroke:#e377c2;stroke-linecap:square;stroke-width:1.5;"/>
   </g>
   <g id="line2d_24">
    <path clip-path="url(#p0f6d22817b)" d="M 69.218182 143.292318 
L 78.394975 179.719522 
L 79.92444 185.105557 
L 81.453906 190.052232 
L 82.983371 194.480749 
L 84.512837 198.320566 
L 86.042302 201.510517 
L 87.571768 203.999788 
L 89.101233 205.748727 
L 90.630699 206.729475 
L 92.160164 206.926409 
L 93.68963 206.336392 
L 95.219095 204.968823 
L 96.748561 202.845485 
L 98.278026 200.000203 
L 99.807492 196.4783 
L 101.336958 192.335876 
L 102.866423 187.638918 
L 104.395889 182.462246 
L 107.45482 171.005926 
L 116.631613 134.633317 
L 118.161078 129.297641 
L 119.690544 124.411584 
L 121.220009 120.052978 
L 122.749475 116.291253 
L 124.27894 113.18633 
L 125.808406 110.787669 
L 127.337871 109.133477 
L 128.867337 108.250106 
L 130.396802 108.151627 
L 131.926268 108.839608 
L 133.455733 110.303091 
L 134.985199 112.518763 
L 136.514664 115.45133 
L 138.04413 119.054079 
L 139.573595 123.269619 
L 141.103061 128.030802 
L 144.161992 138.87924 
L 147.220923 150.910913 
L 153.338785 175.443051 
L 156.397716 186.386623 
L 157.927181 191.210844 
L 159.456647 195.498451 
L 160.986112 199.181147 
L 162.515578 202.200268 
L 164.045043 204.507723 
L 165.574509 206.066754 
L 167.103974 206.852528 
L 168.63344 206.852528 
L 170.162905 206.066754 
L 171.692371 204.507723 
L 173.221836 202.200268 
L 174.751302 199.181147 
L 176.280767 195.498451 
L 177.810233 191.210844 
L 179.339698 186.386623 
L 182.39863 175.443051 
L 185.457561 163.362252 
L 191.575423 138.87924 
L 194.634354 128.030802 
L 196.163819 123.269619 
L 197.693285 119.054079 
L 199.22275 115.45133 
L 200.752216 112.518763 
L 202.281681 110.303091 
L 203.811147 108.839608 
L 205.340612 108.151627 
L 206.870078 108.250106 
L 208.399543 109.133477 
L 209.929009 110.787669 
L 211.458474 113.18633 
L 212.98794 116.291253 
L 214.517405 120.052978 
L 216.046871 124.411584 
L 217.576336 129.297641 
L 220.635267 140.333619 
L 225.223664 158.693973 
L 229.81206 176.888318 
L 232.870991 187.638918 
L 234.400457 192.335876 
L 235.929922 196.4783 
L 237.459388 200.000203 
L 238.988853 202.845485 
L 240.518319 204.968823 
L 242.047784 206.336392 
L 243.57725 206.926409 
L 245.106715 206.729475 
L 246.636181 205.748727 
L 248.165646 203.999788 
L 249.695112 201.510517 
L 251.224577 198.320566 
L 252.754043 194.480749 
L 254.283508 190.052232 
L 255.812974 185.105557 
L 258.871905 173.979922 
L 263.460302 155.573366 
L 266.519233 143.292318 
L 268.048698 143.292318 
L 271.107629 132.256339 
L 272.637095 127.370282 
L 274.16656 123.011677 
L 275.696026 119.249952 
L 277.225491 116.145029 
L 278.754957 113.746367 
L 280.284422 112.092176 
L 281.813888 111.208805 
L 283.343353 111.110325 
L 284.872819 111.798307 
L 286.402284 113.261789 
L 287.93175 115.477461 
L 289.461215 118.410028 
L 290.990681 122.012777 
L 292.520146 126.228318 
L 294.049612 130.9895 
L 297.108543 141.837938 
L 300.167474 153.869612 
L 306.285336 178.40175 
L 309.344267 189.345322 
L 310.873732 194.169542 
L 312.403198 198.45715 
L 313.932663 202.139846 
L 315.462129 205.158967 
L 316.991594 207.466421 
L 318.52106 209.025452 
L 320.050525 209.811226 
L 321.579991 209.811226 
L 323.109456 209.025452 
L 324.638922 207.466421 
L 326.168387 205.158967 
L 327.697853 202.139846 
L 329.227318 198.45715 
L 330.756784 194.169542 
L 332.286249 189.345322 
L 335.34518 178.40175 
L 338.404111 166.32095 
L 344.521974 141.837938 
L 347.580905 130.9895 
L 349.11037 126.228318 
L 350.639836 122.012777 
L 352.169301 118.410028 
L 353.698767 115.477461 
L 355.228232 113.261789 
L 356.757698 111.798307 
L 358.287163 111.110325 
L 359.816629 111.208805 
L 361.346094 112.092176 
L 362.87556 113.746367 
L 364.405025 116.145029 
L 365.934491 119.249952 
L 367.463956 123.011677 
L 368.993422 127.370282 
L 370.522887 132.256339 
L 373.581818 143.292318 
L 373.581818 143.292318 
" style="fill:none;stroke:#7f7f7f;stroke-linecap:square;stroke-width:1.5;"/>
   </g>
   <g id="line2d_25">
    <path clip-path="url(#p0f6d22817b)" d="M 69.218182 143.292318 
L 72.277113 154.417953 
L 73.806578 159.364627 
L 75.336044 163.793145 
L 76.865509 167.632962 
L 78.394975 170.822912 
L 79.92444 173.312184 
L 81.453906 175.061123 
L 82.983371 176.041871 
L 84.512837 176.238805 
L 86.042302 175.648788 
L 87.571768 174.281218 
L 89.101233 172.157881 
L 90.630699 169.312599 
L 92.160164 165.790696 
L 93.68963 161.648272 
L 95.219095 156.951314 
L 96.748561 151.774641 
L 99.807492 140.318321 
L 108.984285 103.945713 
L 110.513751 98.610036 
L 112.043216 93.72398 
L 113.572682 89.365374 
L 115.102147 85.603649 
L 116.631613 82.498726 
L 118.161078 80.100065 
L 119.690544 78.445873 
L 121.220009 77.562502 
L 122.749475 77.464023 
L 124.27894 78.152004 
L 125.808406 79.615487 
L 127.337871 81.831159 
L 128.867337 84.763726 
L 130.396802 88.366474 
L 131.926268 92.582015 
L 133.455733 97.343198 
L 136.514664 108.191635 
L 139.573595 120.223309 
L 145.691457 144.755447 
L 148.750388 155.699019 
L 150.279854 160.52324 
L 151.809319 164.810847 
L 153.338785 168.493543 
L 154.86825 171.512664 
L 156.397716 173.820118 
L 157.927181 175.37915 
L 159.456647 176.164924 
L 160.986112 176.164924 
L 162.515578 175.37915 
L 164.045043 173.820118 
L 165.574509 171.512664 
L 167.103974 168.493543 
L 168.63344 164.810847 
L 170.162905 160.52324 
L 171.692371 155.699019 
L 174.751302 144.755447 
L 177.810233 132.674648 
L 183.928095 108.191635 
L 186.987026 97.343198 
L 188.516492 92.582015 
L 190.045957 88.366474 
L 191.575423 84.763726 
L 193.104888 81.831159 
L 194.634354 79.615487 
L 196.163819 78.152004 
L 197.693285 77.464023 
L 199.22275 77.562502 
L 200.752216 78.445873 
L 202.281681 80.100065 
L 203.811147 82.498726 
L 205.340612 85.603649 
L 206.870078 89.365374 
L 208.399543 93.72398 
L 209.929009 98.610036 
L 212.98794 109.646015 
L 217.576336 128.006369 
L 222.164733 146.200714 
L 225.223664 156.951314 
L 226.753129 161.648272 
L 228.282595 165.790696 
L 229.81206 169.312599 
L 231.341526 172.157881 
L 232.870991 174.281218 
L 234.400457 175.648788 
L 235.929922 176.238805 
L 237.459388 176.041871 
L 238.988853 175.061123 
L 240.518319 173.312184 
L 242.047784 170.822912 
L 243.57725 167.632962 
L 245.106715 163.793145 
L 246.636181 159.364627 
L 248.165646 154.417953 
L 251.224577 143.292318 
L 252.754043 143.292318 
L 261.930836 106.919709 
L 263.460302 101.584033 
L 264.989767 96.697976 
L 266.519233 92.33937 
L 268.048698 88.577645 
L 269.578164 85.472722 
L 271.107629 83.074061 
L 272.637095 81.419869 
L 274.16656 80.536498 
L 275.696026 80.438019 
L 277.225491 81.126 
L 278.754957 82.589483 
L 280.284422 84.805155 
L 281.813888 87.737722 
L 283.343353 91.340471 
L 284.872819 95.556011 
L 286.402284 100.317194 
L 289.461215 111.165632 
L 292.520146 123.197305 
L 298.638008 147.729443 
L 301.696939 158.673015 
L 303.226405 163.497236 
L 304.75587 167.784843 
L 306.285336 171.467539 
L 307.814801 174.48666 
L 309.344267 176.794115 
L 310.873732 178.353146 
L 312.403198 179.13892 
L 313.932663 179.13892 
L 315.462129 178.353146 
L 316.991594 176.794115 
L 318.52106 174.48666 
L 320.050525 171.467539 
L 321.579991 167.784843 
L 323.109456 163.497236 
L 324.638922 158.673015 
L 327.697853 147.729443 
L 330.756784 135.648644 
L 336.874646 111.165632 
L 339.933577 100.317194 
L 341.463042 95.556011 
L 342.992508 91.340471 
L 344.521974 87.737722 
L 346.051439 84.805155 
L 347.580905 82.589483 
L 349.11037 81.126 
L 350.639836 80.438019 
L 352.169301 80.536498 
L 353.698767 81.419869 
L 355.228232 83.074061 
L 356.757698 85.472722 
L 358.287163 88.577645 
L 359.816629 92.33937 
L 361.346094 96.697976 
L 362.87556 101.584033 
L 365.934491 112.620011 
L 370.522887 130.980365 
L 373.581818 143.292318 
L 373.581818 143.292318 
" style="fill:none;stroke:#bcbd22;stroke-linecap:square;stroke-width:1.5;"/>
   </g>
   <g id="line2d_26">
    <path clip-path="url(#p0f6d22817b)" d="M 69.218182 143.292318 
L 70.747647 146.482268 
L 72.277113 148.97154 
L 73.806578 150.720479 
L 75.336044 151.701227 
L 76.865509 151.898161 
L 78.394975 151.308144 
L 79.92444 149.940574 
L 81.453906 147.817237 
L 82.983371 144.971955 
L 84.512837 141.450052 
L 86.042302 137.307628 
L 87.571768 132.61067 
L 89.101233 127.433997 
L 92.160164 115.977677 
L 101.336958 79.605069 
L 102.866423 74.269392 
L 104.395889 69.383336 
L 105.925354 65.02473 
L 107.45482 61.263005 
L 108.984285 58.158082 
L 110.513751 55.759421 
L 112.043216 54.105229 
L 113.572682 53.221858 
L 115.102147 53.123379 
L 116.631613 53.81136 
L 118.161078 55.274843 
L 119.690544 57.490515 
L 121.220009 60.423082 
L 122.749475 64.02583 
L 124.27894 68.241371 
L 125.808406 73.002554 
L 128.867337 83.850991 
L 131.926268 95.882665 
L 138.04413 120.414803 
L 141.103061 131.358375 
L 142.632526 136.182596 
L 144.161992 140.470203 
L 145.691457 144.152899 
L 147.220923 147.17202 
L 148.750388 149.479474 
L 150.279854 151.038506 
L 151.809319 151.82428 
L 153.338785 151.82428 
L 154.86825 151.038506 
L 156.397716 149.479474 
L 157.927181 147.17202 
L 159.456647 144.152899 
L 160.986112 140.470203 
L 162.515578 136.182596 
L 164.045043 131.358375 
L 167.103974 120.414803 
L 170.162905 108.334004 
L 176.280767 83.850991 
L 179.339698 73.002554 
L 180.869164 68.241371 
L 182.39863 64.02583 
L 183.928095 60.423082 
L 185.457561 57.490515 
L 186.987026 55.274843 
L 188.516492 53.81136 
L 190.045957 53.123379 
L 191.575423 53.221858 
L 193.104888 54.105229 
L 194.634354 55.759421 
L 196.163819 58.158082 
L 197.693285 61.263005 
L 199.22275 65.02473 
L 200.752216 69.383336 
L 202.281681 74.269392 
L 205.340612 85.305371 
L 209.929009 103.665725 
L 214.517405 121.86007 
L 217.576336 132.61067 
L 219.105802 137.307628 
L 220.635267 141.450052 
L 222.164733 144.971955 
L 223.694198 147.817237 
L 225.223664 149.940574 
L 226.753129 151.308144 
L 228.282595 151.898161 
L 229.81206 151.701227 
L 231.341526 150.720479 
L 232.870991 148.97154 
L 234.400457 146.482268 
L 235.929922 143.292318 
L 237.459388 143.292318 
L 238.988853 139.149894 
L 240.518319 134.452936 
L 242.047784 129.276263 
L 245.106715 117.819943 
L 254.283508 81.447335 
L 255.812974 76.111658 
L 257.342439 71.225602 
L 258.871905 66.866996 
L 260.40137 63.105271 
L 261.930836 60.000348 
L 263.460302 57.601687 
L 264.989767 55.947495 
L 266.519233 55.064124 
L 268.048698 54.965645 
L 269.578164 55.653626 
L 271.107629 57.117109 
L 272.637095 59.332781 
L 274.16656 62.265348 
L 275.696026 65.868096 
L 277.225491 70.083637 
L 278.754957 74.84482 
L 281.813888 85.693257 
L 284.872819 97.724931 
L 290.990681 122.257069 
L 294.049612 133.200641 
L 295.579077 138.024862 
L 297.108543 142.312469 
L 298.638008 145.995165 
L 300.167474 149.014286 
L 301.696939 151.32174 
L 303.226405 152.880772 
L 304.75587 153.666546 
L 306.285336 153.666546 
L 307.814801 152.880772 
L 309.344267 151.32174 
L 310.873732 149.014286 
L 312.403198 145.995165 
L 313.932663 142.312469 
L 315.462129 138.024862 
L 316.991594 133.200641 
L 320.050525 122.257069 
L 323.109456 110.17627 
L 329.227318 85.693257 
L 332.286249 74.84482 
L 333.815715 70.083637 
L 335.34518 65.868096 
L 336.874646 62.265348 
L 338.404111 59.332781 
L 339.933577 57.117109 
L 341.463042 55.653626 
L 342.992508 54.965645 
L 344.521974 55.064124 
L 346.051439 55.947495 
L 347.580905 57.601687 
L 349.11037 60.000348 
L 350.639836 63.105271 
L 352.169301 66.866996 
L 353.698767 71.225602 
L 355.228232 76.111658 
L 358.287163 87.147637 
L 362.87556 105.507991 
L 367.463956 123.702336 
L 370.522887 134.452936 
L 372.052353 139.149894 
L 373.581818 143.292318 
L 373.581818 143.292318 
" style="fill:none;stroke:#17becf;stroke-linecap:square;stroke-width:1.5;"/>
   </g>
   <g id="line2d_27">
    <path clip-path="url(#p0f6d22817b)" d="M 69.218182 143.292318 
L 70.747647 142.702301 
L 72.277113 141.334731 
L 73.806578 139.211394 
L 75.336044 136.366112 
L 76.865509 132.844208 
L 78.394975 128.701785 
L 79.92444 124.004827 
L 81.453906 118.828154 
L 84.512837 107.371834 
L 93.68963 70.999225 
L 95.219095 65.663549 
L 96.748561 60.777493 
L 98.278026 56.418887 
L 99.807492 52.657162 
L 101.336958 49.552239 
L 102.866423 47.153577 
L 104.395889 45.499386 
L 105.925354 44.616015 
L 107.45482 44.517536 
L 108.984285 45.205517 
L 110.513751 46.669 
L 112.043216 48.884672 
L 113.572682 51.817239 
L 115.102147 55.419987 
L 116.631613 59.635528 
L 118.161078 64.39671 
L 121.220009 75.245148 
L 124.27894 87.276822 
L 130.396802 111.80896 
L 133.455733 122.752532 
L 134.985199 127.576753 
L 136.514664 131.86436 
L 138.04413 135.547056 
L 139.573595 138.566177 
L 141.103061 140.873631 
L 142.632526 142.432663 
L 144.161992 143.218437 
L 145.691457 143.218437 
L 147.220923 142.432663 
L 148.750388 140.873631 
L 150.279854 138.566177 
L 151.809319 135.547056 
L 153.338785 131.86436 
L 154.86825 127.576753 
L 156.397716 122.752532 
L 159.456647 111.80896 
L 162.515578 99.72816 
L 168.63344 75.245148 
L 171.692371 64.39671 
L 173.221836 59.635528 
L 174.751302 55.419987 
L 176.280767 51.817239 
L 177.810233 48.884672 
L 179.339698 46.669 
L 180.869164 45.205517 
L 182.39863 44.517536 
L 183.928095 44.616015 
L 185.457561 45.499386 
L 186.987026 47.153577 
L 188.516492 49.552239 
L 190.045957 52.657162 
L 191.575423 56.418887 
L 193.104888 60.777493 
L 194.634354 65.663549 
L 197.693285 76.699528 
L 202.281681 95.059882 
L 206.870078 113.254227 
L 209.929009 124.004827 
L 211.458474 128.701785 
L 212.98794 132.844208 
L 214.517405 136.366112 
L 216.046871 139.211394 
L 217.576336 141.334731 
L 219.105802 142.702301 
L 220.635267 143.292318 
L 222.164733 143.292318 
L 223.694198 142.702301 
L 225.223664 141.334731 
L 226.753129 139.211394 
L 228.282595 136.366112 
L 229.81206 132.844208 
L 231.341526 128.701785 
L 232.870991 124.004827 
L 234.400457 118.828154 
L 237.459388 107.371834 
L 246.636181 70.999225 
L 248.165646 65.663549 
L 249.695112 60.777493 
L 251.224577 56.418887 
L 252.754043 52.657162 
L 254.283508 49.552239 
L 255.812974 47.153577 
L 257.342439 45.499386 
L 258.871905 44.616015 
L 260.40137 44.517536 
L 261.930836 45.205517 
L 263.460302 46.669 
L 264.989767 48.884672 
L 266.519233 51.817239 
L 268.048698 55.419987 
L 269.578164 59.635528 
L 271.107629 64.39671 
L 274.16656 75.245148 
L 277.225491 87.276822 
L 283.343353 111.80896 
L 286.402284 122.752532 
L 287.93175 127.576753 
L 289.461215 131.86436 
L 290.990681 135.547056 
L 292.520146 138.566177 
L 294.049612 140.873631 
L 295.579077 142.432663 
L 297.108543 143.218437 
L 298.638008 143.218437 
L 300.167474 142.432663 
L 301.696939 140.873631 
L 303.226405 138.566177 
L 304.75587 135.547056 
L 306.285336 131.86436 
L 307.814801 127.576753 
L 309.344267 122.752532 
L 312.403198 111.80896 
L 315.462129 99.72816 
L 321.579991 75.245148 
L 324.638922 64.39671 
L 326.168387 59.635528 
L 327.697853 55.419987 
L 329.227318 51.817239 
L 330.756784 48.884672 
L 332.286249 46.669 
L 333.815715 45.205517 
L 335.34518 44.517536 
L 336.874646 44.616015 
L 338.404111 45.499386 
L 339.933577 47.153577 
L 341.463042 49.552239 
L 342.992508 52.657162 
L 344.521974 56.418887 
L 346.051439 60.777493 
L 347.580905 65.663549 
L 350.639836 76.699528 
L 355.228232 95.059882 
L 359.816629 113.254227 
L 362.87556 124.004827 
L 364.405025 128.701785 
L 365.934491 132.844208 
L 367.463956 136.366112 
L 368.993422 139.211394 
L 370.522887 141.334731 
L 372.052353 142.702301 
L 373.581818 143.292318 
L 373.581818 143.292318 
" style="fill:none;stroke:#1f77b4;stroke-linecap:square;stroke-width:1.5;"/>
   </g>
   <g id="line2d_28">
    <path clip-path="url(#p0f6d22817b)" d="M 69.218182 143.292318 
L 70.747647 139.149894 
L 72.277113 134.452936 
L 73.806578 129.276263 
L 76.865509 117.819943 
L 86.042302 81.447335 
L 87.571768 76.111658 
L 89.101233 71.225602 
L 90.630699 66.866996 
L 92.160164 63.105271 
L 93.68963 60.000348 
L 95.219095 57.601687 
L 96.748561 55.947495 
L 98.278026 55.064124 
L 99.807492 54.965645 
L 101.336958 55.653626 
L 102.866423 57.117109 
L 104.395889 59.332781 
L 105.925354 62.265348 
L 107.45482 65.868096 
L 108.984285 70.083637 
L 110.513751 74.84482 
L 113.572682 85.693257 
L 116.631613 97.724931 
L 122.749475 122.257069 
L 125.808406 133.200641 
L 127.337871 138.024862 
L 128.867337 142.312469 
L 130.396802 145.995165 
L 131.926268 149.014286 
L 133.455733 151.32174 
L 134.985199 152.880772 
L 136.514664 153.666546 
L 138.04413 153.666546 
L 139.573595 152.880772 
L 141.103061 151.32174 
L 142.632526 149.014286 
L 144.161992 145.995165 
L 145.691457 142.312469 
L 147.220923 138.024862 
L 148.750388 133.200641 
L 151.809319 122.257069 
L 154.86825 110.17627 
L 160.986112 85.693257 
L 164.045043 74.84482 
L 165.574509 70.083637 
L 167.103974 65.868096 
L 168.63344 62.265348 
L 170.162905 59.332781 
L 171.692371 57.117109 
L 173.221836 55.653626 
L 174.751302 54.965645 
L 176.280767 55.064124 
L 177.810233 55.947495 
L 179.339698 57.601687 
L 180.869164 60.000348 
L 182.39863 63.105271 
L 183.928095 66.866996 
L 185.457561 71.225602 
L 186.987026 76.111658 
L 190.045957 87.147637 
L 194.634354 105.507991 
L 199.22275 123.702336 
L 202.281681 134.452936 
L 203.811147 139.149894 
L 205.340612 143.292318 
L 206.870078 143.292318 
L 208.399543 146.482268 
L 209.929009 148.97154 
L 211.458474 150.720479 
L 212.98794 151.701227 
L 214.517405 151.898161 
L 216.046871 151.308144 
L 217.576336 149.940574 
L 219.105802 147.817237 
L 220.635267 144.971955 
L 222.164733 141.450052 
L 223.694198 137.307628 
L 225.223664 132.61067 
L 226.753129 127.433997 
L 229.81206 115.977677 
L 238.988853 79.605069 
L 240.518319 74.269392 
L 242.047784 69.383336 
L 243.57725 65.02473 
L 245.106715 61.263005 
L 246.636181 58.158082 
L 248.165646 55.759421 
L 249.695112 54.105229 
L 251.224577 53.221858 
L 252.754043 53.123379 
L 254.283508 53.81136 
L 255.812974 55.274843 
L 257.342439 57.490515 
L 258.871905 60.423082 
L 260.40137 64.02583 
L 261.930836 68.241371 
L 263.460302 73.002554 
L 266.519233 83.850991 
L 269.578164 95.882665 
L 275.696026 120.414803 
L 278.754957 131.358375 
L 280.284422 136.182596 
L 281.813888 140.470203 
L 283.343353 144.152899 
L 284.872819 147.17202 
L 286.402284 149.479474 
L 287.93175 151.038506 
L 289.461215 151.82428 
L 290.990681 151.82428 
L 292.520146 151.038506 
L 294.049612 149.479474 
L 295.579077 147.17202 
L 297.108543 144.152899 
L 298.638008 140.470203 
L 300.167474 136.182596 
L 301.696939 131.358375 
L 304.75587 120.414803 
L 307.814801 108.334004 
L 313.932663 83.850991 
L 316.991594 73.002554 
L 318.52106 68.241371 
L 320.050525 64.02583 
L 321.579991 60.423082 
L 323.109456 57.490515 
L 324.638922 55.274843 
L 326.168387 53.81136 
L 327.697853 53.123379 
L 329.227318 53.221858 
L 330.756784 54.105229 
L 332.286249 55.759421 
L 333.815715 58.158082 
L 335.34518 61.263005 
L 336.874646 65.02473 
L 338.404111 69.383336 
L 339.933577 74.269392 
L 342.992508 85.305371 
L 347.580905 103.665725 
L 352.169301 121.86007 
L 355.228232 132.61067 
L 356.757698 137.307628 
L 358.287163 141.450052 
L 359.816629 144.971955 
L 361.346094 147.817237 
L 362.87556 149.940574 
L 364.405025 151.308144 
L 365.934491 151.898161 
L 367.463956 151.701227 
L 368.993422 150.720479 
L 370.522887 148.97154 
L 372.052353 146.482268 
L 373.581818 143.292318 
L 373.581818 143.292318 
" style="fill:none;stroke:#ff7f0e;stroke-linecap:square;stroke-width:1.5;"/>
   </g>
   <g id="line2d_29">
    <path clip-path="url(#p0f6d22817b)" d="M 69.218182 143.292318 
L 78.394975 106.919709 
L 79.92444 101.584033 
L 81.453906 96.697976 
L 82.983371 92.33937 
L 84.512837 88.577645 
L 86.042302 85.472722 
L 87.571768 83.074061 
L 89.101233 81.419869 
L 90.630699 80.536498 
L 92.160164 80.438019 
L 93.68963 81.126 
L 95.219095 82.589483 
L 96.748561 84.805155 
L 98.278026 87.737722 
L 99.807492 91.340471 
L 101.336958 95.556011 
L 102.866423 100.317194 
L 105.925354 111.165632 
L 108.984285 123.197305 
L 115.102147 147.729443 
L 118.161078 158.673015 
L 119.690544 163.497236 
L 121.220009 167.784843 
L 122.749475 171.467539 
L 124.27894 174.48666 
L 125.808406 176.794115 
L 127.337871 178.353146 
L 128.867337 179.13892 
L 130.396802 179.13892 
L 131.926268 178.353146 
L 133.455733 176.794115 
L 134.985199 174.48666 
L 136.514664 171.467539 
L 138.04413 167.784843 
L 139.573595 163.497236 
L 141.103061 158.673015 
L 144.161992 147.729443 
L 147.220923 135.648644 
L 153.338785 111.165632 
L 156.397716 100.317194 
L 157.927181 95.556011 
L 159.456647 91.340471 
L 160.986112 87.737722 
L 162.515578 84.805155 
L 164.045043 82.589483 
L 165.574509 81.126 
L 167.103974 80.438019 
L 168.63344 80.536498 
L 170.162905 81.419869 
L 171.692371 83.074061 
L 173.221836 85.472722 
L 174.751302 88.577645 
L 176.280767 92.33937 
L 177.810233 96.697976 
L 179.339698 101.584033 
L 182.39863 112.620011 
L 186.987026 130.980365 
L 190.045957 143.292318 
L 191.575423 143.292318 
L 194.634354 154.417953 
L 196.163819 159.364627 
L 197.693285 163.793145 
L 199.22275 167.632962 
L 200.752216 170.822912 
L 202.281681 173.312184 
L 203.811147 175.061123 
L 205.340612 176.041871 
L 206.870078 176.238805 
L 208.399543 175.648788 
L 209.929009 174.281218 
L 211.458474 172.157881 
L 212.98794 169.312599 
L 214.517405 165.790696 
L 216.046871 161.648272 
L 217.576336 156.951314 
L 219.105802 151.774641 
L 222.164733 140.318321 
L 231.341526 103.945713 
L 232.870991 98.610036 
L 234.400457 93.72398 
L 235.929922 89.365374 
L 237.459388 85.603649 
L 238.988853 82.498726 
L 240.518319 80.100065 
L 242.047784 78.445873 
L 243.57725 77.562502 
L 245.106715 77.464023 
L 246.636181 78.152004 
L 248.165646 79.615487 
L 249.695112 81.831159 
L 251.224577 84.763726 
L 252.754043 88.366474 
L 254.283508 92.582015 
L 255.812974 97.343198 
L 258.871905 108.191635 
L 261.930836 120.223309 
L 268.048698 144.755447 
L 271.107629 155.699019 
L 272.637095 160.52324 
L 274.16656 164.810847 
L 275.696026 168.493543 
L 277.225491 171.512664 
L 278.754957 173.820118 
L 280.284422 175.37915 
L 281.813888 176.164924 
L 283.343353 176.164924 
L 284.872819 175.37915 
L 286.402284 173.820118 
L 287.93175 171.512664 
L 289.461215 168.493543 
L 290.990681 164.810847 
L 292.520146 160.52324 
L 294.049612 155.699019 
L 297.108543 144.755447 
L 300.167474 132.674648 
L 306.285336 108.191635 
L 309.344267 97.343198 
L 310.873732 92.582015 
L 312.403198 88.366474 
L 313.932663 84.763726 
L 315.462129 81.831159 
L 316.991594 79.615487 
L 318.52106 78.152004 
L 320.050525 77.464023 
L 321.579991 77.562502 
L 323.109456 78.445873 
L 324.638922 80.100065 
L 326.168387 82.498726 
L 327.697853 85.603649 
L 329.227318 89.365374 
L 330.756784 93.72398 
L 332.286249 98.610036 
L 335.34518 109.646015 
L 339.933577 128.006369 
L 344.521974 146.200714 
L 347.580905 156.951314 
L 349.11037 161.648272 
L 350.639836 165.790696 
L 352.169301 169.312599 
L 353.698767 172.157881 
L 355.228232 174.281218 
L 356.757698 175.648788 
L 358.287163 176.238805 
L 359.816629 176.041871 
L 361.346094 175.061123 
L 362.87556 173.312184 
L 364.405025 170.822912 
L 365.934491 167.632962 
L 367.463956 163.793145 
L 368.993422 159.364627 
L 370.522887 154.417953 
L 373.581818 143.292318 
L 373.581818 143.292318 
" style="fill:none;stroke:#2ca02c;stroke-linecap:square;stroke-width:1.5;"/>
   </g>
   <g id="line2d_30">
    <path clip-path="url(#p0f6d22817b)" d="M 69.218182 143.292318 
L 72.277113 132.256339 
L 73.806578 127.370282 
L 75.336044 123.011677 
L 76.865509 119.249952 
L 78.394975 116.145029 
L 79.92444 113.746367 
L 81.453906 112.092176 
L 82.983371 111.208805 
L 84.512837 111.110325 
L 86.042302 111.798307 
L 87.571768 113.261789 
L 89.101233 115.477461 
L 90.630699 118.410028 
L 92.160164 122.012777 
L 93.68963 126.228318 
L 95.219095 130.9895 
L 98.278026 141.837938 
L 101.336958 153.869612 
L 107.45482 178.40175 
L 110.513751 189.345322 
L 112.043216 194.169542 
L 113.572682 198.45715 
L 115.102147 202.139846 
L 116.631613 205.158967 
L 118.161078 207.466421 
L 119.690544 209.025452 
L 121.220009 209.811226 
L 122.749475 209.811226 
L 124.27894 209.025452 
L 125.808406 207.466421 
L 127.337871 205.158967 
L 128.867337 202.139846 
L 130.396802 198.45715 
L 131.926268 194.169542 
L 133.455733 189.345322 
L 136.514664 178.40175 
L 139.573595 166.32095 
L 145.691457 141.837938 
L 148.750388 130.9895 
L 150.279854 126.228318 
L 151.809319 122.012777 
L 153.338785 118.410028 
L 154.86825 115.477461 
L 156.397716 113.261789 
L 157.927181 111.798307 
L 159.456647 111.110325 
L 160.986112 111.208805 
L 162.515578 112.092176 
L 164.045043 113.746367 
L 165.574509 116.145029 
L 167.103974 119.249952 
L 168.63344 123.011677 
L 170.162905 127.370282 
L 171.692371 132.256339 
L 174.751302 143.292318 
L 176.280767 143.292318 
L 185.457561 179.719522 
L 186.987026 185.105557 
L 188.516492 190.052232 
L 190.045957 194.480749 
L 191.575423 198.320566 
L 193.104888 201.510517 
L 194.634354 203.999788 
L 196.163819 205.748727 
L 197.693285 206.729475 
L 199.22275 206.926409 
L 200.752216 206.336392 
L 202.281681 204.968823 
L 203.811147 202.845485 
L 205.340612 200.000203 
L 206.870078 196.4783 
L 208.399543 192.335876 
L 209.929009 187.638918 
L 211.458474 182.462246 
L 214.517405 171.005926 
L 223.694198 134.633317 
L 225.223664 129.297641 
L 226.753129 124.411584 
L 228.282595 120.052978 
L 229.81206 116.291253 
L 231.341526 113.18633 
L 232.870991 110.787669 
L 234.400457 109.133477 
L 235.929922 108.250106 
L 237.459388 108.151627 
L 238.988853 108.839608 
L 240.518319 110.303091 
L 242.047784 112.518763 
L 243.57725 115.45133 
L 245.106715 119.054079 
L 246.636181 123.269619 
L 248.165646 128.030802 
L 251.224577 138.87924 
L 254.283508 150.910913 
L 260.40137 175.443051 
L 263.460302 186.386623 
L 264.989767 191.210844 
L 266.519233 195.498451 
L 268.048698 199.181147 
L 269.578164 202.200268 
L 271.107629 204.507723 
L 272.637095 206.066754 
L 274.16656 206.852528 
L 275.696026 206.852528 
L 277.225491 206.066754 
L 278.754957 204.507723 
L 280.284422 202.200268 
L 281.813888 199.181147 
L 283.343353 195.498451 
L 284.872819 191.210844 
L 286.402284 186.386623 
L 289.461215 175.443051 
L 292.520146 163.362252 
L 298.638008 138.87924 
L 301.696939 128.030802 
L 303.226405 123.269619 
L 304.75587 119.054079 
L 306.285336 115.45133 
L 307.814801 112.518763 
L 309.344267 110.303091 
L 310.873732 108.839608 
L 312.403198 108.151627 
L 313.932663 108.250106 
L 315.462129 109.133477 
L 316.991594 110.787669 
L 318.52106 113.18633 
L 320.050525 116.291253 
L 321.579991 120.052978 
L 323.109456 124.411584 
L 324.638922 129.297641 
L 327.697853 140.333619 
L 332.286249 158.693973 
L 336.874646 176.888318 
L 339.933577 187.638918 
L 341.463042 192.335876 
L 342.992508 196.4783 
L 344.521974 200.000203 
L 346.051439 202.845485 
L 347.580905 204.968823 
L 349.11037 206.336392 
L 350.639836 206.926409 
L 352.169301 206.729475 
L 353.698767 205.748727 
L 355.228232 203.999788 
L 356.757698 201.510517 
L 358.287163 198.320566 
L 359.816629 194.480749 
L 361.346094 190.052232 
L 362.87556 185.105557 
L 365.934491 173.979922 
L 370.522887 155.573366 
L 373.581818 143.292318 
L 373.581818 143.292318 
" style="fill:none;stroke:#d62728;stroke-linecap:square;stroke-width:1.5;"/>
   </g>
   <g id="line2d_31">
    <path clip-path="url(#p0f6d22817b)" d="M 69.218182 143.292318 
L 70.747647 140.187395 
L 72.277113 137.788733 
L 73.806578 136.134542 
L 75.336044 135.251171 
L 76.865509 135.152691 
L 78.394975 135.840673 
L 79.92444 137.304155 
L 81.453906 139.519827 
L 82.983371 142.452394 
L 84.512837 146.055143 
L 86.042302 150.270684 
L 87.571768 155.031866 
L 90.630699 165.880304 
L 93.68963 177.911977 
L 99.807492 202.444116 
L 102.866423 213.387687 
L 104.395889 218.211908 
L 105.925354 222.499516 
L 107.45482 226.182211 
L 108.984285 229.201333 
L 110.513751 231.508787 
L 112.043216 233.067818 
L 113.572682 233.853592 
L 115.102147 233.853592 
L 116.631613 233.067818 
L 118.161078 231.508787 
L 119.690544 229.201333 
L 121.220009 226.182211 
L 122.749475 222.499516 
L 124.27894 218.211908 
L 125.808406 213.387687 
L 128.867337 202.444116 
L 131.926268 190.363316 
L 138.04413 165.880304 
L 141.103061 155.031866 
L 142.632526 150.270684 
L 144.161992 146.055143 
L 145.691457 142.452394 
L 147.220923 139.519827 
L 148.750388 137.304155 
L 150.279854 135.840673 
L 151.809319 135.152691 
L 153.338785 135.251171 
L 154.86825 136.134542 
L 156.397716 137.788733 
L 157.927181 140.187395 
L 159.456647 143.292318 
L 160.986112 143.292318 
L 162.515578 147.360592 
L 164.045043 151.992154 
L 165.574509 157.113227 
L 168.63344 168.491109 
L 177.810233 204.918313 
L 179.339698 210.304349 
L 180.869164 215.251023 
L 182.39863 219.679541 
L 183.928095 223.519357 
L 185.457561 226.709308 
L 186.987026 229.198579 
L 188.516492 230.947519 
L 190.045957 231.928267 
L 191.575423 232.125201 
L 193.104888 231.535184 
L 194.634354 230.167614 
L 196.163819 228.044277 
L 197.693285 225.198995 
L 199.22275 221.677091 
L 200.752216 217.534668 
L 202.281681 212.83771 
L 203.811147 207.661037 
L 206.870078 196.204717 
L 216.046871 159.832108 
L 217.576336 154.496432 
L 219.105802 149.610376 
L 220.635267 145.25177 
L 222.164733 141.490045 
L 223.694198 138.385122 
L 225.223664 135.98646 
L 226.753129 134.332269 
L 228.282595 133.448898 
L 229.81206 133.350419 
L 231.341526 134.0384 
L 232.870991 135.501883 
L 234.400457 137.717555 
L 235.929922 140.650122 
L 237.459388 144.25287 
L 238.988853 148.468411 
L 240.518319 153.229594 
L 243.57725 164.078031 
L 246.636181 176.109705 
L 252.754043 200.641843 
L 255.812974 211.585415 
L 257.342439 216.409636 
L 258.871905 220.697243 
L 260.40137 224.379939 
L 261.930836 227.39906 
L 263.460302 229.706514 
L 264.989767 231.265546 
L 266.519233 232.05132 
L 268.048698 232.05132 
L 269.578164 231.265546 
L 271.107629 229.706514 
L 272.637095 227.39906 
L 274.16656 224.379939 
L 275.696026 220.697243 
L 277.225491 216.409636 
L 278.754957 211.585415 
L 281.813888 200.641843 
L 284.872819 188.561044 
L 290.990681 164.078031 
L 294.049612 153.229594 
L 295.579077 148.468411 
L 297.108543 144.25287 
L 298.638008 140.650122 
L 300.167474 137.717555 
L 301.696939 135.501883 
L 303.226405 134.0384 
L 304.75587 133.350419 
L 306.285336 133.448898 
L 307.814801 134.332269 
L 309.344267 135.98646 
L 310.873732 138.385122 
L 312.403198 141.490045 
L 313.932663 145.25177 
L 315.462129 149.610376 
L 316.991594 154.496432 
L 320.050525 165.532411 
L 324.638922 183.892765 
L 329.227318 202.08711 
L 332.286249 212.83771 
L 333.815715 217.534668 
L 335.34518 221.677091 
L 336.874646 225.198995 
L 338.404111 228.044277 
L 339.933577 230.167614 
L 341.463042 231.535184 
L 342.992508 232.125201 
L 344.521974 231.928267 
L 346.051439 230.947519 
L 347.580905 229.198579 
L 349.11037 226.709308 
L 350.639836 223.519357 
L 352.169301 219.679541 
L 353.698767 215.251023 
L 355.228232 210.304349 
L 358.287163 199.178713 
L 362.87556 180.772158 
L 365.934491 168.491109 
L 368.993422 157.113227 
L 370.522887 151.992154 
L 372.052353 147.360592 
L 373.581818 143.292318 
L 373.581818 143.292318 
" style="fill:none;stroke:#9467bd;stroke-linecap:square;stroke-width:1.5;"/>
   </g>
   <g id="line2d_32">
    <path clip-path="url(#p0f6d22817b)" d="M 69.218182 143.292318 
L 70.747647 143.980299 
L 72.277113 145.443782 
L 73.806578 147.659453 
L 75.336044 150.59202 
L 76.865509 154.194769 
L 78.394975 158.41031 
L 79.92444 163.171492 
L 82.983371 174.01993 
L 86.042302 186.051604 
L 92.160164 210.583742 
L 95.219095 221.527314 
L 96.748561 226.351534 
L 98.278026 230.639142 
L 99.807492 234.321838 
L 101.336958 237.340959 
L 102.866423 239.648413 
L 104.395889 241.207444 
L 105.925354 241.993219 
L 107.45482 241.993219 
L 108.984285 241.207444 
L 110.513751 239.648413 
L 112.043216 237.340959 
L 113.572682 234.321838 
L 115.102147 230.639142 
L 116.631613 226.351534 
L 118.161078 221.527314 
L 121.220009 210.583742 
L 124.27894 198.502942 
L 130.396802 174.01993 
L 133.455733 163.171492 
L 134.985199 158.41031 
L 136.514664 154.194769 
L 138.04413 150.59202 
L 139.573595 147.659453 
L 141.103061 145.443782 
L 142.632526 143.980299 
L 144.161992 143.292318 
L 145.691457 143.292318 
L 147.220923 143.784223 
L 148.750388 145.055538 
L 150.279854 147.086012 
L 151.809319 149.8433 
L 153.338785 153.283481 
L 154.86825 157.351755 
L 156.397716 161.983317 
L 157.927181 167.10439 
L 160.986112 178.482272 
L 170.162905 214.909476 
L 171.692371 220.295512 
L 173.221836 225.242186 
L 174.751302 229.670704 
L 176.280767 233.510521 
L 177.810233 236.700471 
L 179.339698 239.189743 
L 180.869164 240.938682 
L 182.39863 241.91943 
L 183.928095 242.116364 
L 185.457561 241.526347 
L 186.987026 240.158777 
L 188.516492 238.03544 
L 190.045957 235.190158 
L 191.575423 231.668254 
L 193.104888 227.525831 
L 194.634354 222.828873 
L 196.163819 217.6522 
L 199.22275 206.19588 
L 208.399543 169.823271 
L 209.929009 164.487595 
L 211.458474 159.601539 
L 212.98794 155.242933 
L 214.517405 151.481208 
L 216.046871 148.376285 
L 217.576336 145.977623 
L 219.105802 144.323432 
L 220.635267 143.440061 
L 222.164733 143.341582 
L 223.694198 144.029563 
L 225.223664 145.493046 
L 226.753129 147.708718 
L 228.282595 150.641285 
L 229.81206 154.244033 
L 231.341526 158.459574 
L 232.870991 163.220757 
L 235.929922 174.069194 
L 238.988853 186.100868 
L 245.106715 210.633006 
L 248.165646 221.576578 
L 249.695112 226.400799 
L 251.224577 230.688406 
L 252.754043 234.371102 
L 254.283508 237.390223 
L 255.812974 239.697677 
L 257.342439 241.256709 
L 258.871905 242.042483 
L 260.40137 242.042483 
L 261.930836 241.256709 
L 263.460302 239.697677 
L 264.989767 237.390223 
L 266.519233 234.371102 
L 268.048698 230.688406 
L 269.578164 226.400799 
L 271.107629 221.576578 
L 274.16656 210.633006 
L 277.225491 198.552207 
L 283.343353 174.069194 
L 286.402284 163.220757 
L 287.93175 158.459574 
L 289.461215 154.244033 
L 290.990681 150.641285 
L 292.520146 147.708718 
L 294.049612 145.493046 
L 295.579077 144.029563 
L 297.108543 143.341582 
L 298.638008 143.440061 
L 300.167474 144.323432 
L 301.696939 145.977623 
L 303.226405 148.376285 
L 304.75587 151.481208 
L 306.285336 155.242933 
L 307.814801 159.601539 
L 309.344267 164.487595 
L 312.403198 175.523574 
L 316.991594 193.883928 
L 321.579991 212.078273 
L 324.638922 222.828873 
L 326.168387 227.525831 
L 327.697853 231.668254 
L 329.227318 235.190158 
L 330.756784 238.03544 
L 332.286249 240.158777 
L 333.815715 241.526347 
L 335.34518 242.116364 
L 336.874646 241.91943 
L 338.404111 240.938682 
L 339.933577 239.189743 
L 341.463042 236.700471 
L 342.992508 233.510521 
L 344.521974 229.670704 
L 346.051439 225.242186 
L 347.580905 220.295512 
L 350.639836 209.169877 
L 355.228232 190.763321 
L 358.287163 178.482272 
L 361.346094 167.10439 
L 362.87556 161.983317 
L 364.405025 157.351755 
L 365.934491 153.283481 
L 367.463956 149.8433 
L 368.993422 147.086012 
L 370.522887 145.055538 
L 372.052353 143.784223 
L 373.581818 143.292318 
L 373.581818 143.292318 
" style="fill:none;stroke:#8c564b;stroke-linecap:square;stroke-width:1.5;"/>
   </g>
   <g id="line2d_33">
    <path clip-path="url(#p0f6d22817b)" d="M 69.218182 143.292318 
L 70.747647 147.507858 
L 72.277113 152.269041 
L 75.336044 163.117479 
L 78.394975 175.149152 
L 84.512837 199.68129 
L 87.571768 210.624862 
L 89.101233 215.449083 
L 90.630699 219.736691 
L 92.160164 223.419386 
L 93.68963 226.438507 
L 95.219095 228.745962 
L 96.748561 230.304993 
L 98.278026 231.090767 
L 99.807492 231.090767 
L 101.336958 230.304993 
L 102.866423 228.745962 
L 104.395889 226.438507 
L 105.925354 223.419386 
L 107.45482 219.736691 
L 108.984285 215.449083 
L 110.513751 210.624862 
L 113.572682 199.68129 
L 116.631613 187.600491 
L 122.749475 163.117479 
L 125.808406 152.269041 
L 127.337871 147.507858 
L 128.867337 143.292318 
L 130.396802 143.292318 
L 131.926268 140.018134 
L 133.455733 137.438874 
L 134.985199 135.595622 
L 136.514664 134.517742 
L 138.04413 134.222402 
L 139.573595 134.714308 
L 141.103061 135.985623 
L 142.632526 138.016097 
L 144.161992 140.773385 
L 145.691457 144.213565 
L 147.220923 148.281839 
L 148.750388 152.913402 
L 150.279854 158.034475 
L 153.338785 169.412357 
L 162.515578 205.839561 
L 164.045043 211.225596 
L 165.574509 216.172271 
L 167.103974 220.600788 
L 168.63344 224.440605 
L 170.162905 227.630556 
L 171.692371 230.119827 
L 173.221836 231.868767 
L 174.751302 232.849514 
L 176.280767 233.046448 
L 177.810233 232.456431 
L 179.339698 231.088862 
L 180.869164 228.965525 
L 182.39863 226.120243 
L 183.928095 222.598339 
L 185.457561 218.455916 
L 186.987026 213.758958 
L 188.516492 208.582285 
L 191.575423 197.125965 
L 200.752216 160.753356 
L 202.281681 155.41768 
L 203.811147 150.531623 
L 205.340612 146.173018 
L 206.870078 142.411293 
L 208.399543 139.30637 
L 209.929009 136.907708 
L 211.458474 135.253517 
L 212.98794 134.370146 
L 214.517405 134.271667 
L 216.046871 134.959648 
L 217.576336 136.42313 
L 219.105802 138.638802 
L 220.635267 141.571369 
L 222.164733 145.174118 
L 223.694198 149.389659 
L 225.223664 154.150841 
L 228.282595 164.999279 
L 231.341526 177.030953 
L 237.459388 201.563091 
L 240.518319 212.506663 
L 242.047784 217.330883 
L 243.57725 221.618491 
L 245.106715 225.301187 
L 246.636181 228.320308 
L 248.165646 230.627762 
L 249.695112 232.186793 
L 251.224577 232.972568 
L 252.754043 232.972568 
L 254.283508 232.186793 
L 255.812974 230.627762 
L 257.342439 228.320308 
L 258.871905 225.301187 
L 260.40137 221.618491 
L 261.930836 217.330883 
L 263.460302 212.506663 
L 266.519233 201.563091 
L 269.578164 189.482291 
L 275.696026 164.999279 
L 278.754957 154.150841 
L 280.284422 149.389659 
L 281.813888 145.174118 
L 283.343353 141.571369 
L 284.872819 138.638802 
L 286.402284 136.42313 
L 287.93175 134.959648 
L 289.461215 134.271667 
L 290.990681 134.370146 
L 292.520146 135.253517 
L 294.049612 136.907708 
L 295.579077 139.30637 
L 297.108543 142.411293 
L 298.638008 146.173018 
L 300.167474 150.531623 
L 301.696939 155.41768 
L 304.75587 166.453659 
L 309.344267 184.814012 
L 313.932663 203.008358 
L 316.991594 213.758958 
L 318.52106 218.455916 
L 320.050525 222.598339 
L 321.579991 226.120243 
L 323.109456 228.965525 
L 324.638922 231.088862 
L 326.168387 232.456431 
L 327.697853 233.046448 
L 329.227318 232.849514 
L 330.756784 231.868767 
L 332.286249 230.119827 
L 333.815715 227.630556 
L 335.34518 224.440605 
L 336.874646 220.600788 
L 338.404111 216.172271 
L 339.933577 211.225596 
L 342.992508 200.099961 
L 347.580905 181.693406 
L 350.639836 169.412357 
L 353.698767 158.034475 
L 355.228232 152.913402 
L 356.757698 148.281839 
L 358.287163 144.213565 
L 359.816629 140.773385 
L 361.346094 138.016097 
L 362.87556 135.985623 
L 364.405025 134.714308 
L 365.934491 134.222402 
L 367.463956 134.517742 
L 368.993422 135.595622 
L 370.522887 137.438874 
L 372.052353 140.018134 
L 373.581818 143.292318 
L 373.581818 143.292318 
" style="fill:none;stroke:#e377c2;stroke-linecap:square;stroke-width:1.5;"/>
   </g>
   <g id="line2d_34">
    <path clip-path="url(#p0f6d22817b)" d="M 69.218182 143.292318 
L 78.394975 179.601266 
L 79.92444 184.885254 
L 81.453906 189.709475 
L 82.983371 193.997082 
L 84.512837 197.679778 
L 86.042302 200.698899 
L 87.571768 203.006353 
L 89.101233 204.565384 
L 90.630699 205.351159 
L 92.160164 205.351159 
L 93.68963 204.565384 
L 95.219095 203.006353 
L 96.748561 200.698899 
L 98.278026 197.679778 
L 99.807492 193.997082 
L 101.336958 189.709475 
L 102.866423 184.885254 
L 105.925354 173.941682 
L 108.984285 161.860882 
L 113.572682 143.292318 
L 115.102147 143.292318 
L 118.161078 132.079799 
L 119.690544 127.073739 
L 121.220009 122.576413 
L 122.749475 118.659462 
L 124.27894 115.385278 
L 125.808406 112.806018 
L 127.337871 110.962766 
L 128.867337 109.884886 
L 130.396802 109.589546 
L 131.926268 110.081452 
L 133.455733 111.352767 
L 134.985199 113.383241 
L 136.514664 116.140529 
L 138.04413 119.580709 
L 139.573595 123.648983 
L 141.103061 128.280546 
L 142.632526 133.401619 
L 145.691457 144.779501 
L 154.86825 181.206705 
L 156.397716 186.59274 
L 157.927181 191.539415 
L 159.456647 195.967932 
L 160.986112 199.807749 
L 162.515578 202.9977 
L 164.045043 205.486971 
L 165.574509 207.235911 
L 167.103974 208.216658 
L 168.63344 208.413592 
L 170.162905 207.823576 
L 171.692371 206.456006 
L 173.221836 204.332669 
L 174.751302 201.487387 
L 176.280767 197.965483 
L 177.810233 193.82306 
L 179.339698 189.126102 
L 180.869164 183.949429 
L 183.928095 172.493109 
L 193.104888 136.1205 
L 194.634354 130.784824 
L 196.163819 125.898767 
L 197.693285 121.540162 
L 199.22275 117.778437 
L 200.752216 114.673514 
L 202.281681 112.274852 
L 203.811147 110.620661 
L 205.340612 109.73729 
L 206.870078 109.638811 
L 208.399543 110.326792 
L 209.929009 111.790274 
L 211.458474 114.005946 
L 212.98794 116.938513 
L 214.517405 120.541262 
L 216.046871 124.756803 
L 217.576336 129.517985 
L 220.635267 140.366423 
L 223.694198 152.398097 
L 229.81206 176.930235 
L 232.870991 187.873807 
L 234.400457 192.698027 
L 235.929922 196.985635 
L 237.459388 200.668331 
L 238.988853 203.687452 
L 240.518319 205.994906 
L 242.047784 207.553937 
L 243.57725 208.339712 
L 245.106715 208.339712 
L 246.636181 207.553937 
L 248.165646 205.994906 
L 249.695112 203.687452 
L 251.224577 200.668331 
L 252.754043 196.985635 
L 254.283508 192.698027 
L 255.812974 187.873807 
L 258.871905 176.930235 
L 261.930836 164.849435 
L 268.048698 140.366423 
L 271.107629 129.517985 
L 272.637095 124.756803 
L 274.16656 120.541262 
L 275.696026 116.938513 
L 277.225491 114.005946 
L 278.754957 111.790274 
L 280.284422 110.326792 
L 281.813888 109.638811 
L 283.343353 109.73729 
L 284.872819 110.620661 
L 286.402284 112.274852 
L 287.93175 114.673514 
L 289.461215 117.778437 
L 290.990681 121.540162 
L 292.520146 125.898767 
L 294.049612 130.784824 
L 297.108543 141.820803 
L 301.696939 160.181156 
L 306.285336 178.375502 
L 309.344267 189.126102 
L 310.873732 193.82306 
L 312.403198 197.965483 
L 313.932663 201.487387 
L 315.462129 204.332669 
L 316.991594 206.456006 
L 318.52106 207.823576 
L 320.050525 208.413592 
L 321.579991 208.216658 
L 323.109456 207.235911 
L 324.638922 205.486971 
L 326.168387 202.9977 
L 327.697853 199.807749 
L 329.227318 195.967932 
L 330.756784 191.539415 
L 332.286249 186.59274 
L 335.34518 175.467105 
L 339.933577 157.06055 
L 342.992508 144.779501 
L 346.051439 133.401619 
L 347.580905 128.280546 
L 349.11037 123.648983 
L 350.639836 119.580709 
L 352.169301 116.140529 
L 353.698767 113.383241 
L 355.228232 111.352767 
L 356.757698 110.081452 
L 358.287163 109.589546 
L 359.816629 109.884886 
L 361.346094 110.962766 
L 362.87556 112.806018 
L 364.405025 115.385278 
L 365.934491 118.659462 
L 367.463956 122.576413 
L 368.993422 127.073739 
L 370.522887 132.079799 
L 373.581818 143.292318 
L 373.581818 143.292318 
" style="fill:none;stroke:#7f7f7f;stroke-linecap:square;stroke-width:1.5;"/>
   </g>
   <g id="line2d_35">
    <path clip-path="url(#p0f6d22817b)" d="M 69.218182 143.292318 
L 72.277113 154.235889 
L 73.806578 159.06011 
L 75.336044 163.347718 
L 76.865509 167.030413 
L 78.394975 170.049535 
L 79.92444 172.356989 
L 81.453906 173.91602 
L 82.983371 174.701794 
L 84.512837 174.701794 
L 86.042302 173.91602 
L 87.571768 172.356989 
L 89.101233 170.049535 
L 90.630699 167.030413 
L 92.160164 163.347718 
L 93.68963 159.06011 
L 95.219095 154.235889 
L 98.278026 143.292318 
L 99.807492 143.292318 
L 104.395889 124.807131 
L 107.45482 112.597063 
L 110.513751 101.384545 
L 112.043216 96.378485 
L 113.572682 91.881159 
L 115.102147 87.964207 
L 116.631613 84.690024 
L 118.161078 82.110763 
L 119.690544 80.267512 
L 121.220009 79.189632 
L 122.749475 78.894292 
L 124.27894 79.386198 
L 125.808406 80.657513 
L 127.337871 82.687986 
L 128.867337 85.445274 
L 130.396802 88.885455 
L 131.926268 92.953729 
L 133.455733 97.585292 
L 134.985199 102.706365 
L 138.04413 114.084247 
L 147.220923 150.511451 
L 148.750388 155.897486 
L 150.279854 160.844161 
L 151.809319 165.272678 
L 153.338785 169.112495 
L 154.86825 172.302446 
L 156.397716 174.791717 
L 157.927181 176.540656 
L 159.456647 177.521404 
L 160.986112 177.718338 
L 162.515578 177.128321 
L 164.045043 175.760752 
L 165.574509 173.637415 
L 167.103974 170.792133 
L 168.63344 167.270229 
L 170.162905 163.127806 
L 171.692371 158.430848 
L 173.221836 153.254175 
L 176.280767 141.797855 
L 185.457561 105.425246 
L 186.987026 100.08957 
L 188.516492 95.203513 
L 190.045957 90.844908 
L 191.575423 87.083183 
L 193.104888 83.97826 
L 194.634354 81.579598 
L 196.163819 79.925407 
L 197.693285 79.042036 
L 199.22275 78.943556 
L 200.752216 79.631538 
L 202.281681 81.09502 
L 203.811147 83.310692 
L 205.340612 86.243259 
L 206.870078 89.846008 
L 208.399543 94.061549 
L 209.929009 98.822731 
L 212.98794 109.671169 
L 216.046871 121.702843 
L 222.164733 146.234981 
L 225.223664 157.178553 
L 226.753129 162.002773 
L 228.282595 166.290381 
L 229.81206 169.973076 
L 231.341526 172.992198 
L 232.870991 175.299652 
L 234.400457 176.858683 
L 235.929922 177.644457 
L 237.459388 177.644457 
L 238.988853 176.858683 
L 240.518319 175.299652 
L 242.047784 172.992198 
L 243.57725 169.973076 
L 245.106715 166.290381 
L 246.636181 162.002773 
L 248.165646 157.178553 
L 251.224577 146.234981 
L 254.283508 134.154181 
L 260.40137 109.671169 
L 263.460302 98.822731 
L 264.989767 94.061549 
L 266.519233 89.846008 
L 268.048698 86.243259 
L 269.578164 83.310692 
L 271.107629 81.09502 
L 272.637095 79.631538 
L 274.16656 78.943556 
L 275.696026 79.042036 
L 277.225491 79.925407 
L 278.754957 81.579598 
L 280.284422 83.97826 
L 281.813888 87.083183 
L 283.343353 90.844908 
L 284.872819 95.203513 
L 286.402284 100.08957 
L 289.461215 111.125548 
L 294.049612 129.485902 
L 298.638008 147.680248 
L 301.696939 158.430848 
L 303.226405 163.127806 
L 304.75587 167.270229 
L 306.285336 170.792133 
L 307.814801 173.637415 
L 309.344267 175.760752 
L 310.873732 177.128321 
L 312.403198 177.718338 
L 313.932663 177.521404 
L 315.462129 176.540656 
L 316.991594 174.791717 
L 318.52106 172.302446 
L 320.050525 169.112495 
L 321.579991 165.272678 
L 323.109456 160.844161 
L 324.638922 155.897486 
L 327.697853 144.771851 
L 332.286249 126.365296 
L 335.34518 114.084247 
L 338.404111 102.706365 
L 339.933577 97.585292 
L 341.463042 92.953729 
L 342.992508 88.885455 
L 344.521974 85.445274 
L 346.051439 82.687986 
L 347.580905 80.657513 
L 349.11037 79.386198 
L 350.639836 78.894292 
L 352.169301 79.189632 
L 353.698767 80.267512 
L 355.228232 82.110763 
L 356.757698 84.690024 
L 358.287163 87.964207 
L 359.816629 91.881159 
L 361.346094 96.378485 
L 362.87556 101.384545 
L 365.934491 112.597063 
L 370.522887 131.045233 
L 373.581818 143.292318 
L 373.581818 143.292318 
" style="fill:none;stroke:#bcbd22;stroke-linecap:square;stroke-width:1.5;"/>
   </g>
   <g id="line2d_36">
    <path clip-path="url(#p0f6d22817b)" d="M 69.218182 143.292318 
L 70.747647 146.311439 
L 72.277113 148.618893 
L 73.806578 150.177924 
L 75.336044 150.963698 
L 76.865509 150.963698 
L 78.394975 150.177924 
L 79.92444 148.618893 
L 81.453906 146.311439 
L 82.983371 143.292318 
L 84.512837 143.292318 
L 86.042302 139.299207 
L 87.571768 134.734194 
L 89.101233 129.669997 
L 92.160164 118.373389 
L 96.748561 99.888202 
L 99.807492 87.678134 
L 102.866423 76.465616 
L 104.395889 71.459556 
L 105.925354 66.96223 
L 107.45482 63.045278 
L 108.984285 59.771095 
L 110.513751 57.191834 
L 112.043216 55.348583 
L 113.572682 54.270703 
L 115.102147 53.975363 
L 116.631613 54.467269 
L 118.161078 55.738584 
L 119.690544 57.769058 
L 121.220009 60.526345 
L 122.749475 63.966526 
L 124.27894 68.0348 
L 125.808406 72.666363 
L 127.337871 77.787436 
L 130.396802 89.165318 
L 139.573595 125.592522 
L 141.103061 130.978557 
L 142.632526 135.925232 
L 144.161992 140.353749 
L 145.691457 144.193566 
L 147.220923 147.383517 
L 148.750388 149.872788 
L 150.279854 151.621727 
L 151.809319 152.602475 
L 153.338785 152.799409 
L 154.86825 152.209392 
L 156.397716 150.841823 
L 157.927181 148.718486 
L 159.456647 145.873204 
L 160.986112 142.3513 
L 162.515578 138.208877 
L 164.045043 133.511919 
L 165.574509 128.335246 
L 168.63344 116.878926 
L 177.810233 80.506317 
L 179.339698 75.170641 
L 180.869164 70.284584 
L 182.39863 65.925979 
L 183.928095 62.164254 
L 185.457561 59.059331 
L 186.987026 56.660669 
L 188.516492 55.006478 
L 190.045957 54.123107 
L 191.575423 54.024627 
L 193.104888 54.712609 
L 194.634354 56.176091 
L 196.163819 58.391763 
L 197.693285 61.32433 
L 199.22275 64.927079 
L 200.752216 69.14262 
L 202.281681 73.903802 
L 205.340612 84.75224 
L 208.399543 96.783914 
L 214.517405 121.316052 
L 217.576336 132.259624 
L 219.105802 137.083844 
L 220.635267 141.371452 
L 222.164733 145.054147 
L 223.694198 148.073269 
L 225.223664 150.380723 
L 226.753129 151.939754 
L 228.282595 152.725528 
L 229.81206 152.725528 
L 231.341526 151.939754 
L 232.870991 150.380723 
L 234.400457 148.073269 
L 235.929922 145.054147 
L 237.459388 141.371452 
L 238.988853 137.083844 
L 240.518319 132.259624 
L 243.57725 121.316052 
L 246.636181 109.235252 
L 252.754043 84.75224 
L 255.812974 73.903802 
L 257.342439 69.14262 
L 258.871905 64.927079 
L 260.40137 61.32433 
L 261.930836 58.391763 
L 263.460302 56.176091 
L 264.989767 54.712609 
L 266.519233 54.024627 
L 268.048698 54.123107 
L 269.578164 55.006478 
L 271.107629 56.660669 
L 272.637095 59.059331 
L 274.16656 62.164254 
L 275.696026 65.925979 
L 277.225491 70.284584 
L 278.754957 75.170641 
L 281.813888 86.20662 
L 286.402284 104.566973 
L 290.990681 122.761319 
L 294.049612 133.511919 
L 295.579077 138.208877 
L 297.108543 142.3513 
L 298.638008 145.873204 
L 300.167474 148.718486 
L 301.696939 150.841823 
L 303.226405 152.209392 
L 304.75587 152.799409 
L 306.285336 152.602475 
L 307.814801 151.621727 
L 309.344267 149.872788 
L 310.873732 147.383517 
L 312.403198 144.193566 
L 313.932663 140.353749 
L 315.462129 135.925232 
L 316.991594 130.978557 
L 320.050525 119.852922 
L 324.638922 101.446367 
L 327.697853 89.165318 
L 330.756784 77.787436 
L 332.286249 72.666363 
L 333.815715 68.0348 
L 335.34518 63.966526 
L 336.874646 60.526345 
L 338.404111 57.769058 
L 339.933577 55.738584 
L 341.463042 54.467269 
L 342.992508 53.975363 
L 344.521974 54.270703 
L 346.051439 55.348583 
L 347.580905 57.191834 
L 349.11037 59.771095 
L 350.639836 63.045278 
L 352.169301 66.96223 
L 353.698767 71.459556 
L 355.228232 76.465616 
L 358.287163 87.678134 
L 362.87556 106.126304 
L 365.934491 118.373389 
L 368.993422 129.669997 
L 370.522887 134.734194 
L 372.052353 139.299207 
L 373.581818 143.292318 
L 373.581818 143.292318 
" style="fill:none;stroke:#17becf;stroke-linecap:square;stroke-width:1.5;"/>
   </g>
   <g id="patch_3">
    <path d="M 54 252 
L 54 34.56 
" style="fill:none;stroke:#000000;stroke-linecap:square;stroke-linejoin:miter;stroke-width:0.8;"/>
   </g>
   <g id="patch_4">
    <path d="M 388.8 252 
L 388.8 34.56 
" style="fill:none;stroke:#000000;stroke-linecap:square;stroke-linejoin:miter;stroke-width:0.8;"/>
   </g>
   <g id="patch_5">
    <path d="M 54 252 
L 388.8 252 
" style="fill:none;stroke:#000000;stroke-linecap:square;stroke-linejoin:miter;stroke-width:0.8;"/>
   </g>
   <g id="patch_6">
    <path d="M 54 34.56 
L 388.8 34.56 
" style="fill:none;stroke:#000000;stroke-linecap:square;stroke-linejoin:miter;stroke-width:0.8;"/>
   </g>
  </g>
 </g>
 <defs>
  <clipPath id="p0f6d22817b">
   <rect height="217.44" width="334.8" x="54" y="34.56"/>
  </clipPath>
 </defs>
</svg>
