<?xml version="1.0" encoding="UTF-8" standalone="no"?>
<svg
   xmlns:dc="http://purl.org/dc/elements/1.1/"
   xmlns:cc="http://creativecommons.org/ns#"
   xmlns:rdf="http://www.w3.org/1999/02/22-rdf-syntax-ns#"
   xmlns:svg="http://www.w3.org/2000/svg"
   xmlns="http://www.w3.org/2000/svg"
   xmlns:sodipodi="http://sodipodi.sourceforge.net/DTD/sodipodi-0.dtd"
   xmlns:inkscape="http://www.inkscape.org/namespaces/inkscape"
   version="1.1"
   id="Capa_1"
   x="0px"
   y="0px"
   viewBox="0 0 24.912 24.912"
   style="enable-background:new 0 0 24.912 24.912;"
   xml:space="preserve"
   sodipodi:docname="icon-rss.svg"
   inkscape:version="1.0.2 (e86c8708, 2021-01-15)"><metadata
   id="metadata906"><rdf:RDF><cc:Work
       rdf:about=""><dc:format>image/svg+xml</dc:format><dc:type
         rdf:resource="http://purl.org/dc/dcmitype/StillImage" /></cc:Work></rdf:RDF></metadata><defs
   id="defs904" /><sodipodi:namedview
   pagecolor="#ffffff"
   bordercolor="#666666"
   borderopacity="1"
   objecttolerance="10"
   gridtolerance="10"
   guidetolerance="10"
   inkscape:pageopacity="0"
   inkscape:pageshadow="2"
   inkscape:window-width="1280"
   inkscape:window-height="755"
   id="namedview902"
   showgrid="false"
   inkscape:zoom="22.840398"
   inkscape:cx="11.755487"
   inkscape:cy="11.230102"
   inkscape:window-x="0"
   inkscape:window-y="23"
   inkscape:window-maximized="0"
   inkscape:current-layer="Capa_1" />
<g
   id="g869"
   transform="matrix(0.85237258,0,0,0.85237258,2,1.9906239)">
	<path
   fill="#828282"
   d="M 3.692,17.517 C 1.656,17.517 0,19.173 0,21.211 0,23.244 1.656,24.9 3.692,24.9 5.728,24.9 7.386,23.243 7.386,21.211 7.387,19.173 5.729,17.517 3.692,17.517 Z"
   id="path833" />
	<path
   fill="#828282"
   d="M 0.384,8.142 C 0.173,8.142 0,8.315 0,8.527 v 4.688 c 0,0.211 0.173,0.383 0.384,0.383 6.02,0 10.919,4.898 10.919,10.92 0,0.209 0.171,0.383 0.384,0.383 h 4.689 0.016 c 0.215,0 0.387,-0.173 0.387,-0.383 L 16.761,24.397 C 16.692,15.423 9.37,8.142 0.384,8.142 Z"
   id="path835" />
	<path
   fill="#828282"
   d="M 24.89,24.397 C 24.825,10.936 13.854,0.011 0.384,0.011 0.173,0.011 0,0.183 0,0.397 v 4.824 c 0,0.212 0.173,0.383 0.384,0.383 10.429,0 18.913,8.486 18.913,18.914 0,0.209 0.172,0.383 0.382,0.383 h 4.825 0.02 c 0.21,0 0.388,-0.173 0.388,-0.383 z"
   id="path837" />
	<g
   id="g839">
	</g>
	<g
   id="g841">
	</g>
	<g
   id="g843">
	</g>
	<g
   id="g845">
	</g>
	<g
   id="g847">
	</g>
	<g
   id="g849">
	</g>
	<g
   id="g851">
	</g>
	<g
   id="g853">
	</g>
	<g
   id="g855">
	</g>
	<g
   id="g857">
	</g>
	<g
   id="g859">
	</g>
	<g
   id="g861">
	</g>
	<g
   id="g863">
	</g>
	<g
   id="g865">
	</g>
	<g
   id="g867">
	</g>
</g>
<g
   id="g871">
</g>
<g
   id="g873">
</g>
<g
   id="g875">
</g>
<g
   id="g877">
</g>
<g
   id="g879">
</g>
<g
   id="g881">
</g>
<g
   id="g883">
</g>
<g
   id="g885">
</g>
<g
   id="g887">
</g>
<g
   id="g889">
</g>
<g
   id="g891">
</g>
<g
   id="g893">
</g>
<g
   id="g895">
</g>
<g
   id="g897">
</g>
<g
   id="g899">
</g>
</svg>
